G04 #@! TF.FileFunction,Copper,L2,Bot,Signal*
%FSLAX46Y46*%
G04 Gerber Fmt 4.6, Leading zero omitted, Abs format (unit mm)*
G04 Created by KiCad (PCBNEW 4.0.6-e0-6349~53~ubuntu16.04.1) date Mon Aug 21 02:22:22 2017*
%MOMM*%
%LPD*%
G01*
G04 APERTURE LIST*
%ADD10C,0.100000*%
%ADD11O,1.800000X2.600000*%
%ADD12C,3.500000*%
%ADD13C,2.000000*%
%ADD14R,2.000000X2.000000*%
%ADD15R,1.600000X1.600000*%
%ADD16C,1.600000*%
%ADD17R,1.800000X1.800000*%
%ADD18C,1.800000*%
%ADD19C,2.350000*%
%ADD20R,1.700000X1.700000*%
%ADD21O,1.700000X1.700000*%
%ADD22R,3.000000X3.000000*%
%ADD23C,3.000000*%
%ADD24O,3.010000X1.510000*%
%ADD25O,1.600000X1.600000*%
%ADD26C,2.500000*%
%ADD27O,1.800000X1.800000*%
%ADD28C,1.500000*%
%ADD29C,1.320800*%
%ADD30C,0.762000*%
%ADD31C,0.304800*%
%ADD32C,1.270000*%
%ADD33C,2.032000*%
%ADD34C,2.540000*%
%ADD35C,0.508000*%
G04 APERTURE END LIST*
D10*
X105664000Y-40894000D02*
X105664000Y-129921000D01*
X106934000Y-40894000D02*
X105664000Y-40894000D01*
X188595000Y-40894000D02*
X188595000Y-129921000D01*
X106934000Y-129921000D02*
X105664000Y-129921000D01*
X188595000Y-40894000D02*
X106934000Y-40894000D01*
X106934000Y-129921000D02*
X188595000Y-129921000D01*
D11*
X178650000Y-51675000D03*
X176110000Y-51675000D03*
X173570000Y-51675000D03*
X171030000Y-51675000D03*
X168490000Y-51675000D03*
X165950000Y-51675000D03*
X163410000Y-51675000D03*
X160870000Y-51675000D03*
X158330000Y-51675000D03*
X155790000Y-51675000D03*
X153250000Y-51675000D03*
X150710000Y-51675000D03*
X148170000Y-51675000D03*
X145630000Y-51675000D03*
X143090000Y-51675000D03*
X140550000Y-51675000D03*
D12*
X184150000Y-83185000D03*
X184150000Y-52185000D03*
X109050000Y-52185000D03*
X109050000Y-83205320D03*
D13*
X135178000Y-88900000D03*
D14*
X128778000Y-88900000D03*
D13*
X136398000Y-88900000D03*
D14*
X114427000Y-92075000D03*
D13*
X109427000Y-92075000D03*
D15*
X120650000Y-67437000D03*
D16*
X120650000Y-69937000D03*
D13*
X155321000Y-115951000D03*
X155321000Y-125951000D03*
X127127000Y-115951000D03*
X127127000Y-125951000D03*
D17*
X142494000Y-92202000D03*
D18*
X142494000Y-89662000D03*
D17*
X162306000Y-92202000D03*
D18*
X162306000Y-89662000D03*
D19*
X121666000Y-93552000D03*
X121666000Y-98632000D03*
X121666000Y-83312000D03*
X121666000Y-78232000D03*
X124206000Y-96092000D03*
X119126000Y-96092000D03*
X124206000Y-80772000D03*
X119126000Y-80772000D03*
D20*
X184785000Y-106807000D03*
D21*
X184785000Y-104267000D03*
X184785000Y-101727000D03*
X184785000Y-99187000D03*
X184785000Y-96647000D03*
X184785000Y-94107000D03*
X184785000Y-91567000D03*
X184785000Y-89027000D03*
D20*
X131064000Y-65913000D03*
D21*
X133604000Y-65913000D03*
X131064000Y-68453000D03*
X133604000Y-68453000D03*
X131064000Y-70993000D03*
X133604000Y-70993000D03*
D22*
X110617000Y-106172000D03*
D23*
X110617000Y-101092000D03*
D24*
X184658000Y-113030000D03*
X184658000Y-110490000D03*
X182753000Y-61595000D03*
X182753000Y-59055000D03*
X182753000Y-56515000D03*
X182753000Y-69850000D03*
X182753000Y-67310000D03*
X182753000Y-64770000D03*
X182753000Y-78105000D03*
X182753000Y-75565000D03*
X182753000Y-73025000D03*
D20*
X116078000Y-49022000D03*
D21*
X116078000Y-51562000D03*
X116078000Y-54102000D03*
X116078000Y-56642000D03*
X116078000Y-59182000D03*
D20*
X121158000Y-49022000D03*
D21*
X121158000Y-51562000D03*
X121158000Y-54102000D03*
X121158000Y-56642000D03*
X121158000Y-59182000D03*
D20*
X126492000Y-49022000D03*
D21*
X126492000Y-51562000D03*
X126492000Y-54102000D03*
X126492000Y-56642000D03*
X126492000Y-59182000D03*
D22*
X175641000Y-125984000D03*
D23*
X170561000Y-125984000D03*
X165481000Y-125984000D03*
D22*
X147828000Y-125984000D03*
D23*
X142748000Y-125984000D03*
X137668000Y-125984000D03*
D16*
X171831000Y-68199000D03*
D25*
X171831000Y-75819000D03*
D16*
X129413000Y-55753000D03*
D25*
X137033000Y-55753000D03*
D16*
X170561000Y-109220000D03*
D25*
X162941000Y-109220000D03*
D16*
X168021000Y-115316000D03*
D25*
X160401000Y-115316000D03*
D16*
X141732000Y-108966000D03*
D25*
X134112000Y-108966000D03*
D16*
X140208000Y-115189000D03*
D25*
X132588000Y-115189000D03*
D16*
X160401000Y-119761000D03*
D25*
X168021000Y-119761000D03*
D16*
X132588000Y-119761000D03*
D25*
X140208000Y-119761000D03*
D26*
X136825000Y-104693000D03*
D23*
X136825000Y-116893000D03*
X148875000Y-116943000D03*
D26*
X148825000Y-104693000D03*
D23*
X142875000Y-102743000D03*
D26*
X164511000Y-104693000D03*
D23*
X164511000Y-116893000D03*
X176561000Y-116943000D03*
D26*
X176511000Y-104693000D03*
D23*
X170561000Y-102743000D03*
D17*
X109474000Y-72517000D03*
D27*
X109474000Y-69977000D03*
X109474000Y-67437000D03*
D28*
X139700000Y-70612000D03*
X139700000Y-75512000D03*
D17*
X149098000Y-92202000D03*
D18*
X149098000Y-89662000D03*
D17*
X155702000Y-92202000D03*
D18*
X155702000Y-89662000D03*
D20*
X133604000Y-80645000D03*
D21*
X131064000Y-80645000D03*
X133604000Y-78105000D03*
X131064000Y-78105000D03*
X133604000Y-75565000D03*
X131064000Y-75565000D03*
D17*
X170561000Y-112014000D03*
D27*
X168021000Y-112014000D03*
X165481000Y-112014000D03*
D17*
X142748000Y-112014000D03*
D27*
X140208000Y-112014000D03*
X137668000Y-112014000D03*
D15*
X159131000Y-103378000D03*
D25*
X154051000Y-110998000D03*
X156591000Y-103378000D03*
X156591000Y-110998000D03*
X154051000Y-103378000D03*
X159131000Y-110998000D03*
D15*
X131318000Y-103378000D03*
D25*
X126238000Y-110998000D03*
X128778000Y-103378000D03*
X128778000Y-110998000D03*
X126238000Y-103378000D03*
X131318000Y-110998000D03*
D29*
X132969000Y-98044000D03*
X118491000Y-90170000D03*
X115824000Y-78232000D03*
X139446000Y-49149000D03*
X160655000Y-86614000D03*
X178181000Y-70739000D03*
X145034000Y-76200000D03*
X142494000Y-67437000D03*
X136144000Y-70993000D03*
X178308000Y-49022000D03*
X115824000Y-71120000D03*
X139827000Y-82296000D03*
X178308000Y-62230000D03*
X178181000Y-78994000D03*
X115189000Y-85217000D03*
X146050000Y-93345000D03*
X158750000Y-92964000D03*
X157734000Y-62611000D03*
X122809000Y-62484000D03*
X133604000Y-63246000D03*
X160274000Y-83312000D03*
X176022000Y-45085000D03*
X145542000Y-67564000D03*
X115824000Y-68580000D03*
X178308000Y-55753000D03*
X178181000Y-64008000D03*
X178054000Y-72390000D03*
X149606000Y-65151000D03*
X130810000Y-59753500D03*
X140462000Y-61722000D03*
X148336000Y-66421000D03*
X142748000Y-63627000D03*
X127635000Y-63373000D03*
X136017000Y-80645000D03*
X128524000Y-77978000D03*
X167386000Y-61214000D03*
X169164000Y-65087500D03*
X139446000Y-85598000D03*
X169291000Y-74295000D03*
X118618000Y-51562000D03*
X144907000Y-87503000D03*
X159004000Y-88138000D03*
X136906000Y-98298000D03*
X165608000Y-99187000D03*
X143510000Y-48895000D03*
X173482000Y-49022000D03*
X171069000Y-54356000D03*
X168529000Y-54356000D03*
X165862000Y-54610000D03*
X166116000Y-64643000D03*
X164084000Y-66294000D03*
X165735000Y-67056000D03*
X167005000Y-68199000D03*
X167513000Y-87249000D03*
X167513000Y-85471000D03*
X167513000Y-83693000D03*
X167513000Y-81915000D03*
X167513000Y-80137000D03*
X167513000Y-78359000D03*
X167513000Y-76581000D03*
X167513000Y-74803000D03*
X176276000Y-56769000D03*
X176149000Y-65024000D03*
X174117000Y-77724000D03*
X158750000Y-61087000D03*
X123952000Y-47244000D03*
X123825000Y-50927000D03*
X129159000Y-51562000D03*
X128778000Y-101092000D03*
X158877000Y-100457000D03*
X150368000Y-87122000D03*
X154178000Y-87122000D03*
D30*
X132969000Y-98044000D02*
X135001000Y-98044000D01*
X146812000Y-97790000D02*
X148825000Y-99803000D01*
X139319000Y-97790000D02*
X146812000Y-97790000D01*
X138303000Y-96774000D02*
X139319000Y-97790000D01*
X136271000Y-96774000D02*
X138303000Y-96774000D01*
X135001000Y-98044000D02*
X136271000Y-96774000D01*
X124206000Y-80772000D02*
X121666000Y-78232000D01*
X121666000Y-83312000D02*
X124206000Y-80772000D01*
X119126000Y-80772000D02*
X121666000Y-83312000D01*
X115824000Y-78232000D02*
X118364000Y-80772000D01*
X118364000Y-80772000D02*
X119126000Y-80772000D01*
X119126000Y-80772000D02*
X121666000Y-78232000D01*
X109474000Y-72517000D02*
X110109000Y-72517000D01*
X110109000Y-72517000D02*
X115824000Y-78232000D01*
X114427000Y-92075000D02*
X114427000Y-90551000D01*
X114427000Y-90551000D02*
X121666000Y-83312000D01*
X118491000Y-90170000D02*
X116332000Y-90170000D01*
X116332000Y-90170000D02*
X114427000Y-92075000D01*
X148825000Y-104693000D02*
X148825000Y-99803000D01*
X164511000Y-104693000D02*
X163921000Y-105283000D01*
X163921000Y-105283000D02*
X149415000Y-105283000D01*
X149415000Y-105283000D02*
X148825000Y-104693000D01*
D31*
X110109000Y-72517000D02*
X115824000Y-78232000D01*
X114427000Y-92075000D02*
X116332000Y-90170000D01*
X119126000Y-80772000D02*
X118364000Y-80772000D01*
X163794000Y-105410000D02*
X164511000Y-104693000D01*
D30*
X136144000Y-70993000D02*
X136906000Y-70231000D01*
X137414000Y-70231000D02*
X139192000Y-68453000D01*
X136906000Y-70231000D02*
X137414000Y-70231000D01*
X142494000Y-67437000D02*
X141478000Y-68453000D01*
X141478000Y-68453000D02*
X139192000Y-68453000D01*
X182753000Y-78105000D02*
X181864000Y-78994000D01*
X181864000Y-78994000D02*
X178181000Y-78994000D01*
X162306000Y-92202000D02*
X163830000Y-92202000D01*
X163830000Y-92202000D02*
X164465000Y-91567000D01*
X164465000Y-91567000D02*
X164465000Y-88646000D01*
X164465000Y-88646000D02*
X162433000Y-86614000D01*
X162433000Y-86614000D02*
X160655000Y-86614000D01*
X158750000Y-92964000D02*
X158750000Y-92202000D01*
X146050000Y-93345000D02*
X146050000Y-92202000D01*
X155702000Y-92202000D02*
X158750000Y-92202000D01*
X158750000Y-92202000D02*
X162306000Y-92202000D01*
X149098000Y-92202000D02*
X155702000Y-92202000D01*
X142494000Y-92202000D02*
X146050000Y-92202000D01*
X146050000Y-92202000D02*
X149098000Y-92202000D01*
X139827000Y-82296000D02*
X136525000Y-82296000D01*
X132461000Y-86360000D02*
X132461000Y-90424000D01*
X136525000Y-82296000D02*
X132461000Y-86360000D01*
X132461000Y-90424000D02*
X134239000Y-92202000D01*
X134239000Y-92202000D02*
X142494000Y-92202000D01*
X121158000Y-59182000D02*
X116078000Y-59182000D01*
X126492000Y-59182000D02*
X121158000Y-59182000D01*
X115824000Y-71120000D02*
X115824000Y-70485000D01*
X115824000Y-70485000D02*
X115316000Y-69977000D01*
X109474000Y-69977000D02*
X115316000Y-69977000D01*
X115316000Y-69977000D02*
X120610000Y-69977000D01*
X120610000Y-69977000D02*
X120650000Y-69937000D01*
X131064000Y-72898000D02*
X131064000Y-75565000D01*
X133604000Y-70993000D02*
X133604000Y-72644000D01*
X123611000Y-72898000D02*
X120650000Y-69937000D01*
X133350000Y-72898000D02*
X131064000Y-72898000D01*
X131064000Y-72898000D02*
X123611000Y-72898000D01*
X133604000Y-72644000D02*
X133350000Y-72898000D01*
X142494000Y-67437000D02*
X142494000Y-73660000D01*
X142494000Y-73660000D02*
X145034000Y-76200000D01*
X133604000Y-70993000D02*
X136144000Y-70993000D01*
X178650000Y-51675000D02*
X178650000Y-49364000D01*
X178650000Y-49364000D02*
X178308000Y-49022000D01*
X182753000Y-61595000D02*
X186817000Y-61595000D01*
X186817000Y-61595000D02*
X186817000Y-61468000D01*
X182753000Y-69850000D02*
X186817000Y-69850000D01*
X182753000Y-78105000D02*
X186055000Y-78105000D01*
X186055000Y-78105000D02*
X186817000Y-77343000D01*
X184658000Y-110490000D02*
X184658000Y-113030000D01*
X178650000Y-51675000D02*
X181839000Y-54864000D01*
X181839000Y-54864000D02*
X184150000Y-54864000D01*
X184150000Y-54864000D02*
X184658000Y-54864000D01*
X184658000Y-54864000D02*
X186817000Y-57023000D01*
X186817000Y-57023000D02*
X186817000Y-61468000D01*
X186817000Y-61468000D02*
X186817000Y-69850000D01*
X186817000Y-69850000D02*
X186817000Y-77343000D01*
X187071000Y-86487000D02*
X187071000Y-109728000D01*
X186817000Y-77343000D02*
X186817000Y-86233000D01*
X186817000Y-86233000D02*
X187071000Y-86487000D01*
X187071000Y-109728000D02*
X186309000Y-110490000D01*
X186309000Y-110490000D02*
X184658000Y-110490000D01*
X182753000Y-61595000D02*
X178943000Y-61595000D01*
X178943000Y-61595000D02*
X178308000Y-62230000D01*
X178181000Y-70739000D02*
X179070000Y-69850000D01*
X179070000Y-69850000D02*
X182753000Y-69850000D01*
X115189000Y-85217000D02*
X115189000Y-83439000D01*
X115189000Y-83439000D02*
X107569000Y-75819000D01*
X107569000Y-75819000D02*
X107569000Y-70739000D01*
X107569000Y-70739000D02*
X108331000Y-69977000D01*
X108331000Y-69977000D02*
X109474000Y-69977000D01*
X109427000Y-92075000D02*
X109427000Y-90979000D01*
X109427000Y-90979000D02*
X115189000Y-85217000D01*
X110617000Y-106172000D02*
X108966000Y-106172000D01*
X107950000Y-93552000D02*
X109427000Y-92075000D01*
X107950000Y-105156000D02*
X107950000Y-93552000D01*
X108966000Y-106172000D02*
X107950000Y-105156000D01*
D31*
X145034000Y-76200000D02*
X142494000Y-73660000D01*
X178650000Y-49364000D02*
X178308000Y-49022000D01*
X131064000Y-72644000D02*
X131064000Y-72771000D01*
X131064000Y-72771000D02*
X131064000Y-72644000D01*
X115824000Y-71120000D02*
X115824000Y-69977000D01*
X115824000Y-69977000D02*
X115824000Y-70104000D01*
X115824000Y-70104000D02*
X115824000Y-69977000D01*
X109474000Y-69977000D02*
X115824000Y-69977000D01*
X115824000Y-69977000D02*
X120610000Y-69977000D01*
X120610000Y-69977000D02*
X120650000Y-69937000D01*
X142494000Y-92202000D02*
X134239000Y-92202000D01*
X134239000Y-92202000D02*
X132461000Y-90424000D01*
X184658000Y-110490000D02*
X186309000Y-110490000D01*
X186309000Y-110490000D02*
X187071000Y-109728000D01*
X178650000Y-52666000D02*
X178650000Y-51675000D01*
X178650000Y-51675000D02*
X178650000Y-50966000D01*
X178308000Y-62230000D02*
X178943000Y-61595000D01*
X179070000Y-69850000D02*
X182753000Y-69850000D01*
X120650000Y-69937000D02*
X121372000Y-69937000D01*
X133604000Y-71882000D02*
X133604000Y-70993000D01*
X132842000Y-72644000D02*
X133604000Y-71882000D01*
X131064000Y-72644000D02*
X132842000Y-72644000D01*
X115189000Y-85217000D02*
X109427000Y-90979000D01*
X162306000Y-92202000D02*
X159512000Y-92202000D01*
X159512000Y-92202000D02*
X158750000Y-92964000D01*
X157988000Y-92202000D02*
X155702000Y-92202000D01*
X158750000Y-92964000D02*
X157988000Y-92202000D01*
D30*
X171831000Y-68199000D02*
X171831000Y-72390000D01*
X171831000Y-72390000D02*
X171831000Y-72263000D01*
X171831000Y-72263000D02*
X171831000Y-72390000D01*
X178054000Y-72390000D02*
X171831000Y-72390000D01*
X171831000Y-72390000D02*
X167767000Y-72390000D01*
X167767000Y-72390000D02*
X167767000Y-72517000D01*
X167767000Y-72517000D02*
X167767000Y-72390000D01*
X176110000Y-51675000D02*
X176110000Y-53555000D01*
X176110000Y-53555000D02*
X175436000Y-54229000D01*
X175436000Y-54229000D02*
X173990000Y-54229000D01*
X178181000Y-64008000D02*
X177800000Y-63627000D01*
X177800000Y-63627000D02*
X172910500Y-63627000D01*
X176110000Y-51675000D02*
X176110000Y-52109000D01*
X173990000Y-54229000D02*
X172910500Y-55308500D01*
X172910500Y-55308500D02*
X172910500Y-63627000D01*
X172910500Y-63627000D02*
X172910500Y-65976500D01*
X166116000Y-92329000D02*
X166116000Y-96266000D01*
X161290000Y-103378000D02*
X159131000Y-103378000D01*
X163703000Y-100965000D02*
X161290000Y-103378000D01*
X163703000Y-98679000D02*
X163703000Y-100965000D01*
X166116000Y-96266000D02*
X163703000Y-98679000D01*
X131318000Y-101092000D02*
X131318000Y-97409000D01*
X150114000Y-99060000D02*
X160020000Y-99060000D01*
X160020000Y-99060000D02*
X160782000Y-99060000D01*
X147574000Y-96520000D02*
X150114000Y-99060000D01*
X140081000Y-96520000D02*
X147574000Y-96520000D01*
X139065000Y-95504000D02*
X140081000Y-96520000D01*
X133223000Y-95504000D02*
X139065000Y-95504000D01*
X131318000Y-97409000D02*
X133223000Y-95504000D01*
X157734000Y-62611000D02*
X157353000Y-62992000D01*
X148082000Y-68834000D02*
X148082000Y-69850000D01*
X151257000Y-65659000D02*
X148082000Y-68834000D01*
X151257000Y-64389000D02*
X151257000Y-65659000D01*
X152654000Y-62992000D02*
X151257000Y-64389000D01*
X157353000Y-62992000D02*
X152654000Y-62992000D01*
X166116000Y-89154000D02*
X166116000Y-74041000D01*
X166116000Y-74041000D02*
X167767000Y-72390000D01*
X171831000Y-68326000D02*
X171831000Y-68199000D01*
X148082000Y-69850000D02*
X148082000Y-70104000D01*
X171831000Y-67056000D02*
X171831000Y-68199000D01*
X172910500Y-65976500D02*
X171831000Y-67056000D01*
X135763000Y-63246000D02*
X140970000Y-63246000D01*
X140970000Y-63246000D02*
X142113000Y-62103000D01*
X142113000Y-62103000D02*
X145034000Y-62103000D01*
X146558000Y-66548000D02*
X145542000Y-67564000D01*
X146558000Y-63627000D02*
X146558000Y-66548000D01*
X145034000Y-62103000D02*
X146558000Y-63627000D01*
X126492000Y-56642000D02*
X128524000Y-56642000D01*
X128524000Y-56642000D02*
X129413000Y-55753000D01*
X133604000Y-63246000D02*
X135763000Y-63246000D01*
X120650000Y-67437000D02*
X120650000Y-64135000D01*
X122301000Y-62484000D02*
X122809000Y-62484000D01*
X120650000Y-64135000D02*
X122301000Y-62484000D01*
X160274000Y-83312000D02*
X154178000Y-83312000D01*
X148082000Y-77216000D02*
X148082000Y-70104000D01*
X150749000Y-79883000D02*
X148082000Y-77216000D01*
X154178000Y-83312000D02*
X150749000Y-79883000D01*
X160274000Y-83312000D02*
X161036000Y-83312000D01*
X176110000Y-45173000D02*
X176110000Y-51675000D01*
X176022000Y-45085000D02*
X176110000Y-45173000D01*
X131064000Y-80645000D02*
X131064000Y-82677000D01*
X128778000Y-84963000D02*
X128778000Y-88900000D01*
X131064000Y-82677000D02*
X128778000Y-84963000D01*
X116078000Y-56642000D02*
X114808000Y-56642000D01*
X115824000Y-65786000D02*
X115824000Y-68580000D01*
X113792000Y-63754000D02*
X115824000Y-65786000D01*
X113792000Y-57658000D02*
X113792000Y-63754000D01*
X114808000Y-56642000D02*
X113792000Y-57658000D01*
X121158000Y-56642000D02*
X116078000Y-56642000D01*
X126492000Y-56642000D02*
X121158000Y-56642000D01*
X115824000Y-68580000D02*
X115824000Y-67437000D01*
X115824000Y-67437000D02*
X115697000Y-67564000D01*
X115697000Y-67818000D02*
X115697000Y-67437000D01*
X115697000Y-67564000D02*
X115697000Y-67818000D01*
X109474000Y-67437000D02*
X115697000Y-67437000D01*
X115697000Y-67437000D02*
X120650000Y-67437000D01*
X133604000Y-63246000D02*
X133604000Y-65913000D01*
X178308000Y-55753000D02*
X176466500Y-53911500D01*
X176466500Y-53911500D02*
X176110000Y-53555000D01*
X182753000Y-56515000D02*
X179070000Y-56515000D01*
X179070000Y-56515000D02*
X178308000Y-55753000D01*
X171831000Y-68199000D02*
X171831000Y-68580000D01*
X182753000Y-64770000D02*
X178943000Y-64770000D01*
X178943000Y-64770000D02*
X178181000Y-64008000D01*
X182753000Y-73025000D02*
X178689000Y-73025000D01*
X178689000Y-73025000D02*
X178054000Y-72390000D01*
X148082000Y-70104000D02*
X145542000Y-67564000D01*
X166116000Y-88392000D02*
X161036000Y-83312000D01*
X166116000Y-92329000D02*
X166116000Y-89154000D01*
X166116000Y-89154000D02*
X166116000Y-88392000D01*
X160782000Y-99060000D02*
X160782000Y-101727000D01*
X160782000Y-101727000D02*
X159131000Y-103378000D01*
X131318000Y-103378000D02*
X131318000Y-101092000D01*
X131318000Y-101092000D02*
X131318000Y-99568000D01*
X131318000Y-99568000D02*
X128778000Y-97028000D01*
X128778000Y-97028000D02*
X128778000Y-88900000D01*
D31*
X115824000Y-67437000D02*
X115824000Y-67564000D01*
X115824000Y-67564000D02*
X115824000Y-67437000D01*
X109474000Y-67437000D02*
X115824000Y-67437000D01*
X115824000Y-67437000D02*
X120650000Y-67437000D01*
X178308000Y-55753000D02*
X178308000Y-55499000D01*
X178308000Y-55499000D02*
X177927000Y-55118000D01*
X176110000Y-53301000D02*
X176110000Y-51675000D01*
X177927000Y-55118000D02*
X176110000Y-53301000D01*
X159131000Y-103378000D02*
X159385000Y-103378000D01*
X128778000Y-97028000D02*
X128778000Y-96520000D01*
X128778000Y-96520000D02*
X128778000Y-95504000D01*
X128778000Y-95504000D02*
X128778000Y-88900000D01*
X131318000Y-99568000D02*
X128778000Y-97028000D01*
X178308000Y-55753000D02*
X179070000Y-56515000D01*
X178943000Y-64770000D02*
X178181000Y-64008000D01*
X178689000Y-73025000D02*
X178054000Y-72390000D01*
X120396000Y-67691000D02*
X120650000Y-67437000D01*
D30*
X132461000Y-57340500D02*
X132461000Y-60325000D01*
X132461000Y-60325000D02*
X131064000Y-61722000D01*
X135890000Y-61722000D02*
X131064000Y-61722000D01*
X149606000Y-62738000D02*
X149606000Y-65151000D01*
X144018000Y-58928000D02*
X145796000Y-58928000D01*
X145796000Y-58928000D02*
X149606000Y-62738000D01*
X138430000Y-61722000D02*
X141224000Y-58928000D01*
X141224000Y-58928000D02*
X144018000Y-58928000D01*
X135890000Y-61722000D02*
X138430000Y-61722000D01*
X132461000Y-55880000D02*
X132461000Y-52070000D01*
X132461000Y-52070000D02*
X130683000Y-50292000D01*
X131064000Y-65913000D02*
X131064000Y-61722000D01*
X130683000Y-50292000D02*
X129413000Y-49022000D01*
X129413000Y-49022000D02*
X126492000Y-49022000D01*
X132461000Y-57340500D02*
X132461000Y-55880000D01*
X121158000Y-49022000D02*
X116078000Y-49022000D01*
X126492000Y-49022000D02*
X121158000Y-49022000D01*
D31*
X125984000Y-49022000D02*
X126492000Y-49022000D01*
D30*
X130810000Y-59753500D02*
X129540000Y-61023500D01*
X129540000Y-61023500D02*
X129540000Y-63754000D01*
X131191000Y-56642000D02*
X131191000Y-59372500D01*
X131191000Y-59372500D02*
X130810000Y-59753500D01*
X144272000Y-60579000D02*
X141605000Y-60579000D01*
X141605000Y-60579000D02*
X140462000Y-61722000D01*
X140462000Y-61722000D02*
X141605000Y-60579000D01*
X145288000Y-60579000D02*
X147955000Y-63246000D01*
X144272000Y-60579000D02*
X145288000Y-60579000D01*
X147955000Y-66040000D02*
X148336000Y-66421000D01*
X147955000Y-63246000D02*
X147955000Y-66040000D01*
X129159000Y-53721000D02*
X126873000Y-53721000D01*
X126873000Y-53721000D02*
X126492000Y-54102000D01*
X131191000Y-56642000D02*
X131191000Y-54102000D01*
X130810000Y-53721000D02*
X129159000Y-53721000D01*
X131191000Y-54102000D02*
X130810000Y-53721000D01*
X128905000Y-68072000D02*
X129286000Y-68453000D01*
X129540000Y-63754000D02*
X128905000Y-64389000D01*
X129286000Y-68453000D02*
X131064000Y-68453000D01*
X128905000Y-64389000D02*
X128905000Y-68072000D01*
X121158000Y-54102000D02*
X116078000Y-54102000D01*
X126492000Y-54102000D02*
X121158000Y-54102000D01*
X139192000Y-64770000D02*
X136144000Y-64770000D01*
X134937500Y-68453000D02*
X133604000Y-68453000D01*
X135699500Y-67691000D02*
X134937500Y-68453000D01*
X135699500Y-65214500D02*
X135699500Y-67691000D01*
X136144000Y-64770000D02*
X135699500Y-65214500D01*
X139192000Y-64770000D02*
X141605000Y-64770000D01*
X141605000Y-64770000D02*
X142748000Y-63627000D01*
X133604000Y-68453000D02*
X134239000Y-68453000D01*
D31*
X133604000Y-68453000D02*
X134366000Y-68453000D01*
D30*
X127635000Y-66548000D02*
X127635000Y-63373000D01*
X131064000Y-70993000D02*
X129032000Y-70993000D01*
X127635000Y-69596000D02*
X127635000Y-66548000D01*
X129032000Y-70993000D02*
X127635000Y-69596000D01*
X133604000Y-80645000D02*
X136017000Y-80645000D01*
X131064000Y-78105000D02*
X128651000Y-78105000D01*
X128651000Y-78105000D02*
X128524000Y-77978000D01*
D31*
X128524000Y-77978000D02*
X128651000Y-78105000D01*
D30*
X169164000Y-65087500D02*
X167386000Y-63309500D01*
X167386000Y-63309500D02*
X167386000Y-61214000D01*
X136398000Y-88900000D02*
X139446000Y-85852000D01*
X139446000Y-85852000D02*
X139446000Y-85598000D01*
X135178000Y-88900000D02*
X136398000Y-88900000D01*
D31*
X139446000Y-85852000D02*
X139446000Y-85598000D01*
D30*
X169291000Y-74295000D02*
X170307000Y-74295000D01*
X170307000Y-74295000D02*
X171831000Y-75819000D01*
X116078000Y-51562000D02*
X118618000Y-51562000D01*
D32*
X160401000Y-119761000D02*
X156718000Y-119761000D01*
X155321000Y-118364000D02*
X155321000Y-115951000D01*
X156718000Y-119761000D02*
X155321000Y-118364000D01*
X168021000Y-112014000D02*
X168021000Y-115316000D01*
X164511000Y-116893000D02*
X164511000Y-116540000D01*
D33*
X164511000Y-116540000D02*
X167386000Y-113665000D01*
D32*
X167513000Y-113665000D02*
X167513000Y-114808000D01*
X167386000Y-113665000D02*
X167513000Y-113665000D01*
X167513000Y-114808000D02*
X168021000Y-115316000D01*
D34*
X165481000Y-125984000D02*
X164211000Y-124714000D01*
X164211000Y-124714000D02*
X164211000Y-117193000D01*
X164211000Y-117193000D02*
X164511000Y-116893000D01*
D32*
X165481000Y-125984000D02*
X155354000Y-125984000D01*
X155354000Y-125984000D02*
X155321000Y-125951000D01*
D34*
X155354000Y-125984000D02*
X155321000Y-125951000D01*
D33*
X164511000Y-116893000D02*
X164511000Y-125014000D01*
X164511000Y-125014000D02*
X165481000Y-125984000D01*
D31*
X164511000Y-116893000D02*
X164511000Y-116413000D01*
X155321000Y-125951000D02*
X165448000Y-125951000D01*
X165448000Y-125951000D02*
X165481000Y-125984000D01*
X164511000Y-125014000D02*
X165481000Y-125984000D01*
D32*
X132588000Y-119761000D02*
X128397000Y-119761000D01*
X127127000Y-118491000D02*
X127127000Y-115951000D01*
X128397000Y-119761000D02*
X127127000Y-118491000D01*
X137668000Y-125984000D02*
X137635000Y-125951000D01*
X137635000Y-125951000D02*
X127127000Y-125951000D01*
D33*
X140208000Y-112014000D02*
X140208000Y-115189000D01*
X140208000Y-115189000D02*
X139827000Y-115189000D01*
X139827000Y-115189000D02*
X139178000Y-114540000D01*
D34*
X139178000Y-114540000D02*
X136825000Y-116893000D01*
X137668000Y-125984000D02*
X136825000Y-125141000D01*
X136825000Y-125141000D02*
X136825000Y-116893000D01*
D31*
X137668000Y-125984000D02*
X127160000Y-125984000D01*
X127160000Y-125984000D02*
X127127000Y-125951000D01*
X137668000Y-125984000D02*
X136698000Y-125014000D01*
X136698000Y-125014000D02*
X136698000Y-116893000D01*
X136698000Y-116893000D02*
X137742000Y-116893000D01*
X137742000Y-116893000D02*
X139446000Y-115189000D01*
X139446000Y-115189000D02*
X140208000Y-115189000D01*
D30*
X144907000Y-87503000D02*
X142748000Y-89662000D01*
X142748000Y-89662000D02*
X142494000Y-89662000D01*
D31*
X142494000Y-89662000D02*
X142748000Y-89662000D01*
D30*
X162306000Y-89662000D02*
X160147000Y-89662000D01*
X160147000Y-89662000D02*
X159004000Y-88519000D01*
X159004000Y-88519000D02*
X159004000Y-88138000D01*
X136906000Y-98298000D02*
X136906000Y-104612000D01*
X136906000Y-104612000D02*
X136825000Y-104693000D01*
D31*
X136825000Y-104693000D02*
X136825000Y-98379000D01*
X136825000Y-98379000D02*
X136906000Y-98298000D01*
D30*
X176511000Y-104693000D02*
X176511000Y-101962000D01*
X176511000Y-101962000D02*
X172593000Y-98044000D01*
X172593000Y-98044000D02*
X166751000Y-98044000D01*
X166751000Y-98044000D02*
X165608000Y-99187000D01*
D34*
X170561000Y-102743000D02*
X170561000Y-106489500D01*
X170561000Y-106489500D02*
X171196000Y-107124500D01*
D32*
X170561000Y-109220000D02*
X171196000Y-109220000D01*
X171196000Y-109220000D02*
X171450000Y-109220000D01*
X171450000Y-109220000D02*
X171196000Y-109220000D01*
D34*
X168021000Y-119761000D02*
X170307000Y-119761000D01*
X170307000Y-119761000D02*
X170561000Y-120015000D01*
X170561000Y-125984000D02*
X170561000Y-120015000D01*
X171196000Y-119380000D02*
X171196000Y-109220000D01*
X170561000Y-120015000D02*
X171196000Y-119380000D01*
X171196000Y-109220000D02*
X171196000Y-107124500D01*
D31*
X170561000Y-109220000D02*
X170561000Y-112014000D01*
X170561000Y-102743000D02*
X170561000Y-109220000D01*
X170561000Y-125984000D02*
X170561000Y-118872000D01*
X168021000Y-119761000D02*
X169672000Y-119761000D01*
X170561000Y-118872000D02*
X170561000Y-112014000D01*
X169672000Y-119761000D02*
X170561000Y-118872000D01*
D32*
X154051000Y-110998000D02*
X154051000Y-112141000D01*
X159258000Y-115316000D02*
X160401000Y-115316000D01*
X157099000Y-113157000D02*
X159258000Y-115316000D01*
X155067000Y-113157000D02*
X157099000Y-113157000D01*
X154051000Y-112141000D02*
X155067000Y-113157000D01*
X160401000Y-115316000D02*
X160020000Y-115316000D01*
X165481000Y-112014000D02*
X163703000Y-112014000D01*
X163703000Y-112014000D02*
X160401000Y-115316000D01*
D31*
X165481000Y-112014000D02*
X163576000Y-112014000D01*
X163576000Y-112014000D02*
X160401000Y-115189000D01*
X160401000Y-115189000D02*
X160401000Y-115316000D01*
D33*
X140208000Y-119761000D02*
X142748000Y-119761000D01*
X142621000Y-119888000D02*
X142748000Y-119888000D01*
X142748000Y-119761000D02*
X142621000Y-119888000D01*
D34*
X142748000Y-125984000D02*
X142748000Y-119888000D01*
X142748000Y-119888000D02*
X142748000Y-118491000D01*
X142748000Y-118491000D02*
X143510000Y-117729000D01*
X143510000Y-108013500D02*
X143510000Y-117729000D01*
X142875000Y-102743000D02*
X142875000Y-105981500D01*
X142875000Y-105981500D02*
X143510000Y-106616500D01*
D30*
X143129000Y-108966000D02*
X143129000Y-111633000D01*
X143129000Y-111633000D02*
X142748000Y-112014000D01*
X141732000Y-108966000D02*
X143510000Y-108966000D01*
X143510000Y-108966000D02*
X143129000Y-108966000D01*
X142748000Y-112014000D02*
X143510000Y-112014000D01*
X143510000Y-112014000D02*
X143637000Y-111887000D01*
X143637000Y-111887000D02*
X143764000Y-111887000D01*
X143764000Y-111887000D02*
X143510000Y-111887000D01*
D34*
X143510000Y-111887000D02*
X143510000Y-108013500D01*
X143510000Y-108013500D02*
X143510000Y-106616500D01*
D33*
X143129000Y-108966000D02*
X142875000Y-108966000D01*
X142875000Y-108966000D02*
X143129000Y-108966000D01*
D32*
X137668000Y-112014000D02*
X135763000Y-112014000D01*
X135763000Y-112014000D02*
X132588000Y-115189000D01*
X126238000Y-110998000D02*
X126238000Y-111760000D01*
X126238000Y-111760000D02*
X127635000Y-113157000D01*
X127635000Y-113157000D02*
X130556000Y-113157000D01*
X130556000Y-113157000D02*
X132588000Y-115189000D01*
D30*
X140550000Y-51675000D02*
X140550000Y-50331000D01*
X140550000Y-50331000D02*
X141986000Y-48895000D01*
X141986000Y-48895000D02*
X143510000Y-48895000D01*
D31*
X141986000Y-48895000D02*
X143510000Y-48895000D01*
X140550000Y-50331000D02*
X141986000Y-48895000D01*
D30*
X143090000Y-51675000D02*
X143090000Y-52998000D01*
X138049000Y-54737000D02*
X137033000Y-55753000D01*
X141351000Y-54737000D02*
X138049000Y-54737000D01*
X143090000Y-52998000D02*
X141351000Y-54737000D01*
D31*
X143129000Y-51636000D02*
X143090000Y-51675000D01*
D30*
X173570000Y-51675000D02*
X173570000Y-49110000D01*
X173570000Y-49110000D02*
X173482000Y-49022000D01*
D31*
X173570000Y-49110000D02*
X173482000Y-49022000D01*
D30*
X171069000Y-54356000D02*
X171069000Y-51714000D01*
X171069000Y-51714000D02*
X171030000Y-51675000D01*
X171069000Y-51714000D02*
X171030000Y-51675000D01*
X168490000Y-51675000D02*
X168490000Y-54317000D01*
X168490000Y-54317000D02*
X168529000Y-54356000D01*
X168402000Y-51763000D02*
X168490000Y-51675000D01*
X165862000Y-54610000D02*
X165862000Y-53721000D01*
X165862000Y-53721000D02*
X165862000Y-51763000D01*
X165862000Y-51763000D02*
X165950000Y-51675000D01*
D31*
X165950000Y-54522000D02*
X165950000Y-51675000D01*
X165862000Y-54610000D02*
X165950000Y-54522000D01*
D30*
X166116000Y-64643000D02*
X166116000Y-62230000D01*
X162560000Y-53848000D02*
X161290000Y-53848000D01*
X165862000Y-57150000D02*
X162560000Y-53848000D01*
X165862000Y-61976000D02*
X165862000Y-57150000D01*
X166116000Y-62230000D02*
X165862000Y-61976000D01*
X153250000Y-53174000D02*
X153250000Y-51675000D01*
X161290000Y-53848000D02*
X153924000Y-53848000D01*
X153924000Y-53848000D02*
X153250000Y-53174000D01*
D31*
X153250000Y-52158000D02*
X153250000Y-51675000D01*
D30*
X164084000Y-66294000D02*
X164592000Y-65786000D01*
X161975798Y-55041798D02*
X160705798Y-55041798D01*
X164592000Y-57658000D02*
X161975798Y-55041798D01*
X164592000Y-65786000D02*
X164592000Y-57658000D01*
X150710000Y-51675000D02*
X150710000Y-52539000D01*
X150710000Y-52539000D02*
X153212798Y-55041798D01*
X160705798Y-55041798D02*
X153212798Y-55041798D01*
X162433000Y-66929000D02*
X162433000Y-65405000D01*
X161544000Y-56261000D02*
X160020000Y-56261000D01*
X163322000Y-58039000D02*
X161544000Y-56261000D01*
X163322000Y-64516000D02*
X163322000Y-58039000D01*
X162433000Y-65405000D02*
X163322000Y-64516000D01*
X163195000Y-67691000D02*
X162433000Y-66929000D01*
X165735000Y-67056000D02*
X165481000Y-67056000D01*
X151511000Y-56261000D02*
X148170000Y-52920000D01*
X160020000Y-56261000D02*
X151511000Y-56261000D01*
X164846000Y-67691000D02*
X163195000Y-67691000D01*
X165481000Y-67056000D02*
X164846000Y-67691000D01*
X148170000Y-52920000D02*
X148170000Y-51675000D01*
X160909000Y-57404000D02*
X159385000Y-57404000D01*
X162052000Y-58547000D02*
X160909000Y-57404000D01*
X162052000Y-63754000D02*
X162052000Y-58547000D01*
X161290000Y-64516000D02*
X162052000Y-63754000D01*
X158242000Y-57404000D02*
X159385000Y-57404000D01*
X150495000Y-57404000D02*
X158242000Y-57404000D01*
X145630000Y-52539000D02*
X150495000Y-57404000D01*
X161290000Y-67945000D02*
X162306000Y-68961000D01*
X161290000Y-65151000D02*
X161290000Y-67945000D01*
X166243000Y-68961000D02*
X167005000Y-68199000D01*
X162306000Y-68961000D02*
X166243000Y-68961000D01*
X161290000Y-65151000D02*
X161290000Y-64516000D01*
X145630000Y-51675000D02*
X145630000Y-52539000D01*
X121666000Y-98632000D02*
X117141000Y-98632000D01*
X114681000Y-101092000D02*
X110617000Y-101092000D01*
X117141000Y-98632000D02*
X114681000Y-101092000D01*
X121666000Y-93552000D02*
X119126000Y-96092000D01*
X121666000Y-98632000D02*
X119126000Y-96092000D01*
X124206000Y-96092000D02*
X121666000Y-98632000D01*
X121666000Y-93552000D02*
X124206000Y-96092000D01*
X182530750Y-106076750D02*
X181483000Y-105029000D01*
X181483000Y-105029000D02*
X181483000Y-102870000D01*
X167513000Y-87249000D02*
X178181000Y-97917000D01*
X181483000Y-105029000D02*
X181800500Y-105346500D01*
X181483000Y-102870000D02*
X181483000Y-105029000D01*
X178181000Y-99568000D02*
X181483000Y-102870000D01*
X178181000Y-97917000D02*
X178181000Y-99568000D01*
X183261000Y-106807000D02*
X184785000Y-106807000D01*
X181800500Y-105346500D02*
X182530750Y-106076750D01*
X182530750Y-106076750D02*
X183261000Y-106807000D01*
X168719500Y-86296500D02*
X179641500Y-97218500D01*
X183705500Y-104267000D02*
X184785000Y-104267000D01*
X182816500Y-103378000D02*
X183705500Y-104267000D01*
X182816500Y-102298500D02*
X182816500Y-103378000D01*
X179641500Y-99123500D02*
X182816500Y-102298500D01*
X179641500Y-97218500D02*
X179641500Y-99123500D01*
X184150000Y-104267000D02*
X184785000Y-104267000D01*
X167513000Y-85471000D02*
X167894000Y-85471000D01*
X167894000Y-85471000D02*
X168719500Y-86296500D01*
X184404000Y-104267000D02*
X184785000Y-104267000D01*
X170148250Y-85947250D02*
X180911500Y-96710500D01*
X180911500Y-98615500D02*
X184023000Y-101727000D01*
X180911500Y-96710500D02*
X180911500Y-98615500D01*
X184023000Y-101727000D02*
X184785000Y-101727000D01*
X167513000Y-83693000D02*
X167894000Y-83693000D01*
X167894000Y-83693000D02*
X170148250Y-85947250D01*
X181514750Y-95535750D02*
X182562500Y-96583500D01*
X183451500Y-99187000D02*
X184785000Y-99187000D01*
X182562500Y-98298000D02*
X183451500Y-99187000D01*
X182562500Y-96583500D02*
X182562500Y-98298000D01*
X171132500Y-85153500D02*
X181514750Y-95535750D01*
X167513000Y-81915000D02*
X167894000Y-81915000D01*
X167894000Y-81915000D02*
X171132500Y-85153500D01*
X172688250Y-84931250D02*
X184404000Y-96647000D01*
X184404000Y-96647000D02*
X184785000Y-96647000D01*
X167513000Y-80137000D02*
X167894000Y-80137000D01*
X167894000Y-80137000D02*
X172688250Y-84931250D01*
X173069250Y-83661250D02*
X183515000Y-94107000D01*
X183515000Y-94107000D02*
X184785000Y-94107000D01*
X167513000Y-78359000D02*
X167767000Y-78359000D01*
X167767000Y-78359000D02*
X173069250Y-83661250D01*
X175514000Y-84328000D02*
X182753000Y-91567000D01*
X182753000Y-91567000D02*
X184785000Y-91567000D01*
X167513000Y-76581000D02*
X167767000Y-76581000D01*
X167767000Y-76581000D02*
X175514000Y-84328000D01*
X176466500Y-83502500D02*
X181991000Y-89027000D01*
X181991000Y-89027000D02*
X184785000Y-89027000D01*
X167513000Y-74803000D02*
X167767000Y-74803000D01*
X167767000Y-74803000D02*
X176466500Y-83502500D01*
X182753000Y-59055000D02*
X178562000Y-59055000D01*
X178562000Y-59055000D02*
X176276000Y-56769000D01*
D31*
X178562000Y-59055000D02*
X176276000Y-56769000D01*
D30*
X182753000Y-67310000D02*
X178435000Y-67310000D01*
X178435000Y-67310000D02*
X176149000Y-65024000D01*
D31*
X178435000Y-67310000D02*
X176149000Y-65024000D01*
D30*
X174117000Y-77724000D02*
X175006000Y-77724000D01*
X177165000Y-75565000D02*
X182753000Y-75565000D01*
X175006000Y-77724000D02*
X177165000Y-75565000D01*
X154813000Y-61722000D02*
X155448000Y-61087000D01*
X155448000Y-61087000D02*
X158750000Y-61087000D01*
X153924000Y-61722000D02*
X154813000Y-61722000D01*
X135255000Y-60579000D02*
X133731000Y-59055000D01*
X133731000Y-59055000D02*
X133731000Y-57658000D01*
X131953000Y-49403000D02*
X129286000Y-46736000D01*
X129286000Y-46736000D02*
X124460000Y-46736000D01*
X133731000Y-51181000D02*
X131953000Y-49403000D01*
X133731000Y-57658000D02*
X133731000Y-51181000D01*
X140462000Y-57785000D02*
X145161000Y-57785000D01*
X137668000Y-60579000D02*
X140462000Y-57785000D01*
X135255000Y-60579000D02*
X137668000Y-60579000D01*
X146685000Y-57785000D02*
X150622000Y-61722000D01*
X145161000Y-57785000D02*
X146685000Y-57785000D01*
X153162000Y-61722000D02*
X150622000Y-61722000D01*
X153162000Y-61722000D02*
X153924000Y-61722000D01*
X124460000Y-46736000D02*
X123952000Y-47244000D01*
X121158000Y-51562000D02*
X123190000Y-51562000D01*
X123190000Y-51562000D02*
X123825000Y-50927000D01*
X124460000Y-46736000D02*
X123952000Y-47244000D01*
D31*
X123825000Y-50927000D02*
X123190000Y-51562000D01*
D30*
X126492000Y-51562000D02*
X129159000Y-51562000D01*
D31*
X126492000Y-51562000D02*
X126492000Y-51562000D01*
X126492000Y-51562000D02*
X126746000Y-51816000D01*
D34*
X175641000Y-125984000D02*
X175641000Y-122047000D01*
X175641000Y-122047000D02*
X176561000Y-121127000D01*
X176561000Y-121127000D02*
X176561000Y-116943000D01*
X176561000Y-121127000D02*
X176561000Y-116943000D01*
X175641000Y-122047000D02*
X176561000Y-121127000D01*
D31*
X175641000Y-125984000D02*
X175641000Y-117863000D01*
X175641000Y-117863000D02*
X176561000Y-116943000D01*
D34*
X148875000Y-116943000D02*
X148875000Y-124937000D01*
X148875000Y-124937000D02*
X147828000Y-125984000D01*
D31*
X147828000Y-125984000D02*
X147828000Y-117863000D01*
X147828000Y-117863000D02*
X148748000Y-116943000D01*
D30*
X128778000Y-103378000D02*
X128778000Y-101092000D01*
X158877000Y-100457000D02*
X158115000Y-101219000D01*
X158115000Y-101219000D02*
X157099000Y-101219000D01*
X157099000Y-101219000D02*
X156591000Y-101727000D01*
X156591000Y-101727000D02*
X156591000Y-103378000D01*
D31*
X156591000Y-101727000D02*
X156591000Y-103378000D01*
X157099000Y-101219000D02*
X156591000Y-101727000D01*
X158115000Y-101219000D02*
X157099000Y-101219000D01*
D32*
X159131000Y-110998000D02*
X159131000Y-110871000D01*
X159131000Y-110871000D02*
X160782000Y-109220000D01*
X160782000Y-109220000D02*
X162941000Y-109220000D01*
D31*
X159131000Y-110998000D02*
X159131000Y-110617000D01*
D32*
X131318000Y-110998000D02*
X131318000Y-110490000D01*
X131318000Y-110490000D02*
X132842000Y-108966000D01*
X132842000Y-108966000D02*
X134112000Y-108966000D01*
D30*
X150368000Y-87122000D02*
X149098000Y-88392000D01*
X149098000Y-88392000D02*
X149098000Y-89662000D01*
D31*
X149098000Y-88392000D02*
X149098000Y-89662000D01*
X149098000Y-89662000D02*
X149225000Y-89662000D01*
D30*
X155702000Y-89662000D02*
X155702000Y-88646000D01*
X155702000Y-88646000D02*
X154178000Y-87122000D01*
D31*
X154178000Y-87122000D02*
X155702000Y-88646000D01*
D35*
G36*
X187529000Y-115189000D02*
X181726823Y-115189000D01*
X181102000Y-114460040D01*
X181102000Y-113329821D01*
X182420924Y-113329821D01*
X182482174Y-113551865D01*
X182790418Y-114057780D01*
X183268803Y-114407225D01*
X183844500Y-114547000D01*
X184594500Y-114547000D01*
X184594500Y-113093500D01*
X184721500Y-113093500D01*
X184721500Y-114547000D01*
X185471500Y-114547000D01*
X186047197Y-114407225D01*
X186525582Y-114057780D01*
X186833826Y-113551865D01*
X186895076Y-113329821D01*
X186732979Y-113093500D01*
X184721500Y-113093500D01*
X184594500Y-113093500D01*
X182583021Y-113093500D01*
X182420924Y-113329821D01*
X181102000Y-113329821D01*
X181102000Y-111506000D01*
X181097608Y-111458972D01*
X180971537Y-110789821D01*
X182420924Y-110789821D01*
X182482174Y-111011865D01*
X182790418Y-111517780D01*
X183122014Y-111760000D01*
X182790418Y-112002220D01*
X182482174Y-112508135D01*
X182420924Y-112730179D01*
X182583021Y-112966500D01*
X184594500Y-112966500D01*
X184594500Y-110553500D01*
X184721500Y-110553500D01*
X184721500Y-112966500D01*
X186732979Y-112966500D01*
X186895076Y-112730179D01*
X186833826Y-112508135D01*
X186525582Y-112002220D01*
X186193986Y-111760000D01*
X186525582Y-111517780D01*
X186833826Y-111011865D01*
X186895076Y-110789821D01*
X186732979Y-110553500D01*
X184721500Y-110553500D01*
X184594500Y-110553500D01*
X182583021Y-110553500D01*
X182420924Y-110789821D01*
X180971537Y-110789821D01*
X180858561Y-110190179D01*
X182420924Y-110190179D01*
X182583021Y-110426500D01*
X184594500Y-110426500D01*
X184594500Y-108973000D01*
X184721500Y-108973000D01*
X184721500Y-110426500D01*
X186732979Y-110426500D01*
X186895076Y-110190179D01*
X186833826Y-109968135D01*
X186525582Y-109462220D01*
X186047197Y-109112775D01*
X185471500Y-108973000D01*
X184721500Y-108973000D01*
X184594500Y-108973000D01*
X183844500Y-108973000D01*
X183268803Y-109112775D01*
X182790418Y-109462220D01*
X182482174Y-109968135D01*
X182420924Y-110190179D01*
X180858561Y-110190179D01*
X180272108Y-107077472D01*
X180234146Y-106984066D01*
X180162835Y-106912788D01*
X180098656Y-106882186D01*
X178141560Y-106267099D01*
X178430902Y-105978262D01*
X178776606Y-105145713D01*
X178777393Y-104244242D01*
X178433142Y-103411091D01*
X177908000Y-102885031D01*
X177908000Y-101962000D01*
X177801660Y-101427391D01*
X177498828Y-100974172D01*
X173580828Y-97056172D01*
X173127609Y-96753340D01*
X172593000Y-96647000D01*
X167437215Y-96647000D01*
X167513000Y-96266000D01*
X167513000Y-89224656D01*
X176784000Y-98495656D01*
X176784000Y-99568000D01*
X176890340Y-100102609D01*
X177193172Y-100555828D01*
X180086000Y-103448656D01*
X180086000Y-105029000D01*
X180192340Y-105563609D01*
X180495172Y-106016828D01*
X182273172Y-107794828D01*
X182726391Y-108097660D01*
X183053031Y-108162632D01*
X183192456Y-108379306D01*
X183531975Y-108611289D01*
X183935000Y-108692904D01*
X185635000Y-108692904D01*
X186011507Y-108622059D01*
X186357306Y-108399544D01*
X186589289Y-108060025D01*
X186670904Y-107657000D01*
X186670904Y-105957000D01*
X186600059Y-105580493D01*
X186377544Y-105234694D01*
X186376526Y-105233998D01*
X186545516Y-104981087D01*
X186687557Y-104267000D01*
X186545516Y-103552913D01*
X186174067Y-102997000D01*
X186545516Y-102441087D01*
X186687557Y-101727000D01*
X186545516Y-101012913D01*
X186174067Y-100457000D01*
X186545516Y-99901087D01*
X186687557Y-99187000D01*
X186545516Y-98472913D01*
X186174067Y-97917000D01*
X186545516Y-97361087D01*
X186687557Y-96647000D01*
X186545516Y-95932913D01*
X186174067Y-95377000D01*
X186545516Y-94821087D01*
X186687557Y-94107000D01*
X186545516Y-93392913D01*
X186174067Y-92837000D01*
X186545516Y-92281087D01*
X186687557Y-91567000D01*
X186545516Y-90852913D01*
X186174067Y-90297000D01*
X186545516Y-89741087D01*
X186687557Y-89027000D01*
X186545516Y-88312913D01*
X186141018Y-87707539D01*
X185535644Y-87303041D01*
X184821557Y-87161000D01*
X184748443Y-87161000D01*
X184034356Y-87303041D01*
X183545027Y-87630000D01*
X182569656Y-87630000D01*
X178672434Y-83732778D01*
X181383521Y-83732778D01*
X181803732Y-84749766D01*
X182581141Y-85528533D01*
X183597395Y-85950519D01*
X184697778Y-85951479D01*
X185714766Y-85531268D01*
X186493533Y-84753859D01*
X186915519Y-83737605D01*
X186916479Y-82637222D01*
X186496268Y-81620234D01*
X185718859Y-80841467D01*
X184702605Y-80419481D01*
X183602222Y-80418521D01*
X182585234Y-80838732D01*
X181806467Y-81616141D01*
X181384481Y-82632395D01*
X181383521Y-83732778D01*
X178672434Y-83732778D01*
X174340252Y-79400596D01*
X174448994Y-79400691D01*
X175065364Y-79146012D01*
X175111427Y-79100029D01*
X175540609Y-79014660D01*
X175993828Y-78711828D01*
X176300835Y-78404821D01*
X180515924Y-78404821D01*
X180577174Y-78626865D01*
X180885418Y-79132780D01*
X181363803Y-79482225D01*
X181939500Y-79622000D01*
X182689500Y-79622000D01*
X182689500Y-78168500D01*
X182816500Y-78168500D01*
X182816500Y-79622000D01*
X183566500Y-79622000D01*
X184142197Y-79482225D01*
X184620582Y-79132780D01*
X184928826Y-78626865D01*
X184990076Y-78404821D01*
X184827979Y-78168500D01*
X182816500Y-78168500D01*
X182689500Y-78168500D01*
X180678021Y-78168500D01*
X180515924Y-78404821D01*
X176300835Y-78404821D01*
X177743656Y-76962000D01*
X180917905Y-76962000D01*
X180983318Y-77005708D01*
X180885418Y-77077220D01*
X180577174Y-77583135D01*
X180515924Y-77805179D01*
X180678021Y-78041500D01*
X182689500Y-78041500D01*
X182689500Y-78021500D01*
X182816500Y-78021500D01*
X182816500Y-78041500D01*
X184827979Y-78041500D01*
X184990076Y-77805179D01*
X184928826Y-77583135D01*
X184620582Y-77077220D01*
X184522682Y-77005708D01*
X184804675Y-76817286D01*
X185188580Y-76242732D01*
X185323389Y-75565000D01*
X185188580Y-74887268D01*
X184804675Y-74312714D01*
X184778164Y-74295000D01*
X184804675Y-74277286D01*
X185188580Y-73702732D01*
X185323389Y-73025000D01*
X185188580Y-72347268D01*
X184804675Y-71772714D01*
X184230121Y-71388809D01*
X183815973Y-71306430D01*
X184142197Y-71227225D01*
X184620582Y-70877780D01*
X184928826Y-70371865D01*
X184990076Y-70149821D01*
X184827979Y-69913500D01*
X182816500Y-69913500D01*
X182816500Y-69933500D01*
X182689500Y-69933500D01*
X182689500Y-69913500D01*
X180678021Y-69913500D01*
X180515924Y-70149821D01*
X180577174Y-70371865D01*
X180885418Y-70877780D01*
X181363803Y-71227225D01*
X181690027Y-71306430D01*
X181275879Y-71388809D01*
X180917905Y-71628000D01*
X179553016Y-71628000D01*
X179476012Y-71441636D01*
X179004844Y-70969646D01*
X178388920Y-70713891D01*
X177722006Y-70713309D01*
X177105636Y-70967988D01*
X177080580Y-70993000D01*
X173228000Y-70993000D01*
X173228000Y-69370411D01*
X173369633Y-69229025D01*
X173646685Y-68561810D01*
X173647315Y-67839360D01*
X173464863Y-67397793D01*
X173898328Y-66964328D01*
X174024572Y-66775391D01*
X174201160Y-66511109D01*
X174307500Y-65976500D01*
X174307500Y-65024000D01*
X174472599Y-65024000D01*
X174472309Y-65355994D01*
X174726988Y-65972364D01*
X175198156Y-66444354D01*
X175814080Y-66700109D01*
X175849484Y-66700140D01*
X177447172Y-68297828D01*
X177900391Y-68600660D01*
X178435000Y-68707000D01*
X180917905Y-68707000D01*
X180983318Y-68750708D01*
X180885418Y-68822220D01*
X180577174Y-69328135D01*
X180515924Y-69550179D01*
X180678021Y-69786500D01*
X182689500Y-69786500D01*
X182689500Y-69766500D01*
X182816500Y-69766500D01*
X182816500Y-69786500D01*
X184827979Y-69786500D01*
X184990076Y-69550179D01*
X184928826Y-69328135D01*
X184620582Y-68822220D01*
X184522682Y-68750708D01*
X184804675Y-68562286D01*
X185188580Y-67987732D01*
X185323389Y-67310000D01*
X185188580Y-66632268D01*
X184804675Y-66057714D01*
X184778164Y-66040000D01*
X184804675Y-66022286D01*
X185188580Y-65447732D01*
X185323389Y-64770000D01*
X185188580Y-64092268D01*
X184804675Y-63517714D01*
X184230121Y-63133809D01*
X183815973Y-63051430D01*
X184142197Y-62972225D01*
X184620582Y-62622780D01*
X184928826Y-62116865D01*
X184990076Y-61894821D01*
X184827979Y-61658500D01*
X182816500Y-61658500D01*
X182816500Y-61678500D01*
X182689500Y-61678500D01*
X182689500Y-61658500D01*
X180678021Y-61658500D01*
X180515924Y-61894821D01*
X180577174Y-62116865D01*
X180885418Y-62622780D01*
X181363803Y-62972225D01*
X181690027Y-63051430D01*
X181275879Y-63133809D01*
X180917905Y-63373000D01*
X179732491Y-63373000D01*
X179603012Y-63059636D01*
X179131844Y-62587646D01*
X178515920Y-62331891D01*
X178311345Y-62331712D01*
X177800000Y-62230000D01*
X174307500Y-62230000D01*
X174307500Y-55887156D01*
X174568656Y-55626000D01*
X175048137Y-55626000D01*
X174855646Y-55818156D01*
X174599891Y-56434080D01*
X174599309Y-57100994D01*
X174853988Y-57717364D01*
X175325156Y-58189354D01*
X175941080Y-58445109D01*
X175976484Y-58445140D01*
X177574172Y-60042828D01*
X178027391Y-60345660D01*
X178562000Y-60452000D01*
X180917905Y-60452000D01*
X180983318Y-60495708D01*
X180885418Y-60567220D01*
X180577174Y-61073135D01*
X180515924Y-61295179D01*
X180678021Y-61531500D01*
X182689500Y-61531500D01*
X182689500Y-61511500D01*
X182816500Y-61511500D01*
X182816500Y-61531500D01*
X184827979Y-61531500D01*
X184990076Y-61295179D01*
X184928826Y-61073135D01*
X184620582Y-60567220D01*
X184522682Y-60495708D01*
X184804675Y-60307286D01*
X185188580Y-59732732D01*
X185323389Y-59055000D01*
X185188580Y-58377268D01*
X184804675Y-57802714D01*
X184778164Y-57785000D01*
X184804675Y-57767286D01*
X185188580Y-57192732D01*
X185323389Y-56515000D01*
X185188580Y-55837268D01*
X184804675Y-55262714D01*
X184338410Y-54951165D01*
X184697778Y-54951479D01*
X185714766Y-54531268D01*
X186493533Y-53753859D01*
X186915519Y-52737605D01*
X186916479Y-51637222D01*
X186496268Y-50620234D01*
X185718859Y-49841467D01*
X184702605Y-49419481D01*
X183602222Y-49418521D01*
X182585234Y-49838732D01*
X181806467Y-50616141D01*
X181384481Y-51632395D01*
X181383521Y-52732778D01*
X181803732Y-53749766D01*
X182581141Y-54528533D01*
X183100043Y-54744000D01*
X181953611Y-54744000D01*
X181275879Y-54878809D01*
X180917905Y-55118000D01*
X179859491Y-55118000D01*
X179730012Y-54804636D01*
X179258844Y-54332646D01*
X178642920Y-54076891D01*
X178607516Y-54076860D01*
X178201017Y-53670361D01*
X178327478Y-53705405D01*
X178586500Y-53545129D01*
X178586500Y-51738500D01*
X178713500Y-51738500D01*
X178713500Y-53545129D01*
X178972522Y-53705405D01*
X179227354Y-53634787D01*
X179780310Y-53295112D01*
X180161187Y-52769686D01*
X180312000Y-52138500D01*
X180312000Y-51738500D01*
X178713500Y-51738500D01*
X178586500Y-51738500D01*
X178566500Y-51738500D01*
X178566500Y-51611500D01*
X178586500Y-51611500D01*
X178586500Y-49804871D01*
X178713500Y-49804871D01*
X178713500Y-51611500D01*
X180312000Y-51611500D01*
X180312000Y-51211500D01*
X180161187Y-50580314D01*
X179780310Y-50054888D01*
X179227354Y-49715213D01*
X178972522Y-49644595D01*
X178713500Y-49804871D01*
X178586500Y-49804871D01*
X178327478Y-49644595D01*
X178072646Y-49715213D01*
X177566094Y-50026382D01*
X177507000Y-49937941D01*
X177507000Y-45880160D01*
X177609722Y-45632778D01*
X181764521Y-45632778D01*
X182184732Y-46649766D01*
X182962141Y-47428533D01*
X183978395Y-47850519D01*
X185078778Y-47851479D01*
X186095766Y-47431268D01*
X186874533Y-46653859D01*
X187296519Y-45637605D01*
X187297479Y-44537222D01*
X186877268Y-43520234D01*
X186099859Y-42741467D01*
X185083605Y-42319481D01*
X183983222Y-42318521D01*
X182966234Y-42738732D01*
X182187467Y-43516141D01*
X181765481Y-44532395D01*
X181764521Y-45632778D01*
X177609722Y-45632778D01*
X177698109Y-45419920D01*
X177698691Y-44753006D01*
X177444012Y-44136636D01*
X176972844Y-43664646D01*
X176356920Y-43408891D01*
X175690006Y-43408309D01*
X175073636Y-43662988D01*
X174601646Y-44134156D01*
X174345891Y-44750080D01*
X174345309Y-45416994D01*
X174599988Y-46033364D01*
X174713000Y-46146573D01*
X174713000Y-47882291D01*
X174432844Y-47601646D01*
X173816920Y-47345891D01*
X173150006Y-47345309D01*
X172533636Y-47599988D01*
X172061646Y-48071156D01*
X171805891Y-48687080D01*
X171805309Y-49353994D01*
X171881566Y-49538549D01*
X171763221Y-49459474D01*
X171030000Y-49313627D01*
X170296779Y-49459474D01*
X169760000Y-49818137D01*
X169223221Y-49459474D01*
X168490000Y-49313627D01*
X167756779Y-49459474D01*
X167220000Y-49818137D01*
X166683221Y-49459474D01*
X165950000Y-49313627D01*
X165216779Y-49459474D01*
X164680000Y-49818137D01*
X164143221Y-49459474D01*
X163410000Y-49313627D01*
X162676779Y-49459474D01*
X162140000Y-49818137D01*
X161603221Y-49459474D01*
X160870000Y-49313627D01*
X160136779Y-49459474D01*
X159600000Y-49818137D01*
X159063221Y-49459474D01*
X158330000Y-49313627D01*
X157596779Y-49459474D01*
X157060000Y-49818137D01*
X156523221Y-49459474D01*
X155790000Y-49313627D01*
X155056779Y-49459474D01*
X154520000Y-49818137D01*
X153983221Y-49459474D01*
X153250000Y-49313627D01*
X152516779Y-49459474D01*
X151980000Y-49818137D01*
X151443221Y-49459474D01*
X150710000Y-49313627D01*
X149976779Y-49459474D01*
X149440000Y-49818137D01*
X148903221Y-49459474D01*
X148170000Y-49313627D01*
X147436779Y-49459474D01*
X146900000Y-49818137D01*
X146363221Y-49459474D01*
X145630000Y-49313627D01*
X145108257Y-49417408D01*
X145186109Y-49229920D01*
X145186691Y-48563006D01*
X144932012Y-47946636D01*
X144460844Y-47474646D01*
X143844920Y-47218891D01*
X143178006Y-47218309D01*
X142561636Y-47472988D01*
X142536580Y-47498000D01*
X141986000Y-47498000D01*
X141451391Y-47604340D01*
X140998172Y-47907172D01*
X139562172Y-49343172D01*
X139259340Y-49796391D01*
X139251185Y-49837391D01*
X139195183Y-49874810D01*
X138779847Y-50496406D01*
X138634000Y-51229627D01*
X138634000Y-52120373D01*
X138779847Y-52853594D01*
X139104852Y-53340000D01*
X138049000Y-53340000D01*
X137514391Y-53446340D01*
X137061172Y-53749172D01*
X136842535Y-53967809D01*
X136302469Y-54075235D01*
X135713316Y-54468894D01*
X135319657Y-55058047D01*
X135181422Y-55753000D01*
X135319657Y-56447953D01*
X135713316Y-57037106D01*
X136302469Y-57430765D01*
X136997422Y-57569000D01*
X137068578Y-57569000D01*
X137763531Y-57430765D01*
X138352684Y-57037106D01*
X138746343Y-56447953D01*
X138808792Y-56134000D01*
X141351000Y-56134000D01*
X141885609Y-56027660D01*
X142338828Y-55724828D01*
X144077828Y-53985828D01*
X144374628Y-53541637D01*
X144896779Y-53890526D01*
X145032958Y-53917614D01*
X149507172Y-58391828D01*
X149960391Y-58694660D01*
X150495000Y-58801000D01*
X160330344Y-58801000D01*
X160655000Y-59125656D01*
X160655000Y-63175344D01*
X160302172Y-63528172D01*
X159999340Y-63981391D01*
X159893000Y-64516000D01*
X159893000Y-67945000D01*
X159999340Y-68479609D01*
X160302172Y-68932828D01*
X161318172Y-69948828D01*
X161771391Y-70251660D01*
X162306000Y-70358000D01*
X166243000Y-70358000D01*
X166777609Y-70251660D01*
X167230828Y-69948828D01*
X167303994Y-69875662D01*
X167336994Y-69875691D01*
X167953364Y-69621012D01*
X168425354Y-69149844D01*
X168681109Y-68533920D01*
X168681691Y-67867006D01*
X168427012Y-67250636D01*
X167955844Y-66778646D01*
X167339920Y-66522891D01*
X167328588Y-66522881D01*
X167157012Y-66107636D01*
X167089457Y-66039963D01*
X167536354Y-65593844D01*
X167547880Y-65566087D01*
X167741988Y-66035864D01*
X168213156Y-66507854D01*
X168829080Y-66763609D01*
X169495994Y-66764191D01*
X170112364Y-66509512D01*
X170584354Y-66038344D01*
X170840109Y-65422420D01*
X170840691Y-64755506D01*
X170586012Y-64139136D01*
X170114844Y-63667146D01*
X169498920Y-63411391D01*
X169463516Y-63411360D01*
X168783000Y-62730844D01*
X168783000Y-62188157D01*
X168806354Y-62164844D01*
X169062109Y-61548920D01*
X169062691Y-60882006D01*
X168808012Y-60265636D01*
X168336844Y-59793646D01*
X167720920Y-59537891D01*
X167259000Y-59537488D01*
X167259000Y-57150000D01*
X167152660Y-56615391D01*
X166849828Y-56162172D01*
X166746186Y-56058530D01*
X166810364Y-56032012D01*
X167282354Y-55560844D01*
X167306051Y-55503775D01*
X167578156Y-55776354D01*
X168194080Y-56032109D01*
X168860994Y-56032691D01*
X169477364Y-55778012D01*
X169799147Y-55456789D01*
X170118156Y-55776354D01*
X170734080Y-56032109D01*
X171400994Y-56032691D01*
X171513500Y-55986204D01*
X171513500Y-65397844D01*
X170843172Y-66068172D01*
X170540340Y-66521391D01*
X170441051Y-67020550D01*
X170292367Y-67168975D01*
X170015315Y-67836190D01*
X170014685Y-68558640D01*
X170290572Y-69226338D01*
X170434000Y-69370017D01*
X170434000Y-70993000D01*
X167767000Y-70993000D01*
X167232391Y-71099340D01*
X166779172Y-71402172D01*
X165128172Y-73053172D01*
X164825340Y-73506391D01*
X164719000Y-74041000D01*
X164719000Y-85019344D01*
X162023828Y-82324172D01*
X161570609Y-82021340D01*
X161300722Y-81967656D01*
X161224844Y-81891646D01*
X160608920Y-81635891D01*
X159942006Y-81635309D01*
X159325636Y-81889988D01*
X159300580Y-81915000D01*
X154756656Y-81915000D01*
X149479000Y-76637344D01*
X149479000Y-69412656D01*
X152244828Y-66646828D01*
X152547660Y-66193609D01*
X152654000Y-65659000D01*
X152654000Y-64967656D01*
X153232656Y-64389000D01*
X157353000Y-64389000D01*
X157863206Y-64287514D01*
X158065994Y-64287691D01*
X158682364Y-64033012D01*
X159154354Y-63561844D01*
X159410109Y-62945920D01*
X159410386Y-62628002D01*
X159698364Y-62509012D01*
X160170354Y-62037844D01*
X160426109Y-61421920D01*
X160426691Y-60755006D01*
X160172012Y-60138636D01*
X159700844Y-59666646D01*
X159084920Y-59410891D01*
X158418006Y-59410309D01*
X157801636Y-59664988D01*
X157776580Y-59690000D01*
X155448000Y-59690000D01*
X154913391Y-59796340D01*
X154460172Y-60099172D01*
X154234344Y-60325000D01*
X151200656Y-60325000D01*
X147672828Y-56797172D01*
X147219609Y-56494340D01*
X146685000Y-56388000D01*
X140462000Y-56388000D01*
X139927391Y-56494340D01*
X139474172Y-56797172D01*
X137089344Y-59182000D01*
X135833657Y-59182000D01*
X135128000Y-58476344D01*
X135128000Y-51181000D01*
X135021660Y-50646391D01*
X134718828Y-50193172D01*
X130273828Y-45748172D01*
X129820609Y-45445340D01*
X129286000Y-45339000D01*
X124460000Y-45339000D01*
X123925391Y-45445340D01*
X123742691Y-45567416D01*
X123620006Y-45567309D01*
X123003636Y-45821988D01*
X122531646Y-46293156D01*
X122275891Y-46909080D01*
X122275646Y-47190296D01*
X122008000Y-47136096D01*
X120308000Y-47136096D01*
X119931493Y-47206941D01*
X119585694Y-47429456D01*
X119452085Y-47625000D01*
X117783350Y-47625000D01*
X117670544Y-47449694D01*
X117331025Y-47217711D01*
X116928000Y-47136096D01*
X115228000Y-47136096D01*
X114851493Y-47206941D01*
X114505694Y-47429456D01*
X114273711Y-47768975D01*
X114192096Y-48172000D01*
X114192096Y-49872000D01*
X114262941Y-50248507D01*
X114485456Y-50594306D01*
X114486474Y-50595002D01*
X114317484Y-50847913D01*
X114175443Y-51562000D01*
X114317484Y-52276087D01*
X114688933Y-52832000D01*
X114317484Y-53387913D01*
X114175443Y-54102000D01*
X114317484Y-54816087D01*
X114627998Y-55280804D01*
X114273391Y-55351340D01*
X113820172Y-55654172D01*
X112804172Y-56670172D01*
X112501340Y-57123391D01*
X112395000Y-57658000D01*
X112395000Y-63754000D01*
X112501340Y-64288609D01*
X112804172Y-64741828D01*
X114102344Y-66040000D01*
X110821864Y-66040000D01*
X110207221Y-65629310D01*
X109474000Y-65483463D01*
X108740779Y-65629310D01*
X108119183Y-66044646D01*
X107703847Y-66666242D01*
X107558000Y-67399463D01*
X107558000Y-67474537D01*
X107703847Y-68207758D01*
X108119183Y-68829354D01*
X108237500Y-68908410D01*
X108091122Y-69055097D01*
X107843590Y-69654477D01*
X108003709Y-69913500D01*
X109410500Y-69913500D01*
X109410500Y-69893500D01*
X109537500Y-69893500D01*
X109537500Y-69913500D01*
X110944291Y-69913500D01*
X111104410Y-69654477D01*
X110856878Y-69055097D01*
X110710500Y-68908410D01*
X110821864Y-68834000D01*
X114147377Y-68834000D01*
X114147309Y-68911994D01*
X114401988Y-69528364D01*
X114873156Y-70000354D01*
X115489080Y-70256109D01*
X116155994Y-70256691D01*
X116772364Y-70002012D01*
X117244354Y-69530844D01*
X117500109Y-68914920D01*
X117500180Y-68834000D01*
X119026824Y-68834000D01*
X119107456Y-68959306D01*
X119307490Y-69095983D01*
X119087810Y-69627256D01*
X119088191Y-70248658D01*
X119325259Y-70820990D01*
X119614681Y-70882516D01*
X120560197Y-69937000D01*
X120546055Y-69922858D01*
X120635858Y-69833055D01*
X120650000Y-69847197D01*
X120664142Y-69833055D01*
X120753945Y-69922858D01*
X120739803Y-69937000D01*
X121685319Y-70882516D01*
X121974741Y-70820990D01*
X122212190Y-70246744D01*
X122211809Y-69625342D01*
X121992291Y-69095380D01*
X122172306Y-68979544D01*
X122404289Y-68640025D01*
X122485904Y-68237000D01*
X122485904Y-66637000D01*
X122415059Y-66260493D01*
X122192544Y-65914694D01*
X122047000Y-65815248D01*
X122047000Y-64713656D01*
X122600437Y-64160219D01*
X123140994Y-64160691D01*
X123757364Y-63906012D01*
X124229354Y-63434844D01*
X124485109Y-62818920D01*
X124485691Y-62152006D01*
X124231012Y-61535636D01*
X123759844Y-61063646D01*
X123143920Y-60807891D01*
X122477006Y-60807309D01*
X121860636Y-61061988D01*
X121653475Y-61268788D01*
X121313172Y-61496172D01*
X119662172Y-63147172D01*
X119359340Y-63600391D01*
X119253000Y-64135000D01*
X119253000Y-65813824D01*
X119127694Y-65894456D01*
X119028248Y-66040000D01*
X117221000Y-66040000D01*
X117221000Y-65786000D01*
X117114660Y-65251391D01*
X116811828Y-64798172D01*
X115189000Y-63175344D01*
X115189000Y-60525014D01*
X115763305Y-60762988D01*
X116014500Y-60602253D01*
X116014500Y-59245500D01*
X116141500Y-59245500D01*
X116141500Y-60602253D01*
X116392695Y-60762988D01*
X116973758Y-60522214D01*
X117418450Y-60077405D01*
X117658984Y-59496695D01*
X119577016Y-59496695D01*
X119817550Y-60077405D01*
X120262242Y-60522214D01*
X120843305Y-60762988D01*
X121094500Y-60602253D01*
X121094500Y-59245500D01*
X121221500Y-59245500D01*
X121221500Y-60602253D01*
X121472695Y-60762988D01*
X122053758Y-60522214D01*
X122498450Y-60077405D01*
X122738984Y-59496695D01*
X124911016Y-59496695D01*
X125151550Y-60077405D01*
X125596242Y-60522214D01*
X126177305Y-60762988D01*
X126428500Y-60602253D01*
X126428500Y-59245500D01*
X126555500Y-59245500D01*
X126555500Y-60602253D01*
X126806695Y-60762988D01*
X127387758Y-60522214D01*
X127832450Y-60077405D01*
X128072984Y-59496695D01*
X127912081Y-59245500D01*
X126555500Y-59245500D01*
X126428500Y-59245500D01*
X125071919Y-59245500D01*
X124911016Y-59496695D01*
X122738984Y-59496695D01*
X122578081Y-59245500D01*
X121221500Y-59245500D01*
X121094500Y-59245500D01*
X119737919Y-59245500D01*
X119577016Y-59496695D01*
X117658984Y-59496695D01*
X117498081Y-59245500D01*
X116141500Y-59245500D01*
X116014500Y-59245500D01*
X115994500Y-59245500D01*
X115994500Y-59118500D01*
X116014500Y-59118500D01*
X116014500Y-59098500D01*
X116141500Y-59098500D01*
X116141500Y-59118500D01*
X117498081Y-59118500D01*
X117658984Y-58867305D01*
X117418450Y-58286595D01*
X117229812Y-58097907D01*
X117317973Y-58039000D01*
X119918027Y-58039000D01*
X120006188Y-58097907D01*
X119817550Y-58286595D01*
X119577016Y-58867305D01*
X119737919Y-59118500D01*
X121094500Y-59118500D01*
X121094500Y-59098500D01*
X121221500Y-59098500D01*
X121221500Y-59118500D01*
X122578081Y-59118500D01*
X122738984Y-58867305D01*
X122498450Y-58286595D01*
X122309812Y-58097907D01*
X122397973Y-58039000D01*
X125252027Y-58039000D01*
X125340188Y-58097907D01*
X125151550Y-58286595D01*
X124911016Y-58867305D01*
X125071919Y-59118500D01*
X126428500Y-59118500D01*
X126428500Y-59098500D01*
X126555500Y-59098500D01*
X126555500Y-59118500D01*
X127912081Y-59118500D01*
X128072984Y-58867305D01*
X127832450Y-58286595D01*
X127643812Y-58097907D01*
X127731973Y-58039000D01*
X128524000Y-58039000D01*
X129058609Y-57932660D01*
X129511828Y-57629828D01*
X129572516Y-57569140D01*
X129772640Y-57569315D01*
X129794000Y-57560489D01*
X129794000Y-58399006D01*
X129389646Y-58802656D01*
X129133891Y-59418580D01*
X129133860Y-59453984D01*
X128552172Y-60035672D01*
X128249340Y-60488891D01*
X128143000Y-61023500D01*
X128143000Y-61768760D01*
X127969920Y-61696891D01*
X127303006Y-61696309D01*
X126686636Y-61950988D01*
X126214646Y-62422156D01*
X125958891Y-63038080D01*
X125958309Y-63704994D01*
X126212988Y-64321364D01*
X126238000Y-64346420D01*
X126238000Y-69596000D01*
X126344340Y-70130609D01*
X126647172Y-70583828D01*
X128044172Y-71980828D01*
X128497391Y-72283660D01*
X129032000Y-72390000D01*
X129824027Y-72390000D01*
X130313356Y-72716959D01*
X131027443Y-72859000D01*
X131100557Y-72859000D01*
X131814644Y-72716959D01*
X132420018Y-72312461D01*
X132527171Y-72152095D01*
X132708242Y-72333214D01*
X133289305Y-72573988D01*
X133540500Y-72413253D01*
X133540500Y-71056500D01*
X133667500Y-71056500D01*
X133667500Y-72413253D01*
X133918695Y-72573988D01*
X134499758Y-72333214D01*
X134944450Y-71888405D01*
X135184984Y-71307695D01*
X135024081Y-71056500D01*
X133667500Y-71056500D01*
X133540500Y-71056500D01*
X133520500Y-71056500D01*
X133520500Y-70961738D01*
X137933694Y-70961738D01*
X138201985Y-71611052D01*
X138698335Y-72108269D01*
X139347180Y-72377693D01*
X140049738Y-72378306D01*
X140699052Y-72110015D01*
X141196269Y-71613665D01*
X141465693Y-70964820D01*
X141466306Y-70262262D01*
X141198015Y-69612948D01*
X140701665Y-69115731D01*
X140052820Y-68846307D01*
X139350262Y-68845694D01*
X138700948Y-69113985D01*
X138203731Y-69610335D01*
X137934307Y-70259180D01*
X137933694Y-70961738D01*
X133520500Y-70961738D01*
X133520500Y-70929500D01*
X133540500Y-70929500D01*
X133540500Y-70909500D01*
X133667500Y-70909500D01*
X133667500Y-70929500D01*
X135024081Y-70929500D01*
X135184984Y-70678305D01*
X134944450Y-70097595D01*
X134755812Y-69908907D01*
X134843973Y-69850000D01*
X134937500Y-69850000D01*
X135472109Y-69743660D01*
X135925328Y-69440828D01*
X136687328Y-68678828D01*
X136990160Y-68225609D01*
X137096500Y-67691000D01*
X137096500Y-66167000D01*
X141605000Y-66167000D01*
X142139609Y-66060660D01*
X142592828Y-65757828D01*
X143046994Y-65303662D01*
X143079994Y-65303691D01*
X143696364Y-65049012D01*
X144168354Y-64577844D01*
X144424109Y-63961920D01*
X144424512Y-63500000D01*
X144455344Y-63500000D01*
X145161000Y-64205657D01*
X145161000Y-65907558D01*
X144593636Y-66141988D01*
X144121646Y-66613156D01*
X143865891Y-67229080D01*
X143865309Y-67895994D01*
X144119988Y-68512364D01*
X144591156Y-68984354D01*
X145207080Y-69240109D01*
X145242484Y-69240140D01*
X146685000Y-70682656D01*
X146685000Y-77216000D01*
X146791340Y-77750609D01*
X147094172Y-78203828D01*
X153190172Y-84299828D01*
X153643391Y-84602660D01*
X154178000Y-84709000D01*
X159299843Y-84709000D01*
X159323156Y-84732354D01*
X159939080Y-84988109D01*
X160605994Y-84988691D01*
X160698721Y-84950377D01*
X164719000Y-88970656D01*
X164719000Y-95687344D01*
X162715172Y-97691172D01*
X162412340Y-98144391D01*
X162306000Y-98679000D01*
X162306000Y-100386344D01*
X162179000Y-100513344D01*
X162179000Y-99060000D01*
X162072660Y-98525391D01*
X161769828Y-98072172D01*
X161316609Y-97769340D01*
X160782000Y-97663000D01*
X150692656Y-97663000D01*
X148561828Y-95532172D01*
X148108609Y-95229340D01*
X147574000Y-95123000D01*
X140659656Y-95123000D01*
X140052828Y-94516172D01*
X139599609Y-94213340D01*
X139065000Y-94107000D01*
X133223000Y-94107000D01*
X132688391Y-94213340D01*
X132235172Y-94516172D01*
X130330172Y-96421172D01*
X130256735Y-96531079D01*
X130175000Y-96449344D01*
X130175000Y-92456000D01*
X140832000Y-92456000D01*
X140832000Y-93253571D01*
X140948008Y-93533638D01*
X141162362Y-93747992D01*
X141442429Y-93864000D01*
X142240000Y-93864000D01*
X142430500Y-93673500D01*
X142430500Y-92265500D01*
X142557500Y-92265500D01*
X142557500Y-93673500D01*
X142748000Y-93864000D01*
X143545571Y-93864000D01*
X143825638Y-93747992D01*
X144039992Y-93533638D01*
X144156000Y-93253571D01*
X144156000Y-92456000D01*
X147436000Y-92456000D01*
X147436000Y-93253571D01*
X147552008Y-93533638D01*
X147766362Y-93747992D01*
X148046429Y-93864000D01*
X148844000Y-93864000D01*
X149034500Y-93673500D01*
X149034500Y-92265500D01*
X149161500Y-92265500D01*
X149161500Y-93673500D01*
X149352000Y-93864000D01*
X150149571Y-93864000D01*
X150429638Y-93747992D01*
X150643992Y-93533638D01*
X150760000Y-93253571D01*
X150760000Y-92456000D01*
X154040000Y-92456000D01*
X154040000Y-93253571D01*
X154156008Y-93533638D01*
X154370362Y-93747992D01*
X154650429Y-93864000D01*
X155448000Y-93864000D01*
X155638500Y-93673500D01*
X155638500Y-92265500D01*
X155765500Y-92265500D01*
X155765500Y-93673500D01*
X155956000Y-93864000D01*
X156753571Y-93864000D01*
X157033638Y-93747992D01*
X157247992Y-93533638D01*
X157364000Y-93253571D01*
X157364000Y-92456000D01*
X160644000Y-92456000D01*
X160644000Y-93253571D01*
X160760008Y-93533638D01*
X160974362Y-93747992D01*
X161254429Y-93864000D01*
X162052000Y-93864000D01*
X162242500Y-93673500D01*
X162242500Y-92265500D01*
X162369500Y-92265500D01*
X162369500Y-93673500D01*
X162560000Y-93864000D01*
X163357571Y-93864000D01*
X163637638Y-93747992D01*
X163851992Y-93533638D01*
X163968000Y-93253571D01*
X163968000Y-92456000D01*
X163777500Y-92265500D01*
X162369500Y-92265500D01*
X162242500Y-92265500D01*
X160834500Y-92265500D01*
X160644000Y-92456000D01*
X157364000Y-92456000D01*
X157173500Y-92265500D01*
X155765500Y-92265500D01*
X155638500Y-92265500D01*
X154230500Y-92265500D01*
X154040000Y-92456000D01*
X150760000Y-92456000D01*
X150569500Y-92265500D01*
X149161500Y-92265500D01*
X149034500Y-92265500D01*
X147626500Y-92265500D01*
X147436000Y-92456000D01*
X144156000Y-92456000D01*
X143965500Y-92265500D01*
X142557500Y-92265500D01*
X142430500Y-92265500D01*
X141022500Y-92265500D01*
X140832000Y-92456000D01*
X130175000Y-92456000D01*
X130175000Y-90851872D01*
X130500306Y-90642544D01*
X130732289Y-90303025D01*
X130813904Y-89900000D01*
X130813904Y-89299248D01*
X133161651Y-89299248D01*
X133467922Y-90040481D01*
X134034537Y-90608085D01*
X134775233Y-90915650D01*
X135577248Y-90916349D01*
X135787601Y-90829433D01*
X135995233Y-90915650D01*
X136797248Y-90916349D01*
X137538481Y-90610078D01*
X138106085Y-90043463D01*
X138106923Y-90041444D01*
X140577668Y-90041444D01*
X140868747Y-90745909D01*
X140970515Y-90847855D01*
X140948008Y-90870362D01*
X140832000Y-91150429D01*
X140832000Y-91948000D01*
X141022500Y-92138500D01*
X142430500Y-92138500D01*
X142430500Y-92118500D01*
X142557500Y-92118500D01*
X142557500Y-92138500D01*
X143965500Y-92138500D01*
X144156000Y-91948000D01*
X144156000Y-91150429D01*
X144039992Y-90870362D01*
X144017780Y-90848150D01*
X144117359Y-90748744D01*
X144409667Y-90044788D01*
X144409669Y-90041444D01*
X147181668Y-90041444D01*
X147472747Y-90745909D01*
X147574515Y-90847855D01*
X147552008Y-90870362D01*
X147436000Y-91150429D01*
X147436000Y-91948000D01*
X147626500Y-92138500D01*
X149034500Y-92138500D01*
X149034500Y-92118500D01*
X149161500Y-92118500D01*
X149161500Y-92138500D01*
X150569500Y-92138500D01*
X150760000Y-91948000D01*
X150760000Y-91150429D01*
X150643992Y-90870362D01*
X150621780Y-90848150D01*
X150721359Y-90748744D01*
X151013667Y-90044788D01*
X151014332Y-89282556D01*
X150797719Y-88758312D01*
X151316364Y-88544012D01*
X151788354Y-88072844D01*
X152044109Y-87456920D01*
X152044111Y-87453994D01*
X152501309Y-87453994D01*
X152755988Y-88070364D01*
X153227156Y-88542354D01*
X153843080Y-88798109D01*
X153878483Y-88798140D01*
X153954519Y-88874175D01*
X153786333Y-89279212D01*
X153785668Y-90041444D01*
X154076747Y-90745909D01*
X154178515Y-90847855D01*
X154156008Y-90870362D01*
X154040000Y-91150429D01*
X154040000Y-91948000D01*
X154230500Y-92138500D01*
X155638500Y-92138500D01*
X155638500Y-92118500D01*
X155765500Y-92118500D01*
X155765500Y-92138500D01*
X157173500Y-92138500D01*
X157364000Y-91948000D01*
X157364000Y-91150429D01*
X157247992Y-90870362D01*
X157225780Y-90848150D01*
X157325359Y-90748744D01*
X157617667Y-90044788D01*
X157618332Y-89282556D01*
X157327253Y-88578091D01*
X157219345Y-88469994D01*
X157327309Y-88469994D01*
X157581988Y-89086364D01*
X158053156Y-89558354D01*
X158078024Y-89568680D01*
X159159172Y-90649828D01*
X159612391Y-90952660D01*
X160147000Y-91059000D01*
X160681871Y-91059000D01*
X160644000Y-91150429D01*
X160644000Y-91948000D01*
X160834500Y-92138500D01*
X162242500Y-92138500D01*
X162242500Y-92118500D01*
X162369500Y-92118500D01*
X162369500Y-92138500D01*
X163777500Y-92138500D01*
X163968000Y-91948000D01*
X163968000Y-91150429D01*
X163851992Y-90870362D01*
X163829780Y-90848150D01*
X163929359Y-90748744D01*
X164221667Y-90044788D01*
X164222332Y-89282556D01*
X163931253Y-88578091D01*
X163392744Y-88038641D01*
X162688788Y-87746333D01*
X161926556Y-87745668D01*
X161222091Y-88036747D01*
X160993439Y-88265000D01*
X160725656Y-88265000D01*
X160680330Y-88219674D01*
X160680691Y-87806006D01*
X160426012Y-87189636D01*
X159954844Y-86717646D01*
X159338920Y-86461891D01*
X158672006Y-86461309D01*
X158055636Y-86715988D01*
X157583646Y-87187156D01*
X157327891Y-87803080D01*
X157327309Y-88469994D01*
X157219345Y-88469994D01*
X157025331Y-88275642D01*
X156992660Y-88111391D01*
X156907801Y-87984391D01*
X156689828Y-87658171D01*
X155854662Y-86823006D01*
X155854691Y-86790006D01*
X155600012Y-86173636D01*
X155128844Y-85701646D01*
X154512920Y-85445891D01*
X153846006Y-85445309D01*
X153229636Y-85699988D01*
X152757646Y-86171156D01*
X152501891Y-86787080D01*
X152501309Y-87453994D01*
X152044111Y-87453994D01*
X152044691Y-86790006D01*
X151790012Y-86173636D01*
X151318844Y-85701646D01*
X150702920Y-85445891D01*
X150036006Y-85445309D01*
X149419636Y-85699988D01*
X148947646Y-86171156D01*
X148691891Y-86787080D01*
X148691860Y-86822484D01*
X148110172Y-87404172D01*
X147807340Y-87857391D01*
X147711600Y-88338710D01*
X147474641Y-88575256D01*
X147182333Y-89279212D01*
X147181668Y-90041444D01*
X144409669Y-90041444D01*
X144409727Y-89975929D01*
X145205994Y-89179662D01*
X145238994Y-89179691D01*
X145855364Y-88925012D01*
X146327354Y-88453844D01*
X146583109Y-87837920D01*
X146583691Y-87171006D01*
X146329012Y-86554636D01*
X145857844Y-86082646D01*
X145241920Y-85826891D01*
X144575006Y-85826309D01*
X143958636Y-86080988D01*
X143486646Y-86552156D01*
X143230891Y-87168080D01*
X143230860Y-87203484D01*
X142688176Y-87746168D01*
X142114556Y-87745668D01*
X141410091Y-88036747D01*
X140870641Y-88575256D01*
X140578333Y-89279212D01*
X140577668Y-90041444D01*
X138106923Y-90041444D01*
X138413650Y-89302767D01*
X138414036Y-88859620D01*
X140154558Y-87119098D01*
X140394364Y-87020012D01*
X140866354Y-86548844D01*
X141122109Y-85932920D01*
X141122691Y-85266006D01*
X140868012Y-84649636D01*
X140396844Y-84177646D01*
X139780920Y-83921891D01*
X139114006Y-83921309D01*
X138497636Y-84175988D01*
X138025646Y-84647156D01*
X137769891Y-85263080D01*
X137769638Y-85552706D01*
X136438310Y-86884034D01*
X135998752Y-86883651D01*
X135788399Y-86970567D01*
X135580767Y-86884350D01*
X134778752Y-86883651D01*
X134037519Y-87189922D01*
X133469915Y-87756537D01*
X133162350Y-88497233D01*
X133161651Y-89299248D01*
X130813904Y-89299248D01*
X130813904Y-87900000D01*
X130743059Y-87523493D01*
X130520544Y-87177694D01*
X130181025Y-86945711D01*
X130175000Y-86944491D01*
X130175000Y-85541656D01*
X132051828Y-83664828D01*
X132354660Y-83211609D01*
X132461000Y-82677000D01*
X132461000Y-82471570D01*
X132754000Y-82530904D01*
X134454000Y-82530904D01*
X134830507Y-82460059D01*
X135176306Y-82237544D01*
X135243611Y-82139040D01*
X135682080Y-82321109D01*
X136348994Y-82321691D01*
X136965364Y-82067012D01*
X137437354Y-81595844D01*
X137693109Y-80979920D01*
X137693691Y-80313006D01*
X137439012Y-79696636D01*
X136967844Y-79224646D01*
X136351920Y-78968891D01*
X135685006Y-78968309D01*
X135246077Y-79149671D01*
X135196544Y-79072694D01*
X135195526Y-79071998D01*
X135364516Y-78819087D01*
X135506557Y-78105000D01*
X135364516Y-77390913D01*
X134993067Y-76835000D01*
X135364516Y-76279087D01*
X135447532Y-75861738D01*
X137933694Y-75861738D01*
X138201985Y-76511052D01*
X138698335Y-77008269D01*
X139347180Y-77277693D01*
X140049738Y-77278306D01*
X140699052Y-77010015D01*
X141196269Y-76513665D01*
X141465693Y-75864820D01*
X141466306Y-75162262D01*
X141198015Y-74512948D01*
X140701665Y-74015731D01*
X140052820Y-73746307D01*
X139350262Y-73745694D01*
X138700948Y-74013985D01*
X138203731Y-74510335D01*
X137934307Y-75159180D01*
X137933694Y-75861738D01*
X135447532Y-75861738D01*
X135506557Y-75565000D01*
X135364516Y-74850913D01*
X134960018Y-74245539D01*
X134354644Y-73841041D01*
X133640557Y-73699000D01*
X133567443Y-73699000D01*
X132853356Y-73841041D01*
X132247982Y-74245539D01*
X132140829Y-74405905D01*
X131959758Y-74224786D01*
X131378695Y-73984012D01*
X131127500Y-74144747D01*
X131127500Y-75501500D01*
X131147500Y-75501500D01*
X131147500Y-75628500D01*
X131127500Y-75628500D01*
X131127500Y-75648500D01*
X131000500Y-75648500D01*
X131000500Y-75628500D01*
X129643919Y-75628500D01*
X129483016Y-75879695D01*
X129723550Y-76460405D01*
X129912188Y-76649093D01*
X129824027Y-76708000D01*
X129624936Y-76708000D01*
X129474844Y-76557646D01*
X128858920Y-76301891D01*
X128192006Y-76301309D01*
X127575636Y-76555988D01*
X127103646Y-77027156D01*
X126847891Y-77643080D01*
X126847309Y-78309994D01*
X127101988Y-78926364D01*
X127573156Y-79398354D01*
X128189080Y-79654109D01*
X128855994Y-79654691D01*
X129225534Y-79502000D01*
X129590075Y-79502000D01*
X129303484Y-79930913D01*
X129161443Y-80645000D01*
X129303484Y-81359087D01*
X129667000Y-81903127D01*
X129667000Y-82098344D01*
X127790172Y-83975172D01*
X127487340Y-84428391D01*
X127381000Y-84963000D01*
X127381000Y-86948128D01*
X127055694Y-87157456D01*
X126823711Y-87496975D01*
X126742096Y-87900000D01*
X126742096Y-89900000D01*
X126812941Y-90276507D01*
X127035456Y-90622306D01*
X127374975Y-90854289D01*
X127381000Y-90855509D01*
X127381000Y-97028000D01*
X127487340Y-97562609D01*
X127790172Y-98015828D01*
X129245136Y-99470792D01*
X129112920Y-99415891D01*
X128446006Y-99415309D01*
X127829636Y-99669988D01*
X127357646Y-100141156D01*
X127101891Y-100757080D01*
X127101309Y-101423994D01*
X127302881Y-101911834D01*
X126932953Y-101664657D01*
X126238000Y-101526422D01*
X125543047Y-101664657D01*
X124953894Y-102058316D01*
X124560235Y-102647469D01*
X124422000Y-103342422D01*
X124422000Y-103413578D01*
X124560235Y-104108531D01*
X124953894Y-104697684D01*
X125543047Y-105091343D01*
X126238000Y-105229578D01*
X126932953Y-105091343D01*
X127508000Y-104707109D01*
X128083047Y-105091343D01*
X128778000Y-105229578D01*
X129472953Y-105091343D01*
X129770466Y-104892551D01*
X129775456Y-104900306D01*
X130114975Y-105132289D01*
X130518000Y-105213904D01*
X132118000Y-105213904D01*
X132494507Y-105143059D01*
X132840306Y-104920544D01*
X133072289Y-104581025D01*
X133153904Y-104178000D01*
X133153904Y-102578000D01*
X133083059Y-102201493D01*
X132860544Y-101855694D01*
X132715000Y-101756248D01*
X132715000Y-99720180D01*
X133300994Y-99720691D01*
X133917364Y-99466012D01*
X133942420Y-99441000D01*
X135001000Y-99441000D01*
X135509000Y-99339953D01*
X135509000Y-102804890D01*
X134905098Y-103407738D01*
X134559394Y-104240287D01*
X134558607Y-105141758D01*
X134774393Y-105664000D01*
X119634000Y-105664000D01*
X119535180Y-105684012D01*
X119451931Y-105740893D01*
X119397371Y-105825682D01*
X119380000Y-105918000D01*
X119380000Y-114427000D01*
X106730000Y-114427000D01*
X106730000Y-106426000D01*
X108355000Y-106426000D01*
X108355000Y-107823571D01*
X108471008Y-108103638D01*
X108685362Y-108317992D01*
X108965429Y-108434000D01*
X110363000Y-108434000D01*
X110553500Y-108243500D01*
X110553500Y-106235500D01*
X110680500Y-106235500D01*
X110680500Y-108243500D01*
X110871000Y-108434000D01*
X112268571Y-108434000D01*
X112548638Y-108317992D01*
X112762992Y-108103638D01*
X112879000Y-107823571D01*
X112879000Y-106426000D01*
X112688500Y-106235500D01*
X110680500Y-106235500D01*
X110553500Y-106235500D01*
X108545500Y-106235500D01*
X108355000Y-106426000D01*
X106730000Y-106426000D01*
X106730000Y-104520429D01*
X108355000Y-104520429D01*
X108355000Y-105918000D01*
X108545500Y-106108500D01*
X110553500Y-106108500D01*
X110553500Y-104100500D01*
X110680500Y-104100500D01*
X110680500Y-106108500D01*
X112688500Y-106108500D01*
X112879000Y-105918000D01*
X112879000Y-104520429D01*
X112762992Y-104240362D01*
X112548638Y-104026008D01*
X112268571Y-103910000D01*
X110871000Y-103910000D01*
X110680500Y-104100500D01*
X110553500Y-104100500D01*
X110363000Y-103910000D01*
X108965429Y-103910000D01*
X108685362Y-104026008D01*
X108471008Y-104240362D01*
X108355000Y-104520429D01*
X106730000Y-104520429D01*
X106730000Y-101590268D01*
X108100565Y-101590268D01*
X108482796Y-102515337D01*
X109189940Y-103223717D01*
X110114341Y-103607562D01*
X111115268Y-103608435D01*
X112040337Y-103226204D01*
X112748717Y-102519060D01*
X112761199Y-102489000D01*
X114681000Y-102489000D01*
X115215609Y-102382660D01*
X115668828Y-102079828D01*
X117719656Y-100029000D01*
X119964723Y-100029000D01*
X120423278Y-100488356D01*
X121228271Y-100822619D01*
X122099905Y-100823379D01*
X122905480Y-100490522D01*
X123522356Y-99874722D01*
X123856619Y-99069729D01*
X123857189Y-98416467D01*
X123990843Y-98282813D01*
X124639905Y-98283379D01*
X125445480Y-97950522D01*
X126062356Y-97334722D01*
X126396619Y-96529729D01*
X126397379Y-95658095D01*
X126064522Y-94852520D01*
X125448722Y-94235644D01*
X124643729Y-93901381D01*
X123990467Y-93900811D01*
X123856813Y-93767157D01*
X123857379Y-93118095D01*
X123524522Y-92312520D01*
X122908722Y-91695644D01*
X122103729Y-91361381D01*
X121232095Y-91360621D01*
X120426520Y-91693478D01*
X119809644Y-92309278D01*
X119475381Y-93114271D01*
X119474811Y-93767533D01*
X119341157Y-93901187D01*
X118692095Y-93900621D01*
X117886520Y-94233478D01*
X117269644Y-94849278D01*
X116935381Y-95654271D01*
X116934621Y-96525905D01*
X117227613Y-97235000D01*
X117141000Y-97235000D01*
X116655961Y-97331480D01*
X116606391Y-97341340D01*
X116153172Y-97644172D01*
X114102344Y-99695000D01*
X112762086Y-99695000D01*
X112751204Y-99668663D01*
X112044060Y-98960283D01*
X111119659Y-98576438D01*
X110118732Y-98575565D01*
X109193663Y-98957796D01*
X108485283Y-99664940D01*
X108101438Y-100589341D01*
X108100565Y-101590268D01*
X106730000Y-101590268D01*
X106730000Y-93254641D01*
X108337162Y-93254641D01*
X108423065Y-93564831D01*
X109069618Y-93835614D01*
X109770580Y-93838359D01*
X110419236Y-93572649D01*
X110430935Y-93564831D01*
X110516838Y-93254641D01*
X109427000Y-92164803D01*
X108337162Y-93254641D01*
X106730000Y-93254641D01*
X106730000Y-92418580D01*
X107663641Y-92418580D01*
X107929351Y-93067236D01*
X107937169Y-93078935D01*
X108247359Y-93164838D01*
X109337197Y-92075000D01*
X109516803Y-92075000D01*
X110606641Y-93164838D01*
X110916831Y-93078935D01*
X111187614Y-92432382D01*
X111190359Y-91731420D01*
X110924649Y-91082764D01*
X110916831Y-91071065D01*
X110606641Y-90985162D01*
X109516803Y-92075000D01*
X109337197Y-92075000D01*
X108247359Y-90985162D01*
X107937169Y-91071065D01*
X107666386Y-91717618D01*
X107663641Y-92418580D01*
X106730000Y-92418580D01*
X106730000Y-90895359D01*
X108337162Y-90895359D01*
X109427000Y-91985197D01*
X110516838Y-90895359D01*
X110430935Y-90585169D01*
X109784382Y-90314386D01*
X109083420Y-90311641D01*
X108434764Y-90577351D01*
X108423065Y-90585169D01*
X108337162Y-90895359D01*
X106730000Y-90895359D01*
X106730000Y-84796400D01*
X107481141Y-85548853D01*
X108497395Y-85970839D01*
X109597778Y-85971799D01*
X110614766Y-85551588D01*
X111393533Y-84774179D01*
X111815519Y-83757925D01*
X111816479Y-82657542D01*
X111396268Y-81640554D01*
X110618859Y-80861787D01*
X109602605Y-80439801D01*
X108502222Y-80438841D01*
X107485234Y-80859052D01*
X106730000Y-81612969D01*
X106730000Y-71617000D01*
X107538096Y-71617000D01*
X107538096Y-73417000D01*
X107608941Y-73793507D01*
X107831456Y-74139306D01*
X108170975Y-74371289D01*
X108574000Y-74452904D01*
X110069248Y-74452904D01*
X114147338Y-78530995D01*
X114147309Y-78563994D01*
X114401988Y-79180364D01*
X114873156Y-79652354D01*
X115489080Y-79908109D01*
X115524484Y-79908140D01*
X117013746Y-81397402D01*
X117267478Y-82011480D01*
X117883278Y-82628356D01*
X118688271Y-82962619D01*
X119341533Y-82963189D01*
X119475187Y-83096843D01*
X119474811Y-83527533D01*
X113439172Y-89563172D01*
X113136340Y-90016391D01*
X113120346Y-90096797D01*
X113050493Y-90109941D01*
X112704694Y-90332456D01*
X112472711Y-90671975D01*
X112391096Y-91075000D01*
X112391096Y-93075000D01*
X112461941Y-93451507D01*
X112684456Y-93797306D01*
X113023975Y-94029289D01*
X113427000Y-94110904D01*
X115427000Y-94110904D01*
X115803507Y-94040059D01*
X116149306Y-93817544D01*
X116381289Y-93478025D01*
X116462904Y-93075000D01*
X116462904Y-92014752D01*
X116910656Y-91567000D01*
X117516843Y-91567000D01*
X117540156Y-91590354D01*
X118156080Y-91846109D01*
X118822994Y-91846691D01*
X119439364Y-91592012D01*
X119911354Y-91120844D01*
X120167109Y-90504920D01*
X120167691Y-89838006D01*
X119913012Y-89221636D01*
X119441844Y-88749646D01*
X118825920Y-88493891D01*
X118460084Y-88493572D01*
X121450843Y-85502813D01*
X122099905Y-85503379D01*
X122905480Y-85170522D01*
X123522356Y-84554722D01*
X123856619Y-83749729D01*
X123857189Y-83096467D01*
X123990843Y-82962813D01*
X124639905Y-82963379D01*
X125445480Y-82630522D01*
X126062356Y-82014722D01*
X126396619Y-81209729D01*
X126397379Y-80338095D01*
X126064522Y-79532520D01*
X125448722Y-78915644D01*
X124643729Y-78581381D01*
X123990467Y-78580811D01*
X123856813Y-78447157D01*
X123857379Y-77798095D01*
X123524522Y-76992520D01*
X122908722Y-76375644D01*
X122103729Y-76041381D01*
X121232095Y-76040621D01*
X120426520Y-76373478D01*
X119809644Y-76989278D01*
X119475381Y-77794271D01*
X119474811Y-78447533D01*
X119341157Y-78581187D01*
X118692095Y-78580621D01*
X118307280Y-78739624D01*
X117500662Y-77933006D01*
X117500691Y-77900006D01*
X117246012Y-77283636D01*
X116774844Y-76811646D01*
X116158920Y-76555891D01*
X116123517Y-76555860D01*
X114817962Y-75250305D01*
X129483016Y-75250305D01*
X129643919Y-75501500D01*
X131000500Y-75501500D01*
X131000500Y-74144747D01*
X130749305Y-73984012D01*
X130168242Y-74224786D01*
X129723550Y-74669595D01*
X129483016Y-75250305D01*
X114817962Y-75250305D01*
X111409904Y-71842248D01*
X111409904Y-71617000D01*
X111339059Y-71240493D01*
X111166495Y-70972319D01*
X119704484Y-70972319D01*
X119766010Y-71261741D01*
X120340256Y-71499190D01*
X120961658Y-71498809D01*
X121533990Y-71261741D01*
X121595516Y-70972319D01*
X120650000Y-70026803D01*
X119704484Y-70972319D01*
X111166495Y-70972319D01*
X111116544Y-70894694D01*
X110915380Y-70757245D01*
X111104410Y-70299523D01*
X110944291Y-70040500D01*
X109537500Y-70040500D01*
X109537500Y-70060500D01*
X109410500Y-70060500D01*
X109410500Y-70040500D01*
X108003709Y-70040500D01*
X107843590Y-70299523D01*
X108032877Y-70757868D01*
X107851694Y-70874456D01*
X107619711Y-71213975D01*
X107538096Y-71617000D01*
X106730000Y-71617000D01*
X106730000Y-53776080D01*
X107481141Y-54528533D01*
X108497395Y-54950519D01*
X109597778Y-54951479D01*
X110614766Y-54531268D01*
X111393533Y-53753859D01*
X111815519Y-52737605D01*
X111816479Y-51637222D01*
X111396268Y-50620234D01*
X110618859Y-49841467D01*
X109602605Y-49419481D01*
X108502222Y-49418521D01*
X107485234Y-49838732D01*
X106730000Y-50592649D01*
X106730000Y-45632778D01*
X108231521Y-45632778D01*
X108651732Y-46649766D01*
X109429141Y-47428533D01*
X110445395Y-47850519D01*
X111545778Y-47851479D01*
X112562766Y-47431268D01*
X113341533Y-46653859D01*
X113763519Y-45637605D01*
X113764479Y-44537222D01*
X113344268Y-43520234D01*
X112566859Y-42741467D01*
X111550605Y-42319481D01*
X110450222Y-42318521D01*
X109433234Y-42738732D01*
X108654467Y-43516141D01*
X108232481Y-44532395D01*
X108231521Y-45632778D01*
X106730000Y-45632778D01*
X106730000Y-41960000D01*
X187529000Y-41960000D01*
X187529000Y-115189000D01*
X187529000Y-115189000D01*
G37*
X187529000Y-115189000D02*
X181726823Y-115189000D01*
X181102000Y-114460040D01*
X181102000Y-113329821D01*
X182420924Y-113329821D01*
X182482174Y-113551865D01*
X182790418Y-114057780D01*
X183268803Y-114407225D01*
X183844500Y-114547000D01*
X184594500Y-114547000D01*
X184594500Y-113093500D01*
X184721500Y-113093500D01*
X184721500Y-114547000D01*
X185471500Y-114547000D01*
X186047197Y-114407225D01*
X186525582Y-114057780D01*
X186833826Y-113551865D01*
X186895076Y-113329821D01*
X186732979Y-113093500D01*
X184721500Y-113093500D01*
X184594500Y-113093500D01*
X182583021Y-113093500D01*
X182420924Y-113329821D01*
X181102000Y-113329821D01*
X181102000Y-111506000D01*
X181097608Y-111458972D01*
X180971537Y-110789821D01*
X182420924Y-110789821D01*
X182482174Y-111011865D01*
X182790418Y-111517780D01*
X183122014Y-111760000D01*
X182790418Y-112002220D01*
X182482174Y-112508135D01*
X182420924Y-112730179D01*
X182583021Y-112966500D01*
X184594500Y-112966500D01*
X184594500Y-110553500D01*
X184721500Y-110553500D01*
X184721500Y-112966500D01*
X186732979Y-112966500D01*
X186895076Y-112730179D01*
X186833826Y-112508135D01*
X186525582Y-112002220D01*
X186193986Y-111760000D01*
X186525582Y-111517780D01*
X186833826Y-111011865D01*
X186895076Y-110789821D01*
X186732979Y-110553500D01*
X184721500Y-110553500D01*
X184594500Y-110553500D01*
X182583021Y-110553500D01*
X182420924Y-110789821D01*
X180971537Y-110789821D01*
X180858561Y-110190179D01*
X182420924Y-110190179D01*
X182583021Y-110426500D01*
X184594500Y-110426500D01*
X184594500Y-108973000D01*
X184721500Y-108973000D01*
X184721500Y-110426500D01*
X186732979Y-110426500D01*
X186895076Y-110190179D01*
X186833826Y-109968135D01*
X186525582Y-109462220D01*
X186047197Y-109112775D01*
X185471500Y-108973000D01*
X184721500Y-108973000D01*
X184594500Y-108973000D01*
X183844500Y-108973000D01*
X183268803Y-109112775D01*
X182790418Y-109462220D01*
X182482174Y-109968135D01*
X182420924Y-110190179D01*
X180858561Y-110190179D01*
X180272108Y-107077472D01*
X180234146Y-106984066D01*
X180162835Y-106912788D01*
X180098656Y-106882186D01*
X178141560Y-106267099D01*
X178430902Y-105978262D01*
X178776606Y-105145713D01*
X178777393Y-104244242D01*
X178433142Y-103411091D01*
X177908000Y-102885031D01*
X177908000Y-101962000D01*
X177801660Y-101427391D01*
X177498828Y-100974172D01*
X173580828Y-97056172D01*
X173127609Y-96753340D01*
X172593000Y-96647000D01*
X167437215Y-96647000D01*
X167513000Y-96266000D01*
X167513000Y-89224656D01*
X176784000Y-98495656D01*
X176784000Y-99568000D01*
X176890340Y-100102609D01*
X177193172Y-100555828D01*
X180086000Y-103448656D01*
X180086000Y-105029000D01*
X180192340Y-105563609D01*
X180495172Y-106016828D01*
X182273172Y-107794828D01*
X182726391Y-108097660D01*
X183053031Y-108162632D01*
X183192456Y-108379306D01*
X183531975Y-108611289D01*
X183935000Y-108692904D01*
X185635000Y-108692904D01*
X186011507Y-108622059D01*
X186357306Y-108399544D01*
X186589289Y-108060025D01*
X186670904Y-107657000D01*
X186670904Y-105957000D01*
X186600059Y-105580493D01*
X186377544Y-105234694D01*
X186376526Y-105233998D01*
X186545516Y-104981087D01*
X186687557Y-104267000D01*
X186545516Y-103552913D01*
X186174067Y-102997000D01*
X186545516Y-102441087D01*
X186687557Y-101727000D01*
X186545516Y-101012913D01*
X186174067Y-100457000D01*
X186545516Y-99901087D01*
X186687557Y-99187000D01*
X186545516Y-98472913D01*
X186174067Y-97917000D01*
X186545516Y-97361087D01*
X186687557Y-96647000D01*
X186545516Y-95932913D01*
X186174067Y-95377000D01*
X186545516Y-94821087D01*
X186687557Y-94107000D01*
X186545516Y-93392913D01*
X186174067Y-92837000D01*
X186545516Y-92281087D01*
X186687557Y-91567000D01*
X186545516Y-90852913D01*
X186174067Y-90297000D01*
X186545516Y-89741087D01*
X186687557Y-89027000D01*
X186545516Y-88312913D01*
X186141018Y-87707539D01*
X185535644Y-87303041D01*
X184821557Y-87161000D01*
X184748443Y-87161000D01*
X184034356Y-87303041D01*
X183545027Y-87630000D01*
X182569656Y-87630000D01*
X178672434Y-83732778D01*
X181383521Y-83732778D01*
X181803732Y-84749766D01*
X182581141Y-85528533D01*
X183597395Y-85950519D01*
X184697778Y-85951479D01*
X185714766Y-85531268D01*
X186493533Y-84753859D01*
X186915519Y-83737605D01*
X186916479Y-82637222D01*
X186496268Y-81620234D01*
X185718859Y-80841467D01*
X184702605Y-80419481D01*
X183602222Y-80418521D01*
X182585234Y-80838732D01*
X181806467Y-81616141D01*
X181384481Y-82632395D01*
X181383521Y-83732778D01*
X178672434Y-83732778D01*
X174340252Y-79400596D01*
X174448994Y-79400691D01*
X175065364Y-79146012D01*
X175111427Y-79100029D01*
X175540609Y-79014660D01*
X175993828Y-78711828D01*
X176300835Y-78404821D01*
X180515924Y-78404821D01*
X180577174Y-78626865D01*
X180885418Y-79132780D01*
X181363803Y-79482225D01*
X181939500Y-79622000D01*
X182689500Y-79622000D01*
X182689500Y-78168500D01*
X182816500Y-78168500D01*
X182816500Y-79622000D01*
X183566500Y-79622000D01*
X184142197Y-79482225D01*
X184620582Y-79132780D01*
X184928826Y-78626865D01*
X184990076Y-78404821D01*
X184827979Y-78168500D01*
X182816500Y-78168500D01*
X182689500Y-78168500D01*
X180678021Y-78168500D01*
X180515924Y-78404821D01*
X176300835Y-78404821D01*
X177743656Y-76962000D01*
X180917905Y-76962000D01*
X180983318Y-77005708D01*
X180885418Y-77077220D01*
X180577174Y-77583135D01*
X180515924Y-77805179D01*
X180678021Y-78041500D01*
X182689500Y-78041500D01*
X182689500Y-78021500D01*
X182816500Y-78021500D01*
X182816500Y-78041500D01*
X184827979Y-78041500D01*
X184990076Y-77805179D01*
X184928826Y-77583135D01*
X184620582Y-77077220D01*
X184522682Y-77005708D01*
X184804675Y-76817286D01*
X185188580Y-76242732D01*
X185323389Y-75565000D01*
X185188580Y-74887268D01*
X184804675Y-74312714D01*
X184778164Y-74295000D01*
X184804675Y-74277286D01*
X185188580Y-73702732D01*
X185323389Y-73025000D01*
X185188580Y-72347268D01*
X184804675Y-71772714D01*
X184230121Y-71388809D01*
X183815973Y-71306430D01*
X184142197Y-71227225D01*
X184620582Y-70877780D01*
X184928826Y-70371865D01*
X184990076Y-70149821D01*
X184827979Y-69913500D01*
X182816500Y-69913500D01*
X182816500Y-69933500D01*
X182689500Y-69933500D01*
X182689500Y-69913500D01*
X180678021Y-69913500D01*
X180515924Y-70149821D01*
X180577174Y-70371865D01*
X180885418Y-70877780D01*
X181363803Y-71227225D01*
X181690027Y-71306430D01*
X181275879Y-71388809D01*
X180917905Y-71628000D01*
X179553016Y-71628000D01*
X179476012Y-71441636D01*
X179004844Y-70969646D01*
X178388920Y-70713891D01*
X177722006Y-70713309D01*
X177105636Y-70967988D01*
X177080580Y-70993000D01*
X173228000Y-70993000D01*
X173228000Y-69370411D01*
X173369633Y-69229025D01*
X173646685Y-68561810D01*
X173647315Y-67839360D01*
X173464863Y-67397793D01*
X173898328Y-66964328D01*
X174024572Y-66775391D01*
X174201160Y-66511109D01*
X174307500Y-65976500D01*
X174307500Y-65024000D01*
X174472599Y-65024000D01*
X174472309Y-65355994D01*
X174726988Y-65972364D01*
X175198156Y-66444354D01*
X175814080Y-66700109D01*
X175849484Y-66700140D01*
X177447172Y-68297828D01*
X177900391Y-68600660D01*
X178435000Y-68707000D01*
X180917905Y-68707000D01*
X180983318Y-68750708D01*
X180885418Y-68822220D01*
X180577174Y-69328135D01*
X180515924Y-69550179D01*
X180678021Y-69786500D01*
X182689500Y-69786500D01*
X182689500Y-69766500D01*
X182816500Y-69766500D01*
X182816500Y-69786500D01*
X184827979Y-69786500D01*
X184990076Y-69550179D01*
X184928826Y-69328135D01*
X184620582Y-68822220D01*
X184522682Y-68750708D01*
X184804675Y-68562286D01*
X185188580Y-67987732D01*
X185323389Y-67310000D01*
X185188580Y-66632268D01*
X184804675Y-66057714D01*
X184778164Y-66040000D01*
X184804675Y-66022286D01*
X185188580Y-65447732D01*
X185323389Y-64770000D01*
X185188580Y-64092268D01*
X184804675Y-63517714D01*
X184230121Y-63133809D01*
X183815973Y-63051430D01*
X184142197Y-62972225D01*
X184620582Y-62622780D01*
X184928826Y-62116865D01*
X184990076Y-61894821D01*
X184827979Y-61658500D01*
X182816500Y-61658500D01*
X182816500Y-61678500D01*
X182689500Y-61678500D01*
X182689500Y-61658500D01*
X180678021Y-61658500D01*
X180515924Y-61894821D01*
X180577174Y-62116865D01*
X180885418Y-62622780D01*
X181363803Y-62972225D01*
X181690027Y-63051430D01*
X181275879Y-63133809D01*
X180917905Y-63373000D01*
X179732491Y-63373000D01*
X179603012Y-63059636D01*
X179131844Y-62587646D01*
X178515920Y-62331891D01*
X178311345Y-62331712D01*
X177800000Y-62230000D01*
X174307500Y-62230000D01*
X174307500Y-55887156D01*
X174568656Y-55626000D01*
X175048137Y-55626000D01*
X174855646Y-55818156D01*
X174599891Y-56434080D01*
X174599309Y-57100994D01*
X174853988Y-57717364D01*
X175325156Y-58189354D01*
X175941080Y-58445109D01*
X175976484Y-58445140D01*
X177574172Y-60042828D01*
X178027391Y-60345660D01*
X178562000Y-60452000D01*
X180917905Y-60452000D01*
X180983318Y-60495708D01*
X180885418Y-60567220D01*
X180577174Y-61073135D01*
X180515924Y-61295179D01*
X180678021Y-61531500D01*
X182689500Y-61531500D01*
X182689500Y-61511500D01*
X182816500Y-61511500D01*
X182816500Y-61531500D01*
X184827979Y-61531500D01*
X184990076Y-61295179D01*
X184928826Y-61073135D01*
X184620582Y-60567220D01*
X184522682Y-60495708D01*
X184804675Y-60307286D01*
X185188580Y-59732732D01*
X185323389Y-59055000D01*
X185188580Y-58377268D01*
X184804675Y-57802714D01*
X184778164Y-57785000D01*
X184804675Y-57767286D01*
X185188580Y-57192732D01*
X185323389Y-56515000D01*
X185188580Y-55837268D01*
X184804675Y-55262714D01*
X184338410Y-54951165D01*
X184697778Y-54951479D01*
X185714766Y-54531268D01*
X186493533Y-53753859D01*
X186915519Y-52737605D01*
X186916479Y-51637222D01*
X186496268Y-50620234D01*
X185718859Y-49841467D01*
X184702605Y-49419481D01*
X183602222Y-49418521D01*
X182585234Y-49838732D01*
X181806467Y-50616141D01*
X181384481Y-51632395D01*
X181383521Y-52732778D01*
X181803732Y-53749766D01*
X182581141Y-54528533D01*
X183100043Y-54744000D01*
X181953611Y-54744000D01*
X181275879Y-54878809D01*
X180917905Y-55118000D01*
X179859491Y-55118000D01*
X179730012Y-54804636D01*
X179258844Y-54332646D01*
X178642920Y-54076891D01*
X178607516Y-54076860D01*
X178201017Y-53670361D01*
X178327478Y-53705405D01*
X178586500Y-53545129D01*
X178586500Y-51738500D01*
X178713500Y-51738500D01*
X178713500Y-53545129D01*
X178972522Y-53705405D01*
X179227354Y-53634787D01*
X179780310Y-53295112D01*
X180161187Y-52769686D01*
X180312000Y-52138500D01*
X180312000Y-51738500D01*
X178713500Y-51738500D01*
X178586500Y-51738500D01*
X178566500Y-51738500D01*
X178566500Y-51611500D01*
X178586500Y-51611500D01*
X178586500Y-49804871D01*
X178713500Y-49804871D01*
X178713500Y-51611500D01*
X180312000Y-51611500D01*
X180312000Y-51211500D01*
X180161187Y-50580314D01*
X179780310Y-50054888D01*
X179227354Y-49715213D01*
X178972522Y-49644595D01*
X178713500Y-49804871D01*
X178586500Y-49804871D01*
X178327478Y-49644595D01*
X178072646Y-49715213D01*
X177566094Y-50026382D01*
X177507000Y-49937941D01*
X177507000Y-45880160D01*
X177609722Y-45632778D01*
X181764521Y-45632778D01*
X182184732Y-46649766D01*
X182962141Y-47428533D01*
X183978395Y-47850519D01*
X185078778Y-47851479D01*
X186095766Y-47431268D01*
X186874533Y-46653859D01*
X187296519Y-45637605D01*
X187297479Y-44537222D01*
X186877268Y-43520234D01*
X186099859Y-42741467D01*
X185083605Y-42319481D01*
X183983222Y-42318521D01*
X182966234Y-42738732D01*
X182187467Y-43516141D01*
X181765481Y-44532395D01*
X181764521Y-45632778D01*
X177609722Y-45632778D01*
X177698109Y-45419920D01*
X177698691Y-44753006D01*
X177444012Y-44136636D01*
X176972844Y-43664646D01*
X176356920Y-43408891D01*
X175690006Y-43408309D01*
X175073636Y-43662988D01*
X174601646Y-44134156D01*
X174345891Y-44750080D01*
X174345309Y-45416994D01*
X174599988Y-46033364D01*
X174713000Y-46146573D01*
X174713000Y-47882291D01*
X174432844Y-47601646D01*
X173816920Y-47345891D01*
X173150006Y-47345309D01*
X172533636Y-47599988D01*
X172061646Y-48071156D01*
X171805891Y-48687080D01*
X171805309Y-49353994D01*
X171881566Y-49538549D01*
X171763221Y-49459474D01*
X171030000Y-49313627D01*
X170296779Y-49459474D01*
X169760000Y-49818137D01*
X169223221Y-49459474D01*
X168490000Y-49313627D01*
X167756779Y-49459474D01*
X167220000Y-49818137D01*
X166683221Y-49459474D01*
X165950000Y-49313627D01*
X165216779Y-49459474D01*
X164680000Y-49818137D01*
X164143221Y-49459474D01*
X163410000Y-49313627D01*
X162676779Y-49459474D01*
X162140000Y-49818137D01*
X161603221Y-49459474D01*
X160870000Y-49313627D01*
X160136779Y-49459474D01*
X159600000Y-49818137D01*
X159063221Y-49459474D01*
X158330000Y-49313627D01*
X157596779Y-49459474D01*
X157060000Y-49818137D01*
X156523221Y-49459474D01*
X155790000Y-49313627D01*
X155056779Y-49459474D01*
X154520000Y-49818137D01*
X153983221Y-49459474D01*
X153250000Y-49313627D01*
X152516779Y-49459474D01*
X151980000Y-49818137D01*
X151443221Y-49459474D01*
X150710000Y-49313627D01*
X149976779Y-49459474D01*
X149440000Y-49818137D01*
X148903221Y-49459474D01*
X148170000Y-49313627D01*
X147436779Y-49459474D01*
X146900000Y-49818137D01*
X146363221Y-49459474D01*
X145630000Y-49313627D01*
X145108257Y-49417408D01*
X145186109Y-49229920D01*
X145186691Y-48563006D01*
X144932012Y-47946636D01*
X144460844Y-47474646D01*
X143844920Y-47218891D01*
X143178006Y-47218309D01*
X142561636Y-47472988D01*
X142536580Y-47498000D01*
X141986000Y-47498000D01*
X141451391Y-47604340D01*
X140998172Y-47907172D01*
X139562172Y-49343172D01*
X139259340Y-49796391D01*
X139251185Y-49837391D01*
X139195183Y-49874810D01*
X138779847Y-50496406D01*
X138634000Y-51229627D01*
X138634000Y-52120373D01*
X138779847Y-52853594D01*
X139104852Y-53340000D01*
X138049000Y-53340000D01*
X137514391Y-53446340D01*
X137061172Y-53749172D01*
X136842535Y-53967809D01*
X136302469Y-54075235D01*
X135713316Y-54468894D01*
X135319657Y-55058047D01*
X135181422Y-55753000D01*
X135319657Y-56447953D01*
X135713316Y-57037106D01*
X136302469Y-57430765D01*
X136997422Y-57569000D01*
X137068578Y-57569000D01*
X137763531Y-57430765D01*
X138352684Y-57037106D01*
X138746343Y-56447953D01*
X138808792Y-56134000D01*
X141351000Y-56134000D01*
X141885609Y-56027660D01*
X142338828Y-55724828D01*
X144077828Y-53985828D01*
X144374628Y-53541637D01*
X144896779Y-53890526D01*
X145032958Y-53917614D01*
X149507172Y-58391828D01*
X149960391Y-58694660D01*
X150495000Y-58801000D01*
X160330344Y-58801000D01*
X160655000Y-59125656D01*
X160655000Y-63175344D01*
X160302172Y-63528172D01*
X159999340Y-63981391D01*
X159893000Y-64516000D01*
X159893000Y-67945000D01*
X159999340Y-68479609D01*
X160302172Y-68932828D01*
X161318172Y-69948828D01*
X161771391Y-70251660D01*
X162306000Y-70358000D01*
X166243000Y-70358000D01*
X166777609Y-70251660D01*
X167230828Y-69948828D01*
X167303994Y-69875662D01*
X167336994Y-69875691D01*
X167953364Y-69621012D01*
X168425354Y-69149844D01*
X168681109Y-68533920D01*
X168681691Y-67867006D01*
X168427012Y-67250636D01*
X167955844Y-66778646D01*
X167339920Y-66522891D01*
X167328588Y-66522881D01*
X167157012Y-66107636D01*
X167089457Y-66039963D01*
X167536354Y-65593844D01*
X167547880Y-65566087D01*
X167741988Y-66035864D01*
X168213156Y-66507854D01*
X168829080Y-66763609D01*
X169495994Y-66764191D01*
X170112364Y-66509512D01*
X170584354Y-66038344D01*
X170840109Y-65422420D01*
X170840691Y-64755506D01*
X170586012Y-64139136D01*
X170114844Y-63667146D01*
X169498920Y-63411391D01*
X169463516Y-63411360D01*
X168783000Y-62730844D01*
X168783000Y-62188157D01*
X168806354Y-62164844D01*
X169062109Y-61548920D01*
X169062691Y-60882006D01*
X168808012Y-60265636D01*
X168336844Y-59793646D01*
X167720920Y-59537891D01*
X167259000Y-59537488D01*
X167259000Y-57150000D01*
X167152660Y-56615391D01*
X166849828Y-56162172D01*
X166746186Y-56058530D01*
X166810364Y-56032012D01*
X167282354Y-55560844D01*
X167306051Y-55503775D01*
X167578156Y-55776354D01*
X168194080Y-56032109D01*
X168860994Y-56032691D01*
X169477364Y-55778012D01*
X169799147Y-55456789D01*
X170118156Y-55776354D01*
X170734080Y-56032109D01*
X171400994Y-56032691D01*
X171513500Y-55986204D01*
X171513500Y-65397844D01*
X170843172Y-66068172D01*
X170540340Y-66521391D01*
X170441051Y-67020550D01*
X170292367Y-67168975D01*
X170015315Y-67836190D01*
X170014685Y-68558640D01*
X170290572Y-69226338D01*
X170434000Y-69370017D01*
X170434000Y-70993000D01*
X167767000Y-70993000D01*
X167232391Y-71099340D01*
X166779172Y-71402172D01*
X165128172Y-73053172D01*
X164825340Y-73506391D01*
X164719000Y-74041000D01*
X164719000Y-85019344D01*
X162023828Y-82324172D01*
X161570609Y-82021340D01*
X161300722Y-81967656D01*
X161224844Y-81891646D01*
X160608920Y-81635891D01*
X159942006Y-81635309D01*
X159325636Y-81889988D01*
X159300580Y-81915000D01*
X154756656Y-81915000D01*
X149479000Y-76637344D01*
X149479000Y-69412656D01*
X152244828Y-66646828D01*
X152547660Y-66193609D01*
X152654000Y-65659000D01*
X152654000Y-64967656D01*
X153232656Y-64389000D01*
X157353000Y-64389000D01*
X157863206Y-64287514D01*
X158065994Y-64287691D01*
X158682364Y-64033012D01*
X159154354Y-63561844D01*
X159410109Y-62945920D01*
X159410386Y-62628002D01*
X159698364Y-62509012D01*
X160170354Y-62037844D01*
X160426109Y-61421920D01*
X160426691Y-60755006D01*
X160172012Y-60138636D01*
X159700844Y-59666646D01*
X159084920Y-59410891D01*
X158418006Y-59410309D01*
X157801636Y-59664988D01*
X157776580Y-59690000D01*
X155448000Y-59690000D01*
X154913391Y-59796340D01*
X154460172Y-60099172D01*
X154234344Y-60325000D01*
X151200656Y-60325000D01*
X147672828Y-56797172D01*
X147219609Y-56494340D01*
X146685000Y-56388000D01*
X140462000Y-56388000D01*
X139927391Y-56494340D01*
X139474172Y-56797172D01*
X137089344Y-59182000D01*
X135833657Y-59182000D01*
X135128000Y-58476344D01*
X135128000Y-51181000D01*
X135021660Y-50646391D01*
X134718828Y-50193172D01*
X130273828Y-45748172D01*
X129820609Y-45445340D01*
X129286000Y-45339000D01*
X124460000Y-45339000D01*
X123925391Y-45445340D01*
X123742691Y-45567416D01*
X123620006Y-45567309D01*
X123003636Y-45821988D01*
X122531646Y-46293156D01*
X122275891Y-46909080D01*
X122275646Y-47190296D01*
X122008000Y-47136096D01*
X120308000Y-47136096D01*
X119931493Y-47206941D01*
X119585694Y-47429456D01*
X119452085Y-47625000D01*
X117783350Y-47625000D01*
X117670544Y-47449694D01*
X117331025Y-47217711D01*
X116928000Y-47136096D01*
X115228000Y-47136096D01*
X114851493Y-47206941D01*
X114505694Y-47429456D01*
X114273711Y-47768975D01*
X114192096Y-48172000D01*
X114192096Y-49872000D01*
X114262941Y-50248507D01*
X114485456Y-50594306D01*
X114486474Y-50595002D01*
X114317484Y-50847913D01*
X114175443Y-51562000D01*
X114317484Y-52276087D01*
X114688933Y-52832000D01*
X114317484Y-53387913D01*
X114175443Y-54102000D01*
X114317484Y-54816087D01*
X114627998Y-55280804D01*
X114273391Y-55351340D01*
X113820172Y-55654172D01*
X112804172Y-56670172D01*
X112501340Y-57123391D01*
X112395000Y-57658000D01*
X112395000Y-63754000D01*
X112501340Y-64288609D01*
X112804172Y-64741828D01*
X114102344Y-66040000D01*
X110821864Y-66040000D01*
X110207221Y-65629310D01*
X109474000Y-65483463D01*
X108740779Y-65629310D01*
X108119183Y-66044646D01*
X107703847Y-66666242D01*
X107558000Y-67399463D01*
X107558000Y-67474537D01*
X107703847Y-68207758D01*
X108119183Y-68829354D01*
X108237500Y-68908410D01*
X108091122Y-69055097D01*
X107843590Y-69654477D01*
X108003709Y-69913500D01*
X109410500Y-69913500D01*
X109410500Y-69893500D01*
X109537500Y-69893500D01*
X109537500Y-69913500D01*
X110944291Y-69913500D01*
X111104410Y-69654477D01*
X110856878Y-69055097D01*
X110710500Y-68908410D01*
X110821864Y-68834000D01*
X114147377Y-68834000D01*
X114147309Y-68911994D01*
X114401988Y-69528364D01*
X114873156Y-70000354D01*
X115489080Y-70256109D01*
X116155994Y-70256691D01*
X116772364Y-70002012D01*
X117244354Y-69530844D01*
X117500109Y-68914920D01*
X117500180Y-68834000D01*
X119026824Y-68834000D01*
X119107456Y-68959306D01*
X119307490Y-69095983D01*
X119087810Y-69627256D01*
X119088191Y-70248658D01*
X119325259Y-70820990D01*
X119614681Y-70882516D01*
X120560197Y-69937000D01*
X120546055Y-69922858D01*
X120635858Y-69833055D01*
X120650000Y-69847197D01*
X120664142Y-69833055D01*
X120753945Y-69922858D01*
X120739803Y-69937000D01*
X121685319Y-70882516D01*
X121974741Y-70820990D01*
X122212190Y-70246744D01*
X122211809Y-69625342D01*
X121992291Y-69095380D01*
X122172306Y-68979544D01*
X122404289Y-68640025D01*
X122485904Y-68237000D01*
X122485904Y-66637000D01*
X122415059Y-66260493D01*
X122192544Y-65914694D01*
X122047000Y-65815248D01*
X122047000Y-64713656D01*
X122600437Y-64160219D01*
X123140994Y-64160691D01*
X123757364Y-63906012D01*
X124229354Y-63434844D01*
X124485109Y-62818920D01*
X124485691Y-62152006D01*
X124231012Y-61535636D01*
X123759844Y-61063646D01*
X123143920Y-60807891D01*
X122477006Y-60807309D01*
X121860636Y-61061988D01*
X121653475Y-61268788D01*
X121313172Y-61496172D01*
X119662172Y-63147172D01*
X119359340Y-63600391D01*
X119253000Y-64135000D01*
X119253000Y-65813824D01*
X119127694Y-65894456D01*
X119028248Y-66040000D01*
X117221000Y-66040000D01*
X117221000Y-65786000D01*
X117114660Y-65251391D01*
X116811828Y-64798172D01*
X115189000Y-63175344D01*
X115189000Y-60525014D01*
X115763305Y-60762988D01*
X116014500Y-60602253D01*
X116014500Y-59245500D01*
X116141500Y-59245500D01*
X116141500Y-60602253D01*
X116392695Y-60762988D01*
X116973758Y-60522214D01*
X117418450Y-60077405D01*
X117658984Y-59496695D01*
X119577016Y-59496695D01*
X119817550Y-60077405D01*
X120262242Y-60522214D01*
X120843305Y-60762988D01*
X121094500Y-60602253D01*
X121094500Y-59245500D01*
X121221500Y-59245500D01*
X121221500Y-60602253D01*
X121472695Y-60762988D01*
X122053758Y-60522214D01*
X122498450Y-60077405D01*
X122738984Y-59496695D01*
X124911016Y-59496695D01*
X125151550Y-60077405D01*
X125596242Y-60522214D01*
X126177305Y-60762988D01*
X126428500Y-60602253D01*
X126428500Y-59245500D01*
X126555500Y-59245500D01*
X126555500Y-60602253D01*
X126806695Y-60762988D01*
X127387758Y-60522214D01*
X127832450Y-60077405D01*
X128072984Y-59496695D01*
X127912081Y-59245500D01*
X126555500Y-59245500D01*
X126428500Y-59245500D01*
X125071919Y-59245500D01*
X124911016Y-59496695D01*
X122738984Y-59496695D01*
X122578081Y-59245500D01*
X121221500Y-59245500D01*
X121094500Y-59245500D01*
X119737919Y-59245500D01*
X119577016Y-59496695D01*
X117658984Y-59496695D01*
X117498081Y-59245500D01*
X116141500Y-59245500D01*
X116014500Y-59245500D01*
X115994500Y-59245500D01*
X115994500Y-59118500D01*
X116014500Y-59118500D01*
X116014500Y-59098500D01*
X116141500Y-59098500D01*
X116141500Y-59118500D01*
X117498081Y-59118500D01*
X117658984Y-58867305D01*
X117418450Y-58286595D01*
X117229812Y-58097907D01*
X117317973Y-58039000D01*
X119918027Y-58039000D01*
X120006188Y-58097907D01*
X119817550Y-58286595D01*
X119577016Y-58867305D01*
X119737919Y-59118500D01*
X121094500Y-59118500D01*
X121094500Y-59098500D01*
X121221500Y-59098500D01*
X121221500Y-59118500D01*
X122578081Y-59118500D01*
X122738984Y-58867305D01*
X122498450Y-58286595D01*
X122309812Y-58097907D01*
X122397973Y-58039000D01*
X125252027Y-58039000D01*
X125340188Y-58097907D01*
X125151550Y-58286595D01*
X124911016Y-58867305D01*
X125071919Y-59118500D01*
X126428500Y-59118500D01*
X126428500Y-59098500D01*
X126555500Y-59098500D01*
X126555500Y-59118500D01*
X127912081Y-59118500D01*
X128072984Y-58867305D01*
X127832450Y-58286595D01*
X127643812Y-58097907D01*
X127731973Y-58039000D01*
X128524000Y-58039000D01*
X129058609Y-57932660D01*
X129511828Y-57629828D01*
X129572516Y-57569140D01*
X129772640Y-57569315D01*
X129794000Y-57560489D01*
X129794000Y-58399006D01*
X129389646Y-58802656D01*
X129133891Y-59418580D01*
X129133860Y-59453984D01*
X128552172Y-60035672D01*
X128249340Y-60488891D01*
X128143000Y-61023500D01*
X128143000Y-61768760D01*
X127969920Y-61696891D01*
X127303006Y-61696309D01*
X126686636Y-61950988D01*
X126214646Y-62422156D01*
X125958891Y-63038080D01*
X125958309Y-63704994D01*
X126212988Y-64321364D01*
X126238000Y-64346420D01*
X126238000Y-69596000D01*
X126344340Y-70130609D01*
X126647172Y-70583828D01*
X128044172Y-71980828D01*
X128497391Y-72283660D01*
X129032000Y-72390000D01*
X129824027Y-72390000D01*
X130313356Y-72716959D01*
X131027443Y-72859000D01*
X131100557Y-72859000D01*
X131814644Y-72716959D01*
X132420018Y-72312461D01*
X132527171Y-72152095D01*
X132708242Y-72333214D01*
X133289305Y-72573988D01*
X133540500Y-72413253D01*
X133540500Y-71056500D01*
X133667500Y-71056500D01*
X133667500Y-72413253D01*
X133918695Y-72573988D01*
X134499758Y-72333214D01*
X134944450Y-71888405D01*
X135184984Y-71307695D01*
X135024081Y-71056500D01*
X133667500Y-71056500D01*
X133540500Y-71056500D01*
X133520500Y-71056500D01*
X133520500Y-70961738D01*
X137933694Y-70961738D01*
X138201985Y-71611052D01*
X138698335Y-72108269D01*
X139347180Y-72377693D01*
X140049738Y-72378306D01*
X140699052Y-72110015D01*
X141196269Y-71613665D01*
X141465693Y-70964820D01*
X141466306Y-70262262D01*
X141198015Y-69612948D01*
X140701665Y-69115731D01*
X140052820Y-68846307D01*
X139350262Y-68845694D01*
X138700948Y-69113985D01*
X138203731Y-69610335D01*
X137934307Y-70259180D01*
X137933694Y-70961738D01*
X133520500Y-70961738D01*
X133520500Y-70929500D01*
X133540500Y-70929500D01*
X133540500Y-70909500D01*
X133667500Y-70909500D01*
X133667500Y-70929500D01*
X135024081Y-70929500D01*
X135184984Y-70678305D01*
X134944450Y-70097595D01*
X134755812Y-69908907D01*
X134843973Y-69850000D01*
X134937500Y-69850000D01*
X135472109Y-69743660D01*
X135925328Y-69440828D01*
X136687328Y-68678828D01*
X136990160Y-68225609D01*
X137096500Y-67691000D01*
X137096500Y-66167000D01*
X141605000Y-66167000D01*
X142139609Y-66060660D01*
X142592828Y-65757828D01*
X143046994Y-65303662D01*
X143079994Y-65303691D01*
X143696364Y-65049012D01*
X144168354Y-64577844D01*
X144424109Y-63961920D01*
X144424512Y-63500000D01*
X144455344Y-63500000D01*
X145161000Y-64205657D01*
X145161000Y-65907558D01*
X144593636Y-66141988D01*
X144121646Y-66613156D01*
X143865891Y-67229080D01*
X143865309Y-67895994D01*
X144119988Y-68512364D01*
X144591156Y-68984354D01*
X145207080Y-69240109D01*
X145242484Y-69240140D01*
X146685000Y-70682656D01*
X146685000Y-77216000D01*
X146791340Y-77750609D01*
X147094172Y-78203828D01*
X153190172Y-84299828D01*
X153643391Y-84602660D01*
X154178000Y-84709000D01*
X159299843Y-84709000D01*
X159323156Y-84732354D01*
X159939080Y-84988109D01*
X160605994Y-84988691D01*
X160698721Y-84950377D01*
X164719000Y-88970656D01*
X164719000Y-95687344D01*
X162715172Y-97691172D01*
X162412340Y-98144391D01*
X162306000Y-98679000D01*
X162306000Y-100386344D01*
X162179000Y-100513344D01*
X162179000Y-99060000D01*
X162072660Y-98525391D01*
X161769828Y-98072172D01*
X161316609Y-97769340D01*
X160782000Y-97663000D01*
X150692656Y-97663000D01*
X148561828Y-95532172D01*
X148108609Y-95229340D01*
X147574000Y-95123000D01*
X140659656Y-95123000D01*
X140052828Y-94516172D01*
X139599609Y-94213340D01*
X139065000Y-94107000D01*
X133223000Y-94107000D01*
X132688391Y-94213340D01*
X132235172Y-94516172D01*
X130330172Y-96421172D01*
X130256735Y-96531079D01*
X130175000Y-96449344D01*
X130175000Y-92456000D01*
X140832000Y-92456000D01*
X140832000Y-93253571D01*
X140948008Y-93533638D01*
X141162362Y-93747992D01*
X141442429Y-93864000D01*
X142240000Y-93864000D01*
X142430500Y-93673500D01*
X142430500Y-92265500D01*
X142557500Y-92265500D01*
X142557500Y-93673500D01*
X142748000Y-93864000D01*
X143545571Y-93864000D01*
X143825638Y-93747992D01*
X144039992Y-93533638D01*
X144156000Y-93253571D01*
X144156000Y-92456000D01*
X147436000Y-92456000D01*
X147436000Y-93253571D01*
X147552008Y-93533638D01*
X147766362Y-93747992D01*
X148046429Y-93864000D01*
X148844000Y-93864000D01*
X149034500Y-93673500D01*
X149034500Y-92265500D01*
X149161500Y-92265500D01*
X149161500Y-93673500D01*
X149352000Y-93864000D01*
X150149571Y-93864000D01*
X150429638Y-93747992D01*
X150643992Y-93533638D01*
X150760000Y-93253571D01*
X150760000Y-92456000D01*
X154040000Y-92456000D01*
X154040000Y-93253571D01*
X154156008Y-93533638D01*
X154370362Y-93747992D01*
X154650429Y-93864000D01*
X155448000Y-93864000D01*
X155638500Y-93673500D01*
X155638500Y-92265500D01*
X155765500Y-92265500D01*
X155765500Y-93673500D01*
X155956000Y-93864000D01*
X156753571Y-93864000D01*
X157033638Y-93747992D01*
X157247992Y-93533638D01*
X157364000Y-93253571D01*
X157364000Y-92456000D01*
X160644000Y-92456000D01*
X160644000Y-93253571D01*
X160760008Y-93533638D01*
X160974362Y-93747992D01*
X161254429Y-93864000D01*
X162052000Y-93864000D01*
X162242500Y-93673500D01*
X162242500Y-92265500D01*
X162369500Y-92265500D01*
X162369500Y-93673500D01*
X162560000Y-93864000D01*
X163357571Y-93864000D01*
X163637638Y-93747992D01*
X163851992Y-93533638D01*
X163968000Y-93253571D01*
X163968000Y-92456000D01*
X163777500Y-92265500D01*
X162369500Y-92265500D01*
X162242500Y-92265500D01*
X160834500Y-92265500D01*
X160644000Y-92456000D01*
X157364000Y-92456000D01*
X157173500Y-92265500D01*
X155765500Y-92265500D01*
X155638500Y-92265500D01*
X154230500Y-92265500D01*
X154040000Y-92456000D01*
X150760000Y-92456000D01*
X150569500Y-92265500D01*
X149161500Y-92265500D01*
X149034500Y-92265500D01*
X147626500Y-92265500D01*
X147436000Y-92456000D01*
X144156000Y-92456000D01*
X143965500Y-92265500D01*
X142557500Y-92265500D01*
X142430500Y-92265500D01*
X141022500Y-92265500D01*
X140832000Y-92456000D01*
X130175000Y-92456000D01*
X130175000Y-90851872D01*
X130500306Y-90642544D01*
X130732289Y-90303025D01*
X130813904Y-89900000D01*
X130813904Y-89299248D01*
X133161651Y-89299248D01*
X133467922Y-90040481D01*
X134034537Y-90608085D01*
X134775233Y-90915650D01*
X135577248Y-90916349D01*
X135787601Y-90829433D01*
X135995233Y-90915650D01*
X136797248Y-90916349D01*
X137538481Y-90610078D01*
X138106085Y-90043463D01*
X138106923Y-90041444D01*
X140577668Y-90041444D01*
X140868747Y-90745909D01*
X140970515Y-90847855D01*
X140948008Y-90870362D01*
X140832000Y-91150429D01*
X140832000Y-91948000D01*
X141022500Y-92138500D01*
X142430500Y-92138500D01*
X142430500Y-92118500D01*
X142557500Y-92118500D01*
X142557500Y-92138500D01*
X143965500Y-92138500D01*
X144156000Y-91948000D01*
X144156000Y-91150429D01*
X144039992Y-90870362D01*
X144017780Y-90848150D01*
X144117359Y-90748744D01*
X144409667Y-90044788D01*
X144409669Y-90041444D01*
X147181668Y-90041444D01*
X147472747Y-90745909D01*
X147574515Y-90847855D01*
X147552008Y-90870362D01*
X147436000Y-91150429D01*
X147436000Y-91948000D01*
X147626500Y-92138500D01*
X149034500Y-92138500D01*
X149034500Y-92118500D01*
X149161500Y-92118500D01*
X149161500Y-92138500D01*
X150569500Y-92138500D01*
X150760000Y-91948000D01*
X150760000Y-91150429D01*
X150643992Y-90870362D01*
X150621780Y-90848150D01*
X150721359Y-90748744D01*
X151013667Y-90044788D01*
X151014332Y-89282556D01*
X150797719Y-88758312D01*
X151316364Y-88544012D01*
X151788354Y-88072844D01*
X152044109Y-87456920D01*
X152044111Y-87453994D01*
X152501309Y-87453994D01*
X152755988Y-88070364D01*
X153227156Y-88542354D01*
X153843080Y-88798109D01*
X153878483Y-88798140D01*
X153954519Y-88874175D01*
X153786333Y-89279212D01*
X153785668Y-90041444D01*
X154076747Y-90745909D01*
X154178515Y-90847855D01*
X154156008Y-90870362D01*
X154040000Y-91150429D01*
X154040000Y-91948000D01*
X154230500Y-92138500D01*
X155638500Y-92138500D01*
X155638500Y-92118500D01*
X155765500Y-92118500D01*
X155765500Y-92138500D01*
X157173500Y-92138500D01*
X157364000Y-91948000D01*
X157364000Y-91150429D01*
X157247992Y-90870362D01*
X157225780Y-90848150D01*
X157325359Y-90748744D01*
X157617667Y-90044788D01*
X157618332Y-89282556D01*
X157327253Y-88578091D01*
X157219345Y-88469994D01*
X157327309Y-88469994D01*
X157581988Y-89086364D01*
X158053156Y-89558354D01*
X158078024Y-89568680D01*
X159159172Y-90649828D01*
X159612391Y-90952660D01*
X160147000Y-91059000D01*
X160681871Y-91059000D01*
X160644000Y-91150429D01*
X160644000Y-91948000D01*
X160834500Y-92138500D01*
X162242500Y-92138500D01*
X162242500Y-92118500D01*
X162369500Y-92118500D01*
X162369500Y-92138500D01*
X163777500Y-92138500D01*
X163968000Y-91948000D01*
X163968000Y-91150429D01*
X163851992Y-90870362D01*
X163829780Y-90848150D01*
X163929359Y-90748744D01*
X164221667Y-90044788D01*
X164222332Y-89282556D01*
X163931253Y-88578091D01*
X163392744Y-88038641D01*
X162688788Y-87746333D01*
X161926556Y-87745668D01*
X161222091Y-88036747D01*
X160993439Y-88265000D01*
X160725656Y-88265000D01*
X160680330Y-88219674D01*
X160680691Y-87806006D01*
X160426012Y-87189636D01*
X159954844Y-86717646D01*
X159338920Y-86461891D01*
X158672006Y-86461309D01*
X158055636Y-86715988D01*
X157583646Y-87187156D01*
X157327891Y-87803080D01*
X157327309Y-88469994D01*
X157219345Y-88469994D01*
X157025331Y-88275642D01*
X156992660Y-88111391D01*
X156907801Y-87984391D01*
X156689828Y-87658171D01*
X155854662Y-86823006D01*
X155854691Y-86790006D01*
X155600012Y-86173636D01*
X155128844Y-85701646D01*
X154512920Y-85445891D01*
X153846006Y-85445309D01*
X153229636Y-85699988D01*
X152757646Y-86171156D01*
X152501891Y-86787080D01*
X152501309Y-87453994D01*
X152044111Y-87453994D01*
X152044691Y-86790006D01*
X151790012Y-86173636D01*
X151318844Y-85701646D01*
X150702920Y-85445891D01*
X150036006Y-85445309D01*
X149419636Y-85699988D01*
X148947646Y-86171156D01*
X148691891Y-86787080D01*
X148691860Y-86822484D01*
X148110172Y-87404172D01*
X147807340Y-87857391D01*
X147711600Y-88338710D01*
X147474641Y-88575256D01*
X147182333Y-89279212D01*
X147181668Y-90041444D01*
X144409669Y-90041444D01*
X144409727Y-89975929D01*
X145205994Y-89179662D01*
X145238994Y-89179691D01*
X145855364Y-88925012D01*
X146327354Y-88453844D01*
X146583109Y-87837920D01*
X146583691Y-87171006D01*
X146329012Y-86554636D01*
X145857844Y-86082646D01*
X145241920Y-85826891D01*
X144575006Y-85826309D01*
X143958636Y-86080988D01*
X143486646Y-86552156D01*
X143230891Y-87168080D01*
X143230860Y-87203484D01*
X142688176Y-87746168D01*
X142114556Y-87745668D01*
X141410091Y-88036747D01*
X140870641Y-88575256D01*
X140578333Y-89279212D01*
X140577668Y-90041444D01*
X138106923Y-90041444D01*
X138413650Y-89302767D01*
X138414036Y-88859620D01*
X140154558Y-87119098D01*
X140394364Y-87020012D01*
X140866354Y-86548844D01*
X141122109Y-85932920D01*
X141122691Y-85266006D01*
X140868012Y-84649636D01*
X140396844Y-84177646D01*
X139780920Y-83921891D01*
X139114006Y-83921309D01*
X138497636Y-84175988D01*
X138025646Y-84647156D01*
X137769891Y-85263080D01*
X137769638Y-85552706D01*
X136438310Y-86884034D01*
X135998752Y-86883651D01*
X135788399Y-86970567D01*
X135580767Y-86884350D01*
X134778752Y-86883651D01*
X134037519Y-87189922D01*
X133469915Y-87756537D01*
X133162350Y-88497233D01*
X133161651Y-89299248D01*
X130813904Y-89299248D01*
X130813904Y-87900000D01*
X130743059Y-87523493D01*
X130520544Y-87177694D01*
X130181025Y-86945711D01*
X130175000Y-86944491D01*
X130175000Y-85541656D01*
X132051828Y-83664828D01*
X132354660Y-83211609D01*
X132461000Y-82677000D01*
X132461000Y-82471570D01*
X132754000Y-82530904D01*
X134454000Y-82530904D01*
X134830507Y-82460059D01*
X135176306Y-82237544D01*
X135243611Y-82139040D01*
X135682080Y-82321109D01*
X136348994Y-82321691D01*
X136965364Y-82067012D01*
X137437354Y-81595844D01*
X137693109Y-80979920D01*
X137693691Y-80313006D01*
X137439012Y-79696636D01*
X136967844Y-79224646D01*
X136351920Y-78968891D01*
X135685006Y-78968309D01*
X135246077Y-79149671D01*
X135196544Y-79072694D01*
X135195526Y-79071998D01*
X135364516Y-78819087D01*
X135506557Y-78105000D01*
X135364516Y-77390913D01*
X134993067Y-76835000D01*
X135364516Y-76279087D01*
X135447532Y-75861738D01*
X137933694Y-75861738D01*
X138201985Y-76511052D01*
X138698335Y-77008269D01*
X139347180Y-77277693D01*
X140049738Y-77278306D01*
X140699052Y-77010015D01*
X141196269Y-76513665D01*
X141465693Y-75864820D01*
X141466306Y-75162262D01*
X141198015Y-74512948D01*
X140701665Y-74015731D01*
X140052820Y-73746307D01*
X139350262Y-73745694D01*
X138700948Y-74013985D01*
X138203731Y-74510335D01*
X137934307Y-75159180D01*
X137933694Y-75861738D01*
X135447532Y-75861738D01*
X135506557Y-75565000D01*
X135364516Y-74850913D01*
X134960018Y-74245539D01*
X134354644Y-73841041D01*
X133640557Y-73699000D01*
X133567443Y-73699000D01*
X132853356Y-73841041D01*
X132247982Y-74245539D01*
X132140829Y-74405905D01*
X131959758Y-74224786D01*
X131378695Y-73984012D01*
X131127500Y-74144747D01*
X131127500Y-75501500D01*
X131147500Y-75501500D01*
X131147500Y-75628500D01*
X131127500Y-75628500D01*
X131127500Y-75648500D01*
X131000500Y-75648500D01*
X131000500Y-75628500D01*
X129643919Y-75628500D01*
X129483016Y-75879695D01*
X129723550Y-76460405D01*
X129912188Y-76649093D01*
X129824027Y-76708000D01*
X129624936Y-76708000D01*
X129474844Y-76557646D01*
X128858920Y-76301891D01*
X128192006Y-76301309D01*
X127575636Y-76555988D01*
X127103646Y-77027156D01*
X126847891Y-77643080D01*
X126847309Y-78309994D01*
X127101988Y-78926364D01*
X127573156Y-79398354D01*
X128189080Y-79654109D01*
X128855994Y-79654691D01*
X129225534Y-79502000D01*
X129590075Y-79502000D01*
X129303484Y-79930913D01*
X129161443Y-80645000D01*
X129303484Y-81359087D01*
X129667000Y-81903127D01*
X129667000Y-82098344D01*
X127790172Y-83975172D01*
X127487340Y-84428391D01*
X127381000Y-84963000D01*
X127381000Y-86948128D01*
X127055694Y-87157456D01*
X126823711Y-87496975D01*
X126742096Y-87900000D01*
X126742096Y-89900000D01*
X126812941Y-90276507D01*
X127035456Y-90622306D01*
X127374975Y-90854289D01*
X127381000Y-90855509D01*
X127381000Y-97028000D01*
X127487340Y-97562609D01*
X127790172Y-98015828D01*
X129245136Y-99470792D01*
X129112920Y-99415891D01*
X128446006Y-99415309D01*
X127829636Y-99669988D01*
X127357646Y-100141156D01*
X127101891Y-100757080D01*
X127101309Y-101423994D01*
X127302881Y-101911834D01*
X126932953Y-101664657D01*
X126238000Y-101526422D01*
X125543047Y-101664657D01*
X124953894Y-102058316D01*
X124560235Y-102647469D01*
X124422000Y-103342422D01*
X124422000Y-103413578D01*
X124560235Y-104108531D01*
X124953894Y-104697684D01*
X125543047Y-105091343D01*
X126238000Y-105229578D01*
X126932953Y-105091343D01*
X127508000Y-104707109D01*
X128083047Y-105091343D01*
X128778000Y-105229578D01*
X129472953Y-105091343D01*
X129770466Y-104892551D01*
X129775456Y-104900306D01*
X130114975Y-105132289D01*
X130518000Y-105213904D01*
X132118000Y-105213904D01*
X132494507Y-105143059D01*
X132840306Y-104920544D01*
X133072289Y-104581025D01*
X133153904Y-104178000D01*
X133153904Y-102578000D01*
X133083059Y-102201493D01*
X132860544Y-101855694D01*
X132715000Y-101756248D01*
X132715000Y-99720180D01*
X133300994Y-99720691D01*
X133917364Y-99466012D01*
X133942420Y-99441000D01*
X135001000Y-99441000D01*
X135509000Y-99339953D01*
X135509000Y-102804890D01*
X134905098Y-103407738D01*
X134559394Y-104240287D01*
X134558607Y-105141758D01*
X134774393Y-105664000D01*
X119634000Y-105664000D01*
X119535180Y-105684012D01*
X119451931Y-105740893D01*
X119397371Y-105825682D01*
X119380000Y-105918000D01*
X119380000Y-114427000D01*
X106730000Y-114427000D01*
X106730000Y-106426000D01*
X108355000Y-106426000D01*
X108355000Y-107823571D01*
X108471008Y-108103638D01*
X108685362Y-108317992D01*
X108965429Y-108434000D01*
X110363000Y-108434000D01*
X110553500Y-108243500D01*
X110553500Y-106235500D01*
X110680500Y-106235500D01*
X110680500Y-108243500D01*
X110871000Y-108434000D01*
X112268571Y-108434000D01*
X112548638Y-108317992D01*
X112762992Y-108103638D01*
X112879000Y-107823571D01*
X112879000Y-106426000D01*
X112688500Y-106235500D01*
X110680500Y-106235500D01*
X110553500Y-106235500D01*
X108545500Y-106235500D01*
X108355000Y-106426000D01*
X106730000Y-106426000D01*
X106730000Y-104520429D01*
X108355000Y-104520429D01*
X108355000Y-105918000D01*
X108545500Y-106108500D01*
X110553500Y-106108500D01*
X110553500Y-104100500D01*
X110680500Y-104100500D01*
X110680500Y-106108500D01*
X112688500Y-106108500D01*
X112879000Y-105918000D01*
X112879000Y-104520429D01*
X112762992Y-104240362D01*
X112548638Y-104026008D01*
X112268571Y-103910000D01*
X110871000Y-103910000D01*
X110680500Y-104100500D01*
X110553500Y-104100500D01*
X110363000Y-103910000D01*
X108965429Y-103910000D01*
X108685362Y-104026008D01*
X108471008Y-104240362D01*
X108355000Y-104520429D01*
X106730000Y-104520429D01*
X106730000Y-101590268D01*
X108100565Y-101590268D01*
X108482796Y-102515337D01*
X109189940Y-103223717D01*
X110114341Y-103607562D01*
X111115268Y-103608435D01*
X112040337Y-103226204D01*
X112748717Y-102519060D01*
X112761199Y-102489000D01*
X114681000Y-102489000D01*
X115215609Y-102382660D01*
X115668828Y-102079828D01*
X117719656Y-100029000D01*
X119964723Y-100029000D01*
X120423278Y-100488356D01*
X121228271Y-100822619D01*
X122099905Y-100823379D01*
X122905480Y-100490522D01*
X123522356Y-99874722D01*
X123856619Y-99069729D01*
X123857189Y-98416467D01*
X123990843Y-98282813D01*
X124639905Y-98283379D01*
X125445480Y-97950522D01*
X126062356Y-97334722D01*
X126396619Y-96529729D01*
X126397379Y-95658095D01*
X126064522Y-94852520D01*
X125448722Y-94235644D01*
X124643729Y-93901381D01*
X123990467Y-93900811D01*
X123856813Y-93767157D01*
X123857379Y-93118095D01*
X123524522Y-92312520D01*
X122908722Y-91695644D01*
X122103729Y-91361381D01*
X121232095Y-91360621D01*
X120426520Y-91693478D01*
X119809644Y-92309278D01*
X119475381Y-93114271D01*
X119474811Y-93767533D01*
X119341157Y-93901187D01*
X118692095Y-93900621D01*
X117886520Y-94233478D01*
X117269644Y-94849278D01*
X116935381Y-95654271D01*
X116934621Y-96525905D01*
X117227613Y-97235000D01*
X117141000Y-97235000D01*
X116655961Y-97331480D01*
X116606391Y-97341340D01*
X116153172Y-97644172D01*
X114102344Y-99695000D01*
X112762086Y-99695000D01*
X112751204Y-99668663D01*
X112044060Y-98960283D01*
X111119659Y-98576438D01*
X110118732Y-98575565D01*
X109193663Y-98957796D01*
X108485283Y-99664940D01*
X108101438Y-100589341D01*
X108100565Y-101590268D01*
X106730000Y-101590268D01*
X106730000Y-93254641D01*
X108337162Y-93254641D01*
X108423065Y-93564831D01*
X109069618Y-93835614D01*
X109770580Y-93838359D01*
X110419236Y-93572649D01*
X110430935Y-93564831D01*
X110516838Y-93254641D01*
X109427000Y-92164803D01*
X108337162Y-93254641D01*
X106730000Y-93254641D01*
X106730000Y-92418580D01*
X107663641Y-92418580D01*
X107929351Y-93067236D01*
X107937169Y-93078935D01*
X108247359Y-93164838D01*
X109337197Y-92075000D01*
X109516803Y-92075000D01*
X110606641Y-93164838D01*
X110916831Y-93078935D01*
X111187614Y-92432382D01*
X111190359Y-91731420D01*
X110924649Y-91082764D01*
X110916831Y-91071065D01*
X110606641Y-90985162D01*
X109516803Y-92075000D01*
X109337197Y-92075000D01*
X108247359Y-90985162D01*
X107937169Y-91071065D01*
X107666386Y-91717618D01*
X107663641Y-92418580D01*
X106730000Y-92418580D01*
X106730000Y-90895359D01*
X108337162Y-90895359D01*
X109427000Y-91985197D01*
X110516838Y-90895359D01*
X110430935Y-90585169D01*
X109784382Y-90314386D01*
X109083420Y-90311641D01*
X108434764Y-90577351D01*
X108423065Y-90585169D01*
X108337162Y-90895359D01*
X106730000Y-90895359D01*
X106730000Y-84796400D01*
X107481141Y-85548853D01*
X108497395Y-85970839D01*
X109597778Y-85971799D01*
X110614766Y-85551588D01*
X111393533Y-84774179D01*
X111815519Y-83757925D01*
X111816479Y-82657542D01*
X111396268Y-81640554D01*
X110618859Y-80861787D01*
X109602605Y-80439801D01*
X108502222Y-80438841D01*
X107485234Y-80859052D01*
X106730000Y-81612969D01*
X106730000Y-71617000D01*
X107538096Y-71617000D01*
X107538096Y-73417000D01*
X107608941Y-73793507D01*
X107831456Y-74139306D01*
X108170975Y-74371289D01*
X108574000Y-74452904D01*
X110069248Y-74452904D01*
X114147338Y-78530995D01*
X114147309Y-78563994D01*
X114401988Y-79180364D01*
X114873156Y-79652354D01*
X115489080Y-79908109D01*
X115524484Y-79908140D01*
X117013746Y-81397402D01*
X117267478Y-82011480D01*
X117883278Y-82628356D01*
X118688271Y-82962619D01*
X119341533Y-82963189D01*
X119475187Y-83096843D01*
X119474811Y-83527533D01*
X113439172Y-89563172D01*
X113136340Y-90016391D01*
X113120346Y-90096797D01*
X113050493Y-90109941D01*
X112704694Y-90332456D01*
X112472711Y-90671975D01*
X112391096Y-91075000D01*
X112391096Y-93075000D01*
X112461941Y-93451507D01*
X112684456Y-93797306D01*
X113023975Y-94029289D01*
X113427000Y-94110904D01*
X115427000Y-94110904D01*
X115803507Y-94040059D01*
X116149306Y-93817544D01*
X116381289Y-93478025D01*
X116462904Y-93075000D01*
X116462904Y-92014752D01*
X116910656Y-91567000D01*
X117516843Y-91567000D01*
X117540156Y-91590354D01*
X118156080Y-91846109D01*
X118822994Y-91846691D01*
X119439364Y-91592012D01*
X119911354Y-91120844D01*
X120167109Y-90504920D01*
X120167691Y-89838006D01*
X119913012Y-89221636D01*
X119441844Y-88749646D01*
X118825920Y-88493891D01*
X118460084Y-88493572D01*
X121450843Y-85502813D01*
X122099905Y-85503379D01*
X122905480Y-85170522D01*
X123522356Y-84554722D01*
X123856619Y-83749729D01*
X123857189Y-83096467D01*
X123990843Y-82962813D01*
X124639905Y-82963379D01*
X125445480Y-82630522D01*
X126062356Y-82014722D01*
X126396619Y-81209729D01*
X126397379Y-80338095D01*
X126064522Y-79532520D01*
X125448722Y-78915644D01*
X124643729Y-78581381D01*
X123990467Y-78580811D01*
X123856813Y-78447157D01*
X123857379Y-77798095D01*
X123524522Y-76992520D01*
X122908722Y-76375644D01*
X122103729Y-76041381D01*
X121232095Y-76040621D01*
X120426520Y-76373478D01*
X119809644Y-76989278D01*
X119475381Y-77794271D01*
X119474811Y-78447533D01*
X119341157Y-78581187D01*
X118692095Y-78580621D01*
X118307280Y-78739624D01*
X117500662Y-77933006D01*
X117500691Y-77900006D01*
X117246012Y-77283636D01*
X116774844Y-76811646D01*
X116158920Y-76555891D01*
X116123517Y-76555860D01*
X114817962Y-75250305D01*
X129483016Y-75250305D01*
X129643919Y-75501500D01*
X131000500Y-75501500D01*
X131000500Y-74144747D01*
X130749305Y-73984012D01*
X130168242Y-74224786D01*
X129723550Y-74669595D01*
X129483016Y-75250305D01*
X114817962Y-75250305D01*
X111409904Y-71842248D01*
X111409904Y-71617000D01*
X111339059Y-71240493D01*
X111166495Y-70972319D01*
X119704484Y-70972319D01*
X119766010Y-71261741D01*
X120340256Y-71499190D01*
X120961658Y-71498809D01*
X121533990Y-71261741D01*
X121595516Y-70972319D01*
X120650000Y-70026803D01*
X119704484Y-70972319D01*
X111166495Y-70972319D01*
X111116544Y-70894694D01*
X110915380Y-70757245D01*
X111104410Y-70299523D01*
X110944291Y-70040500D01*
X109537500Y-70040500D01*
X109537500Y-70060500D01*
X109410500Y-70060500D01*
X109410500Y-70040500D01*
X108003709Y-70040500D01*
X107843590Y-70299523D01*
X108032877Y-70757868D01*
X107851694Y-70874456D01*
X107619711Y-71213975D01*
X107538096Y-71617000D01*
X106730000Y-71617000D01*
X106730000Y-53776080D01*
X107481141Y-54528533D01*
X108497395Y-54950519D01*
X109597778Y-54951479D01*
X110614766Y-54531268D01*
X111393533Y-53753859D01*
X111815519Y-52737605D01*
X111816479Y-51637222D01*
X111396268Y-50620234D01*
X110618859Y-49841467D01*
X109602605Y-49419481D01*
X108502222Y-49418521D01*
X107485234Y-49838732D01*
X106730000Y-50592649D01*
X106730000Y-45632778D01*
X108231521Y-45632778D01*
X108651732Y-46649766D01*
X109429141Y-47428533D01*
X110445395Y-47850519D01*
X111545778Y-47851479D01*
X112562766Y-47431268D01*
X113341533Y-46653859D01*
X113763519Y-45637605D01*
X113764479Y-44537222D01*
X113344268Y-43520234D01*
X112566859Y-42741467D01*
X111550605Y-42319481D01*
X110450222Y-42318521D01*
X109433234Y-42738732D01*
X108654467Y-43516141D01*
X108232481Y-44532395D01*
X108231521Y-45632778D01*
X106730000Y-45632778D01*
X106730000Y-41960000D01*
X187529000Y-41960000D01*
X187529000Y-115189000D01*
M02*
