G04 #@! TF.FileFunction,Copper,L1,Top,Signal*
%FSLAX46Y46*%
G04 Gerber Fmt 4.6, Leading zero omitted, Abs format (unit mm)*
G04 Created by KiCad (PCBNEW 4.0.6-e0-6349~53~ubuntu16.04.1) date Mon Aug 21 02:22:22 2017*
%MOMM*%
%LPD*%
G01*
G04 APERTURE LIST*
%ADD10C,0.100000*%
%ADD11C,0.300000*%
%ADD12R,1.900000X0.800000*%
%ADD13O,1.800000X2.600000*%
%ADD14C,3.500000*%
%ADD15C,2.000000*%
%ADD16R,2.000000X2.000000*%
%ADD17R,1.500000X1.250000*%
%ADD18R,1.250000X1.500000*%
%ADD19R,1.600000X1.600000*%
%ADD20C,1.600000*%
%ADD21R,1.800000X1.800000*%
%ADD22C,1.800000*%
%ADD23R,3.500000X1.800000*%
%ADD24C,2.350000*%
%ADD25R,1.700000X1.700000*%
%ADD26O,1.700000X1.700000*%
%ADD27R,3.000000X3.000000*%
%ADD28C,3.000000*%
%ADD29O,3.010000X1.510000*%
%ADD30O,1.600000X1.600000*%
%ADD31R,0.800000X1.900000*%
%ADD32R,1.500000X1.300000*%
%ADD33R,1.300000X1.500000*%
%ADD34C,2.500000*%
%ADD35R,1.500000X0.550000*%
%ADD36R,0.550000X1.500000*%
%ADD37O,1.800000X1.800000*%
%ADD38C,1.500000*%
%ADD39C,1.320800*%
%ADD40C,0.762000*%
%ADD41C,0.304800*%
%ADD42C,0.508000*%
G04 APERTURE END LIST*
D10*
D11*
X126863285Y-43985571D02*
X126363285Y-43271286D01*
X126006142Y-43985571D02*
X126006142Y-42485571D01*
X126577570Y-42485571D01*
X126720428Y-42557000D01*
X126791856Y-42628429D01*
X126863285Y-42771286D01*
X126863285Y-42985571D01*
X126791856Y-43128429D01*
X126720428Y-43199857D01*
X126577570Y-43271286D01*
X126006142Y-43271286D01*
X127434713Y-43557000D02*
X128148999Y-43557000D01*
X127291856Y-43985571D02*
X127791856Y-42485571D01*
X128291856Y-43985571D01*
X128791856Y-43985571D02*
X128791856Y-42485571D01*
X129291856Y-43557000D01*
X129791856Y-42485571D01*
X129791856Y-43985571D01*
X130506142Y-43985571D02*
X130506142Y-42485571D01*
X132077571Y-43985571D02*
X131577571Y-43271286D01*
X131220428Y-43985571D02*
X131220428Y-42485571D01*
X131791856Y-42485571D01*
X131934714Y-42557000D01*
X132006142Y-42628429D01*
X132077571Y-42771286D01*
X132077571Y-42985571D01*
X132006142Y-43128429D01*
X131934714Y-43199857D01*
X131791856Y-43271286D01*
X131220428Y-43271286D01*
X133006142Y-42485571D02*
X133291856Y-42485571D01*
X133434714Y-42557000D01*
X133577571Y-42699857D01*
X133648999Y-42985571D01*
X133648999Y-43485571D01*
X133577571Y-43771286D01*
X133434714Y-43914143D01*
X133291856Y-43985571D01*
X133006142Y-43985571D01*
X132863285Y-43914143D01*
X132720428Y-43771286D01*
X132648999Y-43485571D01*
X132648999Y-42985571D01*
X132720428Y-42699857D01*
X132863285Y-42557000D01*
X133006142Y-42485571D01*
X135363285Y-43557000D02*
X136077571Y-43557000D01*
X135220428Y-43985571D02*
X135720428Y-42485571D01*
X136220428Y-43985571D01*
X137434714Y-43985571D02*
X136720428Y-43985571D01*
X136720428Y-42485571D01*
X138220428Y-42485571D02*
X138506142Y-42485571D01*
X138649000Y-42557000D01*
X138791857Y-42699857D01*
X138863285Y-42985571D01*
X138863285Y-43485571D01*
X138791857Y-43771286D01*
X138649000Y-43914143D01*
X138506142Y-43985571D01*
X138220428Y-43985571D01*
X138077571Y-43914143D01*
X137934714Y-43771286D01*
X137863285Y-43485571D01*
X137863285Y-42985571D01*
X137934714Y-42699857D01*
X138077571Y-42557000D01*
X138220428Y-42485571D01*
X139506143Y-43985571D02*
X139506143Y-42485571D01*
X140363286Y-43985571D01*
X140363286Y-42485571D01*
X141006143Y-43914143D02*
X141220429Y-43985571D01*
X141577572Y-43985571D01*
X141720429Y-43914143D01*
X141791858Y-43842714D01*
X141863286Y-43699857D01*
X141863286Y-43557000D01*
X141791858Y-43414143D01*
X141720429Y-43342714D01*
X141577572Y-43271286D01*
X141291858Y-43199857D01*
X141149000Y-43128429D01*
X141077572Y-43057000D01*
X141006143Y-42914143D01*
X141006143Y-42771286D01*
X141077572Y-42628429D01*
X141149000Y-42557000D01*
X141291858Y-42485571D01*
X141649000Y-42485571D01*
X141863286Y-42557000D01*
X142791857Y-42485571D02*
X143077571Y-42485571D01*
X143220429Y-42557000D01*
X143363286Y-42699857D01*
X143434714Y-42985571D01*
X143434714Y-43485571D01*
X143363286Y-43771286D01*
X143220429Y-43914143D01*
X143077571Y-43985571D01*
X142791857Y-43985571D01*
X142649000Y-43914143D01*
X142506143Y-43771286D01*
X142434714Y-43485571D01*
X142434714Y-42985571D01*
X142506143Y-42699857D01*
X142649000Y-42557000D01*
X142791857Y-42485571D01*
X145220429Y-43414143D02*
X146363286Y-43414143D01*
X148149000Y-43557000D02*
X148863286Y-43557000D01*
X148006143Y-43985571D02*
X148506143Y-42485571D01*
X149006143Y-43985571D01*
X150006143Y-43199857D02*
X150220429Y-43271286D01*
X150291857Y-43342714D01*
X150363286Y-43485571D01*
X150363286Y-43699857D01*
X150291857Y-43842714D01*
X150220429Y-43914143D01*
X150077571Y-43985571D01*
X149506143Y-43985571D01*
X149506143Y-42485571D01*
X150006143Y-42485571D01*
X150149000Y-42557000D01*
X150220429Y-42628429D01*
X150291857Y-42771286D01*
X150291857Y-42914143D01*
X150220429Y-43057000D01*
X150149000Y-43128429D01*
X150006143Y-43199857D01*
X149506143Y-43199857D01*
X151006143Y-43199857D02*
X151506143Y-43199857D01*
X151720429Y-43985571D02*
X151006143Y-43985571D01*
X151006143Y-42485571D01*
X151720429Y-42485571D01*
X153077572Y-43985571D02*
X152363286Y-43985571D01*
X152363286Y-42485571D01*
X154720429Y-43985571D02*
X154720429Y-42485571D01*
X155077572Y-42485571D01*
X155291857Y-42557000D01*
X155434715Y-42699857D01*
X155506143Y-42842714D01*
X155577572Y-43128429D01*
X155577572Y-43342714D01*
X155506143Y-43628429D01*
X155434715Y-43771286D01*
X155291857Y-43914143D01*
X155077572Y-43985571D01*
X154720429Y-43985571D01*
X156149000Y-43557000D02*
X156863286Y-43557000D01*
X156006143Y-43985571D02*
X156506143Y-42485571D01*
X157006143Y-43985571D01*
X157506143Y-43985571D02*
X157506143Y-42485571D01*
X158006143Y-43557000D01*
X158506143Y-42485571D01*
X158506143Y-43985571D01*
X159220429Y-43985571D02*
X159220429Y-42485571D01*
X159863286Y-43557000D02*
X160577572Y-43557000D01*
X159720429Y-43985571D02*
X160220429Y-42485571D01*
X160720429Y-43985571D01*
X161220429Y-43985571D02*
X161220429Y-42485571D01*
X162077572Y-43985571D01*
X162077572Y-42485571D01*
X162791858Y-43985571D02*
X162791858Y-42485571D01*
D10*
X105664000Y-40894000D02*
X105664000Y-129921000D01*
X106934000Y-40894000D02*
X105664000Y-40894000D01*
X188595000Y-40894000D02*
X188595000Y-129921000D01*
X106934000Y-129921000D02*
X105664000Y-129921000D01*
X188595000Y-40894000D02*
X106934000Y-40894000D01*
X106934000Y-129921000D02*
X188595000Y-129921000D01*
D12*
X140486000Y-45405000D03*
X140486000Y-47305000D03*
X143486000Y-46355000D03*
D13*
X178650000Y-51675000D03*
X176110000Y-51675000D03*
X173570000Y-51675000D03*
X171030000Y-51675000D03*
X168490000Y-51675000D03*
X165950000Y-51675000D03*
X163410000Y-51675000D03*
X160870000Y-51675000D03*
X158330000Y-51675000D03*
X155790000Y-51675000D03*
X153250000Y-51675000D03*
X150710000Y-51675000D03*
X148170000Y-51675000D03*
X145630000Y-51675000D03*
X143090000Y-51675000D03*
X140550000Y-51675000D03*
D14*
X184150000Y-83185000D03*
X184150000Y-52185000D03*
X109050000Y-52185000D03*
X109050000Y-83205320D03*
D15*
X135178000Y-88900000D03*
D16*
X128778000Y-88900000D03*
D15*
X136398000Y-88900000D03*
D17*
X143784000Y-71374000D03*
X146284000Y-71374000D03*
X143784000Y-74549000D03*
X146284000Y-74549000D03*
X166390000Y-70104000D03*
X168890000Y-70104000D03*
X138069000Y-65659000D03*
X140569000Y-65659000D03*
D18*
X157099000Y-60813000D03*
X157099000Y-58313000D03*
D17*
X166390000Y-72390000D03*
X168890000Y-72390000D03*
D16*
X114427000Y-92075000D03*
D15*
X109427000Y-92075000D03*
D18*
X115189000Y-80665000D03*
X115189000Y-83165000D03*
D17*
X169438000Y-59182000D03*
X171938000Y-59182000D03*
D18*
X178308000Y-57805000D03*
X178308000Y-60305000D03*
D19*
X120650000Y-67437000D03*
D20*
X120650000Y-69937000D03*
D18*
X113665000Y-67457000D03*
X113665000Y-69957000D03*
D17*
X169438000Y-61214000D03*
X171938000Y-61214000D03*
D18*
X178181000Y-66060000D03*
X178181000Y-68560000D03*
D17*
X169438000Y-63246000D03*
X171938000Y-63246000D03*
D18*
X178181000Y-74315000D03*
X178181000Y-76815000D03*
D15*
X155321000Y-115951000D03*
X155321000Y-125951000D03*
X127127000Y-115951000D03*
X127127000Y-125951000D03*
D21*
X142494000Y-92202000D03*
D22*
X142494000Y-89662000D03*
D21*
X162306000Y-92202000D03*
D22*
X162306000Y-89662000D03*
D23*
X141692000Y-96266000D03*
X136692000Y-96266000D03*
X162346000Y-96266000D03*
X167346000Y-96266000D03*
D24*
X121666000Y-93552000D03*
X121666000Y-98632000D03*
X121666000Y-83312000D03*
X121666000Y-78232000D03*
X124206000Y-96092000D03*
X119126000Y-96092000D03*
X124206000Y-80772000D03*
X119126000Y-80772000D03*
D25*
X184785000Y-106807000D03*
D26*
X184785000Y-104267000D03*
X184785000Y-101727000D03*
X184785000Y-99187000D03*
X184785000Y-96647000D03*
X184785000Y-94107000D03*
X184785000Y-91567000D03*
X184785000Y-89027000D03*
D25*
X131064000Y-65913000D03*
D26*
X133604000Y-65913000D03*
X131064000Y-68453000D03*
X133604000Y-68453000D03*
X131064000Y-70993000D03*
X133604000Y-70993000D03*
D27*
X110617000Y-106172000D03*
D28*
X110617000Y-101092000D03*
D29*
X184658000Y-113030000D03*
X184658000Y-110490000D03*
X182753000Y-61595000D03*
X182753000Y-59055000D03*
X182753000Y-56515000D03*
X182753000Y-69850000D03*
X182753000Y-67310000D03*
X182753000Y-64770000D03*
X182753000Y-78105000D03*
X182753000Y-75565000D03*
X182753000Y-73025000D03*
D25*
X116078000Y-49022000D03*
D26*
X116078000Y-51562000D03*
X116078000Y-54102000D03*
X116078000Y-56642000D03*
X116078000Y-59182000D03*
D25*
X121158000Y-49022000D03*
D26*
X121158000Y-51562000D03*
X121158000Y-54102000D03*
X121158000Y-56642000D03*
X121158000Y-59182000D03*
D25*
X126492000Y-49022000D03*
D26*
X126492000Y-51562000D03*
X126492000Y-54102000D03*
X126492000Y-56642000D03*
X126492000Y-59182000D03*
D27*
X175641000Y-125984000D03*
D28*
X170561000Y-125984000D03*
X165481000Y-125984000D03*
D27*
X147828000Y-125984000D03*
D28*
X142748000Y-125984000D03*
X137668000Y-125984000D03*
D20*
X171831000Y-68199000D03*
D30*
X171831000Y-75819000D03*
D31*
X143571000Y-82320000D03*
X141671000Y-82320000D03*
X142621000Y-85320000D03*
X146878000Y-98147000D03*
X148778000Y-98147000D03*
X147828000Y-95147000D03*
X156906000Y-95782000D03*
X155006000Y-95782000D03*
X155956000Y-98782000D03*
D32*
X169117000Y-46990000D03*
X166417000Y-46990000D03*
X145495000Y-65659000D03*
X142795000Y-65659000D03*
X174023000Y-46990000D03*
X171323000Y-46990000D03*
D20*
X129413000Y-55753000D03*
D30*
X137033000Y-55753000D03*
D33*
X137414000Y-45386000D03*
X137414000Y-48086000D03*
X148209000Y-85170000D03*
X148209000Y-82470000D03*
X156337000Y-85170000D03*
X156337000Y-82470000D03*
X174244000Y-61675000D03*
X174244000Y-58975000D03*
X176276000Y-61675000D03*
X176276000Y-58975000D03*
X174117000Y-69930000D03*
X174117000Y-67230000D03*
X176149000Y-69930000D03*
X176149000Y-67230000D03*
X146050000Y-82470000D03*
X146050000Y-85170000D03*
X174117000Y-75518000D03*
X174117000Y-72818000D03*
X176149000Y-78185000D03*
X176149000Y-75485000D03*
X151003000Y-98251000D03*
X151003000Y-95551000D03*
X153035000Y-98251000D03*
X153035000Y-95551000D03*
X144907000Y-98124000D03*
X144907000Y-95424000D03*
X158877000Y-98378000D03*
X158877000Y-95678000D03*
D20*
X170561000Y-109220000D03*
D30*
X162941000Y-109220000D03*
D20*
X168021000Y-115316000D03*
D30*
X160401000Y-115316000D03*
D20*
X141732000Y-108966000D03*
D30*
X134112000Y-108966000D03*
D20*
X140208000Y-115189000D03*
D30*
X132588000Y-115189000D03*
D20*
X160401000Y-119761000D03*
D30*
X168021000Y-119761000D03*
D20*
X132588000Y-119761000D03*
D30*
X140208000Y-119761000D03*
D34*
X136825000Y-104693000D03*
D28*
X136825000Y-116893000D03*
X148875000Y-116943000D03*
D34*
X148825000Y-104693000D03*
D28*
X142875000Y-102743000D03*
D34*
X164511000Y-104693000D03*
D28*
X164511000Y-116893000D03*
X176561000Y-116943000D03*
D34*
X176511000Y-104693000D03*
D28*
X170561000Y-102743000D03*
D35*
X151145000Y-67755000D03*
X151145000Y-68555000D03*
X151145000Y-69355000D03*
X151145000Y-70155000D03*
X151145000Y-70955000D03*
X151145000Y-71755000D03*
X151145000Y-72555000D03*
X151145000Y-73355000D03*
X151145000Y-74155000D03*
X151145000Y-74955000D03*
X151145000Y-75755000D03*
D36*
X152845000Y-77455000D03*
X153645000Y-77455000D03*
X154445000Y-77455000D03*
X155245000Y-77455000D03*
X156045000Y-77455000D03*
X156845000Y-77455000D03*
X157645000Y-77455000D03*
X158445000Y-77455000D03*
X159245000Y-77455000D03*
X160045000Y-77455000D03*
X160845000Y-77455000D03*
D35*
X162545000Y-75755000D03*
X162545000Y-74955000D03*
X162545000Y-74155000D03*
X162545000Y-73355000D03*
X162545000Y-72555000D03*
X162545000Y-71755000D03*
X162545000Y-70955000D03*
X162545000Y-70155000D03*
X162545000Y-69355000D03*
X162545000Y-68555000D03*
X162545000Y-67755000D03*
D36*
X160845000Y-66055000D03*
X160045000Y-66055000D03*
X159245000Y-66055000D03*
X158445000Y-66055000D03*
X157645000Y-66055000D03*
X156845000Y-66055000D03*
X156045000Y-66055000D03*
X155245000Y-66055000D03*
X154445000Y-66055000D03*
X153645000Y-66055000D03*
X152845000Y-66055000D03*
D21*
X109474000Y-72517000D03*
D37*
X109474000Y-69977000D03*
X109474000Y-67437000D03*
D38*
X139700000Y-70612000D03*
X139700000Y-75512000D03*
D17*
X146284000Y-69342000D03*
X143784000Y-69342000D03*
D18*
X158369000Y-82570000D03*
X158369000Y-85070000D03*
D21*
X149098000Y-92202000D03*
D22*
X149098000Y-89662000D03*
D21*
X155702000Y-92202000D03*
D22*
X155702000Y-89662000D03*
D33*
X150622000Y-85170000D03*
X150622000Y-82470000D03*
X154178000Y-85170000D03*
X154178000Y-82470000D03*
D25*
X133604000Y-80645000D03*
D26*
X131064000Y-80645000D03*
X133604000Y-78105000D03*
X131064000Y-78105000D03*
X133604000Y-75565000D03*
X131064000Y-75565000D03*
D21*
X170561000Y-112014000D03*
D37*
X168021000Y-112014000D03*
X165481000Y-112014000D03*
D21*
X142748000Y-112014000D03*
D37*
X140208000Y-112014000D03*
X137668000Y-112014000D03*
D19*
X159131000Y-103378000D03*
D30*
X154051000Y-110998000D03*
X156591000Y-103378000D03*
X156591000Y-110998000D03*
X154051000Y-103378000D03*
X159131000Y-110998000D03*
D19*
X131318000Y-103378000D03*
D30*
X126238000Y-110998000D03*
X128778000Y-103378000D03*
X128778000Y-110998000D03*
X126238000Y-103378000D03*
X131318000Y-110998000D03*
D39*
X132969000Y-98044000D03*
X118491000Y-90170000D03*
X115824000Y-78232000D03*
X139446000Y-49149000D03*
X160655000Y-86614000D03*
X178181000Y-70739000D03*
X145034000Y-76200000D03*
X142494000Y-67437000D03*
X136144000Y-70993000D03*
X178308000Y-49022000D03*
X115824000Y-71120000D03*
X139827000Y-82296000D03*
X178308000Y-62230000D03*
X178181000Y-78994000D03*
X115189000Y-85217000D03*
X146050000Y-93345000D03*
X158750000Y-92964000D03*
X157734000Y-62611000D03*
X122809000Y-62484000D03*
X133604000Y-63246000D03*
X160274000Y-83312000D03*
X176022000Y-45085000D03*
X145542000Y-67564000D03*
X115824000Y-68580000D03*
X178308000Y-55753000D03*
X178181000Y-64008000D03*
X178054000Y-72390000D03*
X149606000Y-65151000D03*
X130810000Y-59753500D03*
X140462000Y-61722000D03*
X148336000Y-66421000D03*
X142748000Y-63627000D03*
X127635000Y-63373000D03*
X136017000Y-80645000D03*
X128524000Y-77978000D03*
X167386000Y-61214000D03*
X169164000Y-65087500D03*
X139446000Y-85598000D03*
X169291000Y-74295000D03*
X118618000Y-51562000D03*
X144907000Y-87503000D03*
X159004000Y-88138000D03*
X136906000Y-98298000D03*
X165608000Y-99187000D03*
X143510000Y-48895000D03*
X173482000Y-49022000D03*
X171069000Y-54356000D03*
X168529000Y-54356000D03*
X165862000Y-54610000D03*
X166116000Y-64643000D03*
X164084000Y-66294000D03*
X165735000Y-67056000D03*
X167005000Y-68199000D03*
X167513000Y-87249000D03*
X167513000Y-85471000D03*
X167513000Y-83693000D03*
X167513000Y-81915000D03*
X167513000Y-80137000D03*
X167513000Y-78359000D03*
X167513000Y-76581000D03*
X167513000Y-74803000D03*
X176276000Y-56769000D03*
X176149000Y-65024000D03*
X174117000Y-77724000D03*
X158750000Y-61087000D03*
X123952000Y-47244000D03*
X123825000Y-50927000D03*
X129159000Y-51562000D03*
X128778000Y-101092000D03*
X158877000Y-100457000D03*
X150368000Y-87122000D03*
X154178000Y-87122000D03*
D40*
X115189000Y-80665000D02*
X115189000Y-78867000D01*
X115189000Y-78867000D02*
X115824000Y-78232000D01*
X132969000Y-98044000D02*
X130937000Y-98044000D01*
X123063000Y-90170000D02*
X118491000Y-90170000D01*
X130937000Y-98044000D02*
X123063000Y-90170000D01*
D41*
X115824000Y-78232000D02*
X115189000Y-78867000D01*
D40*
X157099000Y-58313000D02*
X156317000Y-58313000D01*
X155702000Y-58928000D02*
X155702000Y-59690000D01*
X156317000Y-58313000D02*
X155702000Y-58928000D01*
X156103000Y-63012000D02*
X155702000Y-62611000D01*
X155702000Y-62611000D02*
X155702000Y-59690000D01*
X171938000Y-63246000D02*
X173863000Y-63246000D01*
X174117000Y-63246000D02*
X174371000Y-63500000D01*
X173863000Y-63246000D02*
X174117000Y-63246000D01*
X171938000Y-61214000D02*
X171938000Y-63246000D01*
X171938000Y-59182000D02*
X171938000Y-61214000D01*
X140486000Y-47305000D02*
X140486000Y-48109000D01*
X140486000Y-48109000D02*
X139446000Y-49149000D01*
D41*
X140486000Y-48109000D02*
X139446000Y-49149000D01*
X156845000Y-63754000D02*
X156464000Y-63373000D01*
D40*
X156103000Y-63012000D02*
X156464000Y-63373000D01*
X143784000Y-69342000D02*
X143784000Y-68092000D01*
X143129000Y-67437000D02*
X142494000Y-67437000D01*
X143784000Y-68092000D02*
X143129000Y-67437000D01*
X138069000Y-65659000D02*
X136779000Y-65659000D01*
X136779000Y-65659000D02*
X136271000Y-66167000D01*
X136271000Y-66167000D02*
X136271000Y-70866000D01*
X136271000Y-70866000D02*
X136144000Y-70993000D01*
X145034000Y-76200000D02*
X145288000Y-76200000D01*
X146284000Y-75204000D02*
X146284000Y-74549000D01*
X145288000Y-76200000D02*
X146284000Y-75204000D01*
X115189000Y-83165000D02*
X115189000Y-85217000D01*
X146050000Y-93345000D02*
X145796000Y-93345000D01*
X136692000Y-94702000D02*
X136692000Y-96266000D01*
X137414000Y-93980000D02*
X136692000Y-94702000D01*
X145161000Y-93980000D02*
X137414000Y-93980000D01*
X145796000Y-93345000D02*
X145161000Y-93980000D01*
X158750000Y-92964000D02*
X158750000Y-93853000D01*
X158750000Y-93853000D02*
X158750000Y-93726000D01*
X158750000Y-93726000D02*
X158750000Y-93853000D01*
X159766000Y-93853000D02*
X158750000Y-93853000D01*
X158750000Y-93853000D02*
X155194000Y-93853000D01*
X155194000Y-93853000D02*
X155006000Y-94041000D01*
X155006000Y-94041000D02*
X155006000Y-95782000D01*
X167346000Y-96266000D02*
X167346000Y-95083000D01*
X166116000Y-93853000D02*
X164933000Y-93853000D01*
X167346000Y-95083000D02*
X166116000Y-93853000D01*
X158750000Y-92964000D02*
X158750000Y-93091000D01*
X159512000Y-93853000D02*
X159766000Y-93853000D01*
X159766000Y-93853000D02*
X164933000Y-93853000D01*
X158750000Y-93091000D02*
X159512000Y-93853000D01*
X141671000Y-82320000D02*
X139851000Y-82320000D01*
X139851000Y-82320000D02*
X139827000Y-82296000D01*
X158369000Y-85070000D02*
X159746000Y-85070000D01*
X160655000Y-85979000D02*
X160655000Y-86614000D01*
X159746000Y-85070000D02*
X160655000Y-85979000D01*
X168890000Y-72390000D02*
X168890000Y-70104000D01*
X176149000Y-78185000D02*
X177372000Y-78185000D01*
X177372000Y-78185000D02*
X178181000Y-78994000D01*
X178181000Y-76815000D02*
X178181000Y-78994000D01*
X178181000Y-68560000D02*
X178181000Y-70739000D01*
X176149000Y-69930000D02*
X177372000Y-69930000D01*
X177372000Y-69930000D02*
X178181000Y-70739000D01*
X176276000Y-63246000D02*
X176276000Y-61675000D01*
X174371000Y-63500000D02*
X176022000Y-63500000D01*
X176022000Y-63500000D02*
X176276000Y-63246000D01*
X176276000Y-61675000D02*
X177753000Y-61675000D01*
X177753000Y-61675000D02*
X178308000Y-62230000D01*
X178308000Y-60305000D02*
X178308000Y-62230000D01*
X174023000Y-46990000D02*
X176276000Y-46990000D01*
X176276000Y-46990000D02*
X178308000Y-49022000D01*
D41*
X136525000Y-65913000D02*
X136779000Y-65659000D01*
X136525000Y-70612000D02*
X136525000Y-65913000D01*
X136144000Y-70993000D02*
X136525000Y-70612000D01*
X178308000Y-49022000D02*
X176276000Y-46990000D01*
X168890000Y-72390000D02*
X170688000Y-72390000D01*
X176149000Y-73279000D02*
X176149000Y-69930000D01*
X175260000Y-74168000D02*
X176149000Y-73279000D01*
X172466000Y-74168000D02*
X175260000Y-74168000D01*
X170688000Y-72390000D02*
X172466000Y-74168000D01*
X143784000Y-69342000D02*
X144907000Y-69342000D01*
X144907000Y-69342000D02*
X145034000Y-69469000D01*
X145034000Y-69469000D02*
X145034000Y-71247000D01*
X145034000Y-71247000D02*
X145161000Y-71374000D01*
X145161000Y-71374000D02*
X146284000Y-71374000D01*
X148844000Y-71755000D02*
X147701000Y-71755000D01*
X147701000Y-71755000D02*
X147320000Y-71374000D01*
X146284000Y-71374000D02*
X147320000Y-71374000D01*
X113665000Y-69957000D02*
X114661000Y-69957000D01*
X114661000Y-69957000D02*
X115824000Y-71120000D01*
X162545000Y-71755000D02*
X164465000Y-71755000D01*
X164973000Y-71247000D02*
X168890000Y-71247000D01*
X164465000Y-71755000D02*
X164973000Y-71247000D01*
X168890000Y-72390000D02*
X168890000Y-71247000D01*
X168890000Y-71247000D02*
X168890000Y-70104000D01*
X160401000Y-81788000D02*
X161544000Y-81788000D01*
X157645000Y-79032000D02*
X160401000Y-81788000D01*
X157645000Y-77455000D02*
X157645000Y-79032000D01*
X160655000Y-85598000D02*
X160655000Y-86614000D01*
X162433000Y-83820000D02*
X160655000Y-85598000D01*
X162433000Y-82677000D02*
X162433000Y-83820000D01*
X161544000Y-81788000D02*
X162433000Y-82677000D01*
X139827000Y-82296000D02*
X139851000Y-82320000D01*
X148778000Y-98147000D02*
X148778000Y-96840000D01*
X148778000Y-96840000D02*
X149225000Y-96393000D01*
X149225000Y-96393000D02*
X149225000Y-93853000D01*
X149225000Y-93853000D02*
X149098000Y-93726000D01*
X149098000Y-93726000D02*
X146431000Y-93726000D01*
X146431000Y-93726000D02*
X146050000Y-93345000D01*
X176276000Y-61675000D02*
X176276000Y-61468000D01*
X176149000Y-69930000D02*
X177847000Y-69930000D01*
X177847000Y-69930000D02*
X178181000Y-69596000D01*
X178181000Y-69596000D02*
X178181000Y-68560000D01*
X178181000Y-76815000D02*
X178181000Y-77724000D01*
X177720000Y-78185000D02*
X176149000Y-78185000D01*
X178181000Y-77724000D02*
X177720000Y-78185000D01*
X156845000Y-66055000D02*
X156845000Y-63754000D01*
X136692000Y-96266000D02*
X136692000Y-95718000D01*
X167346000Y-95464000D02*
X167346000Y-96266000D01*
X155006000Y-95782000D02*
X155006000Y-94803000D01*
X155006000Y-94803000D02*
X155956000Y-93853000D01*
X155956000Y-93853000D02*
X157861000Y-93853000D01*
X157861000Y-93853000D02*
X158750000Y-92964000D01*
X148844000Y-71755000D02*
X151145000Y-71755000D01*
X156845000Y-66055000D02*
X156845000Y-71755000D01*
X156845000Y-71755000D02*
X156845000Y-71628000D01*
X156845000Y-71628000D02*
X156845000Y-71755000D01*
X157645000Y-77455000D02*
X157645000Y-71755000D01*
X157645000Y-71755000D02*
X157607000Y-71755000D01*
X162545000Y-71755000D02*
X160528000Y-71755000D01*
X160528000Y-71755000D02*
X157607000Y-71755000D01*
X157607000Y-71755000D02*
X156845000Y-71755000D01*
X156845000Y-71755000D02*
X151145000Y-71755000D01*
X157645000Y-66055000D02*
X157645000Y-62700000D01*
X157645000Y-62700000D02*
X157734000Y-62611000D01*
D40*
X157099000Y-60813000D02*
X157099000Y-61976000D01*
X157099000Y-61976000D02*
X157734000Y-62611000D01*
X125476000Y-65151000D02*
X128143000Y-65151000D01*
X122809000Y-62484000D02*
X125476000Y-65151000D01*
X128143000Y-65151000D02*
X130048000Y-63246000D01*
X133604000Y-63246000D02*
X130048000Y-63246000D01*
X158369000Y-82570000D02*
X159532000Y-82570000D01*
X159532000Y-82570000D02*
X160274000Y-83312000D01*
X159532000Y-82570000D02*
X160274000Y-83312000D01*
X146284000Y-69342000D02*
X146284000Y-68306000D01*
X146284000Y-68306000D02*
X145542000Y-67564000D01*
X145495000Y-65659000D02*
X145495000Y-67517000D01*
X145495000Y-67517000D02*
X145542000Y-67564000D01*
X178054000Y-72390000D02*
X178054000Y-74188000D01*
X178054000Y-74188000D02*
X178181000Y-74315000D01*
X178181000Y-66060000D02*
X178181000Y-64008000D01*
X178308000Y-57805000D02*
X178308000Y-55753000D01*
X166417000Y-46990000D02*
X166417000Y-45546000D01*
X166878000Y-45085000D02*
X176022000Y-45085000D01*
X166417000Y-45546000D02*
X166878000Y-45085000D01*
X166417000Y-46990000D02*
X166497000Y-47070000D01*
D41*
X145542000Y-67564000D02*
X145495000Y-67517000D01*
X146284000Y-68306000D02*
X145495000Y-67517000D01*
X151145000Y-70955000D02*
X148806000Y-70955000D01*
X147193000Y-69342000D02*
X146284000Y-69342000D01*
X148806000Y-70955000D02*
X147193000Y-69342000D01*
X113665000Y-67457000D02*
X114701000Y-67457000D01*
X114701000Y-67457000D02*
X115824000Y-68580000D01*
X178181000Y-72517000D02*
X178181000Y-74315000D01*
X178054000Y-72390000D02*
X178181000Y-72517000D01*
X158369000Y-82570000D02*
X158369000Y-80899000D01*
X158369000Y-80899000D02*
X156845000Y-79375000D01*
X156845000Y-79375000D02*
X156845000Y-77455000D01*
D42*
X149606000Y-65151000D02*
X149606000Y-67056000D01*
D41*
X151145000Y-68555000D02*
X149835000Y-68555000D01*
X149835000Y-68555000D02*
X149606000Y-68326000D01*
X149606000Y-68326000D02*
X149606000Y-67818000D01*
X149606000Y-67818000D02*
X149606000Y-67056000D01*
D40*
X131254500Y-60198000D02*
X134620000Y-60198000D01*
X130810000Y-59753500D02*
X131254500Y-60198000D01*
D42*
X148336000Y-67310000D02*
X148844000Y-67818000D01*
X148336000Y-66421000D02*
X148336000Y-67310000D01*
D40*
X137287000Y-61849000D02*
X140335000Y-61849000D01*
X137287000Y-61849000D02*
X136271000Y-61849000D01*
X136271000Y-61849000D02*
X134620000Y-60198000D01*
X140335000Y-61849000D02*
X140462000Y-61722000D01*
D41*
X151145000Y-69355000D02*
X149619000Y-69355000D01*
X148844000Y-67818000D02*
X148844000Y-68580000D01*
X148844000Y-68580000D02*
X149619000Y-69355000D01*
D40*
X142748000Y-63627000D02*
X143256000Y-63119000D01*
X149225000Y-63119000D02*
X149733000Y-63627000D01*
X143256000Y-63119000D02*
X149225000Y-63119000D01*
D41*
X151145000Y-65039000D02*
X151145000Y-66055000D01*
X149733000Y-63627000D02*
X151145000Y-65039000D01*
X151145000Y-67755000D02*
X151145000Y-66055000D01*
X151145000Y-70155000D02*
X149276000Y-70155000D01*
X149276000Y-70155000D02*
X147828000Y-68707000D01*
D42*
X142795000Y-65659000D02*
X142795000Y-65485000D01*
X142795000Y-65485000D02*
X144018000Y-64262000D01*
X147828000Y-68072000D02*
X147828000Y-68707000D01*
X146939000Y-67183000D02*
X147828000Y-68072000D01*
X146939000Y-65786000D02*
X146939000Y-67183000D01*
X147193000Y-65532000D02*
X146939000Y-65786000D01*
X147193000Y-64389000D02*
X147193000Y-65532000D01*
X147066000Y-64262000D02*
X147193000Y-64389000D01*
X144018000Y-64262000D02*
X147066000Y-64262000D01*
D40*
X133477000Y-61722000D02*
X129286000Y-61722000D01*
X127635000Y-63373000D02*
X129286000Y-61722000D01*
X139954000Y-64008000D02*
X140569000Y-64623000D01*
X133477000Y-61722000D02*
X134239000Y-61722000D01*
X134239000Y-61722000D02*
X136525000Y-64008000D01*
X136525000Y-64008000D02*
X139954000Y-64008000D01*
X140569000Y-65659000D02*
X142795000Y-65659000D01*
X140569000Y-64623000D02*
X140569000Y-65659000D01*
D41*
X140569000Y-64623000D02*
X140569000Y-65659000D01*
X142795000Y-65659000D02*
X142795000Y-66087000D01*
D40*
X136017000Y-80645000D02*
X136017000Y-80518000D01*
X146177000Y-78486000D02*
X146431000Y-78232000D01*
X138049000Y-78486000D02*
X146177000Y-78486000D01*
X136017000Y-80518000D02*
X138049000Y-78486000D01*
D41*
X146431000Y-78232000D02*
X147701000Y-76962000D01*
X151145000Y-74955000D02*
X149835000Y-74955000D01*
X149835000Y-74955000D02*
X149606000Y-75184000D01*
X148971000Y-76962000D02*
X148082000Y-76962000D01*
X149606000Y-76327000D02*
X148971000Y-76962000D01*
X149606000Y-75184000D02*
X149606000Y-76327000D01*
X147701000Y-76962000D02*
X148082000Y-76962000D01*
D40*
X143891000Y-77343000D02*
X143764000Y-77216000D01*
X128524000Y-73787000D02*
X128524000Y-77978000D01*
X128905000Y-73406000D02*
X128524000Y-73787000D01*
X135763000Y-73406000D02*
X128905000Y-73406000D01*
X136652000Y-74295000D02*
X135763000Y-73406000D01*
X136652000Y-75311000D02*
X136652000Y-74295000D01*
X138557000Y-77216000D02*
X136652000Y-75311000D01*
X143764000Y-77216000D02*
X138557000Y-77216000D01*
D41*
X143891000Y-77343000D02*
X146050000Y-77343000D01*
X146050000Y-77343000D02*
X147193000Y-76200000D01*
X151145000Y-74155000D02*
X149238000Y-74155000D01*
X148209000Y-76200000D02*
X147193000Y-76200000D01*
X148590000Y-75819000D02*
X148209000Y-76200000D01*
X148590000Y-74803000D02*
X148590000Y-75819000D01*
X149238000Y-74155000D02*
X148590000Y-74803000D01*
D40*
X169438000Y-61214000D02*
X167386000Y-61214000D01*
X174117000Y-65913000D02*
X174117000Y-67230000D01*
X173672500Y-65468500D02*
X174117000Y-65913000D01*
X169545000Y-65468500D02*
X173672500Y-65468500D01*
X169164000Y-65087500D02*
X169545000Y-65468500D01*
X163322000Y-62103000D02*
X166497000Y-62103000D01*
D41*
X160045000Y-64618000D02*
X160274000Y-64389000D01*
X160274000Y-64389000D02*
X161036000Y-64389000D01*
X161036000Y-64389000D02*
X162052000Y-63373000D01*
X160045000Y-66055000D02*
X160045000Y-64618000D01*
D40*
X162052000Y-63373000D02*
X163322000Y-62103000D01*
X166497000Y-62103000D02*
X167386000Y-61214000D01*
X167386000Y-61214000D02*
X168295000Y-61214000D01*
D41*
X159829500Y-63817500D02*
X160655000Y-62992000D01*
D40*
X166624000Y-59182000D02*
X169438000Y-59182000D01*
X165100000Y-60706000D02*
X166624000Y-59182000D01*
X162941000Y-60706000D02*
X165100000Y-60706000D01*
X162433000Y-61214000D02*
X162941000Y-60706000D01*
X160655000Y-62992000D02*
X162433000Y-61214000D01*
X169438000Y-59182000D02*
X169438000Y-57638000D01*
X169438000Y-57638000D02*
X169926000Y-57150000D01*
X169926000Y-57150000D02*
X173863000Y-57150000D01*
X173863000Y-57150000D02*
X174244000Y-57531000D01*
X174244000Y-57531000D02*
X174244000Y-58975000D01*
D41*
X159245000Y-66055000D02*
X159245000Y-64402000D01*
X159245000Y-64402000D02*
X159829500Y-63817500D01*
X153035000Y-95551000D02*
X153035000Y-82804000D01*
X153369000Y-82470000D02*
X154178000Y-82470000D01*
X153035000Y-82804000D02*
X153369000Y-82470000D01*
X154178000Y-82470000D02*
X154178000Y-81407000D01*
X155245000Y-80340000D02*
X155245000Y-77455000D01*
X154178000Y-81407000D02*
X155245000Y-80340000D01*
X151003000Y-95551000D02*
X151003000Y-94234000D01*
X151685000Y-82470000D02*
X150622000Y-82470000D01*
X152019000Y-82804000D02*
X151685000Y-82470000D01*
X152019000Y-93218000D02*
X152019000Y-82804000D01*
X151003000Y-94234000D02*
X152019000Y-93218000D01*
X150622000Y-82470000D02*
X150622000Y-81280000D01*
X154445000Y-79489000D02*
X154445000Y-77455000D01*
X153416000Y-80518000D02*
X154445000Y-79489000D01*
X151384000Y-80518000D02*
X153416000Y-80518000D01*
X150622000Y-81280000D02*
X151384000Y-80518000D01*
D40*
X142621000Y-85320000D02*
X139724000Y-85320000D01*
X139724000Y-85320000D02*
X139446000Y-85598000D01*
D41*
X139446000Y-85598000D02*
X139724000Y-85320000D01*
X143784000Y-71374000D02*
X143784000Y-72555000D01*
X143764000Y-72517000D02*
X143764000Y-72555000D01*
X143764000Y-72535000D02*
X143764000Y-72517000D01*
X143784000Y-72555000D02*
X143764000Y-72535000D01*
X140843000Y-72555000D02*
X140246000Y-72555000D01*
X139700000Y-72009000D02*
X139700000Y-70612000D01*
X140246000Y-72555000D02*
X139700000Y-72009000D01*
X143129000Y-72555000D02*
X140843000Y-72555000D01*
X144780000Y-72555000D02*
X143764000Y-72555000D01*
X143764000Y-72555000D02*
X143129000Y-72555000D01*
X151145000Y-72555000D02*
X144780000Y-72555000D01*
X143784000Y-74549000D02*
X143784000Y-73355000D01*
X143764000Y-73406000D02*
X143764000Y-73355000D01*
X143764000Y-73375000D02*
X143764000Y-73406000D01*
X143784000Y-73355000D02*
X143764000Y-73375000D01*
X141097000Y-73355000D02*
X140386000Y-73355000D01*
X139700000Y-74041000D02*
X139700000Y-75512000D01*
X140386000Y-73355000D02*
X139700000Y-74041000D01*
X143002000Y-73355000D02*
X141097000Y-73355000D01*
X144907000Y-73355000D02*
X143764000Y-73355000D01*
X143764000Y-73355000D02*
X143002000Y-73355000D01*
X151145000Y-73355000D02*
X144907000Y-73355000D01*
X162545000Y-70955000D02*
X164249000Y-70955000D01*
X165100000Y-70104000D02*
X166390000Y-70104000D01*
X164249000Y-70955000D02*
X165100000Y-70104000D01*
X166390000Y-72390000D02*
X167386000Y-72390000D01*
X167386000Y-72390000D02*
X167640000Y-72644000D01*
X167640000Y-72644000D02*
X167640000Y-73406000D01*
X167640000Y-73406000D02*
X167817798Y-73583798D01*
X168275000Y-73787000D02*
X168071798Y-73583798D01*
D42*
X168783000Y-74295000D02*
X168275000Y-73787000D01*
X169291000Y-74295000D02*
X168783000Y-74295000D01*
D41*
X168071798Y-73583798D02*
X167817798Y-73583798D01*
X162545000Y-72555000D02*
X164935000Y-72555000D01*
X165100000Y-72390000D02*
X166390000Y-72390000D01*
X164935000Y-72555000D02*
X165100000Y-72390000D01*
X165882000Y-72263000D02*
X165882000Y-72664000D01*
D40*
X118618000Y-51562000D02*
X118618000Y-60960000D01*
X118618000Y-60960000D02*
X126492000Y-68834000D01*
X128778000Y-82804000D02*
X136779000Y-82804000D01*
X126492000Y-80518000D02*
X128778000Y-82804000D01*
X126492000Y-68834000D02*
X126492000Y-80518000D01*
X136779000Y-82804000D02*
X139700000Y-79883000D01*
X139700000Y-79883000D02*
X145669000Y-79883000D01*
D41*
X120015000Y-62357000D02*
X127000000Y-69342000D01*
X127000000Y-69342000D02*
X127000000Y-70485000D01*
X143256000Y-79883000D02*
X145669000Y-79883000D01*
X145669000Y-79883000D02*
X146558000Y-79883000D01*
X146558000Y-79883000D02*
X148590000Y-77851000D01*
X151145000Y-75755000D02*
X151145000Y-76312000D01*
X149606000Y-77851000D02*
X148590000Y-77851000D01*
X151145000Y-76312000D02*
X149606000Y-77851000D01*
X127000000Y-80518000D02*
X127000000Y-70485000D01*
X129286000Y-82804000D02*
X127000000Y-80518000D01*
X136779000Y-82804000D02*
X129286000Y-82804000D01*
X139700000Y-79883000D02*
X136779000Y-82804000D01*
X143256000Y-79883000D02*
X139700000Y-79883000D01*
X120015000Y-62357000D02*
X118618000Y-60960000D01*
D40*
X148209000Y-85170000D02*
X148209000Y-86741000D01*
X147447000Y-87503000D02*
X144907000Y-87503000D01*
X148209000Y-86741000D02*
X147447000Y-87503000D01*
D41*
X148209000Y-85852000D02*
X148209000Y-85170000D01*
D40*
X156337000Y-85170000D02*
X156337000Y-86614000D01*
X157861000Y-88138000D02*
X159004000Y-88138000D01*
X156337000Y-86614000D02*
X157861000Y-88138000D01*
X147828000Y-95147000D02*
X147551000Y-95424000D01*
X147551000Y-95424000D02*
X144907000Y-95424000D01*
X144907000Y-95424000D02*
X144065000Y-96266000D01*
X144065000Y-96266000D02*
X141692000Y-96266000D01*
X141692000Y-96266000D02*
X139319000Y-96266000D01*
X139319000Y-96266000D02*
X139192000Y-96393000D01*
X139192000Y-96393000D02*
X139192000Y-97551314D01*
X139192000Y-97551314D02*
X138445314Y-98298000D01*
X138445314Y-98298000D02*
X136906000Y-98298000D01*
D41*
X144907000Y-95424000D02*
X147551000Y-95424000D01*
X139192000Y-96393000D02*
X139319000Y-96266000D01*
X139192000Y-97282000D02*
X139192000Y-96393000D01*
X138303000Y-98171000D02*
X139192000Y-97282000D01*
X137033000Y-98171000D02*
X138303000Y-98171000D01*
X136906000Y-98298000D02*
X137033000Y-98171000D01*
X141692000Y-96266000D02*
X141692000Y-96560000D01*
D40*
X158877000Y-95678000D02*
X159465000Y-96266000D01*
X159465000Y-96266000D02*
X162346000Y-96266000D01*
X162346000Y-96266000D02*
X162346000Y-97449000D01*
X164084000Y-99187000D02*
X165608000Y-99187000D01*
X162346000Y-97449000D02*
X164084000Y-99187000D01*
D41*
X161758000Y-95678000D02*
X162346000Y-96266000D01*
X155956000Y-98782000D02*
X156234000Y-98782000D01*
X156234000Y-98782000D02*
X157988000Y-97028000D01*
X157988000Y-97028000D02*
X158623000Y-97028000D01*
X158623000Y-97028000D02*
X158877000Y-96774000D01*
X158877000Y-96774000D02*
X158877000Y-95678000D01*
D40*
X143486000Y-46355000D02*
X143510000Y-46379000D01*
X143510000Y-46379000D02*
X143510000Y-48895000D01*
D41*
X143486000Y-48871000D02*
X143486000Y-46355000D01*
X143510000Y-48895000D02*
X143486000Y-48871000D01*
D40*
X173482000Y-49022000D02*
X171958000Y-49022000D01*
X171323000Y-48387000D02*
X171323000Y-46990000D01*
X171958000Y-49022000D02*
X171323000Y-48387000D01*
X169117000Y-46990000D02*
X171323000Y-46990000D01*
X167894000Y-56896000D02*
X169037000Y-55753000D01*
X169672000Y-55753000D02*
X171069000Y-54356000D01*
X169164000Y-55753000D02*
X169672000Y-55753000D01*
X169037000Y-55753000D02*
X169164000Y-55753000D01*
X154559000Y-61722000D02*
X154559000Y-57785000D01*
X164211000Y-57404000D02*
X167386000Y-57404000D01*
X163068000Y-56261000D02*
X164211000Y-57404000D01*
X156083000Y-56261000D02*
X163068000Y-56261000D01*
X154559000Y-57785000D02*
X156083000Y-56261000D01*
D41*
X154559000Y-62103000D02*
X154559000Y-62865000D01*
D40*
X154559000Y-61722000D02*
X154559000Y-62103000D01*
D41*
X154559000Y-62865000D02*
X154940000Y-63246000D01*
X156045000Y-64351000D02*
X154940000Y-63246000D01*
X156045000Y-66055000D02*
X156045000Y-64351000D01*
D40*
X167894000Y-56896000D02*
X167386000Y-57404000D01*
X168529000Y-54356000D02*
X166751000Y-56134000D01*
X166751000Y-56134000D02*
X164973000Y-56134000D01*
X153289000Y-57404000D02*
X153289000Y-60071000D01*
X155575000Y-55118000D02*
X153289000Y-57404000D01*
X163957000Y-55118000D02*
X155575000Y-55118000D01*
X164973000Y-56134000D02*
X163957000Y-55118000D01*
X153289000Y-59182000D02*
X153289000Y-60071000D01*
D41*
X153289000Y-60579000D02*
X153289000Y-60071000D01*
X153289000Y-60071000D02*
X153289000Y-59182000D01*
X153289000Y-60960000D02*
X153289000Y-60579000D01*
X153289000Y-61722000D02*
X153289000Y-60960000D01*
X155245000Y-66055000D02*
X155245000Y-64540108D01*
X153289000Y-62584108D02*
X153289000Y-61722000D01*
X155245000Y-64540108D02*
X153289000Y-62584108D01*
D40*
X165862000Y-54610000D02*
X165227000Y-53975000D01*
X152146000Y-56007000D02*
X152146000Y-60452000D01*
X154178000Y-53975000D02*
X152146000Y-56007000D01*
X165227000Y-53975000D02*
X154178000Y-53975000D01*
D41*
X152527000Y-61595000D02*
X152527000Y-61468000D01*
X152146000Y-61087000D02*
X152146000Y-60452000D01*
X152527000Y-61468000D02*
X152146000Y-61087000D01*
X153289000Y-63500000D02*
X152527000Y-62738000D01*
X152527000Y-62738000D02*
X152527000Y-61595000D01*
X154445000Y-66055000D02*
X154445000Y-64656000D01*
X154445000Y-64656000D02*
X153289000Y-63500000D01*
D42*
X166116000Y-64643000D02*
X163957000Y-64643000D01*
X163957000Y-64643000D02*
X163703000Y-64897000D01*
D41*
X162545000Y-67755000D02*
X162545000Y-66055000D01*
X162545000Y-66055000D02*
X163703000Y-64897000D01*
X163703000Y-64897000D02*
X163957000Y-64643000D01*
X162545000Y-68555000D02*
X163474000Y-68555000D01*
X164084000Y-67945000D02*
X164084000Y-67310000D01*
X163474000Y-68555000D02*
X164084000Y-67945000D01*
D42*
X164084000Y-66294000D02*
X164084000Y-67310000D01*
X164084000Y-67310000D02*
X164084000Y-67564000D01*
D41*
X164084000Y-67564000D02*
X164084000Y-66294000D01*
X164401500Y-68580000D02*
X164846000Y-68135500D01*
X164846000Y-68135500D02*
X164846000Y-67945000D01*
X162545000Y-69355000D02*
X163626500Y-69355000D01*
D42*
X164846000Y-67945000D02*
X165735000Y-67056000D01*
D41*
X163626500Y-69355000D02*
X164401500Y-68580000D01*
X165068250Y-68992750D02*
X165544500Y-68516500D01*
D42*
X165544500Y-68516500D02*
X166687500Y-68516500D01*
X166687500Y-68516500D02*
X167005000Y-68199000D01*
X167005000Y-68199000D02*
X166687500Y-68516500D01*
D41*
X163906000Y-70155000D02*
X165068250Y-68992750D01*
X162545000Y-70155000D02*
X163906000Y-70155000D01*
X164211000Y-85217000D02*
X163322000Y-84328000D01*
X163322000Y-82423000D02*
X163068000Y-82169000D01*
X163322000Y-84328000D02*
X163322000Y-82423000D01*
D40*
X167513000Y-87249000D02*
X166243000Y-87249000D01*
X166243000Y-87249000D02*
X164211000Y-85217000D01*
D41*
X160782000Y-80899000D02*
X161798000Y-80899000D01*
X158445000Y-78943000D02*
X160401000Y-80899000D01*
X160401000Y-80899000D02*
X160782000Y-80899000D01*
X158445000Y-77455000D02*
X158445000Y-78943000D01*
X161798000Y-80899000D02*
X163068000Y-82169000D01*
X165100000Y-84074000D02*
X164465000Y-83439000D01*
X164465000Y-83439000D02*
X164465000Y-82423000D01*
D40*
X167513000Y-85471000D02*
X166497000Y-85471000D01*
X166497000Y-85471000D02*
X165100000Y-84074000D01*
D41*
X159245000Y-77455000D02*
X159245000Y-78727000D01*
X161925000Y-79883000D02*
X164465000Y-82423000D01*
X160401000Y-79883000D02*
X161925000Y-79883000D01*
X159245000Y-78727000D02*
X160401000Y-79883000D01*
X165227000Y-81661000D02*
X162433000Y-78867000D01*
X162433000Y-78867000D02*
X162179000Y-78867000D01*
D40*
X167513000Y-83693000D02*
X167259000Y-83693000D01*
X167259000Y-83693000D02*
X165227000Y-81661000D01*
D41*
X160045000Y-77455000D02*
X160045000Y-78511000D01*
X160045000Y-78511000D02*
X160401000Y-78867000D01*
X160401000Y-78867000D02*
X162179000Y-78867000D01*
X165925500Y-80454500D02*
X163576000Y-78105000D01*
X163576000Y-78105000D02*
X163068000Y-78105000D01*
D40*
X167513000Y-81915000D02*
X167386000Y-81915000D01*
X167386000Y-81915000D02*
X165925500Y-80454500D01*
D41*
X160845000Y-77455000D02*
X162037000Y-77455000D01*
X162037000Y-77455000D02*
X162687000Y-78105000D01*
X162687000Y-78105000D02*
X163068000Y-78105000D01*
X163703000Y-78105000D02*
X165481000Y-79883000D01*
X163068000Y-78105000D02*
X163703000Y-78105000D01*
X165481000Y-79883000D02*
X167513000Y-81915000D01*
X165735000Y-78486000D02*
X164084000Y-76835000D01*
X164084000Y-76835000D02*
X163703000Y-76835000D01*
D40*
X167513000Y-80137000D02*
X167386000Y-80137000D01*
X167386000Y-80137000D02*
X165735000Y-78486000D01*
D41*
X162545000Y-75755000D02*
X162545000Y-76439000D01*
X162545000Y-76439000D02*
X162941000Y-76835000D01*
X162941000Y-76835000D02*
X163703000Y-76835000D01*
X164211000Y-76835000D02*
X165735000Y-78359000D01*
X163703000Y-76835000D02*
X164211000Y-76835000D01*
X165735000Y-78359000D02*
X167513000Y-80137000D01*
D40*
X167513000Y-78359000D02*
X167259000Y-78359000D01*
X167259000Y-78359000D02*
X165608000Y-76708000D01*
D41*
X162545000Y-74955000D02*
X164109000Y-74955000D01*
X164109000Y-74955000D02*
X167513000Y-78359000D01*
X166370000Y-75692000D02*
X165862000Y-75692000D01*
X165862000Y-75692000D02*
X165354000Y-75184000D01*
D40*
X167513000Y-76581000D02*
X167259000Y-76581000D01*
X167259000Y-76581000D02*
X166370000Y-75692000D01*
D41*
X162545000Y-74155000D02*
X164325000Y-74155000D01*
X164325000Y-74155000D02*
X165354000Y-75184000D01*
D40*
X167513000Y-74803000D02*
X167132000Y-74422000D01*
D41*
X165481000Y-73914000D02*
X165100000Y-73914000D01*
X165989000Y-74422000D02*
X165481000Y-73914000D01*
D40*
X167132000Y-74422000D02*
X165989000Y-74422000D01*
D41*
X162545000Y-73355000D02*
X164541000Y-73355000D01*
X164541000Y-73355000D02*
X165100000Y-73914000D01*
D40*
X176276000Y-58975000D02*
X176276000Y-56769000D01*
D41*
X174244000Y-61675000D02*
X174244000Y-60452000D01*
X176276000Y-60071000D02*
X176276000Y-58975000D01*
X176022000Y-60325000D02*
X176276000Y-60071000D01*
X174371000Y-60325000D02*
X176022000Y-60325000D01*
X174244000Y-60452000D02*
X174371000Y-60325000D01*
D40*
X176149000Y-67230000D02*
X176149000Y-65024000D01*
D41*
X174117000Y-69930000D02*
X174117000Y-68961000D01*
X176149000Y-68199000D02*
X176149000Y-67230000D01*
X175768000Y-68580000D02*
X176149000Y-68199000D01*
X174498000Y-68580000D02*
X175768000Y-68580000D01*
X174117000Y-68961000D02*
X174498000Y-68580000D01*
D40*
X174117000Y-75518000D02*
X176116000Y-75518000D01*
X176116000Y-75518000D02*
X176149000Y-75485000D01*
X174117000Y-77724000D02*
X174117000Y-75518000D01*
D41*
X176149000Y-75485000D02*
X174150000Y-75485000D01*
X174150000Y-75485000D02*
X174117000Y-75518000D01*
D42*
X158750000Y-61087000D02*
X159004000Y-61087000D01*
X159512000Y-62865000D02*
X159004000Y-63373000D01*
X159512000Y-61595000D02*
X159512000Y-62865000D01*
X159004000Y-61087000D02*
X159512000Y-61595000D01*
D41*
X158445000Y-64186000D02*
X158445000Y-63932000D01*
X158445000Y-63932000D02*
X159004000Y-63373000D01*
X158445000Y-66055000D02*
X158445000Y-64186000D01*
X123952000Y-47244000D02*
X123825000Y-47371000D01*
X123825000Y-47371000D02*
X123825000Y-50927000D01*
D40*
X139827000Y-60198000D02*
X140970000Y-60198000D01*
X142621000Y-61849000D02*
X149606000Y-61849000D01*
X140970000Y-60198000D02*
X142621000Y-61849000D01*
X149606000Y-61849000D02*
X149733000Y-61976000D01*
D41*
X149733000Y-61976000D02*
X150304500Y-62547500D01*
X150749000Y-62992000D02*
X150749000Y-63500000D01*
X150304500Y-62547500D02*
X150749000Y-62992000D01*
D40*
X135255000Y-58928000D02*
X136525000Y-60198000D01*
X136525000Y-60198000D02*
X139827000Y-60198000D01*
X129159000Y-51562000D02*
X130683000Y-51562000D01*
X134366000Y-58039000D02*
X135255000Y-58928000D01*
X134366000Y-55245000D02*
X134366000Y-58039000D01*
X130683000Y-51562000D02*
X134366000Y-55245000D01*
D41*
X152845000Y-66055000D02*
X152542000Y-66055000D01*
X152019000Y-65532000D02*
X152019000Y-65024000D01*
X152542000Y-66055000D02*
X152019000Y-65532000D01*
X152019000Y-64770000D02*
X152019000Y-65024000D01*
X150749000Y-63500000D02*
X152019000Y-64770000D01*
X140486000Y-45405000D02*
X137433000Y-45405000D01*
X137433000Y-45405000D02*
X137414000Y-45386000D01*
D40*
X143571000Y-82320000D02*
X143571000Y-83754000D01*
X144987000Y-85170000D02*
X146050000Y-85170000D01*
X143571000Y-83754000D02*
X144987000Y-85170000D01*
D41*
X146050000Y-85170000D02*
X145622000Y-85170000D01*
X143571000Y-83119000D02*
X143571000Y-82320000D01*
D40*
X146878000Y-98147000D02*
X146878000Y-99507000D01*
X146878000Y-99507000D02*
X147447000Y-100076000D01*
X151003000Y-99822000D02*
X151003000Y-98251000D01*
X150749000Y-100076000D02*
X151003000Y-99822000D01*
X147447000Y-100076000D02*
X150749000Y-100076000D01*
D41*
X151003000Y-99568000D02*
X151003000Y-98251000D01*
X150749000Y-99822000D02*
X151003000Y-99568000D01*
X147193000Y-99822000D02*
X150749000Y-99822000D01*
X146878000Y-99507000D02*
X147193000Y-99822000D01*
X153035000Y-98251000D02*
X154258000Y-98251000D01*
X156337000Y-97282000D02*
X156906000Y-96713000D01*
X155227000Y-97282000D02*
X156337000Y-97282000D01*
X154258000Y-98251000D02*
X155227000Y-97282000D01*
X156906000Y-96713000D02*
X156906000Y-95782000D01*
D40*
X137414000Y-48086000D02*
X137414000Y-51308000D01*
X150622000Y-55245000D02*
X150622000Y-61087000D01*
X149225000Y-53848000D02*
X150622000Y-55245000D01*
X139954000Y-53848000D02*
X149225000Y-53848000D01*
X137414000Y-51308000D02*
X139954000Y-53848000D01*
D41*
X152400000Y-63627000D02*
X151765000Y-62992000D01*
X151765000Y-62230000D02*
X151003000Y-61468000D01*
X151765000Y-62992000D02*
X151765000Y-62230000D01*
D40*
X151003000Y-61468000D02*
X150622000Y-61087000D01*
D41*
X153645000Y-64872000D02*
X152400000Y-63627000D01*
X153645000Y-66055000D02*
X153645000Y-64872000D01*
D40*
X146050000Y-82470000D02*
X146050000Y-81407000D01*
X150495000Y-78867000D02*
X151130000Y-78232000D01*
X148971000Y-78867000D02*
X150495000Y-78867000D01*
X146939000Y-80899000D02*
X148971000Y-78867000D01*
X146558000Y-80899000D02*
X146939000Y-80899000D01*
X146050000Y-81407000D02*
X146558000Y-80899000D01*
D41*
X152845000Y-77455000D02*
X151907000Y-77455000D01*
X151907000Y-77455000D02*
X151130000Y-78232000D01*
D40*
X137287000Y-99822000D02*
X138684000Y-99822000D01*
X138684000Y-99822000D02*
X140382000Y-98124000D01*
X144907000Y-98124000D02*
X140382000Y-98124000D01*
X130048000Y-99822000D02*
X128778000Y-101092000D01*
X137287000Y-99822000D02*
X130048000Y-99822000D01*
X158877000Y-98378000D02*
X158877000Y-100457000D01*
D41*
X158877000Y-98378000D02*
X158877000Y-100457000D01*
D40*
X167767000Y-63246000D02*
X167767000Y-66294000D01*
X167767000Y-66294000D02*
X169438000Y-67965000D01*
X170815000Y-70739000D02*
X170815000Y-69342000D01*
X169438000Y-67965000D02*
X170815000Y-69342000D01*
X174117000Y-72818000D02*
X172894000Y-72818000D01*
X172894000Y-72818000D02*
X170815000Y-70739000D01*
X165354000Y-63246000D02*
X167767000Y-63246000D01*
X167767000Y-63246000D02*
X169438000Y-63246000D01*
D41*
X162433000Y-64643000D02*
X161798000Y-65278000D01*
X161798000Y-65786000D02*
X161529000Y-66055000D01*
X161798000Y-65278000D02*
X161798000Y-65786000D01*
D40*
X165354000Y-63246000D02*
X163830000Y-63246000D01*
X163830000Y-63246000D02*
X162433000Y-64643000D01*
D41*
X160845000Y-66055000D02*
X161529000Y-66055000D01*
D40*
X150622000Y-85170000D02*
X150622000Y-86868000D01*
X150622000Y-86868000D02*
X150368000Y-87122000D01*
D41*
X150622000Y-86868000D02*
X150368000Y-87122000D01*
D40*
X154178000Y-85170000D02*
X154178000Y-87122000D01*
D41*
X148209000Y-82470000D02*
X148209000Y-81661000D01*
X153645000Y-79146000D02*
X153645000Y-77455000D01*
X153035000Y-79756000D02*
X153645000Y-79146000D01*
X150114000Y-79756000D02*
X153035000Y-79756000D01*
X148209000Y-81661000D02*
X150114000Y-79756000D01*
X156337000Y-82470000D02*
X156337000Y-80010000D01*
X156045000Y-79718000D02*
X156045000Y-77455000D01*
X156337000Y-80010000D02*
X156045000Y-79718000D01*
D42*
G36*
X187529000Y-115189000D02*
X181726823Y-115189000D01*
X181102000Y-114460040D01*
X181102000Y-113329821D01*
X182420924Y-113329821D01*
X182482174Y-113551865D01*
X182790418Y-114057780D01*
X183268803Y-114407225D01*
X183844500Y-114547000D01*
X184594500Y-114547000D01*
X184594500Y-113093500D01*
X184721500Y-113093500D01*
X184721500Y-114547000D01*
X185471500Y-114547000D01*
X186047197Y-114407225D01*
X186525582Y-114057780D01*
X186833826Y-113551865D01*
X186895076Y-113329821D01*
X186732979Y-113093500D01*
X184721500Y-113093500D01*
X184594500Y-113093500D01*
X182583021Y-113093500D01*
X182420924Y-113329821D01*
X181102000Y-113329821D01*
X181102000Y-111506000D01*
X181097608Y-111458972D01*
X180971537Y-110789821D01*
X182420924Y-110789821D01*
X182482174Y-111011865D01*
X182790418Y-111517780D01*
X183122014Y-111760000D01*
X182790418Y-112002220D01*
X182482174Y-112508135D01*
X182420924Y-112730179D01*
X182583021Y-112966500D01*
X184594500Y-112966500D01*
X184594500Y-110553500D01*
X184721500Y-110553500D01*
X184721500Y-112966500D01*
X186732979Y-112966500D01*
X186895076Y-112730179D01*
X186833826Y-112508135D01*
X186525582Y-112002220D01*
X186193986Y-111760000D01*
X186525582Y-111517780D01*
X186833826Y-111011865D01*
X186895076Y-110789821D01*
X186732979Y-110553500D01*
X184721500Y-110553500D01*
X184594500Y-110553500D01*
X182583021Y-110553500D01*
X182420924Y-110789821D01*
X180971537Y-110789821D01*
X180858561Y-110190179D01*
X182420924Y-110190179D01*
X182583021Y-110426500D01*
X184594500Y-110426500D01*
X184594500Y-108973000D01*
X184721500Y-108973000D01*
X184721500Y-110426500D01*
X186732979Y-110426500D01*
X186895076Y-110190179D01*
X186833826Y-109968135D01*
X186525582Y-109462220D01*
X186047197Y-109112775D01*
X185471500Y-108973000D01*
X184721500Y-108973000D01*
X184594500Y-108973000D01*
X183844500Y-108973000D01*
X183268803Y-109112775D01*
X182790418Y-109462220D01*
X182482174Y-109968135D01*
X182420924Y-110190179D01*
X180858561Y-110190179D01*
X180272108Y-107077472D01*
X180234146Y-106984066D01*
X180162835Y-106912788D01*
X180098656Y-106882186D01*
X178141560Y-106267099D01*
X178430902Y-105978262D01*
X178776606Y-105145713D01*
X178777393Y-104244242D01*
X178433142Y-103411091D01*
X177796262Y-102773098D01*
X176963713Y-102427394D01*
X176062242Y-102426607D01*
X175229091Y-102770858D01*
X175133000Y-102866781D01*
X175133000Y-100076000D01*
X175106185Y-99962408D01*
X174725185Y-99200408D01*
X174663092Y-99120970D01*
X174574985Y-99071948D01*
X174498000Y-99060000D01*
X167284512Y-99060000D01*
X167284691Y-98855006D01*
X167030012Y-98238636D01*
X166719917Y-97928000D01*
X167092000Y-97928000D01*
X167282500Y-97737500D01*
X167282500Y-96329500D01*
X167409500Y-96329500D01*
X167409500Y-97737500D01*
X167600000Y-97928000D01*
X169247571Y-97928000D01*
X169527638Y-97811992D01*
X169741992Y-97597638D01*
X169858000Y-97317571D01*
X169858000Y-96520000D01*
X169667500Y-96329500D01*
X167409500Y-96329500D01*
X167282500Y-96329500D01*
X167262500Y-96329500D01*
X167262500Y-96202500D01*
X167282500Y-96202500D01*
X167282500Y-94794500D01*
X167409500Y-94794500D01*
X167409500Y-96202500D01*
X169667500Y-96202500D01*
X169858000Y-96012000D01*
X169858000Y-95214429D01*
X169741992Y-94934362D01*
X169527638Y-94720008D01*
X169247571Y-94604000D01*
X167600000Y-94604000D01*
X167409500Y-94794500D01*
X167282500Y-94794500D01*
X167092000Y-94604000D01*
X165444429Y-94604000D01*
X165164362Y-94720008D01*
X164995993Y-94888377D01*
X164838544Y-94643694D01*
X164499025Y-94411711D01*
X164096000Y-94330096D01*
X160596000Y-94330096D01*
X160376207Y-94371453D01*
X160269544Y-94205694D01*
X159930025Y-93973711D01*
X159527000Y-93892096D01*
X158227000Y-93892096D01*
X157850493Y-93962941D01*
X157841877Y-93968485D01*
X157709025Y-93877711D01*
X157306000Y-93796096D01*
X156917505Y-93796096D01*
X157033638Y-93747992D01*
X157247992Y-93533638D01*
X157364000Y-93253571D01*
X157364000Y-92456000D01*
X160644000Y-92456000D01*
X160644000Y-93253571D01*
X160760008Y-93533638D01*
X160974362Y-93747992D01*
X161254429Y-93864000D01*
X162052000Y-93864000D01*
X162242500Y-93673500D01*
X162242500Y-92265500D01*
X162369500Y-92265500D01*
X162369500Y-93673500D01*
X162560000Y-93864000D01*
X163357571Y-93864000D01*
X163637638Y-93747992D01*
X163851992Y-93533638D01*
X163968000Y-93253571D01*
X163968000Y-92456000D01*
X163777500Y-92265500D01*
X162369500Y-92265500D01*
X162242500Y-92265500D01*
X160834500Y-92265500D01*
X160644000Y-92456000D01*
X157364000Y-92456000D01*
X157173500Y-92265500D01*
X155765500Y-92265500D01*
X155765500Y-93673500D01*
X155956000Y-93864000D01*
X156145123Y-93864000D01*
X156129493Y-93866941D01*
X155783694Y-94089456D01*
X155744175Y-94147294D01*
X155557571Y-94070000D01*
X155260000Y-94070000D01*
X155069500Y-94260500D01*
X155069500Y-95718500D01*
X155089500Y-95718500D01*
X155089500Y-95845500D01*
X155069500Y-95845500D01*
X155069500Y-95865500D01*
X154942500Y-95865500D01*
X154942500Y-95845500D01*
X154922500Y-95845500D01*
X154922500Y-95718500D01*
X154942500Y-95718500D01*
X154942500Y-94260500D01*
X154752000Y-94070000D01*
X154454429Y-94070000D01*
X154428785Y-94080622D01*
X154427544Y-94078694D01*
X154203400Y-93925543D01*
X154203400Y-93581030D01*
X154370362Y-93747992D01*
X154650429Y-93864000D01*
X155448000Y-93864000D01*
X155638500Y-93673500D01*
X155638500Y-92265500D01*
X155618500Y-92265500D01*
X155618500Y-92138500D01*
X155638500Y-92138500D01*
X155638500Y-92118500D01*
X155765500Y-92118500D01*
X155765500Y-92138500D01*
X157173500Y-92138500D01*
X157364000Y-91948000D01*
X157364000Y-91150429D01*
X157247992Y-90870362D01*
X157225780Y-90848150D01*
X157325359Y-90748744D01*
X157617667Y-90044788D01*
X157617669Y-90041444D01*
X160389668Y-90041444D01*
X160680747Y-90745909D01*
X160782515Y-90847855D01*
X160760008Y-90870362D01*
X160644000Y-91150429D01*
X160644000Y-91948000D01*
X160834500Y-92138500D01*
X162242500Y-92138500D01*
X162242500Y-92118500D01*
X162369500Y-92118500D01*
X162369500Y-92138500D01*
X163777500Y-92138500D01*
X163968000Y-91948000D01*
X163968000Y-91150429D01*
X163851992Y-90870362D01*
X163829780Y-90848150D01*
X163929359Y-90748744D01*
X164221667Y-90044788D01*
X164222332Y-89282556D01*
X164116739Y-89027000D01*
X182882443Y-89027000D01*
X183024484Y-89741087D01*
X183395933Y-90297000D01*
X183024484Y-90852913D01*
X182882443Y-91567000D01*
X183024484Y-92281087D01*
X183395933Y-92837000D01*
X183024484Y-93392913D01*
X182882443Y-94107000D01*
X183024484Y-94821087D01*
X183395933Y-95377000D01*
X183024484Y-95932913D01*
X182882443Y-96647000D01*
X183024484Y-97361087D01*
X183395933Y-97917000D01*
X183024484Y-98472913D01*
X182882443Y-99187000D01*
X183024484Y-99901087D01*
X183395933Y-100457000D01*
X183024484Y-101012913D01*
X182882443Y-101727000D01*
X183024484Y-102441087D01*
X183395933Y-102997000D01*
X183024484Y-103552913D01*
X182882443Y-104267000D01*
X183024484Y-104981087D01*
X183196375Y-105238340D01*
X182980711Y-105553975D01*
X182899096Y-105957000D01*
X182899096Y-107657000D01*
X182969941Y-108033507D01*
X183192456Y-108379306D01*
X183531975Y-108611289D01*
X183935000Y-108692904D01*
X185635000Y-108692904D01*
X186011507Y-108622059D01*
X186357306Y-108399544D01*
X186589289Y-108060025D01*
X186670904Y-107657000D01*
X186670904Y-105957000D01*
X186600059Y-105580493D01*
X186377544Y-105234694D01*
X186376526Y-105233998D01*
X186545516Y-104981087D01*
X186687557Y-104267000D01*
X186545516Y-103552913D01*
X186174067Y-102997000D01*
X186545516Y-102441087D01*
X186687557Y-101727000D01*
X186545516Y-101012913D01*
X186174067Y-100457000D01*
X186545516Y-99901087D01*
X186687557Y-99187000D01*
X186545516Y-98472913D01*
X186174067Y-97917000D01*
X186545516Y-97361087D01*
X186687557Y-96647000D01*
X186545516Y-95932913D01*
X186174067Y-95377000D01*
X186545516Y-94821087D01*
X186687557Y-94107000D01*
X186545516Y-93392913D01*
X186174067Y-92837000D01*
X186545516Y-92281087D01*
X186687557Y-91567000D01*
X186545516Y-90852913D01*
X186174067Y-90297000D01*
X186545516Y-89741087D01*
X186687557Y-89027000D01*
X186545516Y-88312913D01*
X186141018Y-87707539D01*
X185535644Y-87303041D01*
X184821557Y-87161000D01*
X184748443Y-87161000D01*
X184034356Y-87303041D01*
X183428982Y-87707539D01*
X183024484Y-88312913D01*
X182882443Y-89027000D01*
X164116739Y-89027000D01*
X163931253Y-88578091D01*
X163392744Y-88038641D01*
X162688788Y-87746333D01*
X161926556Y-87745668D01*
X161222091Y-88036747D01*
X160682641Y-88575256D01*
X160390333Y-89279212D01*
X160389668Y-90041444D01*
X157617669Y-90041444D01*
X157618154Y-89486695D01*
X157861000Y-89535000D01*
X158029843Y-89535000D01*
X158053156Y-89558354D01*
X158669080Y-89814109D01*
X159335994Y-89814691D01*
X159952364Y-89560012D01*
X160424354Y-89088844D01*
X160680109Y-88472920D01*
X160680691Y-87806006D01*
X160426012Y-87189636D01*
X159954844Y-86717646D01*
X159387170Y-86481926D01*
X159425638Y-86465992D01*
X159639992Y-86251638D01*
X159756000Y-85971571D01*
X159756000Y-85324000D01*
X159565500Y-85133500D01*
X158432500Y-85133500D01*
X158432500Y-86391500D01*
X158551925Y-86510925D01*
X158309677Y-86611020D01*
X158197828Y-86499172D01*
X158305500Y-86391500D01*
X158305500Y-85133500D01*
X158285500Y-85133500D01*
X158285500Y-85006500D01*
X158305500Y-85006500D01*
X158305500Y-84986500D01*
X158432500Y-84986500D01*
X158432500Y-85006500D01*
X159565500Y-85006500D01*
X159688105Y-84883895D01*
X159939080Y-84988109D01*
X160605994Y-84988691D01*
X161222364Y-84734012D01*
X161694354Y-84262844D01*
X161950109Y-83646920D01*
X161950691Y-82980006D01*
X161756387Y-82509754D01*
X162153600Y-82906967D01*
X162153600Y-84327995D01*
X162153599Y-84328000D01*
X162242539Y-84775128D01*
X162495816Y-85154184D01*
X162877408Y-85535776D01*
X162920340Y-85751609D01*
X163223172Y-86204828D01*
X165255172Y-88236828D01*
X165708391Y-88539660D01*
X166243000Y-88646000D01*
X166538843Y-88646000D01*
X166562156Y-88669354D01*
X167178080Y-88925109D01*
X167844994Y-88925691D01*
X168461364Y-88671012D01*
X168933354Y-88199844D01*
X169189109Y-87583920D01*
X169189691Y-86917006D01*
X168959288Y-86359388D01*
X169189109Y-85805920D01*
X169189691Y-85139006D01*
X168959288Y-84581388D01*
X169189109Y-84027920D01*
X169189366Y-83732778D01*
X181383521Y-83732778D01*
X181803732Y-84749766D01*
X182581141Y-85528533D01*
X183597395Y-85950519D01*
X184697778Y-85951479D01*
X185714766Y-85531268D01*
X186493533Y-84753859D01*
X186915519Y-83737605D01*
X186916479Y-82637222D01*
X186496268Y-81620234D01*
X185718859Y-80841467D01*
X184702605Y-80419481D01*
X183602222Y-80418521D01*
X182585234Y-80838732D01*
X181806467Y-81616141D01*
X181384481Y-82632395D01*
X181383521Y-83732778D01*
X169189366Y-83732778D01*
X169189691Y-83361006D01*
X168959288Y-82803388D01*
X169189109Y-82249920D01*
X169189691Y-81583006D01*
X168959288Y-81025388D01*
X169189109Y-80471920D01*
X169189691Y-79805006D01*
X168959288Y-79247388D01*
X169189109Y-78693920D01*
X169189691Y-78027006D01*
X168959288Y-77469388D01*
X169189109Y-76915920D01*
X169189691Y-76249006D01*
X169074909Y-75971213D01*
X169622994Y-75971691D01*
X170015000Y-75809717D01*
X170015000Y-75854578D01*
X170153235Y-76549531D01*
X170546894Y-77138684D01*
X171136047Y-77532343D01*
X171831000Y-77670578D01*
X172440751Y-77549291D01*
X172440309Y-78055994D01*
X172694988Y-78672364D01*
X173166156Y-79144354D01*
X173782080Y-79400109D01*
X174448994Y-79400691D01*
X174806010Y-79253175D01*
X174853008Y-79366638D01*
X175067362Y-79580992D01*
X175347429Y-79697000D01*
X175895000Y-79697000D01*
X176085500Y-79506500D01*
X176085500Y-78248500D01*
X176065500Y-78248500D01*
X176065500Y-78121500D01*
X176085500Y-78121500D01*
X176085500Y-78101500D01*
X176212500Y-78101500D01*
X176212500Y-78121500D01*
X176232500Y-78121500D01*
X176232500Y-78248500D01*
X176212500Y-78248500D01*
X176212500Y-79506500D01*
X176403000Y-79697000D01*
X176950571Y-79697000D01*
X177230638Y-79580992D01*
X177444992Y-79366638D01*
X177561000Y-79086571D01*
X177561000Y-78439000D01*
X177526821Y-78404821D01*
X180515924Y-78404821D01*
X180577174Y-78626865D01*
X180885418Y-79132780D01*
X181363803Y-79482225D01*
X181939500Y-79622000D01*
X182689500Y-79622000D01*
X182689500Y-78168500D01*
X182816500Y-78168500D01*
X182816500Y-79622000D01*
X183566500Y-79622000D01*
X184142197Y-79482225D01*
X184620582Y-79132780D01*
X184928826Y-78626865D01*
X184990076Y-78404821D01*
X184827979Y-78168500D01*
X182816500Y-78168500D01*
X182689500Y-78168500D01*
X180678021Y-78168500D01*
X180515924Y-78404821D01*
X177526821Y-78404821D01*
X177449000Y-78327000D01*
X177927000Y-78327000D01*
X178117500Y-78136500D01*
X178117500Y-76878500D01*
X178244500Y-76878500D01*
X178244500Y-78136500D01*
X178435000Y-78327000D01*
X178957571Y-78327000D01*
X179237638Y-78210992D01*
X179451992Y-77996638D01*
X179568000Y-77716571D01*
X179568000Y-77069000D01*
X179377500Y-76878500D01*
X178244500Y-76878500D01*
X178117500Y-76878500D01*
X178097500Y-76878500D01*
X178097500Y-76751500D01*
X178117500Y-76751500D01*
X178117500Y-76731500D01*
X178244500Y-76731500D01*
X178244500Y-76751500D01*
X179377500Y-76751500D01*
X179568000Y-76561000D01*
X179568000Y-75913429D01*
X179525017Y-75809660D01*
X179528306Y-75807544D01*
X179760289Y-75468025D01*
X179841904Y-75065000D01*
X179841904Y-73565000D01*
X179771059Y-73188493D01*
X179665855Y-73025000D01*
X180182611Y-73025000D01*
X180317420Y-73702732D01*
X180701325Y-74277286D01*
X180727836Y-74295000D01*
X180701325Y-74312714D01*
X180317420Y-74887268D01*
X180182611Y-75565000D01*
X180317420Y-76242732D01*
X180701325Y-76817286D01*
X180983318Y-77005708D01*
X180885418Y-77077220D01*
X180577174Y-77583135D01*
X180515924Y-77805179D01*
X180678021Y-78041500D01*
X182689500Y-78041500D01*
X182689500Y-78021500D01*
X182816500Y-78021500D01*
X182816500Y-78041500D01*
X184827979Y-78041500D01*
X184990076Y-77805179D01*
X184928826Y-77583135D01*
X184620582Y-77077220D01*
X184522682Y-77005708D01*
X184804675Y-76817286D01*
X185188580Y-76242732D01*
X185323389Y-75565000D01*
X185188580Y-74887268D01*
X184804675Y-74312714D01*
X184778164Y-74295000D01*
X184804675Y-74277286D01*
X185188580Y-73702732D01*
X185323389Y-73025000D01*
X185188580Y-72347268D01*
X184804675Y-71772714D01*
X184230121Y-71388809D01*
X183815973Y-71306430D01*
X184142197Y-71227225D01*
X184620582Y-70877780D01*
X184928826Y-70371865D01*
X184990076Y-70149821D01*
X184827979Y-69913500D01*
X182816500Y-69913500D01*
X182816500Y-69933500D01*
X182689500Y-69933500D01*
X182689500Y-69913500D01*
X180678021Y-69913500D01*
X180515924Y-70149821D01*
X180577174Y-70371865D01*
X180885418Y-70877780D01*
X181363803Y-71227225D01*
X181690027Y-71306430D01*
X181275879Y-71388809D01*
X180701325Y-71772714D01*
X180317420Y-72347268D01*
X180182611Y-73025000D01*
X179665855Y-73025000D01*
X179629174Y-72967997D01*
X179730109Y-72724920D01*
X179730691Y-72058006D01*
X179476012Y-71441636D01*
X179004844Y-70969646D01*
X178388920Y-70713891D01*
X177722006Y-70713309D01*
X177561000Y-70779835D01*
X177561000Y-70184000D01*
X177449000Y-70072000D01*
X177927000Y-70072000D01*
X178117500Y-69881500D01*
X178117500Y-68623500D01*
X178244500Y-68623500D01*
X178244500Y-69881500D01*
X178435000Y-70072000D01*
X178957571Y-70072000D01*
X179237638Y-69955992D01*
X179451992Y-69741638D01*
X179568000Y-69461571D01*
X179568000Y-68814000D01*
X179377500Y-68623500D01*
X178244500Y-68623500D01*
X178117500Y-68623500D01*
X178097500Y-68623500D01*
X178097500Y-68496500D01*
X178117500Y-68496500D01*
X178117500Y-68476500D01*
X178244500Y-68476500D01*
X178244500Y-68496500D01*
X179377500Y-68496500D01*
X179568000Y-68306000D01*
X179568000Y-67658429D01*
X179525017Y-67554660D01*
X179528306Y-67552544D01*
X179760289Y-67213025D01*
X179841904Y-66810000D01*
X179841904Y-65310000D01*
X179771059Y-64933493D01*
X179674312Y-64783143D01*
X179679769Y-64770000D01*
X180182611Y-64770000D01*
X180317420Y-65447732D01*
X180701325Y-66022286D01*
X180727836Y-66040000D01*
X180701325Y-66057714D01*
X180317420Y-66632268D01*
X180182611Y-67310000D01*
X180317420Y-67987732D01*
X180701325Y-68562286D01*
X180983318Y-68750708D01*
X180885418Y-68822220D01*
X180577174Y-69328135D01*
X180515924Y-69550179D01*
X180678021Y-69786500D01*
X182689500Y-69786500D01*
X182689500Y-69766500D01*
X182816500Y-69766500D01*
X182816500Y-69786500D01*
X184827979Y-69786500D01*
X184990076Y-69550179D01*
X184928826Y-69328135D01*
X184620582Y-68822220D01*
X184522682Y-68750708D01*
X184804675Y-68562286D01*
X185188580Y-67987732D01*
X185323389Y-67310000D01*
X185188580Y-66632268D01*
X184804675Y-66057714D01*
X184778164Y-66040000D01*
X184804675Y-66022286D01*
X185188580Y-65447732D01*
X185323389Y-64770000D01*
X185188580Y-64092268D01*
X184804675Y-63517714D01*
X184230121Y-63133809D01*
X183815973Y-63051430D01*
X184142197Y-62972225D01*
X184620582Y-62622780D01*
X184928826Y-62116865D01*
X184990076Y-61894821D01*
X184827979Y-61658500D01*
X182816500Y-61658500D01*
X182816500Y-61678500D01*
X182689500Y-61678500D01*
X182689500Y-61658500D01*
X180678021Y-61658500D01*
X180515924Y-61894821D01*
X180577174Y-62116865D01*
X180885418Y-62622780D01*
X181363803Y-62972225D01*
X181690027Y-63051430D01*
X181275879Y-63133809D01*
X180701325Y-63517714D01*
X180317420Y-64092268D01*
X180182611Y-64770000D01*
X179679769Y-64770000D01*
X179857109Y-64342920D01*
X179857691Y-63676006D01*
X179603012Y-63059636D01*
X179131844Y-62587646D01*
X178515920Y-62331891D01*
X177849006Y-62331309D01*
X177688000Y-62397835D01*
X177688000Y-61929000D01*
X177576000Y-61817000D01*
X178054000Y-61817000D01*
X178244500Y-61626500D01*
X178244500Y-60368500D01*
X178371500Y-60368500D01*
X178371500Y-61626500D01*
X178562000Y-61817000D01*
X179084571Y-61817000D01*
X179364638Y-61700992D01*
X179578992Y-61486638D01*
X179695000Y-61206571D01*
X179695000Y-60559000D01*
X179504500Y-60368500D01*
X178371500Y-60368500D01*
X178244500Y-60368500D01*
X178224500Y-60368500D01*
X178224500Y-60241500D01*
X178244500Y-60241500D01*
X178244500Y-60221500D01*
X178371500Y-60221500D01*
X178371500Y-60241500D01*
X179504500Y-60241500D01*
X179695000Y-60051000D01*
X179695000Y-59403429D01*
X179652017Y-59299660D01*
X179655306Y-59297544D01*
X179887289Y-58958025D01*
X179968904Y-58555000D01*
X179968904Y-57055000D01*
X179898059Y-56678493D01*
X179801312Y-56528143D01*
X179806769Y-56515000D01*
X180182611Y-56515000D01*
X180317420Y-57192732D01*
X180701325Y-57767286D01*
X180727836Y-57785000D01*
X180701325Y-57802714D01*
X180317420Y-58377268D01*
X180182611Y-59055000D01*
X180317420Y-59732732D01*
X180701325Y-60307286D01*
X180983318Y-60495708D01*
X180885418Y-60567220D01*
X180577174Y-61073135D01*
X180515924Y-61295179D01*
X180678021Y-61531500D01*
X182689500Y-61531500D01*
X182689500Y-61511500D01*
X182816500Y-61511500D01*
X182816500Y-61531500D01*
X184827979Y-61531500D01*
X184990076Y-61295179D01*
X184928826Y-61073135D01*
X184620582Y-60567220D01*
X184522682Y-60495708D01*
X184804675Y-60307286D01*
X185188580Y-59732732D01*
X185323389Y-59055000D01*
X185188580Y-58377268D01*
X184804675Y-57802714D01*
X184778164Y-57785000D01*
X184804675Y-57767286D01*
X185188580Y-57192732D01*
X185323389Y-56515000D01*
X185188580Y-55837268D01*
X184804675Y-55262714D01*
X184338410Y-54951165D01*
X184697778Y-54951479D01*
X185714766Y-54531268D01*
X186493533Y-53753859D01*
X186915519Y-52737605D01*
X186916479Y-51637222D01*
X186496268Y-50620234D01*
X185718859Y-49841467D01*
X184702605Y-49419481D01*
X183602222Y-49418521D01*
X182585234Y-49838732D01*
X181806467Y-50616141D01*
X181384481Y-51632395D01*
X181383521Y-52732778D01*
X181803732Y-53749766D01*
X182581141Y-54528533D01*
X183100043Y-54744000D01*
X181953611Y-54744000D01*
X181275879Y-54878809D01*
X180701325Y-55262714D01*
X180317420Y-55837268D01*
X180182611Y-56515000D01*
X179806769Y-56515000D01*
X179984109Y-56087920D01*
X179984691Y-55421006D01*
X179730012Y-54804636D01*
X179258844Y-54332646D01*
X178642920Y-54076891D01*
X177976006Y-54076309D01*
X177359636Y-54330988D01*
X176887646Y-54802156D01*
X176743979Y-55148142D01*
X176610920Y-55092891D01*
X175944006Y-55092309D01*
X175327636Y-55346988D01*
X174855646Y-55818156D01*
X174742777Y-56089974D01*
X174397609Y-55859340D01*
X173863000Y-55753000D01*
X172042420Y-55753000D01*
X172489354Y-55306844D01*
X172745109Y-54690920D01*
X172745691Y-54024006D01*
X172634765Y-53755545D01*
X172836779Y-53890526D01*
X173570000Y-54036373D01*
X174303221Y-53890526D01*
X174840000Y-53531863D01*
X175376779Y-53890526D01*
X176110000Y-54036373D01*
X176843221Y-53890526D01*
X177464817Y-53475190D01*
X177566094Y-53323618D01*
X178072646Y-53634787D01*
X178327478Y-53705405D01*
X178586500Y-53545129D01*
X178586500Y-51738500D01*
X178713500Y-51738500D01*
X178713500Y-53545129D01*
X178972522Y-53705405D01*
X179227354Y-53634787D01*
X179780310Y-53295112D01*
X180161187Y-52769686D01*
X180312000Y-52138500D01*
X180312000Y-51738500D01*
X178713500Y-51738500D01*
X178586500Y-51738500D01*
X178566500Y-51738500D01*
X178566500Y-51611500D01*
X178586500Y-51611500D01*
X178586500Y-49804871D01*
X178713500Y-49804871D01*
X178713500Y-51611500D01*
X180312000Y-51611500D01*
X180312000Y-51211500D01*
X180161187Y-50580314D01*
X179780310Y-50054888D01*
X179227354Y-49715213D01*
X178972522Y-49644595D01*
X178713500Y-49804871D01*
X178586500Y-49804871D01*
X178327478Y-49644595D01*
X178072646Y-49715213D01*
X177566094Y-50026382D01*
X177464817Y-49874810D01*
X176843221Y-49459474D01*
X176110000Y-49313627D01*
X175376779Y-49459474D01*
X175015205Y-49701069D01*
X175158109Y-49356920D01*
X175158691Y-48690006D01*
X175022866Y-48361285D01*
X175204638Y-48285992D01*
X175418992Y-48071638D01*
X175535000Y-47791571D01*
X175535000Y-47244000D01*
X175344500Y-47053500D01*
X174086500Y-47053500D01*
X174086500Y-47073500D01*
X173959500Y-47073500D01*
X173959500Y-47053500D01*
X173939500Y-47053500D01*
X173939500Y-46926500D01*
X173959500Y-46926500D01*
X173959500Y-46906500D01*
X174086500Y-46906500D01*
X174086500Y-46926500D01*
X175344500Y-46926500D01*
X175535000Y-46736000D01*
X175535000Y-46697960D01*
X175687080Y-46761109D01*
X176353994Y-46761691D01*
X176970364Y-46507012D01*
X177442354Y-46035844D01*
X177609722Y-45632778D01*
X181764521Y-45632778D01*
X182184732Y-46649766D01*
X182962141Y-47428533D01*
X183978395Y-47850519D01*
X185078778Y-47851479D01*
X186095766Y-47431268D01*
X186874533Y-46653859D01*
X187296519Y-45637605D01*
X187297479Y-44537222D01*
X186877268Y-43520234D01*
X186099859Y-42741467D01*
X185083605Y-42319481D01*
X183983222Y-42318521D01*
X182966234Y-42738732D01*
X182187467Y-43516141D01*
X181765481Y-44532395D01*
X181764521Y-45632778D01*
X177609722Y-45632778D01*
X177698109Y-45419920D01*
X177698691Y-44753006D01*
X177444012Y-44136636D01*
X176972844Y-43664646D01*
X176356920Y-43408891D01*
X175690006Y-43408309D01*
X175073636Y-43662988D01*
X175048580Y-43688000D01*
X166878000Y-43688000D01*
X166343391Y-43794340D01*
X165890172Y-44097172D01*
X165429172Y-44558172D01*
X165126340Y-45011391D01*
X165020000Y-45546000D01*
X165020000Y-45548998D01*
X164944694Y-45597456D01*
X164712711Y-45936975D01*
X164631096Y-46340000D01*
X164631096Y-47640000D01*
X164701941Y-48016507D01*
X164924456Y-48362306D01*
X165263975Y-48594289D01*
X165667000Y-48675904D01*
X167167000Y-48675904D01*
X167543507Y-48605059D01*
X167768163Y-48460497D01*
X167963975Y-48594289D01*
X168367000Y-48675904D01*
X169867000Y-48675904D01*
X169979265Y-48654780D01*
X170032340Y-48921609D01*
X170335172Y-49374828D01*
X170399404Y-49439060D01*
X170296779Y-49459474D01*
X169760000Y-49818137D01*
X169223221Y-49459474D01*
X168490000Y-49313627D01*
X167756779Y-49459474D01*
X167220000Y-49818137D01*
X166683221Y-49459474D01*
X165950000Y-49313627D01*
X165216779Y-49459474D01*
X164680000Y-49818137D01*
X164143221Y-49459474D01*
X163410000Y-49313627D01*
X162676779Y-49459474D01*
X162140000Y-49818137D01*
X161603221Y-49459474D01*
X160870000Y-49313627D01*
X160136779Y-49459474D01*
X159600000Y-49818137D01*
X159063221Y-49459474D01*
X158330000Y-49313627D01*
X157596779Y-49459474D01*
X157060000Y-49818137D01*
X156523221Y-49459474D01*
X155790000Y-49313627D01*
X155056779Y-49459474D01*
X154520000Y-49818137D01*
X153983221Y-49459474D01*
X153250000Y-49313627D01*
X152516779Y-49459474D01*
X151980000Y-49818137D01*
X151443221Y-49459474D01*
X150710000Y-49313627D01*
X149976779Y-49459474D01*
X149440000Y-49818137D01*
X148903221Y-49459474D01*
X148170000Y-49313627D01*
X147436779Y-49459474D01*
X146900000Y-49818137D01*
X146363221Y-49459474D01*
X145630000Y-49313627D01*
X145108257Y-49417408D01*
X145186109Y-49229920D01*
X145186691Y-48563006D01*
X144932012Y-47946636D01*
X144907000Y-47921580D01*
X144907000Y-47659255D01*
X145158306Y-47497544D01*
X145390289Y-47158025D01*
X145471904Y-46755000D01*
X145471904Y-45955000D01*
X145418842Y-45673000D01*
X164165001Y-45673000D01*
X164165001Y-41960000D01*
X187529000Y-41960000D01*
X187529000Y-115189000D01*
X187529000Y-115189000D01*
G37*
X187529000Y-115189000D02*
X181726823Y-115189000D01*
X181102000Y-114460040D01*
X181102000Y-113329821D01*
X182420924Y-113329821D01*
X182482174Y-113551865D01*
X182790418Y-114057780D01*
X183268803Y-114407225D01*
X183844500Y-114547000D01*
X184594500Y-114547000D01*
X184594500Y-113093500D01*
X184721500Y-113093500D01*
X184721500Y-114547000D01*
X185471500Y-114547000D01*
X186047197Y-114407225D01*
X186525582Y-114057780D01*
X186833826Y-113551865D01*
X186895076Y-113329821D01*
X186732979Y-113093500D01*
X184721500Y-113093500D01*
X184594500Y-113093500D01*
X182583021Y-113093500D01*
X182420924Y-113329821D01*
X181102000Y-113329821D01*
X181102000Y-111506000D01*
X181097608Y-111458972D01*
X180971537Y-110789821D01*
X182420924Y-110789821D01*
X182482174Y-111011865D01*
X182790418Y-111517780D01*
X183122014Y-111760000D01*
X182790418Y-112002220D01*
X182482174Y-112508135D01*
X182420924Y-112730179D01*
X182583021Y-112966500D01*
X184594500Y-112966500D01*
X184594500Y-110553500D01*
X184721500Y-110553500D01*
X184721500Y-112966500D01*
X186732979Y-112966500D01*
X186895076Y-112730179D01*
X186833826Y-112508135D01*
X186525582Y-112002220D01*
X186193986Y-111760000D01*
X186525582Y-111517780D01*
X186833826Y-111011865D01*
X186895076Y-110789821D01*
X186732979Y-110553500D01*
X184721500Y-110553500D01*
X184594500Y-110553500D01*
X182583021Y-110553500D01*
X182420924Y-110789821D01*
X180971537Y-110789821D01*
X180858561Y-110190179D01*
X182420924Y-110190179D01*
X182583021Y-110426500D01*
X184594500Y-110426500D01*
X184594500Y-108973000D01*
X184721500Y-108973000D01*
X184721500Y-110426500D01*
X186732979Y-110426500D01*
X186895076Y-110190179D01*
X186833826Y-109968135D01*
X186525582Y-109462220D01*
X186047197Y-109112775D01*
X185471500Y-108973000D01*
X184721500Y-108973000D01*
X184594500Y-108973000D01*
X183844500Y-108973000D01*
X183268803Y-109112775D01*
X182790418Y-109462220D01*
X182482174Y-109968135D01*
X182420924Y-110190179D01*
X180858561Y-110190179D01*
X180272108Y-107077472D01*
X180234146Y-106984066D01*
X180162835Y-106912788D01*
X180098656Y-106882186D01*
X178141560Y-106267099D01*
X178430902Y-105978262D01*
X178776606Y-105145713D01*
X178777393Y-104244242D01*
X178433142Y-103411091D01*
X177796262Y-102773098D01*
X176963713Y-102427394D01*
X176062242Y-102426607D01*
X175229091Y-102770858D01*
X175133000Y-102866781D01*
X175133000Y-100076000D01*
X175106185Y-99962408D01*
X174725185Y-99200408D01*
X174663092Y-99120970D01*
X174574985Y-99071948D01*
X174498000Y-99060000D01*
X167284512Y-99060000D01*
X167284691Y-98855006D01*
X167030012Y-98238636D01*
X166719917Y-97928000D01*
X167092000Y-97928000D01*
X167282500Y-97737500D01*
X167282500Y-96329500D01*
X167409500Y-96329500D01*
X167409500Y-97737500D01*
X167600000Y-97928000D01*
X169247571Y-97928000D01*
X169527638Y-97811992D01*
X169741992Y-97597638D01*
X169858000Y-97317571D01*
X169858000Y-96520000D01*
X169667500Y-96329500D01*
X167409500Y-96329500D01*
X167282500Y-96329500D01*
X167262500Y-96329500D01*
X167262500Y-96202500D01*
X167282500Y-96202500D01*
X167282500Y-94794500D01*
X167409500Y-94794500D01*
X167409500Y-96202500D01*
X169667500Y-96202500D01*
X169858000Y-96012000D01*
X169858000Y-95214429D01*
X169741992Y-94934362D01*
X169527638Y-94720008D01*
X169247571Y-94604000D01*
X167600000Y-94604000D01*
X167409500Y-94794500D01*
X167282500Y-94794500D01*
X167092000Y-94604000D01*
X165444429Y-94604000D01*
X165164362Y-94720008D01*
X164995993Y-94888377D01*
X164838544Y-94643694D01*
X164499025Y-94411711D01*
X164096000Y-94330096D01*
X160596000Y-94330096D01*
X160376207Y-94371453D01*
X160269544Y-94205694D01*
X159930025Y-93973711D01*
X159527000Y-93892096D01*
X158227000Y-93892096D01*
X157850493Y-93962941D01*
X157841877Y-93968485D01*
X157709025Y-93877711D01*
X157306000Y-93796096D01*
X156917505Y-93796096D01*
X157033638Y-93747992D01*
X157247992Y-93533638D01*
X157364000Y-93253571D01*
X157364000Y-92456000D01*
X160644000Y-92456000D01*
X160644000Y-93253571D01*
X160760008Y-93533638D01*
X160974362Y-93747992D01*
X161254429Y-93864000D01*
X162052000Y-93864000D01*
X162242500Y-93673500D01*
X162242500Y-92265500D01*
X162369500Y-92265500D01*
X162369500Y-93673500D01*
X162560000Y-93864000D01*
X163357571Y-93864000D01*
X163637638Y-93747992D01*
X163851992Y-93533638D01*
X163968000Y-93253571D01*
X163968000Y-92456000D01*
X163777500Y-92265500D01*
X162369500Y-92265500D01*
X162242500Y-92265500D01*
X160834500Y-92265500D01*
X160644000Y-92456000D01*
X157364000Y-92456000D01*
X157173500Y-92265500D01*
X155765500Y-92265500D01*
X155765500Y-93673500D01*
X155956000Y-93864000D01*
X156145123Y-93864000D01*
X156129493Y-93866941D01*
X155783694Y-94089456D01*
X155744175Y-94147294D01*
X155557571Y-94070000D01*
X155260000Y-94070000D01*
X155069500Y-94260500D01*
X155069500Y-95718500D01*
X155089500Y-95718500D01*
X155089500Y-95845500D01*
X155069500Y-95845500D01*
X155069500Y-95865500D01*
X154942500Y-95865500D01*
X154942500Y-95845500D01*
X154922500Y-95845500D01*
X154922500Y-95718500D01*
X154942500Y-95718500D01*
X154942500Y-94260500D01*
X154752000Y-94070000D01*
X154454429Y-94070000D01*
X154428785Y-94080622D01*
X154427544Y-94078694D01*
X154203400Y-93925543D01*
X154203400Y-93581030D01*
X154370362Y-93747992D01*
X154650429Y-93864000D01*
X155448000Y-93864000D01*
X155638500Y-93673500D01*
X155638500Y-92265500D01*
X155618500Y-92265500D01*
X155618500Y-92138500D01*
X155638500Y-92138500D01*
X155638500Y-92118500D01*
X155765500Y-92118500D01*
X155765500Y-92138500D01*
X157173500Y-92138500D01*
X157364000Y-91948000D01*
X157364000Y-91150429D01*
X157247992Y-90870362D01*
X157225780Y-90848150D01*
X157325359Y-90748744D01*
X157617667Y-90044788D01*
X157617669Y-90041444D01*
X160389668Y-90041444D01*
X160680747Y-90745909D01*
X160782515Y-90847855D01*
X160760008Y-90870362D01*
X160644000Y-91150429D01*
X160644000Y-91948000D01*
X160834500Y-92138500D01*
X162242500Y-92138500D01*
X162242500Y-92118500D01*
X162369500Y-92118500D01*
X162369500Y-92138500D01*
X163777500Y-92138500D01*
X163968000Y-91948000D01*
X163968000Y-91150429D01*
X163851992Y-90870362D01*
X163829780Y-90848150D01*
X163929359Y-90748744D01*
X164221667Y-90044788D01*
X164222332Y-89282556D01*
X164116739Y-89027000D01*
X182882443Y-89027000D01*
X183024484Y-89741087D01*
X183395933Y-90297000D01*
X183024484Y-90852913D01*
X182882443Y-91567000D01*
X183024484Y-92281087D01*
X183395933Y-92837000D01*
X183024484Y-93392913D01*
X182882443Y-94107000D01*
X183024484Y-94821087D01*
X183395933Y-95377000D01*
X183024484Y-95932913D01*
X182882443Y-96647000D01*
X183024484Y-97361087D01*
X183395933Y-97917000D01*
X183024484Y-98472913D01*
X182882443Y-99187000D01*
X183024484Y-99901087D01*
X183395933Y-100457000D01*
X183024484Y-101012913D01*
X182882443Y-101727000D01*
X183024484Y-102441087D01*
X183395933Y-102997000D01*
X183024484Y-103552913D01*
X182882443Y-104267000D01*
X183024484Y-104981087D01*
X183196375Y-105238340D01*
X182980711Y-105553975D01*
X182899096Y-105957000D01*
X182899096Y-107657000D01*
X182969941Y-108033507D01*
X183192456Y-108379306D01*
X183531975Y-108611289D01*
X183935000Y-108692904D01*
X185635000Y-108692904D01*
X186011507Y-108622059D01*
X186357306Y-108399544D01*
X186589289Y-108060025D01*
X186670904Y-107657000D01*
X186670904Y-105957000D01*
X186600059Y-105580493D01*
X186377544Y-105234694D01*
X186376526Y-105233998D01*
X186545516Y-104981087D01*
X186687557Y-104267000D01*
X186545516Y-103552913D01*
X186174067Y-102997000D01*
X186545516Y-102441087D01*
X186687557Y-101727000D01*
X186545516Y-101012913D01*
X186174067Y-100457000D01*
X186545516Y-99901087D01*
X186687557Y-99187000D01*
X186545516Y-98472913D01*
X186174067Y-97917000D01*
X186545516Y-97361087D01*
X186687557Y-96647000D01*
X186545516Y-95932913D01*
X186174067Y-95377000D01*
X186545516Y-94821087D01*
X186687557Y-94107000D01*
X186545516Y-93392913D01*
X186174067Y-92837000D01*
X186545516Y-92281087D01*
X186687557Y-91567000D01*
X186545516Y-90852913D01*
X186174067Y-90297000D01*
X186545516Y-89741087D01*
X186687557Y-89027000D01*
X186545516Y-88312913D01*
X186141018Y-87707539D01*
X185535644Y-87303041D01*
X184821557Y-87161000D01*
X184748443Y-87161000D01*
X184034356Y-87303041D01*
X183428982Y-87707539D01*
X183024484Y-88312913D01*
X182882443Y-89027000D01*
X164116739Y-89027000D01*
X163931253Y-88578091D01*
X163392744Y-88038641D01*
X162688788Y-87746333D01*
X161926556Y-87745668D01*
X161222091Y-88036747D01*
X160682641Y-88575256D01*
X160390333Y-89279212D01*
X160389668Y-90041444D01*
X157617669Y-90041444D01*
X157618154Y-89486695D01*
X157861000Y-89535000D01*
X158029843Y-89535000D01*
X158053156Y-89558354D01*
X158669080Y-89814109D01*
X159335994Y-89814691D01*
X159952364Y-89560012D01*
X160424354Y-89088844D01*
X160680109Y-88472920D01*
X160680691Y-87806006D01*
X160426012Y-87189636D01*
X159954844Y-86717646D01*
X159387170Y-86481926D01*
X159425638Y-86465992D01*
X159639992Y-86251638D01*
X159756000Y-85971571D01*
X159756000Y-85324000D01*
X159565500Y-85133500D01*
X158432500Y-85133500D01*
X158432500Y-86391500D01*
X158551925Y-86510925D01*
X158309677Y-86611020D01*
X158197828Y-86499172D01*
X158305500Y-86391500D01*
X158305500Y-85133500D01*
X158285500Y-85133500D01*
X158285500Y-85006500D01*
X158305500Y-85006500D01*
X158305500Y-84986500D01*
X158432500Y-84986500D01*
X158432500Y-85006500D01*
X159565500Y-85006500D01*
X159688105Y-84883895D01*
X159939080Y-84988109D01*
X160605994Y-84988691D01*
X161222364Y-84734012D01*
X161694354Y-84262844D01*
X161950109Y-83646920D01*
X161950691Y-82980006D01*
X161756387Y-82509754D01*
X162153600Y-82906967D01*
X162153600Y-84327995D01*
X162153599Y-84328000D01*
X162242539Y-84775128D01*
X162495816Y-85154184D01*
X162877408Y-85535776D01*
X162920340Y-85751609D01*
X163223172Y-86204828D01*
X165255172Y-88236828D01*
X165708391Y-88539660D01*
X166243000Y-88646000D01*
X166538843Y-88646000D01*
X166562156Y-88669354D01*
X167178080Y-88925109D01*
X167844994Y-88925691D01*
X168461364Y-88671012D01*
X168933354Y-88199844D01*
X169189109Y-87583920D01*
X169189691Y-86917006D01*
X168959288Y-86359388D01*
X169189109Y-85805920D01*
X169189691Y-85139006D01*
X168959288Y-84581388D01*
X169189109Y-84027920D01*
X169189366Y-83732778D01*
X181383521Y-83732778D01*
X181803732Y-84749766D01*
X182581141Y-85528533D01*
X183597395Y-85950519D01*
X184697778Y-85951479D01*
X185714766Y-85531268D01*
X186493533Y-84753859D01*
X186915519Y-83737605D01*
X186916479Y-82637222D01*
X186496268Y-81620234D01*
X185718859Y-80841467D01*
X184702605Y-80419481D01*
X183602222Y-80418521D01*
X182585234Y-80838732D01*
X181806467Y-81616141D01*
X181384481Y-82632395D01*
X181383521Y-83732778D01*
X169189366Y-83732778D01*
X169189691Y-83361006D01*
X168959288Y-82803388D01*
X169189109Y-82249920D01*
X169189691Y-81583006D01*
X168959288Y-81025388D01*
X169189109Y-80471920D01*
X169189691Y-79805006D01*
X168959288Y-79247388D01*
X169189109Y-78693920D01*
X169189691Y-78027006D01*
X168959288Y-77469388D01*
X169189109Y-76915920D01*
X169189691Y-76249006D01*
X169074909Y-75971213D01*
X169622994Y-75971691D01*
X170015000Y-75809717D01*
X170015000Y-75854578D01*
X170153235Y-76549531D01*
X170546894Y-77138684D01*
X171136047Y-77532343D01*
X171831000Y-77670578D01*
X172440751Y-77549291D01*
X172440309Y-78055994D01*
X172694988Y-78672364D01*
X173166156Y-79144354D01*
X173782080Y-79400109D01*
X174448994Y-79400691D01*
X174806010Y-79253175D01*
X174853008Y-79366638D01*
X175067362Y-79580992D01*
X175347429Y-79697000D01*
X175895000Y-79697000D01*
X176085500Y-79506500D01*
X176085500Y-78248500D01*
X176065500Y-78248500D01*
X176065500Y-78121500D01*
X176085500Y-78121500D01*
X176085500Y-78101500D01*
X176212500Y-78101500D01*
X176212500Y-78121500D01*
X176232500Y-78121500D01*
X176232500Y-78248500D01*
X176212500Y-78248500D01*
X176212500Y-79506500D01*
X176403000Y-79697000D01*
X176950571Y-79697000D01*
X177230638Y-79580992D01*
X177444992Y-79366638D01*
X177561000Y-79086571D01*
X177561000Y-78439000D01*
X177526821Y-78404821D01*
X180515924Y-78404821D01*
X180577174Y-78626865D01*
X180885418Y-79132780D01*
X181363803Y-79482225D01*
X181939500Y-79622000D01*
X182689500Y-79622000D01*
X182689500Y-78168500D01*
X182816500Y-78168500D01*
X182816500Y-79622000D01*
X183566500Y-79622000D01*
X184142197Y-79482225D01*
X184620582Y-79132780D01*
X184928826Y-78626865D01*
X184990076Y-78404821D01*
X184827979Y-78168500D01*
X182816500Y-78168500D01*
X182689500Y-78168500D01*
X180678021Y-78168500D01*
X180515924Y-78404821D01*
X177526821Y-78404821D01*
X177449000Y-78327000D01*
X177927000Y-78327000D01*
X178117500Y-78136500D01*
X178117500Y-76878500D01*
X178244500Y-76878500D01*
X178244500Y-78136500D01*
X178435000Y-78327000D01*
X178957571Y-78327000D01*
X179237638Y-78210992D01*
X179451992Y-77996638D01*
X179568000Y-77716571D01*
X179568000Y-77069000D01*
X179377500Y-76878500D01*
X178244500Y-76878500D01*
X178117500Y-76878500D01*
X178097500Y-76878500D01*
X178097500Y-76751500D01*
X178117500Y-76751500D01*
X178117500Y-76731500D01*
X178244500Y-76731500D01*
X178244500Y-76751500D01*
X179377500Y-76751500D01*
X179568000Y-76561000D01*
X179568000Y-75913429D01*
X179525017Y-75809660D01*
X179528306Y-75807544D01*
X179760289Y-75468025D01*
X179841904Y-75065000D01*
X179841904Y-73565000D01*
X179771059Y-73188493D01*
X179665855Y-73025000D01*
X180182611Y-73025000D01*
X180317420Y-73702732D01*
X180701325Y-74277286D01*
X180727836Y-74295000D01*
X180701325Y-74312714D01*
X180317420Y-74887268D01*
X180182611Y-75565000D01*
X180317420Y-76242732D01*
X180701325Y-76817286D01*
X180983318Y-77005708D01*
X180885418Y-77077220D01*
X180577174Y-77583135D01*
X180515924Y-77805179D01*
X180678021Y-78041500D01*
X182689500Y-78041500D01*
X182689500Y-78021500D01*
X182816500Y-78021500D01*
X182816500Y-78041500D01*
X184827979Y-78041500D01*
X184990076Y-77805179D01*
X184928826Y-77583135D01*
X184620582Y-77077220D01*
X184522682Y-77005708D01*
X184804675Y-76817286D01*
X185188580Y-76242732D01*
X185323389Y-75565000D01*
X185188580Y-74887268D01*
X184804675Y-74312714D01*
X184778164Y-74295000D01*
X184804675Y-74277286D01*
X185188580Y-73702732D01*
X185323389Y-73025000D01*
X185188580Y-72347268D01*
X184804675Y-71772714D01*
X184230121Y-71388809D01*
X183815973Y-71306430D01*
X184142197Y-71227225D01*
X184620582Y-70877780D01*
X184928826Y-70371865D01*
X184990076Y-70149821D01*
X184827979Y-69913500D01*
X182816500Y-69913500D01*
X182816500Y-69933500D01*
X182689500Y-69933500D01*
X182689500Y-69913500D01*
X180678021Y-69913500D01*
X180515924Y-70149821D01*
X180577174Y-70371865D01*
X180885418Y-70877780D01*
X181363803Y-71227225D01*
X181690027Y-71306430D01*
X181275879Y-71388809D01*
X180701325Y-71772714D01*
X180317420Y-72347268D01*
X180182611Y-73025000D01*
X179665855Y-73025000D01*
X179629174Y-72967997D01*
X179730109Y-72724920D01*
X179730691Y-72058006D01*
X179476012Y-71441636D01*
X179004844Y-70969646D01*
X178388920Y-70713891D01*
X177722006Y-70713309D01*
X177561000Y-70779835D01*
X177561000Y-70184000D01*
X177449000Y-70072000D01*
X177927000Y-70072000D01*
X178117500Y-69881500D01*
X178117500Y-68623500D01*
X178244500Y-68623500D01*
X178244500Y-69881500D01*
X178435000Y-70072000D01*
X178957571Y-70072000D01*
X179237638Y-69955992D01*
X179451992Y-69741638D01*
X179568000Y-69461571D01*
X179568000Y-68814000D01*
X179377500Y-68623500D01*
X178244500Y-68623500D01*
X178117500Y-68623500D01*
X178097500Y-68623500D01*
X178097500Y-68496500D01*
X178117500Y-68496500D01*
X178117500Y-68476500D01*
X178244500Y-68476500D01*
X178244500Y-68496500D01*
X179377500Y-68496500D01*
X179568000Y-68306000D01*
X179568000Y-67658429D01*
X179525017Y-67554660D01*
X179528306Y-67552544D01*
X179760289Y-67213025D01*
X179841904Y-66810000D01*
X179841904Y-65310000D01*
X179771059Y-64933493D01*
X179674312Y-64783143D01*
X179679769Y-64770000D01*
X180182611Y-64770000D01*
X180317420Y-65447732D01*
X180701325Y-66022286D01*
X180727836Y-66040000D01*
X180701325Y-66057714D01*
X180317420Y-66632268D01*
X180182611Y-67310000D01*
X180317420Y-67987732D01*
X180701325Y-68562286D01*
X180983318Y-68750708D01*
X180885418Y-68822220D01*
X180577174Y-69328135D01*
X180515924Y-69550179D01*
X180678021Y-69786500D01*
X182689500Y-69786500D01*
X182689500Y-69766500D01*
X182816500Y-69766500D01*
X182816500Y-69786500D01*
X184827979Y-69786500D01*
X184990076Y-69550179D01*
X184928826Y-69328135D01*
X184620582Y-68822220D01*
X184522682Y-68750708D01*
X184804675Y-68562286D01*
X185188580Y-67987732D01*
X185323389Y-67310000D01*
X185188580Y-66632268D01*
X184804675Y-66057714D01*
X184778164Y-66040000D01*
X184804675Y-66022286D01*
X185188580Y-65447732D01*
X185323389Y-64770000D01*
X185188580Y-64092268D01*
X184804675Y-63517714D01*
X184230121Y-63133809D01*
X183815973Y-63051430D01*
X184142197Y-62972225D01*
X184620582Y-62622780D01*
X184928826Y-62116865D01*
X184990076Y-61894821D01*
X184827979Y-61658500D01*
X182816500Y-61658500D01*
X182816500Y-61678500D01*
X182689500Y-61678500D01*
X182689500Y-61658500D01*
X180678021Y-61658500D01*
X180515924Y-61894821D01*
X180577174Y-62116865D01*
X180885418Y-62622780D01*
X181363803Y-62972225D01*
X181690027Y-63051430D01*
X181275879Y-63133809D01*
X180701325Y-63517714D01*
X180317420Y-64092268D01*
X180182611Y-64770000D01*
X179679769Y-64770000D01*
X179857109Y-64342920D01*
X179857691Y-63676006D01*
X179603012Y-63059636D01*
X179131844Y-62587646D01*
X178515920Y-62331891D01*
X177849006Y-62331309D01*
X177688000Y-62397835D01*
X177688000Y-61929000D01*
X177576000Y-61817000D01*
X178054000Y-61817000D01*
X178244500Y-61626500D01*
X178244500Y-60368500D01*
X178371500Y-60368500D01*
X178371500Y-61626500D01*
X178562000Y-61817000D01*
X179084571Y-61817000D01*
X179364638Y-61700992D01*
X179578992Y-61486638D01*
X179695000Y-61206571D01*
X179695000Y-60559000D01*
X179504500Y-60368500D01*
X178371500Y-60368500D01*
X178244500Y-60368500D01*
X178224500Y-60368500D01*
X178224500Y-60241500D01*
X178244500Y-60241500D01*
X178244500Y-60221500D01*
X178371500Y-60221500D01*
X178371500Y-60241500D01*
X179504500Y-60241500D01*
X179695000Y-60051000D01*
X179695000Y-59403429D01*
X179652017Y-59299660D01*
X179655306Y-59297544D01*
X179887289Y-58958025D01*
X179968904Y-58555000D01*
X179968904Y-57055000D01*
X179898059Y-56678493D01*
X179801312Y-56528143D01*
X179806769Y-56515000D01*
X180182611Y-56515000D01*
X180317420Y-57192732D01*
X180701325Y-57767286D01*
X180727836Y-57785000D01*
X180701325Y-57802714D01*
X180317420Y-58377268D01*
X180182611Y-59055000D01*
X180317420Y-59732732D01*
X180701325Y-60307286D01*
X180983318Y-60495708D01*
X180885418Y-60567220D01*
X180577174Y-61073135D01*
X180515924Y-61295179D01*
X180678021Y-61531500D01*
X182689500Y-61531500D01*
X182689500Y-61511500D01*
X182816500Y-61511500D01*
X182816500Y-61531500D01*
X184827979Y-61531500D01*
X184990076Y-61295179D01*
X184928826Y-61073135D01*
X184620582Y-60567220D01*
X184522682Y-60495708D01*
X184804675Y-60307286D01*
X185188580Y-59732732D01*
X185323389Y-59055000D01*
X185188580Y-58377268D01*
X184804675Y-57802714D01*
X184778164Y-57785000D01*
X184804675Y-57767286D01*
X185188580Y-57192732D01*
X185323389Y-56515000D01*
X185188580Y-55837268D01*
X184804675Y-55262714D01*
X184338410Y-54951165D01*
X184697778Y-54951479D01*
X185714766Y-54531268D01*
X186493533Y-53753859D01*
X186915519Y-52737605D01*
X186916479Y-51637222D01*
X186496268Y-50620234D01*
X185718859Y-49841467D01*
X184702605Y-49419481D01*
X183602222Y-49418521D01*
X182585234Y-49838732D01*
X181806467Y-50616141D01*
X181384481Y-51632395D01*
X181383521Y-52732778D01*
X181803732Y-53749766D01*
X182581141Y-54528533D01*
X183100043Y-54744000D01*
X181953611Y-54744000D01*
X181275879Y-54878809D01*
X180701325Y-55262714D01*
X180317420Y-55837268D01*
X180182611Y-56515000D01*
X179806769Y-56515000D01*
X179984109Y-56087920D01*
X179984691Y-55421006D01*
X179730012Y-54804636D01*
X179258844Y-54332646D01*
X178642920Y-54076891D01*
X177976006Y-54076309D01*
X177359636Y-54330988D01*
X176887646Y-54802156D01*
X176743979Y-55148142D01*
X176610920Y-55092891D01*
X175944006Y-55092309D01*
X175327636Y-55346988D01*
X174855646Y-55818156D01*
X174742777Y-56089974D01*
X174397609Y-55859340D01*
X173863000Y-55753000D01*
X172042420Y-55753000D01*
X172489354Y-55306844D01*
X172745109Y-54690920D01*
X172745691Y-54024006D01*
X172634765Y-53755545D01*
X172836779Y-53890526D01*
X173570000Y-54036373D01*
X174303221Y-53890526D01*
X174840000Y-53531863D01*
X175376779Y-53890526D01*
X176110000Y-54036373D01*
X176843221Y-53890526D01*
X177464817Y-53475190D01*
X177566094Y-53323618D01*
X178072646Y-53634787D01*
X178327478Y-53705405D01*
X178586500Y-53545129D01*
X178586500Y-51738500D01*
X178713500Y-51738500D01*
X178713500Y-53545129D01*
X178972522Y-53705405D01*
X179227354Y-53634787D01*
X179780310Y-53295112D01*
X180161187Y-52769686D01*
X180312000Y-52138500D01*
X180312000Y-51738500D01*
X178713500Y-51738500D01*
X178586500Y-51738500D01*
X178566500Y-51738500D01*
X178566500Y-51611500D01*
X178586500Y-51611500D01*
X178586500Y-49804871D01*
X178713500Y-49804871D01*
X178713500Y-51611500D01*
X180312000Y-51611500D01*
X180312000Y-51211500D01*
X180161187Y-50580314D01*
X179780310Y-50054888D01*
X179227354Y-49715213D01*
X178972522Y-49644595D01*
X178713500Y-49804871D01*
X178586500Y-49804871D01*
X178327478Y-49644595D01*
X178072646Y-49715213D01*
X177566094Y-50026382D01*
X177464817Y-49874810D01*
X176843221Y-49459474D01*
X176110000Y-49313627D01*
X175376779Y-49459474D01*
X175015205Y-49701069D01*
X175158109Y-49356920D01*
X175158691Y-48690006D01*
X175022866Y-48361285D01*
X175204638Y-48285992D01*
X175418992Y-48071638D01*
X175535000Y-47791571D01*
X175535000Y-47244000D01*
X175344500Y-47053500D01*
X174086500Y-47053500D01*
X174086500Y-47073500D01*
X173959500Y-47073500D01*
X173959500Y-47053500D01*
X173939500Y-47053500D01*
X173939500Y-46926500D01*
X173959500Y-46926500D01*
X173959500Y-46906500D01*
X174086500Y-46906500D01*
X174086500Y-46926500D01*
X175344500Y-46926500D01*
X175535000Y-46736000D01*
X175535000Y-46697960D01*
X175687080Y-46761109D01*
X176353994Y-46761691D01*
X176970364Y-46507012D01*
X177442354Y-46035844D01*
X177609722Y-45632778D01*
X181764521Y-45632778D01*
X182184732Y-46649766D01*
X182962141Y-47428533D01*
X183978395Y-47850519D01*
X185078778Y-47851479D01*
X186095766Y-47431268D01*
X186874533Y-46653859D01*
X187296519Y-45637605D01*
X187297479Y-44537222D01*
X186877268Y-43520234D01*
X186099859Y-42741467D01*
X185083605Y-42319481D01*
X183983222Y-42318521D01*
X182966234Y-42738732D01*
X182187467Y-43516141D01*
X181765481Y-44532395D01*
X181764521Y-45632778D01*
X177609722Y-45632778D01*
X177698109Y-45419920D01*
X177698691Y-44753006D01*
X177444012Y-44136636D01*
X176972844Y-43664646D01*
X176356920Y-43408891D01*
X175690006Y-43408309D01*
X175073636Y-43662988D01*
X175048580Y-43688000D01*
X166878000Y-43688000D01*
X166343391Y-43794340D01*
X165890172Y-44097172D01*
X165429172Y-44558172D01*
X165126340Y-45011391D01*
X165020000Y-45546000D01*
X165020000Y-45548998D01*
X164944694Y-45597456D01*
X164712711Y-45936975D01*
X164631096Y-46340000D01*
X164631096Y-47640000D01*
X164701941Y-48016507D01*
X164924456Y-48362306D01*
X165263975Y-48594289D01*
X165667000Y-48675904D01*
X167167000Y-48675904D01*
X167543507Y-48605059D01*
X167768163Y-48460497D01*
X167963975Y-48594289D01*
X168367000Y-48675904D01*
X169867000Y-48675904D01*
X169979265Y-48654780D01*
X170032340Y-48921609D01*
X170335172Y-49374828D01*
X170399404Y-49439060D01*
X170296779Y-49459474D01*
X169760000Y-49818137D01*
X169223221Y-49459474D01*
X168490000Y-49313627D01*
X167756779Y-49459474D01*
X167220000Y-49818137D01*
X166683221Y-49459474D01*
X165950000Y-49313627D01*
X165216779Y-49459474D01*
X164680000Y-49818137D01*
X164143221Y-49459474D01*
X163410000Y-49313627D01*
X162676779Y-49459474D01*
X162140000Y-49818137D01*
X161603221Y-49459474D01*
X160870000Y-49313627D01*
X160136779Y-49459474D01*
X159600000Y-49818137D01*
X159063221Y-49459474D01*
X158330000Y-49313627D01*
X157596779Y-49459474D01*
X157060000Y-49818137D01*
X156523221Y-49459474D01*
X155790000Y-49313627D01*
X155056779Y-49459474D01*
X154520000Y-49818137D01*
X153983221Y-49459474D01*
X153250000Y-49313627D01*
X152516779Y-49459474D01*
X151980000Y-49818137D01*
X151443221Y-49459474D01*
X150710000Y-49313627D01*
X149976779Y-49459474D01*
X149440000Y-49818137D01*
X148903221Y-49459474D01*
X148170000Y-49313627D01*
X147436779Y-49459474D01*
X146900000Y-49818137D01*
X146363221Y-49459474D01*
X145630000Y-49313627D01*
X145108257Y-49417408D01*
X145186109Y-49229920D01*
X145186691Y-48563006D01*
X144932012Y-47946636D01*
X144907000Y-47921580D01*
X144907000Y-47659255D01*
X145158306Y-47497544D01*
X145390289Y-47158025D01*
X145471904Y-46755000D01*
X145471904Y-45955000D01*
X145418842Y-45673000D01*
X164165001Y-45673000D01*
X164165001Y-41960000D01*
X187529000Y-41960000D01*
X187529000Y-115189000D01*
G36*
X124632999Y-45673000D02*
X135728096Y-45673000D01*
X135728096Y-46136000D01*
X135798941Y-46512507D01*
X135943503Y-46737163D01*
X135809711Y-46932975D01*
X135728096Y-47336000D01*
X135728096Y-48836000D01*
X135798941Y-49212507D01*
X136017000Y-49551381D01*
X136017000Y-51308000D01*
X136123340Y-51842609D01*
X136426172Y-52295828D01*
X138966172Y-54835828D01*
X139419391Y-55138660D01*
X139954000Y-55245000D01*
X148646344Y-55245000D01*
X149225000Y-55823656D01*
X149225000Y-60452000D01*
X143199656Y-60452000D01*
X141957828Y-59210172D01*
X141504609Y-58907340D01*
X140970000Y-58801000D01*
X137103656Y-58801000D01*
X135763000Y-57460344D01*
X135763000Y-57070304D01*
X136302469Y-57430765D01*
X136997422Y-57569000D01*
X137068578Y-57569000D01*
X137763531Y-57430765D01*
X138352684Y-57037106D01*
X138746343Y-56447953D01*
X138884578Y-55753000D01*
X138746343Y-55058047D01*
X138352684Y-54468894D01*
X137763531Y-54075235D01*
X137068578Y-53937000D01*
X136997422Y-53937000D01*
X136302469Y-54075235D01*
X135713316Y-54468894D01*
X135604306Y-54632039D01*
X135353828Y-54257172D01*
X131670828Y-50574172D01*
X131217609Y-50271340D01*
X130683000Y-50165000D01*
X130133157Y-50165000D01*
X130109844Y-50141646D01*
X129493920Y-49885891D01*
X128827006Y-49885309D01*
X128333953Y-50089034D01*
X128377904Y-49872000D01*
X128377904Y-48172000D01*
X128307059Y-47795493D01*
X128084544Y-47449694D01*
X127745025Y-47217711D01*
X127342000Y-47136096D01*
X125642000Y-47136096D01*
X125628493Y-47138637D01*
X125628691Y-46912006D01*
X125374012Y-46295636D01*
X124902844Y-45823646D01*
X124286920Y-45567891D01*
X123620006Y-45567309D01*
X123003636Y-45821988D01*
X122531646Y-46293156D01*
X122275891Y-46909080D01*
X122275646Y-47190296D01*
X122008000Y-47136096D01*
X120308000Y-47136096D01*
X119931493Y-47206941D01*
X119585694Y-47429456D01*
X119353711Y-47768975D01*
X119272096Y-48172000D01*
X119272096Y-49872000D01*
X119301983Y-50030835D01*
X118952920Y-49885891D01*
X118286006Y-49885309D01*
X117931550Y-50031767D01*
X117963904Y-49872000D01*
X117963904Y-48172000D01*
X117893059Y-47795493D01*
X117670544Y-47449694D01*
X117331025Y-47217711D01*
X116928000Y-47136096D01*
X115228000Y-47136096D01*
X114851493Y-47206941D01*
X114505694Y-47429456D01*
X114273711Y-47768975D01*
X114192096Y-48172000D01*
X114192096Y-49872000D01*
X114262941Y-50248507D01*
X114485456Y-50594306D01*
X114486474Y-50595002D01*
X114317484Y-50847913D01*
X114175443Y-51562000D01*
X114317484Y-52276087D01*
X114688933Y-52832000D01*
X114317484Y-53387913D01*
X114175443Y-54102000D01*
X114317484Y-54816087D01*
X114688933Y-55372000D01*
X114317484Y-55927913D01*
X114175443Y-56642000D01*
X114317484Y-57356087D01*
X114721982Y-57961461D01*
X114926188Y-58097907D01*
X114737550Y-58286595D01*
X114497016Y-58867305D01*
X114657919Y-59118500D01*
X116014500Y-59118500D01*
X116014500Y-59098500D01*
X116141500Y-59098500D01*
X116141500Y-59118500D01*
X116161500Y-59118500D01*
X116161500Y-59245500D01*
X116141500Y-59245500D01*
X116141500Y-60602253D01*
X116392695Y-60762988D01*
X116973758Y-60522214D01*
X117221000Y-60274907D01*
X117221000Y-60960000D01*
X117327340Y-61494609D01*
X117630172Y-61947828D01*
X121283440Y-65601096D01*
X119850000Y-65601096D01*
X119473493Y-65671941D01*
X119127694Y-65894456D01*
X118895711Y-66233975D01*
X118814096Y-66637000D01*
X118814096Y-68237000D01*
X118884941Y-68613507D01*
X119107456Y-68959306D01*
X119307490Y-69095983D01*
X119087810Y-69627256D01*
X119088191Y-70248658D01*
X119325259Y-70820990D01*
X119614681Y-70882516D01*
X120560197Y-69937000D01*
X120546055Y-69922858D01*
X120635858Y-69833055D01*
X120650000Y-69847197D01*
X120664142Y-69833055D01*
X120753945Y-69922858D01*
X120739803Y-69937000D01*
X121685319Y-70882516D01*
X121974741Y-70820990D01*
X122212190Y-70246744D01*
X122211809Y-69625342D01*
X121992291Y-69095380D01*
X122172306Y-68979544D01*
X122404289Y-68640025D01*
X122485904Y-68237000D01*
X122485904Y-66803560D01*
X125095000Y-69412656D01*
X125095000Y-78768765D01*
X124643729Y-78581381D01*
X123856697Y-78580695D01*
X123857379Y-77798095D01*
X123524522Y-76992520D01*
X122908722Y-76375644D01*
X122103729Y-76041381D01*
X121232095Y-76040621D01*
X120426520Y-76373478D01*
X119809644Y-76989278D01*
X119475381Y-77794271D01*
X119474695Y-78581303D01*
X118692095Y-78580621D01*
X117886520Y-78913478D01*
X117269644Y-79529278D01*
X116935381Y-80334271D01*
X116934621Y-81205905D01*
X117267478Y-82011480D01*
X117883278Y-82628356D01*
X118688271Y-82962619D01*
X119475303Y-82963305D01*
X119474621Y-83745905D01*
X119807478Y-84551480D01*
X120423278Y-85168356D01*
X121228271Y-85502619D01*
X122099905Y-85503379D01*
X122905480Y-85170522D01*
X123522356Y-84554722D01*
X123856619Y-83749729D01*
X123857305Y-82962697D01*
X124639905Y-82963379D01*
X125445480Y-82630522D01*
X126037689Y-82039345D01*
X127790172Y-83791828D01*
X128243391Y-84094660D01*
X128778000Y-84201000D01*
X136779000Y-84201000D01*
X137313609Y-84094660D01*
X137766828Y-83791828D01*
X140278656Y-81280000D01*
X140509000Y-81280000D01*
X140509000Y-82066000D01*
X140699500Y-82256500D01*
X141607500Y-82256500D01*
X141607500Y-82236500D01*
X141734500Y-82236500D01*
X141734500Y-82256500D01*
X141754500Y-82256500D01*
X141754500Y-82383500D01*
X141734500Y-82383500D01*
X141734500Y-82403500D01*
X141607500Y-82403500D01*
X141607500Y-82383500D01*
X140699500Y-82383500D01*
X140509000Y-82574000D01*
X140509000Y-83421571D01*
X140625008Y-83701638D01*
X140839362Y-83915992D01*
X140856281Y-83923000D01*
X139783591Y-83923000D01*
X139780920Y-83921891D01*
X139114006Y-83921309D01*
X138497636Y-84175988D01*
X138025646Y-84647156D01*
X137769891Y-85263080D01*
X137769309Y-85929994D01*
X138023988Y-86546364D01*
X138495156Y-87018354D01*
X139111080Y-87274109D01*
X139777994Y-87274691D01*
X140394364Y-87020012D01*
X140697905Y-86717000D01*
X141301302Y-86717000D01*
X141478456Y-86992306D01*
X141817975Y-87224289D01*
X142221000Y-87305904D01*
X143021000Y-87305904D01*
X143230805Y-87266426D01*
X143230309Y-87834994D01*
X143259304Y-87905168D01*
X142876788Y-87746333D01*
X142114556Y-87745668D01*
X141410091Y-88036747D01*
X140870641Y-88575256D01*
X140578333Y-89279212D01*
X140577668Y-90041444D01*
X140868747Y-90745909D01*
X140970515Y-90847855D01*
X140948008Y-90870362D01*
X140832000Y-91150429D01*
X140832000Y-91948000D01*
X141022500Y-92138500D01*
X142430500Y-92138500D01*
X142430500Y-92118500D01*
X142557500Y-92118500D01*
X142557500Y-92138500D01*
X143965500Y-92138500D01*
X144156000Y-91948000D01*
X144156000Y-91150429D01*
X144039992Y-90870362D01*
X144017780Y-90848150D01*
X144117359Y-90748744D01*
X144409667Y-90044788D01*
X144410332Y-89282556D01*
X144325237Y-89076610D01*
X144572080Y-89179109D01*
X145238994Y-89179691D01*
X145855364Y-88925012D01*
X145880420Y-88900000D01*
X147339796Y-88900000D01*
X147182333Y-89279212D01*
X147181668Y-90041444D01*
X147472747Y-90745909D01*
X147574515Y-90847855D01*
X147552008Y-90870362D01*
X147436000Y-91150429D01*
X147436000Y-91948000D01*
X147626500Y-92138500D01*
X149034500Y-92138500D01*
X149034500Y-92118500D01*
X149161500Y-92118500D01*
X149161500Y-92138500D01*
X150569500Y-92138500D01*
X150760000Y-91948000D01*
X150760000Y-91150429D01*
X150643992Y-90870362D01*
X150621780Y-90848150D01*
X150721359Y-90748744D01*
X150850600Y-90437497D01*
X150850600Y-92734032D01*
X150760000Y-92824632D01*
X150760000Y-92456000D01*
X150569500Y-92265500D01*
X149161500Y-92265500D01*
X149161500Y-92285500D01*
X149034500Y-92285500D01*
X149034500Y-92265500D01*
X147626500Y-92265500D01*
X147436000Y-92456000D01*
X147436000Y-93161096D01*
X147428000Y-93161096D01*
X147051493Y-93231941D01*
X146705694Y-93454456D01*
X146473711Y-93793975D01*
X146426522Y-94027000D01*
X146348002Y-94027000D01*
X146299544Y-93951694D01*
X145960025Y-93719711D01*
X145557000Y-93638096D01*
X144257000Y-93638096D01*
X143880493Y-93708941D01*
X143836164Y-93737466D01*
X144039992Y-93533638D01*
X144156000Y-93253571D01*
X144156000Y-92456000D01*
X143965500Y-92265500D01*
X142557500Y-92265500D01*
X142557500Y-93673500D01*
X142748000Y-93864000D01*
X143545571Y-93864000D01*
X143809269Y-93754772D01*
X143534694Y-93931456D01*
X143302711Y-94270975D01*
X143290739Y-94330096D01*
X139942000Y-94330096D01*
X139565493Y-94400941D01*
X139219694Y-94623456D01*
X139040031Y-94886401D01*
X138873638Y-94720008D01*
X138593571Y-94604000D01*
X136946000Y-94604000D01*
X136755500Y-94794500D01*
X136755500Y-96202500D01*
X136775500Y-96202500D01*
X136775500Y-96329500D01*
X136755500Y-96329500D01*
X136755500Y-96349500D01*
X136628500Y-96349500D01*
X136628500Y-96329500D01*
X134370500Y-96329500D01*
X134180000Y-96520000D01*
X134180000Y-96884256D01*
X133919844Y-96623646D01*
X133303920Y-96367891D01*
X132637006Y-96367309D01*
X132020636Y-96621988D01*
X131995580Y-96647000D01*
X131515656Y-96647000D01*
X130083085Y-95214429D01*
X134180000Y-95214429D01*
X134180000Y-96012000D01*
X134370500Y-96202500D01*
X136628500Y-96202500D01*
X136628500Y-94794500D01*
X136438000Y-94604000D01*
X134790429Y-94604000D01*
X134510362Y-94720008D01*
X134296008Y-94934362D01*
X134180000Y-95214429D01*
X130083085Y-95214429D01*
X127324656Y-92456000D01*
X140832000Y-92456000D01*
X140832000Y-93253571D01*
X140948008Y-93533638D01*
X141162362Y-93747992D01*
X141442429Y-93864000D01*
X142240000Y-93864000D01*
X142430500Y-93673500D01*
X142430500Y-92265500D01*
X141022500Y-92265500D01*
X140832000Y-92456000D01*
X127324656Y-92456000D01*
X124050828Y-89182172D01*
X123597609Y-88879340D01*
X123063000Y-88773000D01*
X119465157Y-88773000D01*
X119441844Y-88749646D01*
X118825920Y-88493891D01*
X118159006Y-88493309D01*
X117542636Y-88747988D01*
X117070646Y-89219156D01*
X116814891Y-89835080D01*
X116814309Y-90501994D01*
X117068988Y-91118364D01*
X117540156Y-91590354D01*
X118156080Y-91846109D01*
X118822994Y-91846691D01*
X119439364Y-91592012D01*
X119464420Y-91567000D01*
X120732620Y-91567000D01*
X120426520Y-91693478D01*
X119809644Y-92309278D01*
X119475381Y-93114271D01*
X119474695Y-93901303D01*
X118692095Y-93900621D01*
X117886520Y-94233478D01*
X117269644Y-94849278D01*
X116935381Y-95654271D01*
X116934621Y-96525905D01*
X117267478Y-97331480D01*
X117883278Y-97948356D01*
X118688271Y-98282619D01*
X119475303Y-98283305D01*
X119474621Y-99065905D01*
X119807478Y-99871480D01*
X120423278Y-100488356D01*
X121228271Y-100822619D01*
X122099905Y-100823379D01*
X122905480Y-100490522D01*
X123522356Y-99874722D01*
X123856619Y-99069729D01*
X123857305Y-98282697D01*
X124639905Y-98283379D01*
X125445480Y-97950522D01*
X126062356Y-97334722D01*
X126396619Y-96529729D01*
X126397379Y-95658095D01*
X126272001Y-95354657D01*
X129474602Y-98557258D01*
X129060172Y-98834172D01*
X128479006Y-99415338D01*
X128446006Y-99415309D01*
X127829636Y-99669988D01*
X127357646Y-100141156D01*
X127101891Y-100757080D01*
X127101309Y-101423994D01*
X127302881Y-101911834D01*
X126932953Y-101664657D01*
X126238000Y-101526422D01*
X125543047Y-101664657D01*
X124953894Y-102058316D01*
X124560235Y-102647469D01*
X124422000Y-103342422D01*
X124422000Y-103413578D01*
X124560235Y-104108531D01*
X124953894Y-104697684D01*
X125543047Y-105091343D01*
X126238000Y-105229578D01*
X126932953Y-105091343D01*
X127508000Y-104707109D01*
X128083047Y-105091343D01*
X128778000Y-105229578D01*
X129472953Y-105091343D01*
X129770466Y-104892551D01*
X129775456Y-104900306D01*
X130114975Y-105132289D01*
X130518000Y-105213904D01*
X132118000Y-105213904D01*
X132494507Y-105143059D01*
X132840306Y-104920544D01*
X133072289Y-104581025D01*
X133153904Y-104178000D01*
X133153904Y-102578000D01*
X133083059Y-102201493D01*
X132860544Y-101855694D01*
X132521025Y-101623711D01*
X132118000Y-101542096D01*
X130518000Y-101542096D01*
X130396815Y-101564899D01*
X130454109Y-101426920D01*
X130454140Y-101391516D01*
X130626656Y-101219000D01*
X138303000Y-101219000D01*
X138303000Y-101981000D01*
X138304043Y-102003996D01*
X138400382Y-103063725D01*
X138110262Y-102773098D01*
X137277713Y-102427394D01*
X136376242Y-102426607D01*
X135543091Y-102770858D01*
X134905098Y-103407738D01*
X134559394Y-104240287D01*
X134558607Y-105141758D01*
X134774393Y-105664000D01*
X119634000Y-105664000D01*
X119535180Y-105684012D01*
X119451931Y-105740893D01*
X119397371Y-105825682D01*
X119380000Y-105918000D01*
X119380000Y-114427000D01*
X106730000Y-114427000D01*
X106730000Y-106426000D01*
X108355000Y-106426000D01*
X108355000Y-107823571D01*
X108471008Y-108103638D01*
X108685362Y-108317992D01*
X108965429Y-108434000D01*
X110363000Y-108434000D01*
X110553500Y-108243500D01*
X110553500Y-106235500D01*
X110680500Y-106235500D01*
X110680500Y-108243500D01*
X110871000Y-108434000D01*
X112268571Y-108434000D01*
X112548638Y-108317992D01*
X112762992Y-108103638D01*
X112879000Y-107823571D01*
X112879000Y-106426000D01*
X112688500Y-106235500D01*
X110680500Y-106235500D01*
X110553500Y-106235500D01*
X108545500Y-106235500D01*
X108355000Y-106426000D01*
X106730000Y-106426000D01*
X106730000Y-104520429D01*
X108355000Y-104520429D01*
X108355000Y-105918000D01*
X108545500Y-106108500D01*
X110553500Y-106108500D01*
X110553500Y-104100500D01*
X110680500Y-104100500D01*
X110680500Y-106108500D01*
X112688500Y-106108500D01*
X112879000Y-105918000D01*
X112879000Y-104520429D01*
X112762992Y-104240362D01*
X112548638Y-104026008D01*
X112268571Y-103910000D01*
X110871000Y-103910000D01*
X110680500Y-104100500D01*
X110553500Y-104100500D01*
X110363000Y-103910000D01*
X108965429Y-103910000D01*
X108685362Y-104026008D01*
X108471008Y-104240362D01*
X108355000Y-104520429D01*
X106730000Y-104520429D01*
X106730000Y-101590268D01*
X108100565Y-101590268D01*
X108482796Y-102515337D01*
X109189940Y-103223717D01*
X110114341Y-103607562D01*
X111115268Y-103608435D01*
X112040337Y-103226204D01*
X112748717Y-102519060D01*
X113132562Y-101594659D01*
X113133435Y-100593732D01*
X112751204Y-99668663D01*
X112044060Y-98960283D01*
X111119659Y-98576438D01*
X110118732Y-98575565D01*
X109193663Y-98957796D01*
X108485283Y-99664940D01*
X108101438Y-100589341D01*
X108100565Y-101590268D01*
X106730000Y-101590268D01*
X106730000Y-93254641D01*
X108337162Y-93254641D01*
X108423065Y-93564831D01*
X109069618Y-93835614D01*
X109770580Y-93838359D01*
X110419236Y-93572649D01*
X110430935Y-93564831D01*
X110516838Y-93254641D01*
X109427000Y-92164803D01*
X108337162Y-93254641D01*
X106730000Y-93254641D01*
X106730000Y-92418580D01*
X107663641Y-92418580D01*
X107929351Y-93067236D01*
X107937169Y-93078935D01*
X108247359Y-93164838D01*
X109337197Y-92075000D01*
X109516803Y-92075000D01*
X110606641Y-93164838D01*
X110916831Y-93078935D01*
X111187614Y-92432382D01*
X111190359Y-91731420D01*
X110924649Y-91082764D01*
X110919461Y-91075000D01*
X112391096Y-91075000D01*
X112391096Y-93075000D01*
X112461941Y-93451507D01*
X112684456Y-93797306D01*
X113023975Y-94029289D01*
X113427000Y-94110904D01*
X115427000Y-94110904D01*
X115803507Y-94040059D01*
X116149306Y-93817544D01*
X116381289Y-93478025D01*
X116462904Y-93075000D01*
X116462904Y-91075000D01*
X116392059Y-90698493D01*
X116169544Y-90352694D01*
X115830025Y-90120711D01*
X115427000Y-90039096D01*
X113427000Y-90039096D01*
X113050493Y-90109941D01*
X112704694Y-90332456D01*
X112472711Y-90671975D01*
X112391096Y-91075000D01*
X110919461Y-91075000D01*
X110916831Y-91071065D01*
X110606641Y-90985162D01*
X109516803Y-92075000D01*
X109337197Y-92075000D01*
X108247359Y-90985162D01*
X107937169Y-91071065D01*
X107666386Y-91717618D01*
X107663641Y-92418580D01*
X106730000Y-92418580D01*
X106730000Y-90895359D01*
X108337162Y-90895359D01*
X109427000Y-91985197D01*
X110516838Y-90895359D01*
X110430935Y-90585169D01*
X109784382Y-90314386D01*
X109083420Y-90311641D01*
X108434764Y-90577351D01*
X108423065Y-90585169D01*
X108337162Y-90895359D01*
X106730000Y-90895359D01*
X106730000Y-87900000D01*
X126742096Y-87900000D01*
X126742096Y-89900000D01*
X126812941Y-90276507D01*
X127035456Y-90622306D01*
X127374975Y-90854289D01*
X127778000Y-90935904D01*
X129778000Y-90935904D01*
X130154507Y-90865059D01*
X130500306Y-90642544D01*
X130732289Y-90303025D01*
X130813904Y-89900000D01*
X130813904Y-89299248D01*
X133161651Y-89299248D01*
X133467922Y-90040481D01*
X134034537Y-90608085D01*
X134775233Y-90915650D01*
X135577248Y-90916349D01*
X135787601Y-90829433D01*
X135995233Y-90915650D01*
X136797248Y-90916349D01*
X137538481Y-90610078D01*
X138106085Y-90043463D01*
X138413650Y-89302767D01*
X138414349Y-88500752D01*
X138108078Y-87759519D01*
X137541463Y-87191915D01*
X136800767Y-86884350D01*
X135998752Y-86883651D01*
X135788399Y-86970567D01*
X135580767Y-86884350D01*
X134778752Y-86883651D01*
X134037519Y-87189922D01*
X133469915Y-87756537D01*
X133162350Y-88497233D01*
X133161651Y-89299248D01*
X130813904Y-89299248D01*
X130813904Y-87900000D01*
X130743059Y-87523493D01*
X130520544Y-87177694D01*
X130181025Y-86945711D01*
X129778000Y-86864096D01*
X127778000Y-86864096D01*
X127401493Y-86934941D01*
X127055694Y-87157456D01*
X126823711Y-87496975D01*
X126742096Y-87900000D01*
X106730000Y-87900000D01*
X106730000Y-84796400D01*
X107481141Y-85548853D01*
X108497395Y-85970839D01*
X109597778Y-85971799D01*
X110614766Y-85551588D01*
X111393533Y-84774179D01*
X111815519Y-83757925D01*
X111815814Y-83419000D01*
X113802000Y-83419000D01*
X113802000Y-84066571D01*
X113918008Y-84346638D01*
X114132362Y-84560992D01*
X114412429Y-84677000D01*
X114935000Y-84677000D01*
X115125500Y-84486500D01*
X115125500Y-83228500D01*
X115252500Y-83228500D01*
X115252500Y-84486500D01*
X115443000Y-84677000D01*
X115965571Y-84677000D01*
X116245638Y-84560992D01*
X116459992Y-84346638D01*
X116576000Y-84066571D01*
X116576000Y-83419000D01*
X116385500Y-83228500D01*
X115252500Y-83228500D01*
X115125500Y-83228500D01*
X113992500Y-83228500D01*
X113802000Y-83419000D01*
X111815814Y-83419000D01*
X111816479Y-82657542D01*
X111396268Y-81640554D01*
X110618859Y-80861787D01*
X109602605Y-80439801D01*
X108502222Y-80438841D01*
X107485234Y-80859052D01*
X106730000Y-81612969D01*
X106730000Y-79915000D01*
X113528096Y-79915000D01*
X113528096Y-81415000D01*
X113598941Y-81791507D01*
X113821456Y-82137306D01*
X113847010Y-82154766D01*
X113802000Y-82263429D01*
X113802000Y-82911000D01*
X113992500Y-83101500D01*
X115125500Y-83101500D01*
X115125500Y-83081500D01*
X115252500Y-83081500D01*
X115252500Y-83101500D01*
X116385500Y-83101500D01*
X116576000Y-82911000D01*
X116576000Y-82263429D01*
X116533017Y-82159660D01*
X116536306Y-82157544D01*
X116768289Y-81818025D01*
X116849904Y-81415000D01*
X116849904Y-79915000D01*
X116796300Y-79630118D01*
X117244354Y-79182844D01*
X117500109Y-78566920D01*
X117500691Y-77900006D01*
X117246012Y-77283636D01*
X116774844Y-76811646D01*
X116158920Y-76555891D01*
X115492006Y-76555309D01*
X114875636Y-76809988D01*
X114403646Y-77281156D01*
X114147891Y-77897080D01*
X114147837Y-77958993D01*
X113898340Y-78332391D01*
X113792000Y-78867000D01*
X113792000Y-79245186D01*
X113609711Y-79511975D01*
X113528096Y-79915000D01*
X106730000Y-79915000D01*
X106730000Y-71617000D01*
X107538096Y-71617000D01*
X107538096Y-73417000D01*
X107608941Y-73793507D01*
X107831456Y-74139306D01*
X108170975Y-74371289D01*
X108574000Y-74452904D01*
X110374000Y-74452904D01*
X110750507Y-74382059D01*
X111096306Y-74159544D01*
X111328289Y-73820025D01*
X111409904Y-73417000D01*
X111409904Y-71617000D01*
X111339059Y-71240493D01*
X111116544Y-70894694D01*
X110915380Y-70757245D01*
X111104410Y-70299523D01*
X111049689Y-70211000D01*
X112278000Y-70211000D01*
X112278000Y-70858571D01*
X112394008Y-71138638D01*
X112608362Y-71352992D01*
X112888429Y-71469000D01*
X113411000Y-71469000D01*
X113601500Y-71278500D01*
X113601500Y-70020500D01*
X112468500Y-70020500D01*
X112278000Y-70211000D01*
X111049689Y-70211000D01*
X110944291Y-70040500D01*
X109537500Y-70040500D01*
X109537500Y-70060500D01*
X109410500Y-70060500D01*
X109410500Y-70040500D01*
X108003709Y-70040500D01*
X107843590Y-70299523D01*
X108032877Y-70757868D01*
X107851694Y-70874456D01*
X107619711Y-71213975D01*
X107538096Y-71617000D01*
X106730000Y-71617000D01*
X106730000Y-67399463D01*
X107558000Y-67399463D01*
X107558000Y-67474537D01*
X107703847Y-68207758D01*
X108119183Y-68829354D01*
X108237500Y-68908410D01*
X108091122Y-69055097D01*
X107843590Y-69654477D01*
X108003709Y-69913500D01*
X109410500Y-69913500D01*
X109410500Y-69893500D01*
X109537500Y-69893500D01*
X109537500Y-69913500D01*
X110944291Y-69913500D01*
X111104410Y-69654477D01*
X110856878Y-69055097D01*
X110710500Y-68908410D01*
X110828817Y-68829354D01*
X111244153Y-68207758D01*
X111390000Y-67474537D01*
X111390000Y-67399463D01*
X111252261Y-66707000D01*
X112004096Y-66707000D01*
X112004096Y-68207000D01*
X112074941Y-68583507D01*
X112297456Y-68929306D01*
X112323010Y-68946766D01*
X112278000Y-69055429D01*
X112278000Y-69703000D01*
X112468500Y-69893500D01*
X113601500Y-69893500D01*
X113601500Y-69873500D01*
X113728500Y-69873500D01*
X113728500Y-69893500D01*
X113748500Y-69893500D01*
X113748500Y-70020500D01*
X113728500Y-70020500D01*
X113728500Y-71278500D01*
X113919000Y-71469000D01*
X114441571Y-71469000D01*
X114721638Y-71352992D01*
X114935992Y-71138638D01*
X115004883Y-70972319D01*
X119704484Y-70972319D01*
X119766010Y-71261741D01*
X120340256Y-71499190D01*
X120961658Y-71498809D01*
X121533990Y-71261741D01*
X121595516Y-70972319D01*
X120650000Y-70026803D01*
X119704484Y-70972319D01*
X115004883Y-70972319D01*
X115052000Y-70858571D01*
X115052000Y-70211000D01*
X114861502Y-70020502D01*
X114921678Y-70020502D01*
X115489080Y-70256109D01*
X116155994Y-70256691D01*
X116772364Y-70002012D01*
X117244354Y-69530844D01*
X117500109Y-68914920D01*
X117500691Y-68248006D01*
X117246012Y-67631636D01*
X116774844Y-67159646D01*
X116158920Y-66903891D01*
X115799945Y-66903578D01*
X115527184Y-66630816D01*
X115280562Y-66466028D01*
X115255059Y-66330493D01*
X115032544Y-65984694D01*
X114693025Y-65752711D01*
X114290000Y-65671096D01*
X113040000Y-65671096D01*
X112663493Y-65741941D01*
X112317694Y-65964456D01*
X112085711Y-66303975D01*
X112004096Y-66707000D01*
X111252261Y-66707000D01*
X111244153Y-66666242D01*
X110828817Y-66044646D01*
X110207221Y-65629310D01*
X109474000Y-65483463D01*
X108740779Y-65629310D01*
X108119183Y-66044646D01*
X107703847Y-66666242D01*
X107558000Y-67399463D01*
X106730000Y-67399463D01*
X106730000Y-59496695D01*
X114497016Y-59496695D01*
X114737550Y-60077405D01*
X115182242Y-60522214D01*
X115763305Y-60762988D01*
X116014500Y-60602253D01*
X116014500Y-59245500D01*
X114657919Y-59245500D01*
X114497016Y-59496695D01*
X106730000Y-59496695D01*
X106730000Y-53776080D01*
X107481141Y-54528533D01*
X108497395Y-54950519D01*
X109597778Y-54951479D01*
X110614766Y-54531268D01*
X111393533Y-53753859D01*
X111815519Y-52737605D01*
X111816479Y-51637222D01*
X111396268Y-50620234D01*
X110618859Y-49841467D01*
X109602605Y-49419481D01*
X108502222Y-49418521D01*
X107485234Y-49838732D01*
X106730000Y-50592649D01*
X106730000Y-45632778D01*
X108231521Y-45632778D01*
X108651732Y-46649766D01*
X109429141Y-47428533D01*
X110445395Y-47850519D01*
X111545778Y-47851479D01*
X112562766Y-47431268D01*
X113341533Y-46653859D01*
X113763519Y-45637605D01*
X113764479Y-44537222D01*
X113344268Y-43520234D01*
X112566859Y-42741467D01*
X111550605Y-42319481D01*
X110450222Y-42318521D01*
X109433234Y-42738732D01*
X108654467Y-43516141D01*
X108232481Y-44532395D01*
X108231521Y-45632778D01*
X106730000Y-45632778D01*
X106730000Y-41960000D01*
X124632999Y-41960000D01*
X124632999Y-45673000D01*
X124632999Y-45673000D01*
G37*
X124632999Y-45673000D02*
X135728096Y-45673000D01*
X135728096Y-46136000D01*
X135798941Y-46512507D01*
X135943503Y-46737163D01*
X135809711Y-46932975D01*
X135728096Y-47336000D01*
X135728096Y-48836000D01*
X135798941Y-49212507D01*
X136017000Y-49551381D01*
X136017000Y-51308000D01*
X136123340Y-51842609D01*
X136426172Y-52295828D01*
X138966172Y-54835828D01*
X139419391Y-55138660D01*
X139954000Y-55245000D01*
X148646344Y-55245000D01*
X149225000Y-55823656D01*
X149225000Y-60452000D01*
X143199656Y-60452000D01*
X141957828Y-59210172D01*
X141504609Y-58907340D01*
X140970000Y-58801000D01*
X137103656Y-58801000D01*
X135763000Y-57460344D01*
X135763000Y-57070304D01*
X136302469Y-57430765D01*
X136997422Y-57569000D01*
X137068578Y-57569000D01*
X137763531Y-57430765D01*
X138352684Y-57037106D01*
X138746343Y-56447953D01*
X138884578Y-55753000D01*
X138746343Y-55058047D01*
X138352684Y-54468894D01*
X137763531Y-54075235D01*
X137068578Y-53937000D01*
X136997422Y-53937000D01*
X136302469Y-54075235D01*
X135713316Y-54468894D01*
X135604306Y-54632039D01*
X135353828Y-54257172D01*
X131670828Y-50574172D01*
X131217609Y-50271340D01*
X130683000Y-50165000D01*
X130133157Y-50165000D01*
X130109844Y-50141646D01*
X129493920Y-49885891D01*
X128827006Y-49885309D01*
X128333953Y-50089034D01*
X128377904Y-49872000D01*
X128377904Y-48172000D01*
X128307059Y-47795493D01*
X128084544Y-47449694D01*
X127745025Y-47217711D01*
X127342000Y-47136096D01*
X125642000Y-47136096D01*
X125628493Y-47138637D01*
X125628691Y-46912006D01*
X125374012Y-46295636D01*
X124902844Y-45823646D01*
X124286920Y-45567891D01*
X123620006Y-45567309D01*
X123003636Y-45821988D01*
X122531646Y-46293156D01*
X122275891Y-46909080D01*
X122275646Y-47190296D01*
X122008000Y-47136096D01*
X120308000Y-47136096D01*
X119931493Y-47206941D01*
X119585694Y-47429456D01*
X119353711Y-47768975D01*
X119272096Y-48172000D01*
X119272096Y-49872000D01*
X119301983Y-50030835D01*
X118952920Y-49885891D01*
X118286006Y-49885309D01*
X117931550Y-50031767D01*
X117963904Y-49872000D01*
X117963904Y-48172000D01*
X117893059Y-47795493D01*
X117670544Y-47449694D01*
X117331025Y-47217711D01*
X116928000Y-47136096D01*
X115228000Y-47136096D01*
X114851493Y-47206941D01*
X114505694Y-47429456D01*
X114273711Y-47768975D01*
X114192096Y-48172000D01*
X114192096Y-49872000D01*
X114262941Y-50248507D01*
X114485456Y-50594306D01*
X114486474Y-50595002D01*
X114317484Y-50847913D01*
X114175443Y-51562000D01*
X114317484Y-52276087D01*
X114688933Y-52832000D01*
X114317484Y-53387913D01*
X114175443Y-54102000D01*
X114317484Y-54816087D01*
X114688933Y-55372000D01*
X114317484Y-55927913D01*
X114175443Y-56642000D01*
X114317484Y-57356087D01*
X114721982Y-57961461D01*
X114926188Y-58097907D01*
X114737550Y-58286595D01*
X114497016Y-58867305D01*
X114657919Y-59118500D01*
X116014500Y-59118500D01*
X116014500Y-59098500D01*
X116141500Y-59098500D01*
X116141500Y-59118500D01*
X116161500Y-59118500D01*
X116161500Y-59245500D01*
X116141500Y-59245500D01*
X116141500Y-60602253D01*
X116392695Y-60762988D01*
X116973758Y-60522214D01*
X117221000Y-60274907D01*
X117221000Y-60960000D01*
X117327340Y-61494609D01*
X117630172Y-61947828D01*
X121283440Y-65601096D01*
X119850000Y-65601096D01*
X119473493Y-65671941D01*
X119127694Y-65894456D01*
X118895711Y-66233975D01*
X118814096Y-66637000D01*
X118814096Y-68237000D01*
X118884941Y-68613507D01*
X119107456Y-68959306D01*
X119307490Y-69095983D01*
X119087810Y-69627256D01*
X119088191Y-70248658D01*
X119325259Y-70820990D01*
X119614681Y-70882516D01*
X120560197Y-69937000D01*
X120546055Y-69922858D01*
X120635858Y-69833055D01*
X120650000Y-69847197D01*
X120664142Y-69833055D01*
X120753945Y-69922858D01*
X120739803Y-69937000D01*
X121685319Y-70882516D01*
X121974741Y-70820990D01*
X122212190Y-70246744D01*
X122211809Y-69625342D01*
X121992291Y-69095380D01*
X122172306Y-68979544D01*
X122404289Y-68640025D01*
X122485904Y-68237000D01*
X122485904Y-66803560D01*
X125095000Y-69412656D01*
X125095000Y-78768765D01*
X124643729Y-78581381D01*
X123856697Y-78580695D01*
X123857379Y-77798095D01*
X123524522Y-76992520D01*
X122908722Y-76375644D01*
X122103729Y-76041381D01*
X121232095Y-76040621D01*
X120426520Y-76373478D01*
X119809644Y-76989278D01*
X119475381Y-77794271D01*
X119474695Y-78581303D01*
X118692095Y-78580621D01*
X117886520Y-78913478D01*
X117269644Y-79529278D01*
X116935381Y-80334271D01*
X116934621Y-81205905D01*
X117267478Y-82011480D01*
X117883278Y-82628356D01*
X118688271Y-82962619D01*
X119475303Y-82963305D01*
X119474621Y-83745905D01*
X119807478Y-84551480D01*
X120423278Y-85168356D01*
X121228271Y-85502619D01*
X122099905Y-85503379D01*
X122905480Y-85170522D01*
X123522356Y-84554722D01*
X123856619Y-83749729D01*
X123857305Y-82962697D01*
X124639905Y-82963379D01*
X125445480Y-82630522D01*
X126037689Y-82039345D01*
X127790172Y-83791828D01*
X128243391Y-84094660D01*
X128778000Y-84201000D01*
X136779000Y-84201000D01*
X137313609Y-84094660D01*
X137766828Y-83791828D01*
X140278656Y-81280000D01*
X140509000Y-81280000D01*
X140509000Y-82066000D01*
X140699500Y-82256500D01*
X141607500Y-82256500D01*
X141607500Y-82236500D01*
X141734500Y-82236500D01*
X141734500Y-82256500D01*
X141754500Y-82256500D01*
X141754500Y-82383500D01*
X141734500Y-82383500D01*
X141734500Y-82403500D01*
X141607500Y-82403500D01*
X141607500Y-82383500D01*
X140699500Y-82383500D01*
X140509000Y-82574000D01*
X140509000Y-83421571D01*
X140625008Y-83701638D01*
X140839362Y-83915992D01*
X140856281Y-83923000D01*
X139783591Y-83923000D01*
X139780920Y-83921891D01*
X139114006Y-83921309D01*
X138497636Y-84175988D01*
X138025646Y-84647156D01*
X137769891Y-85263080D01*
X137769309Y-85929994D01*
X138023988Y-86546364D01*
X138495156Y-87018354D01*
X139111080Y-87274109D01*
X139777994Y-87274691D01*
X140394364Y-87020012D01*
X140697905Y-86717000D01*
X141301302Y-86717000D01*
X141478456Y-86992306D01*
X141817975Y-87224289D01*
X142221000Y-87305904D01*
X143021000Y-87305904D01*
X143230805Y-87266426D01*
X143230309Y-87834994D01*
X143259304Y-87905168D01*
X142876788Y-87746333D01*
X142114556Y-87745668D01*
X141410091Y-88036747D01*
X140870641Y-88575256D01*
X140578333Y-89279212D01*
X140577668Y-90041444D01*
X140868747Y-90745909D01*
X140970515Y-90847855D01*
X140948008Y-90870362D01*
X140832000Y-91150429D01*
X140832000Y-91948000D01*
X141022500Y-92138500D01*
X142430500Y-92138500D01*
X142430500Y-92118500D01*
X142557500Y-92118500D01*
X142557500Y-92138500D01*
X143965500Y-92138500D01*
X144156000Y-91948000D01*
X144156000Y-91150429D01*
X144039992Y-90870362D01*
X144017780Y-90848150D01*
X144117359Y-90748744D01*
X144409667Y-90044788D01*
X144410332Y-89282556D01*
X144325237Y-89076610D01*
X144572080Y-89179109D01*
X145238994Y-89179691D01*
X145855364Y-88925012D01*
X145880420Y-88900000D01*
X147339796Y-88900000D01*
X147182333Y-89279212D01*
X147181668Y-90041444D01*
X147472747Y-90745909D01*
X147574515Y-90847855D01*
X147552008Y-90870362D01*
X147436000Y-91150429D01*
X147436000Y-91948000D01*
X147626500Y-92138500D01*
X149034500Y-92138500D01*
X149034500Y-92118500D01*
X149161500Y-92118500D01*
X149161500Y-92138500D01*
X150569500Y-92138500D01*
X150760000Y-91948000D01*
X150760000Y-91150429D01*
X150643992Y-90870362D01*
X150621780Y-90848150D01*
X150721359Y-90748744D01*
X150850600Y-90437497D01*
X150850600Y-92734032D01*
X150760000Y-92824632D01*
X150760000Y-92456000D01*
X150569500Y-92265500D01*
X149161500Y-92265500D01*
X149161500Y-92285500D01*
X149034500Y-92285500D01*
X149034500Y-92265500D01*
X147626500Y-92265500D01*
X147436000Y-92456000D01*
X147436000Y-93161096D01*
X147428000Y-93161096D01*
X147051493Y-93231941D01*
X146705694Y-93454456D01*
X146473711Y-93793975D01*
X146426522Y-94027000D01*
X146348002Y-94027000D01*
X146299544Y-93951694D01*
X145960025Y-93719711D01*
X145557000Y-93638096D01*
X144257000Y-93638096D01*
X143880493Y-93708941D01*
X143836164Y-93737466D01*
X144039992Y-93533638D01*
X144156000Y-93253571D01*
X144156000Y-92456000D01*
X143965500Y-92265500D01*
X142557500Y-92265500D01*
X142557500Y-93673500D01*
X142748000Y-93864000D01*
X143545571Y-93864000D01*
X143809269Y-93754772D01*
X143534694Y-93931456D01*
X143302711Y-94270975D01*
X143290739Y-94330096D01*
X139942000Y-94330096D01*
X139565493Y-94400941D01*
X139219694Y-94623456D01*
X139040031Y-94886401D01*
X138873638Y-94720008D01*
X138593571Y-94604000D01*
X136946000Y-94604000D01*
X136755500Y-94794500D01*
X136755500Y-96202500D01*
X136775500Y-96202500D01*
X136775500Y-96329500D01*
X136755500Y-96329500D01*
X136755500Y-96349500D01*
X136628500Y-96349500D01*
X136628500Y-96329500D01*
X134370500Y-96329500D01*
X134180000Y-96520000D01*
X134180000Y-96884256D01*
X133919844Y-96623646D01*
X133303920Y-96367891D01*
X132637006Y-96367309D01*
X132020636Y-96621988D01*
X131995580Y-96647000D01*
X131515656Y-96647000D01*
X130083085Y-95214429D01*
X134180000Y-95214429D01*
X134180000Y-96012000D01*
X134370500Y-96202500D01*
X136628500Y-96202500D01*
X136628500Y-94794500D01*
X136438000Y-94604000D01*
X134790429Y-94604000D01*
X134510362Y-94720008D01*
X134296008Y-94934362D01*
X134180000Y-95214429D01*
X130083085Y-95214429D01*
X127324656Y-92456000D01*
X140832000Y-92456000D01*
X140832000Y-93253571D01*
X140948008Y-93533638D01*
X141162362Y-93747992D01*
X141442429Y-93864000D01*
X142240000Y-93864000D01*
X142430500Y-93673500D01*
X142430500Y-92265500D01*
X141022500Y-92265500D01*
X140832000Y-92456000D01*
X127324656Y-92456000D01*
X124050828Y-89182172D01*
X123597609Y-88879340D01*
X123063000Y-88773000D01*
X119465157Y-88773000D01*
X119441844Y-88749646D01*
X118825920Y-88493891D01*
X118159006Y-88493309D01*
X117542636Y-88747988D01*
X117070646Y-89219156D01*
X116814891Y-89835080D01*
X116814309Y-90501994D01*
X117068988Y-91118364D01*
X117540156Y-91590354D01*
X118156080Y-91846109D01*
X118822994Y-91846691D01*
X119439364Y-91592012D01*
X119464420Y-91567000D01*
X120732620Y-91567000D01*
X120426520Y-91693478D01*
X119809644Y-92309278D01*
X119475381Y-93114271D01*
X119474695Y-93901303D01*
X118692095Y-93900621D01*
X117886520Y-94233478D01*
X117269644Y-94849278D01*
X116935381Y-95654271D01*
X116934621Y-96525905D01*
X117267478Y-97331480D01*
X117883278Y-97948356D01*
X118688271Y-98282619D01*
X119475303Y-98283305D01*
X119474621Y-99065905D01*
X119807478Y-99871480D01*
X120423278Y-100488356D01*
X121228271Y-100822619D01*
X122099905Y-100823379D01*
X122905480Y-100490522D01*
X123522356Y-99874722D01*
X123856619Y-99069729D01*
X123857305Y-98282697D01*
X124639905Y-98283379D01*
X125445480Y-97950522D01*
X126062356Y-97334722D01*
X126396619Y-96529729D01*
X126397379Y-95658095D01*
X126272001Y-95354657D01*
X129474602Y-98557258D01*
X129060172Y-98834172D01*
X128479006Y-99415338D01*
X128446006Y-99415309D01*
X127829636Y-99669988D01*
X127357646Y-100141156D01*
X127101891Y-100757080D01*
X127101309Y-101423994D01*
X127302881Y-101911834D01*
X126932953Y-101664657D01*
X126238000Y-101526422D01*
X125543047Y-101664657D01*
X124953894Y-102058316D01*
X124560235Y-102647469D01*
X124422000Y-103342422D01*
X124422000Y-103413578D01*
X124560235Y-104108531D01*
X124953894Y-104697684D01*
X125543047Y-105091343D01*
X126238000Y-105229578D01*
X126932953Y-105091343D01*
X127508000Y-104707109D01*
X128083047Y-105091343D01*
X128778000Y-105229578D01*
X129472953Y-105091343D01*
X129770466Y-104892551D01*
X129775456Y-104900306D01*
X130114975Y-105132289D01*
X130518000Y-105213904D01*
X132118000Y-105213904D01*
X132494507Y-105143059D01*
X132840306Y-104920544D01*
X133072289Y-104581025D01*
X133153904Y-104178000D01*
X133153904Y-102578000D01*
X133083059Y-102201493D01*
X132860544Y-101855694D01*
X132521025Y-101623711D01*
X132118000Y-101542096D01*
X130518000Y-101542096D01*
X130396815Y-101564899D01*
X130454109Y-101426920D01*
X130454140Y-101391516D01*
X130626656Y-101219000D01*
X138303000Y-101219000D01*
X138303000Y-101981000D01*
X138304043Y-102003996D01*
X138400382Y-103063725D01*
X138110262Y-102773098D01*
X137277713Y-102427394D01*
X136376242Y-102426607D01*
X135543091Y-102770858D01*
X134905098Y-103407738D01*
X134559394Y-104240287D01*
X134558607Y-105141758D01*
X134774393Y-105664000D01*
X119634000Y-105664000D01*
X119535180Y-105684012D01*
X119451931Y-105740893D01*
X119397371Y-105825682D01*
X119380000Y-105918000D01*
X119380000Y-114427000D01*
X106730000Y-114427000D01*
X106730000Y-106426000D01*
X108355000Y-106426000D01*
X108355000Y-107823571D01*
X108471008Y-108103638D01*
X108685362Y-108317992D01*
X108965429Y-108434000D01*
X110363000Y-108434000D01*
X110553500Y-108243500D01*
X110553500Y-106235500D01*
X110680500Y-106235500D01*
X110680500Y-108243500D01*
X110871000Y-108434000D01*
X112268571Y-108434000D01*
X112548638Y-108317992D01*
X112762992Y-108103638D01*
X112879000Y-107823571D01*
X112879000Y-106426000D01*
X112688500Y-106235500D01*
X110680500Y-106235500D01*
X110553500Y-106235500D01*
X108545500Y-106235500D01*
X108355000Y-106426000D01*
X106730000Y-106426000D01*
X106730000Y-104520429D01*
X108355000Y-104520429D01*
X108355000Y-105918000D01*
X108545500Y-106108500D01*
X110553500Y-106108500D01*
X110553500Y-104100500D01*
X110680500Y-104100500D01*
X110680500Y-106108500D01*
X112688500Y-106108500D01*
X112879000Y-105918000D01*
X112879000Y-104520429D01*
X112762992Y-104240362D01*
X112548638Y-104026008D01*
X112268571Y-103910000D01*
X110871000Y-103910000D01*
X110680500Y-104100500D01*
X110553500Y-104100500D01*
X110363000Y-103910000D01*
X108965429Y-103910000D01*
X108685362Y-104026008D01*
X108471008Y-104240362D01*
X108355000Y-104520429D01*
X106730000Y-104520429D01*
X106730000Y-101590268D01*
X108100565Y-101590268D01*
X108482796Y-102515337D01*
X109189940Y-103223717D01*
X110114341Y-103607562D01*
X111115268Y-103608435D01*
X112040337Y-103226204D01*
X112748717Y-102519060D01*
X113132562Y-101594659D01*
X113133435Y-100593732D01*
X112751204Y-99668663D01*
X112044060Y-98960283D01*
X111119659Y-98576438D01*
X110118732Y-98575565D01*
X109193663Y-98957796D01*
X108485283Y-99664940D01*
X108101438Y-100589341D01*
X108100565Y-101590268D01*
X106730000Y-101590268D01*
X106730000Y-93254641D01*
X108337162Y-93254641D01*
X108423065Y-93564831D01*
X109069618Y-93835614D01*
X109770580Y-93838359D01*
X110419236Y-93572649D01*
X110430935Y-93564831D01*
X110516838Y-93254641D01*
X109427000Y-92164803D01*
X108337162Y-93254641D01*
X106730000Y-93254641D01*
X106730000Y-92418580D01*
X107663641Y-92418580D01*
X107929351Y-93067236D01*
X107937169Y-93078935D01*
X108247359Y-93164838D01*
X109337197Y-92075000D01*
X109516803Y-92075000D01*
X110606641Y-93164838D01*
X110916831Y-93078935D01*
X111187614Y-92432382D01*
X111190359Y-91731420D01*
X110924649Y-91082764D01*
X110919461Y-91075000D01*
X112391096Y-91075000D01*
X112391096Y-93075000D01*
X112461941Y-93451507D01*
X112684456Y-93797306D01*
X113023975Y-94029289D01*
X113427000Y-94110904D01*
X115427000Y-94110904D01*
X115803507Y-94040059D01*
X116149306Y-93817544D01*
X116381289Y-93478025D01*
X116462904Y-93075000D01*
X116462904Y-91075000D01*
X116392059Y-90698493D01*
X116169544Y-90352694D01*
X115830025Y-90120711D01*
X115427000Y-90039096D01*
X113427000Y-90039096D01*
X113050493Y-90109941D01*
X112704694Y-90332456D01*
X112472711Y-90671975D01*
X112391096Y-91075000D01*
X110919461Y-91075000D01*
X110916831Y-91071065D01*
X110606641Y-90985162D01*
X109516803Y-92075000D01*
X109337197Y-92075000D01*
X108247359Y-90985162D01*
X107937169Y-91071065D01*
X107666386Y-91717618D01*
X107663641Y-92418580D01*
X106730000Y-92418580D01*
X106730000Y-90895359D01*
X108337162Y-90895359D01*
X109427000Y-91985197D01*
X110516838Y-90895359D01*
X110430935Y-90585169D01*
X109784382Y-90314386D01*
X109083420Y-90311641D01*
X108434764Y-90577351D01*
X108423065Y-90585169D01*
X108337162Y-90895359D01*
X106730000Y-90895359D01*
X106730000Y-87900000D01*
X126742096Y-87900000D01*
X126742096Y-89900000D01*
X126812941Y-90276507D01*
X127035456Y-90622306D01*
X127374975Y-90854289D01*
X127778000Y-90935904D01*
X129778000Y-90935904D01*
X130154507Y-90865059D01*
X130500306Y-90642544D01*
X130732289Y-90303025D01*
X130813904Y-89900000D01*
X130813904Y-89299248D01*
X133161651Y-89299248D01*
X133467922Y-90040481D01*
X134034537Y-90608085D01*
X134775233Y-90915650D01*
X135577248Y-90916349D01*
X135787601Y-90829433D01*
X135995233Y-90915650D01*
X136797248Y-90916349D01*
X137538481Y-90610078D01*
X138106085Y-90043463D01*
X138413650Y-89302767D01*
X138414349Y-88500752D01*
X138108078Y-87759519D01*
X137541463Y-87191915D01*
X136800767Y-86884350D01*
X135998752Y-86883651D01*
X135788399Y-86970567D01*
X135580767Y-86884350D01*
X134778752Y-86883651D01*
X134037519Y-87189922D01*
X133469915Y-87756537D01*
X133162350Y-88497233D01*
X133161651Y-89299248D01*
X130813904Y-89299248D01*
X130813904Y-87900000D01*
X130743059Y-87523493D01*
X130520544Y-87177694D01*
X130181025Y-86945711D01*
X129778000Y-86864096D01*
X127778000Y-86864096D01*
X127401493Y-86934941D01*
X127055694Y-87157456D01*
X126823711Y-87496975D01*
X126742096Y-87900000D01*
X106730000Y-87900000D01*
X106730000Y-84796400D01*
X107481141Y-85548853D01*
X108497395Y-85970839D01*
X109597778Y-85971799D01*
X110614766Y-85551588D01*
X111393533Y-84774179D01*
X111815519Y-83757925D01*
X111815814Y-83419000D01*
X113802000Y-83419000D01*
X113802000Y-84066571D01*
X113918008Y-84346638D01*
X114132362Y-84560992D01*
X114412429Y-84677000D01*
X114935000Y-84677000D01*
X115125500Y-84486500D01*
X115125500Y-83228500D01*
X115252500Y-83228500D01*
X115252500Y-84486500D01*
X115443000Y-84677000D01*
X115965571Y-84677000D01*
X116245638Y-84560992D01*
X116459992Y-84346638D01*
X116576000Y-84066571D01*
X116576000Y-83419000D01*
X116385500Y-83228500D01*
X115252500Y-83228500D01*
X115125500Y-83228500D01*
X113992500Y-83228500D01*
X113802000Y-83419000D01*
X111815814Y-83419000D01*
X111816479Y-82657542D01*
X111396268Y-81640554D01*
X110618859Y-80861787D01*
X109602605Y-80439801D01*
X108502222Y-80438841D01*
X107485234Y-80859052D01*
X106730000Y-81612969D01*
X106730000Y-79915000D01*
X113528096Y-79915000D01*
X113528096Y-81415000D01*
X113598941Y-81791507D01*
X113821456Y-82137306D01*
X113847010Y-82154766D01*
X113802000Y-82263429D01*
X113802000Y-82911000D01*
X113992500Y-83101500D01*
X115125500Y-83101500D01*
X115125500Y-83081500D01*
X115252500Y-83081500D01*
X115252500Y-83101500D01*
X116385500Y-83101500D01*
X116576000Y-82911000D01*
X116576000Y-82263429D01*
X116533017Y-82159660D01*
X116536306Y-82157544D01*
X116768289Y-81818025D01*
X116849904Y-81415000D01*
X116849904Y-79915000D01*
X116796300Y-79630118D01*
X117244354Y-79182844D01*
X117500109Y-78566920D01*
X117500691Y-77900006D01*
X117246012Y-77283636D01*
X116774844Y-76811646D01*
X116158920Y-76555891D01*
X115492006Y-76555309D01*
X114875636Y-76809988D01*
X114403646Y-77281156D01*
X114147891Y-77897080D01*
X114147837Y-77958993D01*
X113898340Y-78332391D01*
X113792000Y-78867000D01*
X113792000Y-79245186D01*
X113609711Y-79511975D01*
X113528096Y-79915000D01*
X106730000Y-79915000D01*
X106730000Y-71617000D01*
X107538096Y-71617000D01*
X107538096Y-73417000D01*
X107608941Y-73793507D01*
X107831456Y-74139306D01*
X108170975Y-74371289D01*
X108574000Y-74452904D01*
X110374000Y-74452904D01*
X110750507Y-74382059D01*
X111096306Y-74159544D01*
X111328289Y-73820025D01*
X111409904Y-73417000D01*
X111409904Y-71617000D01*
X111339059Y-71240493D01*
X111116544Y-70894694D01*
X110915380Y-70757245D01*
X111104410Y-70299523D01*
X111049689Y-70211000D01*
X112278000Y-70211000D01*
X112278000Y-70858571D01*
X112394008Y-71138638D01*
X112608362Y-71352992D01*
X112888429Y-71469000D01*
X113411000Y-71469000D01*
X113601500Y-71278500D01*
X113601500Y-70020500D01*
X112468500Y-70020500D01*
X112278000Y-70211000D01*
X111049689Y-70211000D01*
X110944291Y-70040500D01*
X109537500Y-70040500D01*
X109537500Y-70060500D01*
X109410500Y-70060500D01*
X109410500Y-70040500D01*
X108003709Y-70040500D01*
X107843590Y-70299523D01*
X108032877Y-70757868D01*
X107851694Y-70874456D01*
X107619711Y-71213975D01*
X107538096Y-71617000D01*
X106730000Y-71617000D01*
X106730000Y-67399463D01*
X107558000Y-67399463D01*
X107558000Y-67474537D01*
X107703847Y-68207758D01*
X108119183Y-68829354D01*
X108237500Y-68908410D01*
X108091122Y-69055097D01*
X107843590Y-69654477D01*
X108003709Y-69913500D01*
X109410500Y-69913500D01*
X109410500Y-69893500D01*
X109537500Y-69893500D01*
X109537500Y-69913500D01*
X110944291Y-69913500D01*
X111104410Y-69654477D01*
X110856878Y-69055097D01*
X110710500Y-68908410D01*
X110828817Y-68829354D01*
X111244153Y-68207758D01*
X111390000Y-67474537D01*
X111390000Y-67399463D01*
X111252261Y-66707000D01*
X112004096Y-66707000D01*
X112004096Y-68207000D01*
X112074941Y-68583507D01*
X112297456Y-68929306D01*
X112323010Y-68946766D01*
X112278000Y-69055429D01*
X112278000Y-69703000D01*
X112468500Y-69893500D01*
X113601500Y-69893500D01*
X113601500Y-69873500D01*
X113728500Y-69873500D01*
X113728500Y-69893500D01*
X113748500Y-69893500D01*
X113748500Y-70020500D01*
X113728500Y-70020500D01*
X113728500Y-71278500D01*
X113919000Y-71469000D01*
X114441571Y-71469000D01*
X114721638Y-71352992D01*
X114935992Y-71138638D01*
X115004883Y-70972319D01*
X119704484Y-70972319D01*
X119766010Y-71261741D01*
X120340256Y-71499190D01*
X120961658Y-71498809D01*
X121533990Y-71261741D01*
X121595516Y-70972319D01*
X120650000Y-70026803D01*
X119704484Y-70972319D01*
X115004883Y-70972319D01*
X115052000Y-70858571D01*
X115052000Y-70211000D01*
X114861502Y-70020502D01*
X114921678Y-70020502D01*
X115489080Y-70256109D01*
X116155994Y-70256691D01*
X116772364Y-70002012D01*
X117244354Y-69530844D01*
X117500109Y-68914920D01*
X117500691Y-68248006D01*
X117246012Y-67631636D01*
X116774844Y-67159646D01*
X116158920Y-66903891D01*
X115799945Y-66903578D01*
X115527184Y-66630816D01*
X115280562Y-66466028D01*
X115255059Y-66330493D01*
X115032544Y-65984694D01*
X114693025Y-65752711D01*
X114290000Y-65671096D01*
X113040000Y-65671096D01*
X112663493Y-65741941D01*
X112317694Y-65964456D01*
X112085711Y-66303975D01*
X112004096Y-66707000D01*
X111252261Y-66707000D01*
X111244153Y-66666242D01*
X110828817Y-66044646D01*
X110207221Y-65629310D01*
X109474000Y-65483463D01*
X108740779Y-65629310D01*
X108119183Y-66044646D01*
X107703847Y-66666242D01*
X107558000Y-67399463D01*
X106730000Y-67399463D01*
X106730000Y-59496695D01*
X114497016Y-59496695D01*
X114737550Y-60077405D01*
X115182242Y-60522214D01*
X115763305Y-60762988D01*
X116014500Y-60602253D01*
X116014500Y-59245500D01*
X114657919Y-59245500D01*
X114497016Y-59496695D01*
X106730000Y-59496695D01*
X106730000Y-53776080D01*
X107481141Y-54528533D01*
X108497395Y-54950519D01*
X109597778Y-54951479D01*
X110614766Y-54531268D01*
X111393533Y-53753859D01*
X111815519Y-52737605D01*
X111816479Y-51637222D01*
X111396268Y-50620234D01*
X110618859Y-49841467D01*
X109602605Y-49419481D01*
X108502222Y-49418521D01*
X107485234Y-49838732D01*
X106730000Y-50592649D01*
X106730000Y-45632778D01*
X108231521Y-45632778D01*
X108651732Y-46649766D01*
X109429141Y-47428533D01*
X110445395Y-47850519D01*
X111545778Y-47851479D01*
X112562766Y-47431268D01*
X113341533Y-46653859D01*
X113763519Y-45637605D01*
X113764479Y-44537222D01*
X113344268Y-43520234D01*
X112566859Y-42741467D01*
X111550605Y-42319481D01*
X110450222Y-42318521D01*
X109433234Y-42738732D01*
X108654467Y-43516141D01*
X108232481Y-44532395D01*
X108231521Y-45632778D01*
X106730000Y-45632778D01*
X106730000Y-41960000D01*
X124632999Y-41960000D01*
X124632999Y-45673000D01*
G36*
X148841500Y-98083500D02*
X148861500Y-98083500D01*
X148861500Y-98210500D01*
X148841500Y-98210500D01*
X148841500Y-98230500D01*
X148714500Y-98230500D01*
X148714500Y-98210500D01*
X148694500Y-98210500D01*
X148694500Y-98083500D01*
X148714500Y-98083500D01*
X148714500Y-98063500D01*
X148841500Y-98063500D01*
X148841500Y-98083500D01*
X148841500Y-98083500D01*
G37*
X148841500Y-98083500D02*
X148861500Y-98083500D01*
X148861500Y-98210500D01*
X148841500Y-98210500D01*
X148841500Y-98230500D01*
X148714500Y-98230500D01*
X148714500Y-98210500D01*
X148694500Y-98210500D01*
X148694500Y-98083500D01*
X148714500Y-98083500D01*
X148714500Y-98063500D01*
X148841500Y-98063500D01*
X148841500Y-98083500D01*
G36*
X149352000Y-93864000D02*
X149908197Y-93864000D01*
X149904573Y-93882220D01*
X149630694Y-94058456D01*
X149398711Y-94397975D01*
X149317096Y-94801000D01*
X149317096Y-96301000D01*
X149343387Y-96440723D01*
X149329571Y-96435000D01*
X149195457Y-96435000D01*
X149263904Y-96097000D01*
X149263904Y-94197000D01*
X149193059Y-93820493D01*
X149161502Y-93771452D01*
X149161502Y-93673502D01*
X149352000Y-93864000D01*
X149352000Y-93864000D01*
G37*
X149352000Y-93864000D02*
X149908197Y-93864000D01*
X149904573Y-93882220D01*
X149630694Y-94058456D01*
X149398711Y-94397975D01*
X149317096Y-94801000D01*
X149317096Y-96301000D01*
X149343387Y-96440723D01*
X149329571Y-96435000D01*
X149195457Y-96435000D01*
X149263904Y-96097000D01*
X149263904Y-94197000D01*
X149193059Y-93820493D01*
X149161502Y-93771452D01*
X149161502Y-93673502D01*
X149352000Y-93864000D01*
G36*
X156966975Y-67759289D02*
X157370000Y-67840904D01*
X157920000Y-67840904D01*
X158049589Y-67816520D01*
X158170000Y-67840904D01*
X158720000Y-67840904D01*
X158849589Y-67816520D01*
X158970000Y-67840904D01*
X159520000Y-67840904D01*
X159649589Y-67816520D01*
X159770000Y-67840904D01*
X160320000Y-67840904D01*
X160449589Y-67816520D01*
X160570000Y-67840904D01*
X160759096Y-67840904D01*
X160759096Y-68030000D01*
X160783480Y-68159589D01*
X160759096Y-68280000D01*
X160759096Y-68830000D01*
X160783480Y-68959589D01*
X160759096Y-69080000D01*
X160759096Y-69630000D01*
X160783480Y-69759589D01*
X160759096Y-69880000D01*
X160759096Y-70430000D01*
X160783480Y-70559589D01*
X160759096Y-70680000D01*
X160759096Y-71230000D01*
X160829941Y-71606507D01*
X160924795Y-71753914D01*
X160840711Y-71876975D01*
X160759096Y-72280000D01*
X160759096Y-72830000D01*
X160783480Y-72959589D01*
X160759096Y-73080000D01*
X160759096Y-73630000D01*
X160783480Y-73759589D01*
X160759096Y-73880000D01*
X160759096Y-74430000D01*
X160783480Y-74559589D01*
X160759096Y-74680000D01*
X160759096Y-75230000D01*
X160783480Y-75359589D01*
X160759096Y-75480000D01*
X160759096Y-75669096D01*
X160570000Y-75669096D01*
X160440411Y-75693480D01*
X160320000Y-75669096D01*
X159770000Y-75669096D01*
X159640411Y-75693480D01*
X159520000Y-75669096D01*
X158970000Y-75669096D01*
X158840411Y-75693480D01*
X158720000Y-75669096D01*
X158170000Y-75669096D01*
X157793493Y-75739941D01*
X157646086Y-75834795D01*
X157523025Y-75750711D01*
X157120000Y-75669096D01*
X156570000Y-75669096D01*
X156440411Y-75693480D01*
X156320000Y-75669096D01*
X155770000Y-75669096D01*
X155640411Y-75693480D01*
X155520000Y-75669096D01*
X154970000Y-75669096D01*
X154840411Y-75693480D01*
X154720000Y-75669096D01*
X154170000Y-75669096D01*
X154040411Y-75693480D01*
X153920000Y-75669096D01*
X153370000Y-75669096D01*
X153240411Y-75693480D01*
X153120000Y-75669096D01*
X152930904Y-75669096D01*
X152930904Y-75480000D01*
X152906520Y-75350411D01*
X152930904Y-75230000D01*
X152930904Y-74680000D01*
X152906520Y-74550411D01*
X152930904Y-74430000D01*
X152930904Y-73880000D01*
X152906520Y-73750411D01*
X152930904Y-73630000D01*
X152930904Y-73080000D01*
X152906520Y-72950411D01*
X152930904Y-72830000D01*
X152930904Y-72280000D01*
X152860059Y-71903493D01*
X152765205Y-71756086D01*
X152849289Y-71633025D01*
X152930904Y-71230000D01*
X152930904Y-70680000D01*
X152906520Y-70550411D01*
X152930904Y-70430000D01*
X152930904Y-69880000D01*
X152906520Y-69750411D01*
X152930904Y-69630000D01*
X152930904Y-69080000D01*
X152906520Y-68950411D01*
X152930904Y-68830000D01*
X152930904Y-68280000D01*
X152906520Y-68150411D01*
X152930904Y-68030000D01*
X152930904Y-67840904D01*
X153120000Y-67840904D01*
X153249589Y-67816520D01*
X153370000Y-67840904D01*
X153920000Y-67840904D01*
X154049589Y-67816520D01*
X154170000Y-67840904D01*
X154720000Y-67840904D01*
X154849589Y-67816520D01*
X154970000Y-67840904D01*
X155520000Y-67840904D01*
X155649589Y-67816520D01*
X155770000Y-67840904D01*
X156320000Y-67840904D01*
X156696507Y-67770059D01*
X156843914Y-67675205D01*
X156966975Y-67759289D01*
X156966975Y-67759289D01*
G37*
X156966975Y-67759289D02*
X157370000Y-67840904D01*
X157920000Y-67840904D01*
X158049589Y-67816520D01*
X158170000Y-67840904D01*
X158720000Y-67840904D01*
X158849589Y-67816520D01*
X158970000Y-67840904D01*
X159520000Y-67840904D01*
X159649589Y-67816520D01*
X159770000Y-67840904D01*
X160320000Y-67840904D01*
X160449589Y-67816520D01*
X160570000Y-67840904D01*
X160759096Y-67840904D01*
X160759096Y-68030000D01*
X160783480Y-68159589D01*
X160759096Y-68280000D01*
X160759096Y-68830000D01*
X160783480Y-68959589D01*
X160759096Y-69080000D01*
X160759096Y-69630000D01*
X160783480Y-69759589D01*
X160759096Y-69880000D01*
X160759096Y-70430000D01*
X160783480Y-70559589D01*
X160759096Y-70680000D01*
X160759096Y-71230000D01*
X160829941Y-71606507D01*
X160924795Y-71753914D01*
X160840711Y-71876975D01*
X160759096Y-72280000D01*
X160759096Y-72830000D01*
X160783480Y-72959589D01*
X160759096Y-73080000D01*
X160759096Y-73630000D01*
X160783480Y-73759589D01*
X160759096Y-73880000D01*
X160759096Y-74430000D01*
X160783480Y-74559589D01*
X160759096Y-74680000D01*
X160759096Y-75230000D01*
X160783480Y-75359589D01*
X160759096Y-75480000D01*
X160759096Y-75669096D01*
X160570000Y-75669096D01*
X160440411Y-75693480D01*
X160320000Y-75669096D01*
X159770000Y-75669096D01*
X159640411Y-75693480D01*
X159520000Y-75669096D01*
X158970000Y-75669096D01*
X158840411Y-75693480D01*
X158720000Y-75669096D01*
X158170000Y-75669096D01*
X157793493Y-75739941D01*
X157646086Y-75834795D01*
X157523025Y-75750711D01*
X157120000Y-75669096D01*
X156570000Y-75669096D01*
X156440411Y-75693480D01*
X156320000Y-75669096D01*
X155770000Y-75669096D01*
X155640411Y-75693480D01*
X155520000Y-75669096D01*
X154970000Y-75669096D01*
X154840411Y-75693480D01*
X154720000Y-75669096D01*
X154170000Y-75669096D01*
X154040411Y-75693480D01*
X153920000Y-75669096D01*
X153370000Y-75669096D01*
X153240411Y-75693480D01*
X153120000Y-75669096D01*
X152930904Y-75669096D01*
X152930904Y-75480000D01*
X152906520Y-75350411D01*
X152930904Y-75230000D01*
X152930904Y-74680000D01*
X152906520Y-74550411D01*
X152930904Y-74430000D01*
X152930904Y-73880000D01*
X152906520Y-73750411D01*
X152930904Y-73630000D01*
X152930904Y-73080000D01*
X152906520Y-72950411D01*
X152930904Y-72830000D01*
X152930904Y-72280000D01*
X152860059Y-71903493D01*
X152765205Y-71756086D01*
X152849289Y-71633025D01*
X152930904Y-71230000D01*
X152930904Y-70680000D01*
X152906520Y-70550411D01*
X152930904Y-70430000D01*
X152930904Y-69880000D01*
X152906520Y-69750411D01*
X152930904Y-69630000D01*
X152930904Y-69080000D01*
X152906520Y-68950411D01*
X152930904Y-68830000D01*
X152930904Y-68280000D01*
X152906520Y-68150411D01*
X152930904Y-68030000D01*
X152930904Y-67840904D01*
X153120000Y-67840904D01*
X153249589Y-67816520D01*
X153370000Y-67840904D01*
X153920000Y-67840904D01*
X154049589Y-67816520D01*
X154170000Y-67840904D01*
X154720000Y-67840904D01*
X154849589Y-67816520D01*
X154970000Y-67840904D01*
X155520000Y-67840904D01*
X155649589Y-67816520D01*
X155770000Y-67840904D01*
X156320000Y-67840904D01*
X156696507Y-67770059D01*
X156843914Y-67675205D01*
X156966975Y-67759289D01*
G36*
X131127500Y-75501500D02*
X131147500Y-75501500D01*
X131147500Y-75628500D01*
X131127500Y-75628500D01*
X131127500Y-75648500D01*
X131000500Y-75648500D01*
X131000500Y-75628500D01*
X130980500Y-75628500D01*
X130980500Y-75501500D01*
X131000500Y-75501500D01*
X131000500Y-75481500D01*
X131127500Y-75481500D01*
X131127500Y-75501500D01*
X131127500Y-75501500D01*
G37*
X131127500Y-75501500D02*
X131147500Y-75501500D01*
X131147500Y-75628500D01*
X131127500Y-75628500D01*
X131127500Y-75648500D01*
X131000500Y-75648500D01*
X131000500Y-75628500D01*
X130980500Y-75628500D01*
X130980500Y-75501500D01*
X131000500Y-75501500D01*
X131000500Y-75481500D01*
X131127500Y-75481500D01*
X131127500Y-75501500D01*
G36*
X135537172Y-64995828D02*
X135990391Y-65298660D01*
X136525000Y-65405000D01*
X136557000Y-65405000D01*
X136747500Y-65595500D01*
X138005500Y-65595500D01*
X138005500Y-65575500D01*
X138132500Y-65575500D01*
X138132500Y-65595500D01*
X138152500Y-65595500D01*
X138152500Y-65722500D01*
X138132500Y-65722500D01*
X138132500Y-66855500D01*
X138323000Y-67046000D01*
X138970571Y-67046000D01*
X139074340Y-67003017D01*
X139076456Y-67006306D01*
X139415975Y-67238289D01*
X139819000Y-67319904D01*
X141319000Y-67319904D01*
X141637204Y-67260029D01*
X141641975Y-67263289D01*
X142045000Y-67344904D01*
X143545000Y-67344904D01*
X143865843Y-67284533D01*
X143865309Y-67895994D01*
X143933053Y-68059947D01*
X143847500Y-68145500D01*
X143847500Y-69278500D01*
X143867500Y-69278500D01*
X143867500Y-69405500D01*
X143847500Y-69405500D01*
X143847500Y-69425500D01*
X143720500Y-69425500D01*
X143720500Y-69405500D01*
X142462500Y-69405500D01*
X142272000Y-69596000D01*
X142272000Y-70064550D01*
X142079711Y-70345975D01*
X141998096Y-70749000D01*
X141998096Y-71386600D01*
X141290555Y-71386600D01*
X141465693Y-70964820D01*
X141466306Y-70262262D01*
X141198015Y-69612948D01*
X140701665Y-69115731D01*
X140052820Y-68846307D01*
X139350262Y-68845694D01*
X138700948Y-69113985D01*
X138203731Y-69610335D01*
X137934307Y-70259180D01*
X137933694Y-70961738D01*
X138201985Y-71611052D01*
X138531600Y-71941243D01*
X138531600Y-72008995D01*
X138531599Y-72009000D01*
X138620539Y-72456128D01*
X138873816Y-72835184D01*
X139063632Y-73025000D01*
X138873816Y-73214816D01*
X138620539Y-73593872D01*
X138531599Y-74041000D01*
X138531600Y-74041005D01*
X138531600Y-74183038D01*
X138203731Y-74510335D01*
X138093194Y-74776538D01*
X138049000Y-74732344D01*
X138049000Y-74295000D01*
X137942660Y-73760391D01*
X137639828Y-73307172D01*
X136750828Y-72418172D01*
X136297609Y-72115340D01*
X135763000Y-72009000D01*
X134823887Y-72009000D01*
X134944450Y-71888405D01*
X135184984Y-71307695D01*
X135024081Y-71056500D01*
X133667500Y-71056500D01*
X133667500Y-71076500D01*
X133540500Y-71076500D01*
X133540500Y-71056500D01*
X133520500Y-71056500D01*
X133520500Y-70929500D01*
X133540500Y-70929500D01*
X133540500Y-70909500D01*
X133667500Y-70909500D01*
X133667500Y-70929500D01*
X135024081Y-70929500D01*
X135184984Y-70678305D01*
X134944450Y-70097595D01*
X134755812Y-69908907D01*
X134960018Y-69772461D01*
X135364516Y-69167087D01*
X135484193Y-68565429D01*
X142272000Y-68565429D01*
X142272000Y-69088000D01*
X142462500Y-69278500D01*
X143720500Y-69278500D01*
X143720500Y-68145500D01*
X143530000Y-67955000D01*
X142882429Y-67955000D01*
X142602362Y-68071008D01*
X142388008Y-68285362D01*
X142272000Y-68565429D01*
X135484193Y-68565429D01*
X135506557Y-68453000D01*
X135364516Y-67738913D01*
X134993067Y-67183000D01*
X135364516Y-66627087D01*
X135506557Y-65913000D01*
X136557000Y-65913000D01*
X136557000Y-66435571D01*
X136673008Y-66715638D01*
X136887362Y-66929992D01*
X137167429Y-67046000D01*
X137815000Y-67046000D01*
X138005500Y-66855500D01*
X138005500Y-65722500D01*
X136747500Y-65722500D01*
X136557000Y-65913000D01*
X135506557Y-65913000D01*
X135364516Y-65198913D01*
X134960018Y-64593539D01*
X134760508Y-64460231D01*
X134881146Y-64339802D01*
X135537172Y-64995828D01*
X135537172Y-64995828D01*
G37*
X135537172Y-64995828D02*
X135990391Y-65298660D01*
X136525000Y-65405000D01*
X136557000Y-65405000D01*
X136747500Y-65595500D01*
X138005500Y-65595500D01*
X138005500Y-65575500D01*
X138132500Y-65575500D01*
X138132500Y-65595500D01*
X138152500Y-65595500D01*
X138152500Y-65722500D01*
X138132500Y-65722500D01*
X138132500Y-66855500D01*
X138323000Y-67046000D01*
X138970571Y-67046000D01*
X139074340Y-67003017D01*
X139076456Y-67006306D01*
X139415975Y-67238289D01*
X139819000Y-67319904D01*
X141319000Y-67319904D01*
X141637204Y-67260029D01*
X141641975Y-67263289D01*
X142045000Y-67344904D01*
X143545000Y-67344904D01*
X143865843Y-67284533D01*
X143865309Y-67895994D01*
X143933053Y-68059947D01*
X143847500Y-68145500D01*
X143847500Y-69278500D01*
X143867500Y-69278500D01*
X143867500Y-69405500D01*
X143847500Y-69405500D01*
X143847500Y-69425500D01*
X143720500Y-69425500D01*
X143720500Y-69405500D01*
X142462500Y-69405500D01*
X142272000Y-69596000D01*
X142272000Y-70064550D01*
X142079711Y-70345975D01*
X141998096Y-70749000D01*
X141998096Y-71386600D01*
X141290555Y-71386600D01*
X141465693Y-70964820D01*
X141466306Y-70262262D01*
X141198015Y-69612948D01*
X140701665Y-69115731D01*
X140052820Y-68846307D01*
X139350262Y-68845694D01*
X138700948Y-69113985D01*
X138203731Y-69610335D01*
X137934307Y-70259180D01*
X137933694Y-70961738D01*
X138201985Y-71611052D01*
X138531600Y-71941243D01*
X138531600Y-72008995D01*
X138531599Y-72009000D01*
X138620539Y-72456128D01*
X138873816Y-72835184D01*
X139063632Y-73025000D01*
X138873816Y-73214816D01*
X138620539Y-73593872D01*
X138531599Y-74041000D01*
X138531600Y-74041005D01*
X138531600Y-74183038D01*
X138203731Y-74510335D01*
X138093194Y-74776538D01*
X138049000Y-74732344D01*
X138049000Y-74295000D01*
X137942660Y-73760391D01*
X137639828Y-73307172D01*
X136750828Y-72418172D01*
X136297609Y-72115340D01*
X135763000Y-72009000D01*
X134823887Y-72009000D01*
X134944450Y-71888405D01*
X135184984Y-71307695D01*
X135024081Y-71056500D01*
X133667500Y-71056500D01*
X133667500Y-71076500D01*
X133540500Y-71076500D01*
X133540500Y-71056500D01*
X133520500Y-71056500D01*
X133520500Y-70929500D01*
X133540500Y-70929500D01*
X133540500Y-70909500D01*
X133667500Y-70909500D01*
X133667500Y-70929500D01*
X135024081Y-70929500D01*
X135184984Y-70678305D01*
X134944450Y-70097595D01*
X134755812Y-69908907D01*
X134960018Y-69772461D01*
X135364516Y-69167087D01*
X135484193Y-68565429D01*
X142272000Y-68565429D01*
X142272000Y-69088000D01*
X142462500Y-69278500D01*
X143720500Y-69278500D01*
X143720500Y-68145500D01*
X143530000Y-67955000D01*
X142882429Y-67955000D01*
X142602362Y-68071008D01*
X142388008Y-68285362D01*
X142272000Y-68565429D01*
X135484193Y-68565429D01*
X135506557Y-68453000D01*
X135364516Y-67738913D01*
X134993067Y-67183000D01*
X135364516Y-66627087D01*
X135506557Y-65913000D01*
X136557000Y-65913000D01*
X136557000Y-66435571D01*
X136673008Y-66715638D01*
X136887362Y-66929992D01*
X137167429Y-67046000D01*
X137815000Y-67046000D01*
X138005500Y-66855500D01*
X138005500Y-65722500D01*
X136747500Y-65722500D01*
X136557000Y-65913000D01*
X135506557Y-65913000D01*
X135364516Y-65198913D01*
X134960018Y-64593539D01*
X134760508Y-64460231D01*
X134881146Y-64339802D01*
X135537172Y-64995828D01*
G36*
X146367500Y-74612500D02*
X146347500Y-74612500D01*
X146347500Y-74632500D01*
X146220500Y-74632500D01*
X146220500Y-74612500D01*
X146200500Y-74612500D01*
X146200500Y-74523400D01*
X146367500Y-74523400D01*
X146367500Y-74612500D01*
X146367500Y-74612500D01*
G37*
X146367500Y-74612500D02*
X146347500Y-74612500D01*
X146347500Y-74632500D01*
X146220500Y-74632500D01*
X146220500Y-74612500D01*
X146200500Y-74612500D01*
X146200500Y-74523400D01*
X146367500Y-74523400D01*
X146367500Y-74612500D01*
G36*
X168953500Y-70040500D02*
X168973500Y-70040500D01*
X168973500Y-70167500D01*
X168953500Y-70167500D01*
X168953500Y-72326500D01*
X170211500Y-72326500D01*
X170319172Y-72218828D01*
X171906172Y-73805828D01*
X172282390Y-74057209D01*
X171831000Y-73967422D01*
X171136047Y-74105657D01*
X170967468Y-74218298D01*
X170967691Y-73963006D01*
X170713012Y-73346636D01*
X170402000Y-73035081D01*
X170402000Y-72644000D01*
X170211500Y-72453500D01*
X168953500Y-72453500D01*
X168953500Y-72473500D01*
X168826500Y-72473500D01*
X168826500Y-72453500D01*
X168806500Y-72453500D01*
X168806500Y-72326500D01*
X168826500Y-72326500D01*
X168826500Y-70167500D01*
X168806500Y-70167500D01*
X168806500Y-70040500D01*
X168826500Y-70040500D01*
X168826500Y-70020500D01*
X168953500Y-70020500D01*
X168953500Y-70040500D01*
X168953500Y-70040500D01*
G37*
X168953500Y-70040500D02*
X168973500Y-70040500D01*
X168973500Y-70167500D01*
X168953500Y-70167500D01*
X168953500Y-72326500D01*
X170211500Y-72326500D01*
X170319172Y-72218828D01*
X171906172Y-73805828D01*
X172282390Y-74057209D01*
X171831000Y-73967422D01*
X171136047Y-74105657D01*
X170967468Y-74218298D01*
X170967691Y-73963006D01*
X170713012Y-73346636D01*
X170402000Y-73035081D01*
X170402000Y-72644000D01*
X170211500Y-72453500D01*
X168953500Y-72453500D01*
X168953500Y-72473500D01*
X168826500Y-72473500D01*
X168826500Y-72453500D01*
X168806500Y-72453500D01*
X168806500Y-72326500D01*
X168826500Y-72326500D01*
X168826500Y-70167500D01*
X168806500Y-70167500D01*
X168806500Y-70040500D01*
X168826500Y-70040500D01*
X168826500Y-70020500D01*
X168953500Y-70020500D01*
X168953500Y-70040500D01*
G36*
X176212500Y-69866500D02*
X176232500Y-69866500D01*
X176232500Y-69993500D01*
X176212500Y-69993500D01*
X176212500Y-71251500D01*
X176403000Y-71442000D01*
X176632465Y-71442000D01*
X176377891Y-72055080D01*
X176377309Y-72721994D01*
X176587698Y-73231174D01*
X176520096Y-73565000D01*
X176520096Y-73699096D01*
X175776356Y-73699096D01*
X175802904Y-73568000D01*
X175802904Y-72068000D01*
X175732059Y-71691493D01*
X175571515Y-71442000D01*
X175895000Y-71442000D01*
X176085500Y-71251500D01*
X176085500Y-69993500D01*
X176065500Y-69993500D01*
X176065500Y-69866500D01*
X176085500Y-69866500D01*
X176085500Y-69846500D01*
X176212500Y-69846500D01*
X176212500Y-69866500D01*
X176212500Y-69866500D01*
G37*
X176212500Y-69866500D02*
X176232500Y-69866500D01*
X176232500Y-69993500D01*
X176212500Y-69993500D01*
X176212500Y-71251500D01*
X176403000Y-71442000D01*
X176632465Y-71442000D01*
X176377891Y-72055080D01*
X176377309Y-72721994D01*
X176587698Y-73231174D01*
X176520096Y-73565000D01*
X176520096Y-73699096D01*
X175776356Y-73699096D01*
X175802904Y-73568000D01*
X175802904Y-72068000D01*
X175732059Y-71691493D01*
X175571515Y-71442000D01*
X175895000Y-71442000D01*
X176085500Y-71251500D01*
X176085500Y-69993500D01*
X176065500Y-69993500D01*
X176065500Y-69866500D01*
X176085500Y-69866500D01*
X176085500Y-69846500D01*
X176212500Y-69846500D01*
X176212500Y-69866500D01*
G36*
X146347500Y-71310500D02*
X146367500Y-71310500D01*
X146367500Y-71386600D01*
X146200500Y-71386600D01*
X146200500Y-71310500D01*
X146220500Y-71310500D01*
X146220500Y-71290500D01*
X146347500Y-71290500D01*
X146347500Y-71310500D01*
X146347500Y-71310500D01*
G37*
X146347500Y-71310500D02*
X146367500Y-71310500D01*
X146367500Y-71386600D01*
X146200500Y-71386600D01*
X146200500Y-71310500D01*
X146220500Y-71310500D01*
X146220500Y-71290500D01*
X146347500Y-71290500D01*
X146347500Y-71310500D01*
G36*
X176339500Y-61611500D02*
X176359500Y-61611500D01*
X176359500Y-61738500D01*
X176339500Y-61738500D01*
X176339500Y-62996500D01*
X176530000Y-63187000D01*
X176706730Y-63187000D01*
X176616979Y-63403142D01*
X176483920Y-63347891D01*
X175817006Y-63347309D01*
X175200636Y-63601988D01*
X174728646Y-64073156D01*
X174581344Y-64427897D01*
X174207109Y-64177840D01*
X173672500Y-64071500D01*
X173429733Y-64071500D01*
X173450000Y-64022571D01*
X173450000Y-63500000D01*
X173364411Y-63414411D01*
X173594000Y-63460904D01*
X174894000Y-63460904D01*
X175270507Y-63390059D01*
X175586070Y-63187000D01*
X176022000Y-63187000D01*
X176212500Y-62996500D01*
X176212500Y-61738500D01*
X176192500Y-61738500D01*
X176192500Y-61611500D01*
X176212500Y-61611500D01*
X176212500Y-61591500D01*
X176339500Y-61591500D01*
X176339500Y-61611500D01*
X176339500Y-61611500D01*
G37*
X176339500Y-61611500D02*
X176359500Y-61611500D01*
X176359500Y-61738500D01*
X176339500Y-61738500D01*
X176339500Y-62996500D01*
X176530000Y-63187000D01*
X176706730Y-63187000D01*
X176616979Y-63403142D01*
X176483920Y-63347891D01*
X175817006Y-63347309D01*
X175200636Y-63601988D01*
X174728646Y-64073156D01*
X174581344Y-64427897D01*
X174207109Y-64177840D01*
X173672500Y-64071500D01*
X173429733Y-64071500D01*
X173450000Y-64022571D01*
X173450000Y-63500000D01*
X173364411Y-63414411D01*
X173594000Y-63460904D01*
X174894000Y-63460904D01*
X175270507Y-63390059D01*
X175586070Y-63187000D01*
X176022000Y-63187000D01*
X176212500Y-62996500D01*
X176212500Y-61738500D01*
X176192500Y-61738500D01*
X176192500Y-61611500D01*
X176212500Y-61611500D01*
X176212500Y-61591500D01*
X176339500Y-61591500D01*
X176339500Y-61611500D01*
G36*
X125102933Y-52832000D02*
X124731484Y-53387913D01*
X124589443Y-54102000D01*
X124731484Y-54816087D01*
X125102933Y-55372000D01*
X124731484Y-55927913D01*
X124589443Y-56642000D01*
X124731484Y-57356087D01*
X125135982Y-57961461D01*
X125340188Y-58097907D01*
X125151550Y-58286595D01*
X124911016Y-58867305D01*
X125071919Y-59118500D01*
X126428500Y-59118500D01*
X126428500Y-59098500D01*
X126555500Y-59098500D01*
X126555500Y-59118500D01*
X127912081Y-59118500D01*
X128072984Y-58867305D01*
X127832450Y-58286595D01*
X127643812Y-58097907D01*
X127848018Y-57961461D01*
X128252516Y-57356087D01*
X128284883Y-57193369D01*
X128382975Y-57291633D01*
X129050190Y-57568685D01*
X129772640Y-57569315D01*
X130440338Y-57293428D01*
X130951633Y-56783025D01*
X131228685Y-56115810D01*
X131229315Y-55393360D01*
X130953428Y-54725662D01*
X130443025Y-54214367D01*
X129775810Y-53937315D01*
X129053360Y-53936685D01*
X128385662Y-54212572D01*
X128369317Y-54228888D01*
X128394557Y-54102000D01*
X128252516Y-53387913D01*
X127881067Y-52832000D01*
X127952036Y-52725787D01*
X128208156Y-52982354D01*
X128824080Y-53238109D01*
X129490994Y-53238691D01*
X130107364Y-52984012D01*
X130118370Y-52973026D01*
X132969000Y-55823656D01*
X132969000Y-58039000D01*
X133075340Y-58573609D01*
X133227278Y-58801000D01*
X132227883Y-58801000D01*
X131760844Y-58333146D01*
X131144920Y-58077391D01*
X130478006Y-58076809D01*
X129861636Y-58331488D01*
X129389646Y-58802656D01*
X129133891Y-59418580D01*
X129133309Y-60085494D01*
X129236351Y-60334876D01*
X128751391Y-60431340D01*
X128298172Y-60734172D01*
X127336006Y-61696338D01*
X127303006Y-61696309D01*
X126686636Y-61950988D01*
X126214646Y-62422156D01*
X125958891Y-63038080D01*
X125958350Y-63657694D01*
X124485662Y-62185006D01*
X124485691Y-62152006D01*
X124231012Y-61535636D01*
X123759844Y-61063646D01*
X123143920Y-60807891D01*
X122477006Y-60807309D01*
X121860636Y-61061988D01*
X121388646Y-61533156D01*
X121323559Y-61689903D01*
X120015000Y-60381344D01*
X120015000Y-60274907D01*
X120262242Y-60522214D01*
X120843305Y-60762988D01*
X121094500Y-60602253D01*
X121094500Y-59245500D01*
X121221500Y-59245500D01*
X121221500Y-60602253D01*
X121472695Y-60762988D01*
X122053758Y-60522214D01*
X122498450Y-60077405D01*
X122738984Y-59496695D01*
X124911016Y-59496695D01*
X125151550Y-60077405D01*
X125596242Y-60522214D01*
X126177305Y-60762988D01*
X126428500Y-60602253D01*
X126428500Y-59245500D01*
X126555500Y-59245500D01*
X126555500Y-60602253D01*
X126806695Y-60762988D01*
X127387758Y-60522214D01*
X127832450Y-60077405D01*
X128072984Y-59496695D01*
X127912081Y-59245500D01*
X126555500Y-59245500D01*
X126428500Y-59245500D01*
X125071919Y-59245500D01*
X124911016Y-59496695D01*
X122738984Y-59496695D01*
X122578081Y-59245500D01*
X121221500Y-59245500D01*
X121094500Y-59245500D01*
X121074500Y-59245500D01*
X121074500Y-59118500D01*
X121094500Y-59118500D01*
X121094500Y-59098500D01*
X121221500Y-59098500D01*
X121221500Y-59118500D01*
X122578081Y-59118500D01*
X122738984Y-58867305D01*
X122498450Y-58286595D01*
X122309812Y-58097907D01*
X122514018Y-57961461D01*
X122918516Y-57356087D01*
X123060557Y-56642000D01*
X122918516Y-55927913D01*
X122547067Y-55372000D01*
X122918516Y-54816087D01*
X123060557Y-54102000D01*
X122918516Y-53387913D01*
X122547067Y-52832000D01*
X122872204Y-52345398D01*
X122874156Y-52347354D01*
X123490080Y-52603109D01*
X124156994Y-52603691D01*
X124773364Y-52349012D01*
X124777471Y-52344912D01*
X125102933Y-52832000D01*
X125102933Y-52832000D01*
G37*
X125102933Y-52832000D02*
X124731484Y-53387913D01*
X124589443Y-54102000D01*
X124731484Y-54816087D01*
X125102933Y-55372000D01*
X124731484Y-55927913D01*
X124589443Y-56642000D01*
X124731484Y-57356087D01*
X125135982Y-57961461D01*
X125340188Y-58097907D01*
X125151550Y-58286595D01*
X124911016Y-58867305D01*
X125071919Y-59118500D01*
X126428500Y-59118500D01*
X126428500Y-59098500D01*
X126555500Y-59098500D01*
X126555500Y-59118500D01*
X127912081Y-59118500D01*
X128072984Y-58867305D01*
X127832450Y-58286595D01*
X127643812Y-58097907D01*
X127848018Y-57961461D01*
X128252516Y-57356087D01*
X128284883Y-57193369D01*
X128382975Y-57291633D01*
X129050190Y-57568685D01*
X129772640Y-57569315D01*
X130440338Y-57293428D01*
X130951633Y-56783025D01*
X131228685Y-56115810D01*
X131229315Y-55393360D01*
X130953428Y-54725662D01*
X130443025Y-54214367D01*
X129775810Y-53937315D01*
X129053360Y-53936685D01*
X128385662Y-54212572D01*
X128369317Y-54228888D01*
X128394557Y-54102000D01*
X128252516Y-53387913D01*
X127881067Y-52832000D01*
X127952036Y-52725787D01*
X128208156Y-52982354D01*
X128824080Y-53238109D01*
X129490994Y-53238691D01*
X130107364Y-52984012D01*
X130118370Y-52973026D01*
X132969000Y-55823656D01*
X132969000Y-58039000D01*
X133075340Y-58573609D01*
X133227278Y-58801000D01*
X132227883Y-58801000D01*
X131760844Y-58333146D01*
X131144920Y-58077391D01*
X130478006Y-58076809D01*
X129861636Y-58331488D01*
X129389646Y-58802656D01*
X129133891Y-59418580D01*
X129133309Y-60085494D01*
X129236351Y-60334876D01*
X128751391Y-60431340D01*
X128298172Y-60734172D01*
X127336006Y-61696338D01*
X127303006Y-61696309D01*
X126686636Y-61950988D01*
X126214646Y-62422156D01*
X125958891Y-63038080D01*
X125958350Y-63657694D01*
X124485662Y-62185006D01*
X124485691Y-62152006D01*
X124231012Y-61535636D01*
X123759844Y-61063646D01*
X123143920Y-60807891D01*
X122477006Y-60807309D01*
X121860636Y-61061988D01*
X121388646Y-61533156D01*
X121323559Y-61689903D01*
X120015000Y-60381344D01*
X120015000Y-60274907D01*
X120262242Y-60522214D01*
X120843305Y-60762988D01*
X121094500Y-60602253D01*
X121094500Y-59245500D01*
X121221500Y-59245500D01*
X121221500Y-60602253D01*
X121472695Y-60762988D01*
X122053758Y-60522214D01*
X122498450Y-60077405D01*
X122738984Y-59496695D01*
X124911016Y-59496695D01*
X125151550Y-60077405D01*
X125596242Y-60522214D01*
X126177305Y-60762988D01*
X126428500Y-60602253D01*
X126428500Y-59245500D01*
X126555500Y-59245500D01*
X126555500Y-60602253D01*
X126806695Y-60762988D01*
X127387758Y-60522214D01*
X127832450Y-60077405D01*
X128072984Y-59496695D01*
X127912081Y-59245500D01*
X126555500Y-59245500D01*
X126428500Y-59245500D01*
X125071919Y-59245500D01*
X124911016Y-59496695D01*
X122738984Y-59496695D01*
X122578081Y-59245500D01*
X121221500Y-59245500D01*
X121094500Y-59245500D01*
X121074500Y-59245500D01*
X121074500Y-59118500D01*
X121094500Y-59118500D01*
X121094500Y-59098500D01*
X121221500Y-59098500D01*
X121221500Y-59118500D01*
X122578081Y-59118500D01*
X122738984Y-58867305D01*
X122498450Y-58286595D01*
X122309812Y-58097907D01*
X122514018Y-57961461D01*
X122918516Y-57356087D01*
X123060557Y-56642000D01*
X122918516Y-55927913D01*
X122547067Y-55372000D01*
X122918516Y-54816087D01*
X123060557Y-54102000D01*
X122918516Y-53387913D01*
X122547067Y-52832000D01*
X122872204Y-52345398D01*
X122874156Y-52347354D01*
X123490080Y-52603109D01*
X124156994Y-52603691D01*
X124773364Y-52349012D01*
X124777471Y-52344912D01*
X125102933Y-52832000D01*
G36*
X172001500Y-59118500D02*
X172021500Y-59118500D01*
X172021500Y-59245500D01*
X172001500Y-59245500D01*
X172001500Y-61150500D01*
X172021500Y-61150500D01*
X172021500Y-61277500D01*
X172001500Y-61277500D01*
X172001500Y-63182500D01*
X172021500Y-63182500D01*
X172021500Y-63309500D01*
X172001500Y-63309500D01*
X172001500Y-63329500D01*
X171874500Y-63329500D01*
X171874500Y-63309500D01*
X171854500Y-63309500D01*
X171854500Y-63182500D01*
X171874500Y-63182500D01*
X171874500Y-61277500D01*
X171854500Y-61277500D01*
X171854500Y-61150500D01*
X171874500Y-61150500D01*
X171874500Y-59245500D01*
X171854500Y-59245500D01*
X171854500Y-59118500D01*
X171874500Y-59118500D01*
X171874500Y-59098500D01*
X172001500Y-59098500D01*
X172001500Y-59118500D01*
X172001500Y-59118500D01*
G37*
X172001500Y-59118500D02*
X172021500Y-59118500D01*
X172021500Y-59245500D01*
X172001500Y-59245500D01*
X172001500Y-61150500D01*
X172021500Y-61150500D01*
X172021500Y-61277500D01*
X172001500Y-61277500D01*
X172001500Y-63182500D01*
X172021500Y-63182500D01*
X172021500Y-63309500D01*
X172001500Y-63309500D01*
X172001500Y-63329500D01*
X171874500Y-63329500D01*
X171874500Y-63309500D01*
X171854500Y-63309500D01*
X171854500Y-63182500D01*
X171874500Y-63182500D01*
X171874500Y-61277500D01*
X171854500Y-61277500D01*
X171854500Y-61150500D01*
X171874500Y-61150500D01*
X171874500Y-59245500D01*
X171854500Y-59245500D01*
X171854500Y-59118500D01*
X171874500Y-59118500D01*
X171874500Y-59098500D01*
X172001500Y-59098500D01*
X172001500Y-59118500D01*
G36*
X163223172Y-58391828D02*
X163676391Y-58694660D01*
X164211000Y-58801000D01*
X165029343Y-58801000D01*
X164521344Y-59309000D01*
X162941000Y-59309000D01*
X162466272Y-59403429D01*
X162406391Y-59415340D01*
X161953171Y-59718172D01*
X161445172Y-60226172D01*
X160636070Y-61035274D01*
X160410026Y-60696974D01*
X160410023Y-60696972D01*
X160397564Y-60684513D01*
X160172012Y-60138636D01*
X159700844Y-59666646D01*
X159084920Y-59410891D01*
X158511392Y-59410390D01*
X158466544Y-59340694D01*
X158440990Y-59323234D01*
X158486000Y-59214571D01*
X158486000Y-58567000D01*
X158295500Y-58376500D01*
X157162500Y-58376500D01*
X157162500Y-58396500D01*
X157035500Y-58396500D01*
X157035500Y-58376500D01*
X157015500Y-58376500D01*
X157015500Y-58249500D01*
X157035500Y-58249500D01*
X157035500Y-58229500D01*
X157162500Y-58229500D01*
X157162500Y-58249500D01*
X158295500Y-58249500D01*
X158486000Y-58059000D01*
X158486000Y-57658000D01*
X162489344Y-57658000D01*
X163223172Y-58391828D01*
X163223172Y-58391828D01*
G37*
X163223172Y-58391828D02*
X163676391Y-58694660D01*
X164211000Y-58801000D01*
X165029343Y-58801000D01*
X164521344Y-59309000D01*
X162941000Y-59309000D01*
X162466272Y-59403429D01*
X162406391Y-59415340D01*
X161953171Y-59718172D01*
X161445172Y-60226172D01*
X160636070Y-61035274D01*
X160410026Y-60696974D01*
X160410023Y-60696972D01*
X160397564Y-60684513D01*
X160172012Y-60138636D01*
X159700844Y-59666646D01*
X159084920Y-59410891D01*
X158511392Y-59410390D01*
X158466544Y-59340694D01*
X158440990Y-59323234D01*
X158486000Y-59214571D01*
X158486000Y-58567000D01*
X158295500Y-58376500D01*
X157162500Y-58376500D01*
X157162500Y-58396500D01*
X157035500Y-58396500D01*
X157035500Y-58376500D01*
X157015500Y-58376500D01*
X157015500Y-58249500D01*
X157035500Y-58249500D01*
X157035500Y-58229500D01*
X157162500Y-58229500D01*
X157162500Y-58249500D01*
X158295500Y-58249500D01*
X158486000Y-58059000D01*
X158486000Y-57658000D01*
X162489344Y-57658000D01*
X163223172Y-58391828D01*
G36*
X140549500Y-47241500D02*
X140569500Y-47241500D01*
X140569500Y-47368500D01*
X140549500Y-47368500D01*
X140549500Y-48276500D01*
X140740000Y-48467000D01*
X141587571Y-48467000D01*
X141867638Y-48350992D01*
X141958400Y-48260230D01*
X141833891Y-48560080D01*
X141833309Y-49226994D01*
X142021840Y-49683273D01*
X141820000Y-49818137D01*
X141283221Y-49459474D01*
X140550000Y-49313627D01*
X139816779Y-49459474D01*
X139195183Y-49874810D01*
X138811000Y-50449782D01*
X138811000Y-49542403D01*
X139018289Y-49239025D01*
X139099904Y-48836000D01*
X139099904Y-48346534D01*
X139104362Y-48350992D01*
X139384429Y-48467000D01*
X140232000Y-48467000D01*
X140422500Y-48276500D01*
X140422500Y-47368500D01*
X140402500Y-47368500D01*
X140402500Y-47241500D01*
X140422500Y-47241500D01*
X140422500Y-47221500D01*
X140549500Y-47221500D01*
X140549500Y-47241500D01*
X140549500Y-47241500D01*
G37*
X140549500Y-47241500D02*
X140569500Y-47241500D01*
X140569500Y-47368500D01*
X140549500Y-47368500D01*
X140549500Y-48276500D01*
X140740000Y-48467000D01*
X141587571Y-48467000D01*
X141867638Y-48350992D01*
X141958400Y-48260230D01*
X141833891Y-48560080D01*
X141833309Y-49226994D01*
X142021840Y-49683273D01*
X141820000Y-49818137D01*
X141283221Y-49459474D01*
X140550000Y-49313627D01*
X139816779Y-49459474D01*
X139195183Y-49874810D01*
X138811000Y-50449782D01*
X138811000Y-49542403D01*
X139018289Y-49239025D01*
X139099904Y-48836000D01*
X139099904Y-48346534D01*
X139104362Y-48350992D01*
X139384429Y-48467000D01*
X140232000Y-48467000D01*
X140422500Y-48276500D01*
X140422500Y-47368500D01*
X140402500Y-47368500D01*
X140402500Y-47241500D01*
X140422500Y-47241500D01*
X140422500Y-47221500D01*
X140549500Y-47221500D01*
X140549500Y-47241500D01*
M02*
