M48
;DRILL file {KiCad 4.0.6-e0-6349~53~ubuntu16.04.1} date Mon Aug 21 02:22:46 2017
;FORMAT={-:-/ absolute / metric / decimal}
FMAT,2
METRIC,TZ
T1C0.711
T2C0.800
T3C0.900
T4C1.000
T5C1.200
T6C1.300
T7C1.350
T8C1.520
T9C2.500
T10C3.500
%
G90
G05
M71
T1
X115.189Y-85.217
X115.824Y-68.58
X115.824Y-71.12
X115.824Y-78.232
X118.491Y-90.17
X118.618Y-51.562
X122.809Y-62.484
X123.825Y-50.927
X123.952Y-47.244
X127.635Y-63.373
X128.524Y-77.978
X128.778Y-101.092
X129.159Y-51.562
X130.81Y-59.753
X132.969Y-98.044
X133.604Y-63.246
X136.017Y-80.645
X136.144Y-70.993
X136.906Y-98.298
X139.446Y-49.149
X139.446Y-85.598
X139.827Y-82.296
X140.462Y-61.722
X142.494Y-67.437
X142.748Y-63.627
X143.51Y-48.895
X144.907Y-87.503
X145.034Y-76.2
X145.542Y-67.564
X146.05Y-93.345
X148.336Y-66.421
X149.606Y-65.151
X150.368Y-87.122
X154.178Y-87.122
X157.734Y-62.611
X158.75Y-61.087
X158.75Y-92.964
X158.877Y-100.457
X159.004Y-88.138
X160.274Y-83.312
X160.655Y-86.614
X164.084Y-66.294
X165.608Y-99.187
X165.735Y-67.056
X165.862Y-54.61
X166.116Y-64.643
X167.005Y-68.199
X167.386Y-61.214
X167.513Y-74.803
X167.513Y-76.581
X167.513Y-78.359
X167.513Y-80.137
X167.513Y-81.915
X167.513Y-83.693
X167.513Y-85.471
X167.513Y-87.249
X168.529Y-54.356
X169.164Y-65.087
X169.291Y-74.295
X171.069Y-54.356
X173.482Y-49.022
X174.117Y-77.724
X176.022Y-45.085
X176.149Y-65.024
X176.276Y-56.769
X178.054Y-72.39
X178.181Y-64.008
X178.181Y-70.739
X178.181Y-78.994
X178.308Y-49.022
X178.308Y-55.753
X178.308Y-62.23
T2
X120.65Y-67.437
X120.65Y-69.937
X126.238Y-103.378
X126.238Y-110.998
X128.778Y-103.378
X128.778Y-110.998
X129.413Y-55.753
X131.318Y-103.378
X131.318Y-110.998
X132.588Y-115.189
X132.588Y-119.761
X134.112Y-108.966
X137.033Y-55.753
X139.7Y-70.612
X139.7Y-75.512
X140.208Y-115.189
X140.208Y-119.761
X141.732Y-108.966
X154.051Y-103.378
X154.051Y-110.998
X156.591Y-103.378
X156.591Y-110.998
X159.131Y-103.378
X159.131Y-110.998
X160.401Y-115.316
X160.401Y-119.761
X162.941Y-109.22
X168.021Y-115.316
X168.021Y-119.761
X170.561Y-109.22
X171.831Y-68.199
X171.831Y-75.819
T3
X142.494Y-89.662
X142.494Y-92.202
X149.098Y-89.662
X149.098Y-92.202
X155.702Y-89.662
X155.702Y-92.202
X162.306Y-89.662
X162.306Y-92.202
T4
X109.427Y-92.075
X109.474Y-67.437
X109.474Y-69.977
X109.474Y-72.517
X114.427Y-92.075
X116.078Y-49.022
X116.078Y-51.562
X116.078Y-54.102
X116.078Y-56.642
X116.078Y-59.182
X121.158Y-49.022
X121.158Y-51.562
X121.158Y-54.102
X121.158Y-56.642
X121.158Y-59.182
X126.492Y-49.022
X126.492Y-51.562
X126.492Y-54.102
X126.492Y-56.642
X126.492Y-59.182
X127.127Y-115.951
X127.127Y-125.951
X128.778Y-88.9
X131.064Y-65.913
X131.064Y-68.453
X131.064Y-70.993
X131.064Y-75.565
X131.064Y-78.105
X131.064Y-80.645
X133.604Y-65.913
X133.604Y-68.453
X133.604Y-70.993
X133.604Y-75.565
X133.604Y-78.105
X133.604Y-80.645
X135.178Y-88.9
X136.398Y-88.9
X136.825Y-104.693
X137.668Y-112.014
X140.208Y-112.014
X142.748Y-112.014
X148.825Y-104.693
X155.321Y-115.951
X155.321Y-125.951
X164.511Y-104.693
X165.481Y-112.014
X168.021Y-112.014
X170.561Y-112.014
X176.511Y-104.693
X182.753Y-56.515
X182.753Y-59.055
X182.753Y-61.595
X182.753Y-64.77
X182.753Y-67.31
X182.753Y-69.85
X182.753Y-73.025
X182.753Y-75.565
X182.753Y-78.105
X184.658Y-110.49
X184.658Y-113.03
X184.785Y-89.027
X184.785Y-91.567
X184.785Y-94.107
X184.785Y-96.647
X184.785Y-99.187
X184.785Y-101.727
X184.785Y-104.267
X184.785Y-106.807
T5
X140.55Y-51.675
X143.09Y-51.675
X145.63Y-51.675
X148.17Y-51.675
X150.71Y-51.675
X153.25Y-51.675
X155.79Y-51.675
X158.33Y-51.675
X160.87Y-51.675
X163.41Y-51.675
X165.95Y-51.675
X168.49Y-51.675
X171.03Y-51.675
X173.57Y-51.675
X176.11Y-51.675
X178.65Y-51.675
T6
X136.825Y-116.893
X142.875Y-102.743
X148.875Y-116.943
X164.511Y-116.893
X170.561Y-102.743
X176.561Y-116.943
T7
X119.126Y-80.772
X119.126Y-96.092
X121.666Y-78.232
X121.666Y-83.312
X121.666Y-93.552
X121.666Y-98.632
X124.206Y-80.772
X124.206Y-96.092
T8
X110.617Y-101.092
X110.617Y-106.172
X137.668Y-125.984
X142.748Y-125.984
X147.828Y-125.984
X165.481Y-125.984
X170.561Y-125.984
X175.641Y-125.984
T9
X109.05Y-52.185
X109.05Y-83.205
X184.15Y-52.185
X184.15Y-83.185
T10
X110.998Y-45.085
X110.998Y-124.968
X184.531Y-45.085
X184.531Y-124.968
T0
M30
